<svg width="81" height="81" viewBox="0 0 81 81" fill="none" xmlns="http://www.w3.org/2000/svg">
<path d="M25.043 16.4609C29.3037 13.8123 36.1585 12.208 41.2979 20.9531L64.5195 66.9668L53.0977 57.4863C50.7183 55.5116 47.8267 54.2859 44.915 53.2451C38.6196 50.9947 30.4153 45.8706 28.3037 36.4287C27.4957 32.8155 26.3342 25.6426 23.5166 22.5566C22.8117 21.7846 21.811 21.3911 20.8232 21.0488L6.43359 16.0635L20.915 17.5605C22.3697 17.7109 23.801 17.2331 25.043 16.4609ZM45.6523 25.7656C49.5124 22.0234 60.8802 15.1668 75.2217 17.7529L51.8125 37.9746L45.6523 25.7656ZM28.8057 17.7285C27.4655 17.7285 26.3789 18.8151 26.3789 20.1553C26.379 21.4954 27.4655 22.582 28.8057 22.582C30.1457 22.582 31.2324 21.4954 31.2324 20.1553C31.2324 18.8151 30.1458 17.7286 28.8057 17.7285Z" fill="url(#paint0_linear_34438_68475)"/>
<defs>
<linearGradient id="paint0_linear_34438_68475" x1="36.9943" y1="-4.38156" x2="80.6618" y2="99.0588" gradientUnits="userSpaceOnUse">
<stop stop-color="#1E90FF"/>
<stop offset="0.5" stop-color="#0074E6"/>
<stop offset="1" stop-color="#003970"/>
</linearGradient>
</defs>
</svg>
