<svg width="81" height="81" viewBox="0 0 81 81" fill="none" xmlns="http://www.w3.org/2000/svg">
<path d="M24.375 16.4609C28.6357 13.8123 35.4905 12.208 40.6299 20.9531L63.8516 66.9668L52.4297 57.4863C50.0504 55.5116 47.1587 54.2859 44.2471 53.2451C37.9516 50.9947 29.7473 45.8706 27.6357 36.4287C26.8277 32.8155 25.6662 25.6426 22.8486 22.5566C22.1437 21.7846 21.1431 21.3911 20.1553 21.0488L5.76562 16.0635L20.2471 17.5605C21.7017 17.7109 23.133 17.2331 24.375 16.4609ZM44.9844 25.7656C48.8445 22.0234 60.2123 15.1668 74.5537 17.7529L51.1445 37.9746L44.9844 25.7656ZM28.1377 17.7285C26.7975 17.7285 25.7109 18.8151 25.7109 20.1553C25.711 21.4954 26.7976 22.582 28.1377 22.582C29.4778 22.582 30.5644 21.4954 30.5645 20.1553C30.5645 18.8151 29.4778 17.7286 28.1377 17.7285Z" fill="white"/>
</svg>
