<svg width="251" height="51" viewBox="0 0 251 51" fill="none" xmlns="http://www.w3.org/2000/svg">
<g clip-path="url(#clip0_34438_68456)">
<path d="M15.9668 10.7617C18.6297 9.10624 22.9138 8.10282 26.126 13.5684L40.6396 42.3271L33.501 36.4023C32.0139 35.1681 30.2065 34.4015 28.3867 33.751C24.4522 32.3445 19.3248 29.1419 18.0049 23.2412C17.4999 20.9831 16.7735 16.5002 15.0127 14.5713C14.5722 14.0888 13.9465 13.8428 13.3291 13.6289L4.33594 10.5127L13.3867 11.4482C14.2958 11.5422 15.1906 11.2442 15.9668 10.7617ZM28.8477 16.5771C31.2601 14.2383 38.3647 9.9521 47.3281 11.5684L32.6982 24.207L28.8477 16.5771ZM18.3174 11.5527C17.4798 11.5528 16.8008 12.2317 16.8008 13.0693C16.8008 13.9069 17.4798 14.5859 18.3174 14.5859C19.155 14.5859 19.834 13.907 19.834 13.0693C19.834 12.2317 19.155 11.5527 18.3174 11.5527Z" fill="url(#paint0_linear_34438_68456)"/>
<path d="M62.722 36.3887V15.3887H66.082V36.3887H62.722ZM72.892 36.3887V28.7087H76.252V36.3887H72.892ZM72.892 28.7087C72.892 27.5087 72.752 26.5887 72.472 25.9487C72.192 25.2887 71.802 24.8287 71.302 24.5687C70.822 24.3087 70.262 24.1787 69.622 24.1787C68.482 24.1587 67.602 24.5287 66.982 25.2887C66.382 26.0487 66.082 27.1387 66.082 28.5587H64.792C64.792 26.9787 65.022 25.6287 65.482 24.5087C65.962 23.3687 66.632 22.5087 67.492 21.9287C68.352 21.3287 69.372 21.0287 70.552 21.0287C71.732 21.0287 72.752 21.2687 73.612 21.7487C74.472 22.2287 75.122 22.9787 75.562 23.9987C76.022 24.9987 76.252 26.3087 76.252 27.9287V28.7087H72.892ZM89.0799 36.3887L88.8999 33.6287V21.3887H92.2299V36.3887H89.0799ZM78.6999 29.0687V21.3887H82.0599V29.0687H78.6999ZM82.0599 29.0687C82.0599 30.2487 82.1999 31.1687 82.4799 31.8287C82.7599 32.4887 83.1399 32.9487 83.6199 33.2087C84.1199 33.4687 84.6899 33.5987 85.3299 33.5987C86.4699 33.6187 87.3499 33.2487 87.9699 32.4887C88.5899 31.7287 88.8999 30.6387 88.8999 29.2187H90.1599C90.1599 30.7987 89.9199 32.1587 89.4399 33.2987C88.9799 34.4187 88.3199 35.2787 87.4599 35.8787C86.6199 36.4587 85.5999 36.7487 84.3999 36.7487C83.2199 36.7487 82.1999 36.5087 81.3399 36.0287C80.4999 35.5487 79.8499 34.7987 79.3899 33.7787C78.9299 32.7587 78.6999 31.4487 78.6999 29.8487V29.0687H82.0599ZM95.3385 36.3887V21.3887H98.4885L98.6385 23.3987C99.0985 22.6187 99.6885 22.0287 100.409 21.6287C101.129 21.2287 101.949 21.0287 102.869 21.0287C104.069 21.0287 105.089 21.2987 105.929 21.8387C106.769 22.3787 107.379 23.1987 107.759 24.2987C108.199 23.2387 108.819 22.4287 109.619 21.8687C110.419 21.3087 111.359 21.0287 112.439 21.0287C114.179 21.0287 115.519 21.5887 116.459 22.7087C117.399 23.8087 117.859 25.5087 117.839 27.8087V36.3887H114.509V28.7087C114.509 27.5087 114.379 26.5887 114.119 25.9487C113.859 25.2887 113.509 24.8287 113.069 24.5687C112.629 24.3087 112.119 24.1787 111.539 24.1787C110.499 24.1587 109.689 24.5287 109.109 25.2887C108.549 26.0487 108.269 27.1387 108.269 28.5587V36.3887H104.909V28.7087C104.909 27.5087 104.779 26.5887 104.519 25.9487C104.279 25.2887 103.939 24.8287 103.499 24.5687C103.059 24.3087 102.549 24.1787 101.969 24.1787C100.929 24.1587 100.119 24.5287 99.5385 25.2887C98.9785 26.0487 98.6985 27.1387 98.6985 28.5587V36.3887H95.3385ZM120.641 36.3887V21.3887H123.791L123.941 23.3987C124.401 22.6187 124.991 22.0287 125.711 21.6287C126.431 21.2287 127.251 21.0287 128.171 21.0287C129.371 21.0287 130.391 21.2987 131.231 21.8387C132.071 22.3787 132.681 23.1987 133.061 24.2987C133.501 23.2387 134.121 22.4287 134.921 21.8687C135.721 21.3087 136.661 21.0287 137.741 21.0287C139.481 21.0287 140.821 21.5887 141.761 22.7087C142.701 23.8087 143.161 25.5087 143.141 27.8087V36.3887H139.811V28.7087C139.811 27.5087 139.681 26.5887 139.421 25.9487C139.161 25.2887 138.811 24.8287 138.371 24.5687C137.931 24.3087 137.421 24.1787 136.841 24.1787C135.801 24.1587 134.991 24.5287 134.411 25.2887C133.851 26.0487 133.571 27.1387 133.571 28.5587V36.3887H130.211V28.7087C130.211 27.5087 130.081 26.5887 129.821 25.9487C129.581 25.2887 129.241 24.8287 128.801 24.5687C128.361 24.3087 127.851 24.1787 127.271 24.1787C126.231 24.1587 125.421 24.5287 124.841 25.2887C124.281 26.0487 124.001 27.1387 124.001 28.5587V36.3887H120.641ZM146.154 36.3887V21.3887H149.484V36.3887H146.154ZM147.834 18.5387C147.294 18.5387 146.824 18.3487 146.424 17.9687C146.044 17.5687 145.854 17.0987 145.854 16.5587C145.854 16.0187 146.044 15.5587 146.424 15.1787C146.824 14.7987 147.294 14.6087 147.834 14.6087C148.374 14.6087 148.834 14.7987 149.214 15.1787C149.614 15.5587 149.814 16.0187 149.814 16.5587C149.814 17.0987 149.614 17.5687 149.214 17.9687C148.834 18.3487 148.374 18.5387 147.834 18.5387ZM152.819 36.3887V21.3887H155.969L156.179 24.1487V36.3887H152.819ZM162.989 36.3887V28.7087H166.349V36.3887H162.989ZM162.989 28.7087C162.989 27.5087 162.849 26.5887 162.569 25.9487C162.309 25.2887 161.929 24.8287 161.429 24.5687C160.949 24.3087 160.379 24.1787 159.719 24.1787C158.599 24.1587 157.729 24.5287 157.109 25.2887C156.489 26.0487 156.179 27.1387 156.179 28.5587H154.919C154.919 26.9787 155.149 25.6287 155.609 24.5087C156.069 23.3687 156.729 22.5087 157.589 21.9287C158.449 21.3287 159.469 21.0287 160.649 21.0287C161.849 21.0287 162.869 21.2687 163.709 21.7487C164.569 22.2287 165.219 22.9787 165.659 23.9987C166.119 24.9987 166.349 26.3087 166.349 27.9287V28.7087H162.989ZM175.578 42.7787C174.518 42.7787 173.558 42.6887 172.698 42.5087C171.858 42.3287 171.148 42.1187 170.568 41.8787C169.988 41.6387 169.538 41.4087 169.218 41.1887L170.508 38.4887C170.788 38.6287 171.158 38.7987 171.618 38.9987C172.098 39.2187 172.658 39.4087 173.298 39.5687C173.938 39.7287 174.658 39.8087 175.458 39.8087C176.318 39.8087 177.088 39.6287 177.768 39.2687C178.448 38.9287 178.978 38.3987 179.358 37.6787C179.738 36.9587 179.928 36.0387 179.928 34.9187V21.3887H183.288V34.8287C183.288 36.5287 182.968 37.9687 182.328 39.1487C181.688 40.3487 180.788 41.2487 179.628 41.8487C178.468 42.4687 177.118 42.7787 175.578 42.7787ZM175.068 36.0887C173.708 36.0887 172.518 35.7787 171.498 35.1587C170.498 34.5387 169.708 33.6787 169.128 32.5787C168.568 31.4587 168.288 30.1687 168.288 28.7087C168.288 27.1487 168.568 25.7987 169.128 24.6587C169.708 23.5187 170.498 22.6287 171.498 21.9887C172.518 21.3487 173.708 21.0287 175.068 21.0287C176.288 21.0287 177.348 21.3487 178.248 21.9887C179.168 22.6287 179.878 23.5287 180.378 24.6887C180.878 25.8287 181.128 27.1787 181.128 28.7387C181.128 30.2187 180.878 31.5087 180.378 32.6087C179.878 33.7087 179.168 34.5687 178.248 35.1887C177.348 35.7887 176.288 36.0887 175.068 36.0887ZM175.998 33.2387C176.758 33.2387 177.418 33.0387 177.978 32.6387C178.558 32.2387 179.008 31.6987 179.328 31.0187C179.648 30.3187 179.808 29.5187 179.808 28.6187C179.808 27.6987 179.648 26.8987 179.328 26.2187C179.008 25.5187 178.558 24.9787 177.978 24.5987C177.398 24.1987 176.728 23.9987 175.968 23.9987C175.168 23.9987 174.458 24.1987 173.838 24.5987C173.238 24.9787 172.758 25.5187 172.398 26.2187C172.058 26.8987 171.888 27.6987 171.888 28.6187C171.888 29.5187 172.058 30.3187 172.398 31.0187C172.758 31.6987 173.248 32.2387 173.868 32.6387C174.488 33.0387 175.198 33.2387 175.998 33.2387ZM186.374 36.3887V15.3887H189.734V33.5987L189.554 36.3887H186.374ZM194.474 36.7487C193.214 36.7487 192.124 36.4287 191.204 35.7887C190.304 35.1287 189.614 34.2087 189.134 33.0287C188.654 31.8487 188.414 30.4687 188.414 28.8887C188.414 27.2887 188.654 25.9087 189.134 24.7487C189.614 23.5687 190.304 22.6587 191.204 22.0187C192.124 21.3587 193.214 21.0287 194.474 21.0287C195.834 21.0287 197.014 21.3587 198.014 22.0187C199.034 22.6587 199.824 23.5687 200.384 24.7487C200.964 25.9087 201.254 27.2887 201.254 28.8887C201.254 30.4687 200.964 31.8487 200.384 33.0287C199.824 34.2087 199.034 35.1287 198.014 35.7887C197.014 36.4287 195.834 36.7487 194.474 36.7487ZM193.634 33.6887C194.434 33.6887 195.144 33.4887 195.764 33.0887C196.384 32.6687 196.874 32.0987 197.234 31.3787C197.614 30.6587 197.804 29.8287 197.804 28.8887C197.804 27.9487 197.624 27.1187 197.264 26.3987C196.924 25.6787 196.444 25.1187 195.824 24.7187C195.204 24.3187 194.484 24.1187 193.664 24.1187C192.904 24.1187 192.224 24.3187 191.624 24.7187C191.024 25.1187 190.554 25.6787 190.214 26.3987C189.894 27.1187 189.734 27.9487 189.734 28.8887C189.734 29.8287 189.894 30.6587 190.214 31.3787C190.554 32.0987 191.014 32.6687 191.594 33.0887C192.194 33.4887 192.874 33.6887 193.634 33.6887ZM203.713 36.3887V21.3887H207.043V36.3887H203.713ZM205.393 18.5387C204.853 18.5387 204.383 18.3487 203.983 17.9687C203.603 17.5687 203.413 17.0987 203.413 16.5587C203.413 16.0187 203.603 15.5587 203.983 15.1787C204.383 14.7987 204.853 14.6087 205.393 14.6087C205.933 14.6087 206.393 14.7987 206.773 15.1787C207.173 15.5587 207.373 16.0187 207.373 16.5587C207.373 17.0987 207.173 17.5687 206.773 17.9687C206.393 18.3487 205.933 18.5387 205.393 18.5387ZM212.598 28.4087C212.598 26.7887 212.908 25.4587 213.528 24.4187C214.148 23.3787 214.948 22.6087 215.928 22.1087C216.928 21.5887 217.968 21.3287 219.048 21.3287V24.5387C218.128 24.5387 217.258 24.6687 216.438 24.9287C215.638 25.1687 214.988 25.5687 214.488 26.1287C213.988 26.6887 213.738 27.4287 213.738 28.3487L212.598 28.4087ZM210.378 36.3887V21.3887H213.738V36.3887H210.378ZM231.481 36.3887L231.331 33.5987V15.3887H234.661V36.3887H231.481ZM226.591 36.7487C225.231 36.7487 224.041 36.4287 223.021 35.7887C222.021 35.1287 221.231 34.2087 220.651 33.0287C220.091 31.8487 219.811 30.4687 219.811 28.8887C219.811 27.2887 220.091 25.9087 220.651 24.7487C221.231 23.5687 222.021 22.6587 223.021 22.0187C224.041 21.3587 225.231 21.0287 226.591 21.0287C227.851 21.0287 228.931 21.3587 229.831 22.0187C230.751 22.6587 231.451 23.5687 231.931 24.7487C232.411 25.9087 232.651 27.2887 232.651 28.8887C232.651 30.4687 232.411 31.8487 231.931 33.0287C231.451 34.2087 230.751 35.1287 229.831 35.7887C228.931 36.4287 227.851 36.7487 226.591 36.7487ZM227.431 33.6887C228.191 33.6887 228.861 33.4887 229.441 33.0887C230.041 32.6687 230.501 32.0987 230.821 31.3787C231.161 30.6587 231.331 29.8287 231.331 28.8887C231.331 27.9487 231.161 27.1187 230.821 26.3987C230.501 25.6787 230.041 25.1187 229.441 24.7187C228.861 24.3187 228.181 24.1187 227.401 24.1187C226.601 24.1187 225.891 24.3187 225.271 24.7187C224.651 25.1187 224.161 25.6787 223.801 26.3987C223.461 27.1187 223.281 27.9487 223.261 28.8887C223.281 29.8287 223.461 30.6587 223.801 31.3787C224.161 32.0987 224.651 32.6687 225.271 33.0887C225.911 33.4887 226.631 33.6887 227.431 33.6887Z" fill="#4D595E"/>
</g>
<defs>
<linearGradient id="paint0_linear_34438_68456" x1="23.4362" y1="-2.26519" x2="50.7281" y2="62.3843" gradientUnits="userSpaceOnUse">
<stop stop-color="#1E90FF"/>
<stop offset="0.5" stop-color="#0074E6"/>
<stop offset="1" stop-color="#003970"/>
</linearGradient>
<clipPath id="clip0_34438_68456">
<rect width="250" height="50" fill="white" transform="translate(0.832031 0.888672)"/>
</clipPath>
</defs>
</svg>
