<svg width="40" height="40" viewBox="0 0 40 40" fill="none" xmlns="http://www.w3.org/2000/svg">
<rect width="40" height="40" rx="10" fill="url(#paint0_linear_38612_27515)"/>
<path d="M13.5742 10.148C15.3085 9.07008 18.0988 8.41696 20.1904 11.9761L29.6416 30.7056L24.9932 26.8462C24.0248 26.0425 22.8471 25.5433 21.6621 25.1196C19.0997 24.2036 15.7608 22.1178 14.9014 18.2749C14.5725 16.8042 14.0998 13.8845 12.9531 12.6284C12.6663 12.3143 12.2584 12.1544 11.8564 12.0152L6 9.98586L11.8936 10.5952C12.4855 10.6563 13.0688 10.4622 13.5742 10.148ZM21.9648 13.9341C23.5364 12.4108 28.1632 9.61995 34 10.6724L24.4727 18.9038L21.9648 13.9341ZM15.1016 10.6636C14.5561 10.6636 14.1143 11.1064 14.1143 11.6519C14.1144 12.1972 14.5562 12.6392 15.1016 12.6392C15.6469 12.6391 16.0887 12.1972 16.0889 11.6519C16.0889 11.1064 15.647 10.6636 15.1016 10.6636Z" fill="white"/>
<defs>
<linearGradient id="paint0_linear_38612_27515" x1="-7.79363e-08" y1="0.379624" x2="40.0028" y2="39.6176" gradientUnits="userSpaceOnUse">
<stop stop-color="#58C4DC"/>
<stop offset="1" stop-color="#087EA4"/>
</linearGradient>
</defs>
</svg>
