<svg width="81" height="81" viewBox="0 0 81 81" fill="none" xmlns="http://www.w3.org/2000/svg">
<path d="M24.7109 16.4609C28.9716 13.8123 35.8265 12.208 40.9658 20.9531L64.1875 66.9668L52.7656 57.4863C50.3863 55.5116 47.4946 54.2859 44.583 53.2451C38.2875 50.9947 30.0832 45.8706 27.9717 36.4287C27.1637 32.8155 26.0021 25.6426 23.1846 22.5566C22.4797 21.7846 21.479 21.3911 20.4912 21.0488L6.10156 16.0635L20.583 17.5605C22.0377 17.7109 23.469 17.2331 24.7109 16.4609ZM45.3203 25.7656C49.1804 22.0234 60.5482 15.1668 74.8896 17.7529L51.4805 37.9746L45.3203 25.7656ZM28.4736 17.7285C27.1334 17.7285 26.0469 18.8151 26.0469 20.1553C26.0469 21.4954 27.1335 22.582 28.4736 22.582C29.8137 22.582 30.9003 21.4954 30.9004 20.1553C30.9004 18.8151 29.8138 17.7286 28.4736 17.7285Z" fill="black"/>
</svg>
