<svg width="200" height="41" viewBox="0 0 200 41" fill="none" xmlns="http://www.w3.org/2000/svg">
<g clip-path="url(#clip0_34560_76169)">
<g clip-path="url(#clip1_34560_76169)">
<g filter="url(#filter0_d_34560_76169)">
<path d="M12.1055 7.99219C14.2358 6.66786 17.6637 5.86575 20.2334 10.2383L31.8438 33.2451L26.1328 28.5049C24.9433 27.5176 23.4976 26.9051 22.042 26.3848C18.8942 25.2596 14.7911 22.6966 13.7354 17.9756C13.3314 16.1689 12.7513 12.583 11.3428 11.04C10.9903 10.654 10.489 10.4573 9.99512 10.2861L2.80078 7.79297L10.041 8.54199C10.7684 8.61718 11.4845 8.37826 12.1055 7.99219ZM22.4102 12.6445C24.3401 10.7735 30.0237 7.34478 37.1943 8.6377L25.4902 18.748L22.4102 12.6445ZM13.9863 8.625C13.3164 8.62523 12.7734 9.16891 12.7734 9.83887C12.7735 10.5087 13.3165 11.0515 13.9863 11.0518C14.6564 11.0518 15.2001 10.5089 15.2002 9.83887C15.2002 9.16877 14.6564 8.625 13.9863 8.625Z" fill="url(#paint0_linear_34560_76169)"/>
</g>
</g>
<g filter="url(#filter1_d_34560_76169)">
<path d="M49.512 28.0938V11.2937H52.2V28.0938H49.512ZM57.648 28.0938V21.9497H60.336V28.0938H57.648ZM57.648 21.9497C57.648 20.9897 57.536 20.2537 57.312 19.7417C57.088 19.2137 56.776 18.8457 56.376 18.6377C55.992 18.4297 55.544 18.3257 55.032 18.3257C54.12 18.3097 53.416 18.6057 52.92 19.2137C52.44 19.8217 52.2 20.6937 52.2 21.8297H51.168C51.168 20.5657 51.352 19.4857 51.72 18.5897C52.104 17.6777 52.64 16.9897 53.328 16.5257C54.016 16.0457 54.832 15.8057 55.776 15.8057C56.72 15.8057 57.536 15.9977 58.224 16.3817C58.912 16.7657 59.432 17.3657 59.784 18.1817C60.152 18.9817 60.336 20.0297 60.336 21.3257V21.9497H57.648ZM70.5983 28.0938L70.4543 25.8857V16.0938H73.1183V28.0938H70.5983ZM62.2943 22.2377V16.0938H64.9823V22.2377H62.2943ZM64.9823 22.2377C64.9823 23.1817 65.0943 23.9177 65.3183 24.4457C65.5423 24.9737 65.8463 25.3417 66.2303 25.5497C66.6303 25.7577 67.0863 25.8617 67.5983 25.8617C68.5103 25.8777 69.2143 25.5817 69.7103 24.9737C70.2063 24.3657 70.4543 23.4937 70.4543 22.3577H71.4623C71.4623 23.6217 71.2703 24.7097 70.8863 25.6217C70.5183 26.5177 69.9903 27.2057 69.3023 27.6857C68.6303 28.1497 67.8143 28.3818 66.8543 28.3818C65.9103 28.3818 65.0943 28.1898 64.4063 27.8057C63.7343 27.4217 63.2143 26.8217 62.8463 26.0057C62.4783 25.1897 62.2943 24.1417 62.2943 22.8617V22.2377H64.9823ZM75.6052 28.0938V16.0938H78.1252L78.2452 17.7017C78.6132 17.0777 79.0852 16.6057 79.6612 16.2857C80.2372 15.9657 80.8932 15.8057 81.6292 15.8057C82.5892 15.8057 83.4052 16.0217 84.0772 16.4537C84.7492 16.8857 85.2372 17.5417 85.5412 18.4217C85.8932 17.5737 86.3892 16.9257 87.0292 16.4777C87.6692 16.0297 88.4212 15.8057 89.2852 15.8057C90.6772 15.8057 91.7492 16.2537 92.5012 17.1497C93.2532 18.0297 93.6212 19.3897 93.6052 21.2297V28.0938H90.9412V21.9497C90.9412 20.9897 90.8372 20.2537 90.6292 19.7417C90.4212 19.2137 90.1412 18.8457 89.7892 18.6377C89.4372 18.4297 89.0292 18.3257 88.5652 18.3257C87.7332 18.3097 87.0852 18.6057 86.6212 19.2137C86.1732 19.8217 85.9492 20.6937 85.9492 21.8297V28.0938H83.2612V21.9497C83.2612 20.9897 83.1572 20.2537 82.9492 19.7417C82.7572 19.2137 82.4852 18.8457 82.1332 18.6377C81.7812 18.4297 81.3732 18.3257 80.9092 18.3257C80.0772 18.3097 79.4292 18.6057 78.9652 19.2137C78.5172 19.8217 78.2932 20.6937 78.2932 21.8297V28.0938H75.6052ZM95.8474 28.0938V16.0938H98.3674L98.4874 17.7017C98.8554 17.0777 99.3274 16.6057 99.9034 16.2857C100.479 15.9657 101.135 15.8057 101.871 15.8057C102.831 15.8057 103.647 16.0217 104.319 16.4537C104.991 16.8857 105.479 17.5417 105.783 18.4217C106.135 17.5737 106.631 16.9257 107.271 16.4777C107.911 16.0297 108.663 15.8057 109.527 15.8057C110.919 15.8057 111.991 16.2537 112.743 17.1497C113.495 18.0297 113.863 19.3897 113.847 21.2297V28.0938H111.183V21.9497C111.183 20.9897 111.079 20.2537 110.871 19.7417C110.663 19.2137 110.383 18.8457 110.031 18.6377C109.679 18.4297 109.271 18.3257 108.807 18.3257C107.975 18.3097 107.327 18.6057 106.863 19.2137C106.415 19.8217 106.191 20.6937 106.191 21.8297V28.0938H103.503V21.9497C103.503 20.9897 103.399 20.2537 103.191 19.7417C102.999 19.2137 102.727 18.8457 102.375 18.6377C102.023 18.4297 101.615 18.3257 101.151 18.3257C100.319 18.3097 99.6714 18.6057 99.2074 19.2137C98.7594 19.8217 98.5354 20.6937 98.5354 21.8297V28.0938H95.8474ZM116.258 28.0938V16.0938H118.922V28.0938H116.258ZM117.602 13.8137C117.17 13.8137 116.794 13.6617 116.474 13.3577C116.17 13.0377 116.018 12.6617 116.018 12.2297C116.018 11.7977 116.17 11.4297 116.474 11.1257C116.794 10.8217 117.17 10.6697 117.602 10.6697C118.034 10.6697 118.402 10.8217 118.706 11.1257C119.026 11.4297 119.186 11.7977 119.186 12.2297C119.186 12.6617 119.026 13.0377 118.706 13.3577C118.402 13.6617 118.034 13.8137 117.602 13.8137ZM121.59 28.0938V16.0938H124.11L124.278 18.3017V28.0938H121.59ZM129.726 28.0938V21.9497H132.414V28.0938H129.726ZM129.726 21.9497C129.726 20.9897 129.614 20.2537 129.39 19.7417C129.182 19.2137 128.878 18.8457 128.478 18.6377C128.094 18.4297 127.638 18.3257 127.11 18.3257C126.214 18.3097 125.518 18.6057 125.022 19.2137C124.526 19.8217 124.278 20.6937 124.278 21.8297H123.27C123.27 20.5657 123.454 19.4857 123.822 18.5897C124.19 17.6777 124.718 16.9897 125.406 16.5257C126.094 16.0457 126.91 15.8057 127.854 15.8057C128.814 15.8057 129.63 15.9977 130.302 16.3817C130.99 16.7657 131.51 17.3657 131.862 18.1817C132.23 18.9817 132.414 20.0297 132.414 21.3257V21.9497H129.726ZM139.796 33.2058C138.948 33.2058 138.18 33.1338 137.492 32.9898C136.82 32.8458 136.252 32.6778 135.788 32.4858C135.324 32.2938 134.964 32.1098 134.708 31.9338L135.74 29.7738C135.964 29.8858 136.26 30.0218 136.628 30.1818C137.012 30.3578 137.46 30.5098 137.972 30.6378C138.484 30.7658 139.06 30.8298 139.7 30.8298C140.388 30.8298 141.004 30.6858 141.548 30.3978C142.092 30.1258 142.516 29.7018 142.82 29.1258C143.124 28.5498 143.276 27.8137 143.276 26.9177V16.0938H145.964V26.8457C145.964 28.2057 145.708 29.3578 145.196 30.3018C144.684 31.2618 143.964 31.9818 143.036 32.4618C142.108 32.9578 141.028 33.2058 139.796 33.2058ZM139.388 27.8537C138.3 27.8537 137.348 27.6057 136.532 27.1097C135.732 26.6137 135.1 25.9257 134.636 25.0457C134.188 24.1497 133.964 23.1177 133.964 21.9497C133.964 20.7017 134.188 19.6217 134.636 18.7097C135.1 17.7977 135.732 17.0857 136.532 16.5737C137.348 16.0617 138.3 15.8057 139.388 15.8057C140.364 15.8057 141.212 16.0617 141.932 16.5737C142.668 17.0857 143.236 17.8057 143.636 18.7337C144.036 19.6457 144.236 20.7257 144.236 21.9737C144.236 23.1577 144.036 24.1897 143.636 25.0697C143.236 25.9497 142.668 26.6377 141.932 27.1337C141.212 27.6137 140.364 27.8537 139.388 27.8537ZM140.132 25.5737C140.74 25.5737 141.268 25.4137 141.716 25.0938C142.18 24.7737 142.54 24.3417 142.796 23.7977C143.052 23.2377 143.18 22.5977 143.18 21.8777C143.18 21.1417 143.052 20.5017 142.796 19.9577C142.54 19.3977 142.18 18.9657 141.716 18.6617C141.252 18.3417 140.716 18.1817 140.108 18.1817C139.468 18.1817 138.9 18.3417 138.404 18.6617C137.924 18.9657 137.54 19.3977 137.252 19.9577C136.98 20.5017 136.844 21.1417 136.844 21.8777C136.844 22.5977 136.98 23.2377 137.252 23.7977C137.54 24.3417 137.932 24.7737 138.428 25.0938C138.924 25.4137 139.492 25.5737 140.132 25.5737ZM148.433 28.0938V11.2937H151.121V25.8617L150.977 28.0938H148.433ZM154.913 28.3818C153.905 28.3818 153.033 28.1257 152.297 27.6137C151.577 27.0857 151.025 26.3497 150.641 25.4057C150.257 24.4617 150.065 23.3577 150.065 22.0938C150.065 20.8137 150.257 19.7097 150.641 18.7817C151.025 17.8377 151.577 17.1097 152.297 16.5977C153.033 16.0697 153.905 15.8057 154.913 15.8057C156.001 15.8057 156.945 16.0697 157.745 16.5977C158.561 17.1097 159.193 17.8377 159.641 18.7817C160.105 19.7097 160.337 20.8137 160.337 22.0938C160.337 23.3577 160.105 24.4617 159.641 25.4057C159.193 26.3497 158.561 27.0857 157.745 27.6137C156.945 28.1257 156.001 28.3818 154.913 28.3818ZM154.241 25.9337C154.881 25.9337 155.449 25.7737 155.945 25.4537C156.441 25.1177 156.833 24.6617 157.121 24.0857C157.425 23.5097 157.577 22.8457 157.577 22.0938C157.577 21.3417 157.433 20.6777 157.145 20.1017C156.873 19.5257 156.489 19.0777 155.993 18.7577C155.497 18.4377 154.921 18.2777 154.265 18.2777C153.657 18.2777 153.113 18.4377 152.633 18.7577C152.153 19.0777 151.777 19.5257 151.505 20.1017C151.249 20.6777 151.121 21.3417 151.121 22.0938C151.121 22.8457 151.249 23.5097 151.505 24.0857C151.777 24.6617 152.145 25.1177 152.609 25.4537C153.089 25.7737 153.633 25.9337 154.241 25.9337ZM162.304 28.0938V16.0938H164.968V28.0938H162.304ZM163.648 13.8137C163.216 13.8137 162.84 13.6617 162.52 13.3577C162.216 13.0377 162.064 12.6617 162.064 12.2297C162.064 11.7977 162.216 11.4297 162.52 11.1257C162.84 10.8217 163.216 10.6697 163.648 10.6697C164.08 10.6697 164.448 10.8217 164.752 11.1257C165.072 11.4297 165.232 11.7977 165.232 12.2297C165.232 12.6617 165.072 13.0377 164.752 13.3577C164.448 13.6617 164.08 13.8137 163.648 13.8137ZM169.412 21.7097C169.412 20.4137 169.66 19.3497 170.156 18.5177C170.652 17.6857 171.292 17.0697 172.076 16.6697C172.876 16.2537 173.708 16.0457 174.572 16.0457V18.6137C173.836 18.6137 173.14 18.7177 172.484 18.9257C171.844 19.1177 171.324 19.4377 170.924 19.8857C170.524 20.3337 170.324 20.9257 170.324 21.6617L169.412 21.7097ZM167.636 28.0938V16.0938H170.324V28.0938H167.636ZM184.519 28.0938L184.399 25.8617V11.2937H187.063V28.0938H184.519ZM180.607 28.3818C179.519 28.3818 178.567 28.1257 177.751 27.6137C176.951 27.0857 176.319 26.3497 175.855 25.4057C175.407 24.4617 175.183 23.3577 175.183 22.0938C175.183 20.8137 175.407 19.7097 175.855 18.7817C176.319 17.8377 176.951 17.1097 177.751 16.5977C178.567 16.0697 179.519 15.8057 180.607 15.8057C181.615 15.8057 182.479 16.0697 183.199 16.5977C183.935 17.1097 184.495 17.8377 184.879 18.7817C185.263 19.7097 185.455 20.8137 185.455 22.0938C185.455 23.3577 185.263 24.4617 184.879 25.4057C184.495 26.3497 183.935 27.0857 183.199 27.6137C182.479 28.1257 181.615 28.3818 180.607 28.3818ZM181.279 25.9337C181.887 25.9337 182.423 25.7737 182.887 25.4537C183.367 25.1177 183.735 24.6617 183.991 24.0857C184.263 23.5097 184.399 22.8457 184.399 22.0938C184.399 21.3417 184.263 20.6777 183.991 20.1017C183.735 19.5257 183.367 19.0777 182.887 18.7577C182.423 18.4377 181.879 18.2777 181.255 18.2777C180.615 18.2777 180.047 18.4377 179.551 18.7577C179.055 19.0777 178.663 19.5257 178.375 20.1017C178.103 20.6777 177.959 21.3417 177.943 22.0938C177.959 22.8457 178.103 23.5097 178.375 24.0857C178.663 24.6617 179.055 25.1177 179.551 25.4537C180.063 25.7737 180.639 25.9337 181.279 25.9337Z" fill="#4D595E"/>
</g>
</g>
<defs>
<filter id="filter0_d_34560_76169" x="-1.19922" y="6.94336" width="42.3945" height="34.3018" filterUnits="userSpaceOnUse" color-interpolation-filters="sRGB">
<feFlood flood-opacity="0" result="BackgroundImageFix"/>
<feColorMatrix in="SourceAlpha" type="matrix" values="0 0 0 0 0 0 0 0 0 0 0 0 0 0 0 0 0 0 127 0" result="hardAlpha"/>
<feOffset dy="4"/>
<feGaussianBlur stdDeviation="2"/>
<feComposite in2="hardAlpha" operator="out"/>
<feColorMatrix type="matrix" values="0 0 0 0 0 0 0 0 0 0 0 0 0 0 0 0 0 0 0.25 0"/>
<feBlend mode="normal" in2="BackgroundImageFix" result="effect1_dropShadow_34560_76169"/>
<feBlend mode="normal" in="SourceGraphic" in2="effect1_dropShadow_34560_76169" result="shape"/>
</filter>
<filter id="filter1_d_34560_76169" x="45.5117" y="10.6699" width="145.551" height="30.5361" filterUnits="userSpaceOnUse" color-interpolation-filters="sRGB">
<feFlood flood-opacity="0" result="BackgroundImageFix"/>
<feColorMatrix in="SourceAlpha" type="matrix" values="0 0 0 0 0 0 0 0 0 0 0 0 0 0 0 0 0 0 127 0" result="hardAlpha"/>
<feOffset dy="4"/>
<feGaussianBlur stdDeviation="2"/>
<feComposite in2="hardAlpha" operator="out"/>
<feColorMatrix type="matrix" values="0 0 0 0 0 0 0 0 0 0 0 0 0 0 0 0 0 0 0.25 0"/>
<feBlend mode="normal" in2="BackgroundImageFix" result="effect1_dropShadow_34560_76169"/>
<feBlend mode="normal" in="SourceGraphic" in2="effect1_dropShadow_34560_76169" result="shape"/>
</filter>
<linearGradient id="paint0_linear_34560_76169" x1="18.0809" y1="-2.42906" x2="39.9149" y2="49.2909" gradientUnits="userSpaceOnUse">
<stop stop-color="#1E90FF"/>
<stop offset="0.5" stop-color="#0074E6"/>
<stop offset="1" stop-color="#003970"/>
</linearGradient>
<clipPath id="clip0_34560_76169">
<rect width="200" height="40" fill="white" transform="translate(0 0.09375)"/>
</clipPath>
<clipPath id="clip1_34560_76169">
<rect width="40" height="40" fill="white" transform="translate(0 0.09375)"/>
</clipPath>
</defs>
</svg>
