<svg width="200" height="41" viewBox="0 0 200 41" fill="none" xmlns="http://www.w3.org/2000/svg">
<g clip-path="url(#clip0_34560_76192)">
<path d="M12.1055 7.99219L11.8415 7.56755L11.8415 7.56756L12.1055 7.99219ZM20.2334 10.2383L20.6798 10.013L20.6726 9.99874L20.6645 9.98495L20.2334 10.2383ZM31.8438 33.2451L31.5244 33.6299L32.2901 33.0199L31.8438 33.2451ZM26.1328 28.5049L26.4522 28.1201L26.4521 28.1201L26.1328 28.5049ZM22.042 26.3838L22.2103 25.913L22.2103 25.913L22.042 26.3838ZM13.7354 17.9756L13.2474 18.0847L13.2474 18.0847L13.7354 17.9756ZM11.3428 11.04L11.7121 10.7029L11.712 10.7029L11.3428 11.04ZM9.99512 10.2861L9.8314 10.7586L9.83142 10.7586L9.99512 10.2861ZM2.80078 7.79297L2.85223 7.29562L2.63706 8.2654L2.80078 7.79297ZM10.041 8.54199L9.98956 9.03934L9.9896 9.03934L10.041 8.54199ZM22.4102 12.6445L22.0621 12.2855L21.7981 12.5415L21.9638 12.8698L22.4102 12.6445ZM37.1943 8.6377L37.5212 9.01607L38.3137 8.33146L37.2831 8.14563L37.1943 8.6377ZM25.4902 18.748L25.0439 18.9733L25.3324 19.5451L25.8171 19.1264L25.4902 18.748ZM13.9863 8.625V8.125H13.9862L13.9863 8.625ZM12.7734 9.83887H12.2734V9.83895L12.7734 9.83887ZM13.9863 11.0518L13.9862 11.5518H13.9863V11.0518ZM15.2002 9.83887L15.7002 9.83895V9.83887H15.2002ZM12.1055 7.99219L12.3694 8.41682C13.3823 7.78719 14.6551 7.31414 15.9427 7.47503C17.2013 7.6323 18.5783 8.40882 19.8023 10.4916L20.2334 10.2383L20.6645 9.98495C19.3188 7.69517 17.6971 6.68647 16.0667 6.48275C14.4653 6.28265 12.959 6.87284 11.8415 7.56755L12.1055 7.99219ZM20.2334 10.2383L19.787 10.4635L31.3974 33.4704L31.8438 33.2451L32.2901 33.0199L20.6798 10.013L20.2334 10.2383ZM31.8438 33.2451L32.1631 32.8604L26.4522 28.1201L26.1328 28.5049L25.8135 28.8896L31.5244 33.6299L31.8438 33.2451ZM26.1328 28.5049L26.4521 28.1201C25.1919 27.0742 23.6769 26.4372 22.2103 25.913L22.042 26.3838L21.8737 26.8546C23.3186 27.3711 24.6945 27.9609 25.8135 28.8896L26.1328 28.5049ZM22.042 26.3838L22.2103 25.913C19.1262 24.8105 15.2235 22.339 14.2233 17.8665L13.7354 17.9756L13.2474 18.0847C14.3587 23.0542 18.6623 25.7067 21.8737 26.8546L22.042 26.3838ZM13.7354 17.9756L14.2233 17.8665C14.0273 16.9901 13.7734 15.6054 13.3969 14.273C13.0238 12.9525 12.502 11.5683 11.7121 10.7029L11.3428 11.04L10.9735 11.3771C11.592 12.0547 12.0645 13.235 12.4346 14.5449C12.8013 15.8428 13.0394 17.1544 13.2474 18.0847L13.7354 17.9756ZM11.3428 11.04L11.712 10.7029C11.2642 10.2125 10.6471 9.98289 10.1588 9.81369L9.99512 10.2861L9.83142 10.7586C10.3309 10.9316 10.7164 11.0956 10.9735 11.3772L11.3428 11.04ZM9.99512 10.2861L10.1588 9.8137L2.9645 7.32053L2.80078 7.79297L2.63706 8.2654L9.8314 10.7586L9.99512 10.2861ZM2.80078 7.79297L2.74933 8.29031L9.98956 9.03934L10.041 8.54199L10.0925 8.04465L2.85223 7.29562L2.80078 7.79297ZM10.041 8.54199L9.9896 9.03934C10.8596 9.12927 11.6862 8.84157 12.3695 8.41682L12.1055 7.99219L11.8415 7.56756C11.2827 7.91495 10.6771 8.10509 10.0924 8.04464L10.041 8.54199ZM22.4102 12.6445L22.7582 13.0035C24.6023 11.2157 30.1303 7.87206 37.1056 9.12976L37.1943 8.6377L37.2831 8.14563C29.917 6.81748 24.0779 10.3312 22.0621 12.2855L22.4102 12.6445ZM37.1943 8.6377L36.8675 8.25932L25.1634 18.3697L25.4902 18.748L25.8171 19.1264L37.5212 9.01607L37.1943 8.6377ZM25.4902 18.748L25.9366 18.5228L22.8565 12.4193L22.4102 12.6445L21.9638 12.8698L25.0439 18.9733L25.4902 18.748ZM13.9863 8.625L13.9862 8.125C13.0399 8.12532 12.2734 8.89313 12.2734 9.83887H12.7734H13.2734C13.2734 9.4447 13.593 9.12513 13.9865 9.125L13.9863 8.625ZM12.7734 9.83887L12.2734 9.83895C12.2736 10.785 13.0404 11.5514 13.9862 11.5518L13.9863 11.0518L13.9865 10.5518C13.5926 10.5516 13.2735 10.2325 13.2734 9.83879L12.7734 9.83887ZM13.9863 11.0518V11.5518C14.9321 11.5518 15.7 10.7855 15.7002 9.83895L15.2002 9.83887L14.7002 9.83879C14.7001 10.2323 14.3807 10.5518 13.9863 10.5518V11.0518ZM15.2002 9.83887H15.7002C15.7002 8.89263 14.9326 8.125 13.9863 8.125V8.625V9.125C14.3803 9.125 14.7002 9.44491 14.7002 9.83887H15.2002Z" fill="url(#paint0_linear_34560_76192)"/>
<mask id="path-2-outside-1_34560_76192" maskUnits="userSpaceOnUse" x="48" y="9.09375" width="141" height="26" fill="black">
<rect fill="white" x="48" y="9.09375" width="141" height="26"/>
<path d="M49.512 28.0938V11.2937H52.2V28.0938H49.512ZM57.648 28.0938V21.9497H60.336V28.0938H57.648ZM57.648 21.9497C57.648 20.9897 57.536 20.2537 57.312 19.7417C57.088 19.2137 56.776 18.8457 56.376 18.6377C55.992 18.4297 55.544 18.3257 55.032 18.3257C54.12 18.3097 53.416 18.6057 52.92 19.2137C52.44 19.8217 52.2 20.6937 52.2 21.8297H51.168C51.168 20.5657 51.352 19.4857 51.72 18.5897C52.104 17.6777 52.64 16.9897 53.328 16.5257C54.016 16.0457 54.832 15.8057 55.776 15.8057C56.72 15.8057 57.536 15.9977 58.224 16.3817C58.912 16.7657 59.432 17.3657 59.784 18.1817C60.152 18.9817 60.336 20.0297 60.336 21.3257V21.9497H57.648ZM70.5983 28.0938L70.4543 25.8857V16.0938H73.1183V28.0938H70.5983ZM62.2943 22.2377V16.0938H64.9823V22.2377H62.2943ZM64.9823 22.2377C64.9823 23.1817 65.0943 23.9177 65.3183 24.4457C65.5423 24.9737 65.8463 25.3417 66.2303 25.5497C66.6303 25.7577 67.0863 25.8617 67.5983 25.8617C68.5103 25.8777 69.2143 25.5817 69.7103 24.9737C70.2063 24.3657 70.4543 23.4937 70.4543 22.3577H71.4623C71.4623 23.6217 71.2703 24.7097 70.8863 25.6217C70.5183 26.5177 69.9903 27.2057 69.3023 27.6857C68.6303 28.1497 67.8143 28.3818 66.8543 28.3818C65.9103 28.3818 65.0943 28.1898 64.4063 27.8057C63.7343 27.4217 63.2143 26.8217 62.8463 26.0057C62.4783 25.1897 62.2943 24.1417 62.2943 22.8617V22.2377H64.9823ZM75.6052 28.0938V16.0938H78.1252L78.2452 17.7017C78.6132 17.0777 79.0852 16.6057 79.6612 16.2857C80.2372 15.9657 80.8932 15.8057 81.6292 15.8057C82.5892 15.8057 83.4052 16.0217 84.0772 16.4537C84.7492 16.8857 85.2372 17.5417 85.5412 18.4217C85.8932 17.5737 86.3892 16.9257 87.0292 16.4777C87.6692 16.0297 88.4212 15.8057 89.2852 15.8057C90.6772 15.8057 91.7492 16.2537 92.5012 17.1497C93.2532 18.0297 93.6212 19.3897 93.6052 21.2297V28.0938H90.9412V21.9497C90.9412 20.9897 90.8372 20.2537 90.6292 19.7417C90.4212 19.2137 90.1412 18.8457 89.7892 18.6377C89.4372 18.4297 89.0292 18.3257 88.5652 18.3257C87.7332 18.3097 87.0852 18.6057 86.6212 19.2137C86.1732 19.8217 85.9492 20.6937 85.9492 21.8297V28.0938H83.2612V21.9497C83.2612 20.9897 83.1572 20.2537 82.9492 19.7417C82.7572 19.2137 82.4852 18.8457 82.1332 18.6377C81.7812 18.4297 81.3732 18.3257 80.9092 18.3257C80.0772 18.3097 79.4292 18.6057 78.9652 19.2137C78.5172 19.8217 78.2932 20.6937 78.2932 21.8297V28.0938H75.6052ZM95.8474 28.0938V16.0938H98.3674L98.4874 17.7017C98.8554 17.0777 99.3274 16.6057 99.9034 16.2857C100.479 15.9657 101.135 15.8057 101.871 15.8057C102.831 15.8057 103.647 16.0217 104.319 16.4537C104.991 16.8857 105.479 17.5417 105.783 18.4217C106.135 17.5737 106.631 16.9257 107.271 16.4777C107.911 16.0297 108.663 15.8057 109.527 15.8057C110.919 15.8057 111.991 16.2537 112.743 17.1497C113.495 18.0297 113.863 19.3897 113.847 21.2297V28.0938H111.183V21.9497C111.183 20.9897 111.079 20.2537 110.871 19.7417C110.663 19.2137 110.383 18.8457 110.031 18.6377C109.679 18.4297 109.271 18.3257 108.807 18.3257C107.975 18.3097 107.327 18.6057 106.863 19.2137C106.415 19.8217 106.191 20.6937 106.191 21.8297V28.0938H103.503V21.9497C103.503 20.9897 103.399 20.2537 103.191 19.7417C102.999 19.2137 102.727 18.8457 102.375 18.6377C102.023 18.4297 101.615 18.3257 101.151 18.3257C100.319 18.3097 99.6714 18.6057 99.2074 19.2137C98.7594 19.8217 98.5354 20.6937 98.5354 21.8297V28.0938H95.8474ZM116.258 28.0938V16.0938H118.922V28.0938H116.258ZM117.602 13.8137C117.17 13.8137 116.794 13.6617 116.474 13.3577C116.17 13.0377 116.018 12.6617 116.018 12.2297C116.018 11.7977 116.17 11.4297 116.474 11.1257C116.794 10.8217 117.17 10.6697 117.602 10.6697C118.034 10.6697 118.402 10.8217 118.706 11.1257C119.026 11.4297 119.186 11.7977 119.186 12.2297C119.186 12.6617 119.026 13.0377 118.706 13.3577C118.402 13.6617 118.034 13.8137 117.602 13.8137ZM121.59 28.0938V16.0938H124.11L124.278 18.3017V28.0938H121.59ZM129.726 28.0938V21.9497H132.414V28.0938H129.726ZM129.726 21.9497C129.726 20.9897 129.614 20.2537 129.39 19.7417C129.182 19.2137 128.878 18.8457 128.478 18.6377C128.094 18.4297 127.638 18.3257 127.11 18.3257C126.214 18.3097 125.518 18.6057 125.022 19.2137C124.526 19.8217 124.278 20.6937 124.278 21.8297H123.27C123.27 20.5657 123.454 19.4857 123.822 18.5897C124.19 17.6777 124.718 16.9897 125.406 16.5257C126.094 16.0457 126.91 15.8057 127.854 15.8057C128.814 15.8057 129.63 15.9977 130.302 16.3817C130.99 16.7657 131.51 17.3657 131.862 18.1817C132.23 18.9817 132.414 20.0297 132.414 21.3257V21.9497H129.726ZM139.796 33.2058C138.948 33.2058 138.18 33.1338 137.492 32.9898C136.82 32.8458 136.252 32.6778 135.788 32.4858C135.324 32.2938 134.964 32.1098 134.708 31.9338L135.74 29.7738C135.964 29.8858 136.26 30.0218 136.628 30.1818C137.012 30.3578 137.46 30.5098 137.972 30.6378C138.484 30.7658 139.06 30.8298 139.7 30.8298C140.388 30.8298 141.004 30.6858 141.548 30.3978C142.092 30.1258 142.516 29.7018 142.82 29.1258C143.124 28.5498 143.276 27.8137 143.276 26.9177V16.0938H145.964V26.8457C145.964 28.2057 145.708 29.3578 145.196 30.3018C144.684 31.2618 143.964 31.9818 143.036 32.4618C142.108 32.9578 141.028 33.2058 139.796 33.2058ZM139.388 27.8537C138.3 27.8537 137.348 27.6057 136.532 27.1097C135.732 26.6137 135.1 25.9257 134.636 25.0457C134.188 24.1497 133.964 23.1177 133.964 21.9497C133.964 20.7017 134.188 19.6217 134.636 18.7097C135.1 17.7977 135.732 17.0857 136.532 16.5737C137.348 16.0617 138.3 15.8057 139.388 15.8057C140.364 15.8057 141.212 16.0617 141.932 16.5737C142.668 17.0857 143.236 17.8057 143.636 18.7337C144.036 19.6457 144.236 20.7257 144.236 21.9737C144.236 23.1577 144.036 24.1897 143.636 25.0697C143.236 25.9497 142.668 26.6377 141.932 27.1337C141.212 27.6137 140.364 27.8537 139.388 27.8537ZM140.132 25.5737C140.74 25.5737 141.268 25.4137 141.716 25.0938C142.18 24.7737 142.54 24.3417 142.796 23.7977C143.052 23.2377 143.18 22.5977 143.18 21.8777C143.18 21.1417 143.052 20.5017 142.796 19.9577C142.54 19.3977 142.18 18.9657 141.716 18.6617C141.252 18.3417 140.716 18.1817 140.108 18.1817C139.468 18.1817 138.9 18.3417 138.404 18.6617C137.924 18.9657 137.54 19.3977 137.252 19.9577C136.98 20.5017 136.844 21.1417 136.844 21.8777C136.844 22.5977 136.98 23.2377 137.252 23.7977C137.54 24.3417 137.932 24.7737 138.428 25.0938C138.924 25.4137 139.492 25.5737 140.132 25.5737ZM148.433 28.0938V11.2937H151.121V25.8617L150.977 28.0938H148.433ZM154.913 28.3818C153.905 28.3818 153.033 28.1257 152.297 27.6137C151.577 27.0857 151.025 26.3497 150.641 25.4057C150.257 24.4617 150.065 23.3577 150.065 22.0938C150.065 20.8137 150.257 19.7097 150.641 18.7817C151.025 17.8377 151.577 17.1097 152.297 16.5977C153.033 16.0697 153.905 15.8057 154.913 15.8057C156.001 15.8057 156.945 16.0697 157.745 16.5977C158.561 17.1097 159.193 17.8377 159.641 18.7817C160.105 19.7097 160.337 20.8137 160.337 22.0938C160.337 23.3577 160.105 24.4617 159.641 25.4057C159.193 26.3497 158.561 27.0857 157.745 27.6137C156.945 28.1257 156.001 28.3818 154.913 28.3818ZM154.241 25.9337C154.881 25.9337 155.449 25.7737 155.945 25.4537C156.441 25.1177 156.833 24.6617 157.121 24.0857C157.425 23.5097 157.577 22.8457 157.577 22.0938C157.577 21.3417 157.433 20.6777 157.145 20.1017C156.873 19.5257 156.489 19.0777 155.993 18.7577C155.497 18.4377 154.921 18.2777 154.265 18.2777C153.657 18.2777 153.113 18.4377 152.633 18.7577C152.153 19.0777 151.777 19.5257 151.505 20.1017C151.249 20.6777 151.121 21.3417 151.121 22.0938C151.121 22.8457 151.249 23.5097 151.505 24.0857C151.777 24.6617 152.145 25.1177 152.609 25.4537C153.089 25.7737 153.633 25.9337 154.241 25.9337ZM162.304 28.0938V16.0938H164.968V28.0938H162.304ZM163.648 13.8137C163.216 13.8137 162.84 13.6617 162.52 13.3577C162.216 13.0377 162.064 12.6617 162.064 12.2297C162.064 11.7977 162.216 11.4297 162.52 11.1257C162.84 10.8217 163.216 10.6697 163.648 10.6697C164.08 10.6697 164.448 10.8217 164.752 11.1257C165.072 11.4297 165.232 11.7977 165.232 12.2297C165.232 12.6617 165.072 13.0377 164.752 13.3577C164.448 13.6617 164.08 13.8137 163.648 13.8137ZM169.412 21.7097C169.412 20.4137 169.66 19.3497 170.156 18.5177C170.652 17.6857 171.292 17.0697 172.076 16.6697C172.876 16.2537 173.708 16.0457 174.572 16.0457V18.6137C173.836 18.6137 173.14 18.7177 172.484 18.9257C171.844 19.1177 171.324 19.4377 170.924 19.8857C170.524 20.3337 170.324 20.9257 170.324 21.6617L169.412 21.7097ZM167.636 28.0938V16.0938H170.324V28.0938H167.636ZM184.519 28.0938L184.399 25.8617V11.2937H187.063V28.0938H184.519ZM180.607 28.3818C179.519 28.3818 178.567 28.1257 177.751 27.6137C176.951 27.0857 176.319 26.3497 175.855 25.4057C175.407 24.4617 175.183 23.3577 175.183 22.0938C175.183 20.8137 175.407 19.7097 175.855 18.7817C176.319 17.8377 176.951 17.1097 177.751 16.5977C178.567 16.0697 179.519 15.8057 180.607 15.8057C181.615 15.8057 182.479 16.0697 183.199 16.5977C183.935 17.1097 184.495 17.8377 184.879 18.7817C185.263 19.7097 185.455 20.8137 185.455 22.0938C185.455 23.3577 185.263 24.4617 184.879 25.4057C184.495 26.3497 183.935 27.0857 183.199 27.6137C182.479 28.1257 181.615 28.3818 180.607 28.3818ZM181.279 25.9337C181.887 25.9337 182.423 25.7737 182.887 25.4537C183.367 25.1177 183.735 24.6617 183.991 24.0857C184.263 23.5097 184.399 22.8457 184.399 22.0938C184.399 21.3417 184.263 20.6777 183.991 20.1017C183.735 19.5257 183.367 19.0777 182.887 18.7577C182.423 18.4377 181.879 18.2777 181.255 18.2777C180.615 18.2777 180.047 18.4377 179.551 18.7577C179.055 19.0777 178.663 19.5257 178.375 20.1017C178.103 20.6777 177.959 21.3417 177.943 22.0938C177.959 22.8457 178.103 23.5097 178.375 24.0857C178.663 24.6617 179.055 25.1177 179.551 25.4537C180.063 25.7737 180.639 25.9337 181.279 25.9337Z"/>
</mask>
<path d="M49.512 28.0938H48.512V29.0938H49.512V28.0938ZM49.512 11.2937V10.2937H48.512V11.2937H49.512ZM52.2 11.2937H53.2V10.2937H52.2V11.2937ZM52.2 28.0938V29.0938H53.2V28.0938H52.2ZM57.648 28.0938H56.648V29.0938H57.648V28.0938ZM57.648 21.9497V20.9497H56.648V21.9497H57.648ZM60.336 21.9497H61.336V20.9497H60.336V21.9497ZM60.336 28.0938V29.0938H61.336V28.0938H60.336ZM57.648 21.9497H56.648V22.9497H57.648V21.9497ZM57.312 19.7417L56.3914 20.1323L56.3958 20.1426L57.312 19.7417ZM56.376 18.6377L55.8997 19.517L55.9071 19.5211L55.9146 19.525L56.376 18.6377ZM55.032 18.3258L55.0145 19.3256L55.0232 19.3258H55.032V18.3258ZM52.92 19.2137L52.1451 18.5816L52.1401 18.5878L52.1351 18.5941L52.92 19.2137ZM52.2 21.8298V22.8298H53.2V21.8298H52.2ZM51.168 21.8298H50.168V22.8298H51.168V21.8298ZM51.72 18.5897L50.7983 18.2017L50.795 18.2098L51.72 18.5897ZM53.328 16.5257L53.8871 17.3548L53.8937 17.3504L53.9002 17.3459L53.328 16.5257ZM58.224 16.3817L58.7114 15.5086H58.7114L58.224 16.3817ZM59.784 18.1817L58.8658 18.5778L58.8705 18.5888L58.8755 18.5997L59.784 18.1817ZM60.336 21.9497V22.9497H61.336V21.9497H60.336ZM49.512 28.0938H50.512V11.2937H49.512H48.512V28.0938H49.512ZM49.512 11.2937V12.2937H52.2V11.2937V10.2937H49.512V11.2937ZM52.2 11.2937H51.2V28.0938H52.2H53.2V11.2937H52.2ZM52.2 28.0938V27.0938H49.512V28.0938V29.0938H52.2V28.0938ZM57.648 28.0938H58.648V21.9497H57.648H56.648V28.0938H57.648ZM57.648 21.9497V22.9497H60.336V21.9497V20.9497H57.648V21.9497ZM60.336 21.9497H59.336V28.0938H60.336H61.336V21.9497H60.336ZM60.336 28.0938V27.0938H57.648V28.0938V29.0938H60.336V28.0938ZM57.648 21.9497H58.648C58.648 20.9368 58.5336 20.0391 58.2282 19.3409L57.312 19.7417L56.3958 20.1426C56.5384 20.4684 56.648 21.0427 56.648 21.9497H57.648ZM57.312 19.7417L58.2326 19.3512C57.9431 18.6688 57.4943 18.0921 56.8374 17.7505L56.376 18.6377L55.9146 19.525C56.0577 19.5994 56.2329 19.7587 56.3914 20.1323L57.312 19.7417ZM56.376 18.6377L56.8523 17.7585C56.2987 17.4586 55.6816 17.3258 55.032 17.3258V18.3258V19.3258C55.4064 19.3258 55.6853 19.4009 55.8997 19.517L56.376 18.6377ZM55.032 18.3258L55.0495 17.3259C53.8871 17.3055 52.8678 17.6958 52.1451 18.5816L52.92 19.2137L53.6949 19.8459C53.9642 19.5157 54.3529 19.314 55.0145 19.3256L55.032 18.3258ZM52.92 19.2137L52.1351 18.5941C51.4639 19.4443 51.2 20.5701 51.2 21.8298H52.2H53.2C53.2 20.8174 53.4161 20.1992 53.7049 19.8334L52.92 19.2137ZM52.2 21.8298V20.8298H51.168V21.8298V22.8298H52.2V21.8298ZM51.168 21.8298H52.168C52.168 20.6582 52.3391 19.7145 52.645 18.9697L51.72 18.5897L50.795 18.2098C50.3649 19.257 50.168 20.4733 50.168 21.8298H51.168ZM51.72 18.5897L52.6416 18.9778C52.965 18.2099 53.3891 17.6907 53.8871 17.3548L53.328 16.5257L52.7689 15.6967C51.8909 16.2888 51.243 17.1456 50.7984 18.2017L51.72 18.5897ZM53.328 16.5257L53.9002 17.3459C54.3997 16.9973 55.01 16.8057 55.776 16.8057V15.8057V14.8057C54.654 14.8057 53.6323 15.0942 52.7558 15.7056L53.328 16.5257ZM55.776 15.8057V16.8057C56.5831 16.8057 57.2245 16.9691 57.7366 17.2549L58.224 16.3817L58.7114 15.5086C57.8475 15.0264 56.8569 14.8057 55.776 14.8057V15.8057ZM58.224 16.3817L57.7366 17.2549C58.2081 17.5181 58.5893 17.9368 58.8658 18.5778L59.784 18.1817L60.7022 17.7857C60.2747 16.7947 59.6159 16.0134 58.7114 15.5086L58.224 16.3817ZM59.784 18.1817L58.8755 18.5997C59.1617 19.2217 59.336 20.1116 59.336 21.3258H60.336H61.336C61.336 19.9479 61.1423 18.7418 60.6925 17.7638L59.784 18.1817ZM60.336 21.3258H59.336V21.9497H60.336H61.336V21.3258H60.336ZM60.336 21.9497V20.9497H57.648V21.9497V22.9497H60.336V21.9497ZM70.5983 28.0938L69.6004 28.1588L69.6614 29.0938H70.5983V28.0938ZM70.4543 25.8857H69.4543V25.9183L69.4564 25.9508L70.4543 25.8857ZM70.4543 16.0938V15.0938H69.4543V16.0938H70.4543ZM73.1183 16.0938H74.1183V15.0938H73.1183V16.0938ZM73.1183 28.0938V29.0938H74.1183V28.0938H73.1183ZM62.2943 22.2377H61.2943V23.2377H62.2943V22.2377ZM62.2943 16.0938V15.0938H61.2943V16.0938H62.2943ZM64.9823 16.0938H65.9823V15.0938H64.9823V16.0938ZM64.9823 22.2377V23.2377H65.9823V22.2377H64.9823ZM64.9823 22.2377H65.9823V21.2377H64.9823V22.2377ZM65.3183 24.4457L64.3977 24.8363H64.3977L65.3183 24.4457ZM66.2303 25.5497L65.754 26.429L65.7615 26.4331L65.769 26.437L66.2303 25.5497ZM67.5983 25.8617L67.6159 24.8619L67.6071 24.8617H67.5983V25.8617ZM69.7103 24.9737L68.9354 24.3416L69.7103 24.9737ZM70.4543 22.3577V21.3577H69.4543V22.3577H70.4543ZM71.4623 22.3577H72.4623V21.3577H71.4623V22.3577ZM70.8863 25.6217L69.9646 25.2337L69.9613 25.2418L70.8863 25.6217ZM69.3023 27.6857L69.8705 28.5087L69.8745 28.5059L69.3023 27.6857ZM64.4063 27.8057L63.9101 28.674L63.9189 28.6789L64.4063 27.8057ZM62.8463 26.0058L61.9347 26.4169L62.8463 26.0058ZM62.2943 22.2377V21.2377H61.2943V22.2377H62.2943ZM70.5983 28.0938L71.5962 28.0287L71.4522 25.8207L70.4543 25.8857L69.4564 25.9508L69.6004 28.1588L70.5983 28.0938ZM70.4543 25.8857H71.4543V16.0938H70.4543H69.4543V25.8857H70.4543ZM70.4543 16.0938V17.0938H73.1183V16.0938V15.0938H70.4543V16.0938ZM73.1183 16.0938H72.1183V28.0938H73.1183H74.1183V16.0938H73.1183ZM73.1183 28.0938V27.0938H70.5983V28.0938V29.0938H73.1183V28.0938ZM62.2943 22.2377H63.2943V16.0938H62.2943H61.2943V22.2377H62.2943ZM62.2943 16.0938V17.0938H64.9823V16.0938V15.0938H62.2943V16.0938ZM64.9823 16.0938H63.9823V22.2377H64.9823H65.9823V16.0938H64.9823ZM64.9823 22.2377V21.2377H62.2943V22.2377V23.2377H64.9823V22.2377ZM64.9823 22.2377H63.9823C63.9823 23.2403 64.0982 24.1302 64.3977 24.8363L65.3183 24.4457L66.2389 24.0552C66.0904 23.7053 65.9823 23.1232 65.9823 22.2377H64.9823ZM65.3183 24.4457L64.3977 24.8363C64.6823 25.5071 65.116 26.0835 65.754 26.429L66.2303 25.5497L66.7066 24.6705C66.5766 24.6 66.4023 24.4404 66.2389 24.0552L65.3183 24.4457ZM66.2303 25.5497L65.769 26.437C66.3298 26.7286 66.9477 26.8617 67.5983 26.8617V25.8617V24.8617C67.2249 24.8617 66.9309 24.7869 66.6917 24.6625L66.2303 25.5497ZM67.5983 25.8617L67.5808 26.8616C68.7433 26.882 69.7625 26.4917 70.4852 25.6059L69.7103 24.9737L68.9354 24.3416C68.6661 24.6718 68.2774 24.8735 67.6159 24.8619L67.5983 25.8617ZM69.7103 24.9737L70.4852 25.6059C71.1796 24.7546 71.4543 23.6237 71.4543 22.3577H70.4543H69.4543C69.4543 23.3638 69.233 23.9769 68.9354 24.3416L69.7103 24.9737ZM70.4543 22.3577V23.3577H71.4623V22.3577V21.3577H70.4543V22.3577ZM71.4623 22.3577H70.4623C70.4623 23.5239 70.2848 24.4735 69.9647 25.2337L70.8863 25.6217L71.8079 26.0098C72.2559 24.946 72.4623 23.7196 72.4623 22.3577H71.4623ZM70.8863 25.6217L69.9613 25.2418C69.6547 25.9884 69.2375 26.5116 68.7301 26.8656L69.3023 27.6857L69.8745 28.5059C70.7431 27.8999 71.3819 27.0471 71.8113 26.0017L70.8863 25.6217ZM69.3023 27.6857L68.7341 26.8629C68.2569 27.1924 67.6479 27.3818 66.8543 27.3818V28.3818V29.3818C67.9808 29.3818 69.0037 29.1071 69.8705 28.5086L69.3023 27.6857ZM66.8543 28.3818V27.3818C66.0472 27.3818 65.4058 27.2184 64.8937 26.9326L64.4063 27.8057L63.9189 28.6789C64.7829 29.1611 65.7735 29.3818 66.8543 29.3818V28.3818ZM64.4063 27.8057L64.9025 26.9375C64.4414 26.674 64.0532 26.2494 63.7579 25.5946L62.8463 26.0058L61.9347 26.4169C62.3754 27.3941 63.0273 28.1695 63.9102 28.674L64.4063 27.8057ZM62.8463 26.0058L63.7579 25.5946C63.4676 24.951 63.2943 24.0564 63.2943 22.8617H62.2943H61.2943C61.2943 24.2271 61.489 25.4285 61.9347 26.4169L62.8463 26.0058ZM62.2943 22.8617H63.2943V22.2377H62.2943H61.2943V22.8617H62.2943ZM62.2943 22.2377V23.2377H64.9823V22.2377V21.2377H62.2943V22.2377ZM75.6052 28.0938H74.6052V29.0938H75.6052V28.0938ZM75.6052 16.0938V15.0938H74.6052V16.0938H75.6052ZM78.1252 16.0938L79.1224 16.0193L79.0533 15.0938H78.1252V16.0938ZM78.2452 17.7017L77.248 17.7762L77.4855 20.9586L79.1066 18.2097L78.2452 17.7017ZM79.6612 16.2857L80.1468 17.1599L79.6612 16.2857ZM84.0772 16.4537L83.5364 17.2949V17.2949L84.0772 16.4537ZM85.5412 18.4217L84.596 18.7483L85.4556 21.2365L86.4648 18.8051L85.5412 18.4217ZM87.0292 16.4777L87.6026 17.297V17.297L87.0292 16.4777ZM92.5012 17.1497L91.7352 17.7926L91.741 17.7994L92.5012 17.1497ZM93.6052 21.2297L92.6052 21.2211V21.2297H93.6052ZM93.6052 28.0938V29.0938H94.6052V28.0938H93.6052ZM90.9412 28.0938H89.9412V29.0938H90.9412V28.0938ZM90.6292 19.7417L89.6987 20.1083L89.7027 20.1181L90.6292 19.7417ZM89.7892 18.6377L90.2979 17.7768L90.2979 17.7768L89.7892 18.6377ZM88.5652 18.3258L88.546 19.3256L88.5556 19.3258H88.5652V18.3258ZM86.6212 19.2137L85.8262 18.6071L85.8211 18.6138L85.8161 18.6206L86.6212 19.2137ZM85.9492 28.0938V29.0938H86.9492V28.0938H85.9492ZM83.2612 28.0938H82.2612V29.0938H83.2612V28.0938ZM82.9492 19.7417L82.0094 20.0835L82.0157 20.1009L82.0227 20.1181L82.9492 19.7417ZM82.1332 18.6377L82.6419 17.7768V17.7768L82.1332 18.6377ZM80.9092 18.3258L80.89 19.3256L80.8996 19.3258H80.9092V18.3258ZM78.9652 19.2137L78.1702 18.6071L78.1651 18.6138L78.1601 18.6206L78.9652 19.2137ZM78.2932 28.0938V29.0938H79.2932V28.0938H78.2932ZM75.6052 28.0938H76.6052V16.0938H75.6052H74.6052V28.0938H75.6052ZM75.6052 16.0938V17.0938H78.1252V16.0938V15.0938H75.6052V16.0938ZM78.1252 16.0938L77.128 16.1682L77.248 17.7762L78.2452 17.7017L79.2424 17.6273L79.1224 16.0193L78.1252 16.0938ZM78.2452 17.7017L79.1066 18.2097C79.3934 17.7234 79.7416 17.385 80.1468 17.1599L79.6612 16.2857L79.1755 15.4116C78.4288 15.8265 77.833 16.4321 77.3838 17.1938L78.2452 17.7017ZM79.6612 16.2857L80.1468 17.1599C80.5575 16.9318 81.0429 16.8057 81.6292 16.8057V15.8057V14.8057C80.7435 14.8057 79.9169 14.9997 79.1755 15.4116L79.6612 16.2857ZM81.6292 15.8057V16.8057C82.4365 16.8057 83.0557 16.9859 83.5364 17.2949L84.0772 16.4537L84.6179 15.6126C83.7547 15.0576 82.7419 14.8057 81.6292 14.8057V15.8057ZM84.0772 16.4537L83.5364 17.2949C83.9895 17.5862 84.3526 18.0437 84.596 18.7483L85.5412 18.4217L86.4864 18.0952C86.1218 17.0398 85.5089 16.1853 84.6179 15.6126L84.0772 16.4537ZM85.5412 18.4217L86.4648 18.8051C86.7569 18.1015 87.144 17.618 87.6026 17.297L87.0292 16.4777L86.4557 15.6585C85.6343 16.2335 85.0295 17.046 84.6176 18.0384L85.5412 18.4217ZM87.0292 16.4777L87.6026 17.297C88.0569 16.979 88.6036 16.8057 89.2852 16.8057V15.8057V14.8057C88.2387 14.8057 87.2815 15.0805 86.4557 15.6585L87.0292 16.4777ZM89.2852 15.8057V16.8057C90.4437 16.8057 91.2098 17.1666 91.7352 17.7926L92.5012 17.1497L93.2672 16.5069C92.2886 15.3409 90.9107 14.8057 89.2852 14.8057V15.8057ZM92.5012 17.1497L91.741 17.7994C92.2667 18.4146 92.6203 19.4877 92.6052 21.2211L93.6052 21.2297L94.6052 21.2384C94.6221 19.2918 94.2397 17.6449 93.2614 16.5001L92.5012 17.1497ZM93.6052 21.2297H92.6052V28.0938H93.6052H94.6052V21.2297H93.6052ZM93.6052 28.0938V27.0938H90.9412V28.0938V29.0938H93.6052V28.0938ZM90.9412 28.0938H91.9412V21.9497H90.9412H89.9412V28.0938H90.9412ZM90.9412 21.9497H91.9412C91.9412 20.9417 91.8355 20.0541 91.5557 19.3654L90.6292 19.7417L89.7027 20.1181C89.8389 20.4534 89.9412 21.0378 89.9412 21.9497H90.9412ZM90.6292 19.7417L91.5596 19.3752C91.3011 18.7191 90.9037 18.1348 90.2979 17.7768L89.7892 18.6377L89.2805 19.4987C89.3786 19.5567 89.5412 19.7084 89.6988 20.1083L90.6292 19.7417ZM89.7892 18.6377L90.2979 17.7768C89.7719 17.466 89.1835 17.3258 88.5652 17.3258V18.3258V19.3258C88.8748 19.3258 89.1024 19.3935 89.2805 19.4987L89.7892 18.6377ZM88.5652 18.3258L88.5844 17.3259C87.4665 17.3044 86.5025 17.721 85.8262 18.6071L86.6212 19.2137L87.4161 19.8204C87.6679 19.4905 87.9999 19.3151 88.546 19.3256L88.5652 18.3258ZM86.6212 19.2137L85.8161 18.6206C85.1921 19.4675 84.9492 20.5823 84.9492 21.8298H85.9492H86.9492C86.9492 20.8052 87.1543 20.176 87.4262 19.8069L86.6212 19.2137ZM85.9492 21.8298H84.9492V28.0938H85.9492H86.9492V21.8298H85.9492ZM85.9492 28.0938V27.0938H83.2612V28.0938V29.0938H85.9492V28.0938ZM83.2612 28.0938H84.2612V21.9497H83.2612H82.2612V28.0938H83.2612ZM83.2612 21.9497H84.2612C84.2612 20.9417 84.1555 20.0541 83.8757 19.3654L82.9492 19.7417L82.0227 20.1181C82.1589 20.4534 82.2612 21.0378 82.2612 21.9497H83.2612ZM82.9492 19.7417L83.889 19.4C83.6472 18.7352 83.2568 18.1401 82.6419 17.7768L82.1332 18.6377L81.6245 19.4987C81.7136 19.5514 81.8671 19.6923 82.0094 20.0835L82.9492 19.7417ZM82.1332 18.6377L82.6419 17.7768C82.1159 17.466 81.5275 17.3258 80.9092 17.3258V18.3258V19.3258C81.2188 19.3258 81.4464 19.3935 81.6245 19.4987L82.1332 18.6377ZM80.9092 18.3258L80.9284 17.3259C79.8105 17.3044 78.8465 17.721 78.1702 18.6071L78.9652 19.2137L79.7601 19.8204C80.0119 19.4905 80.3439 19.3151 80.89 19.3256L80.9092 18.3258ZM78.9652 19.2137L78.1601 18.6206C77.5361 19.4675 77.2932 20.5823 77.2932 21.8298H78.2932H79.2932C79.2932 20.8052 79.4983 20.176 79.7702 19.8069L78.9652 19.2137ZM78.2932 21.8298H77.2932V28.0938H78.2932H79.2932V21.8298H78.2932ZM78.2932 28.0938V27.0938H75.6052V28.0938V29.0938H78.2932V28.0938ZM95.8474 28.0938H94.8474V29.0938H95.8474V28.0938ZM95.8474 16.0938V15.0938H94.8474V16.0938H95.8474ZM98.3674 16.0938L99.3646 16.0193L99.2955 15.0938H98.3674V16.0938ZM98.4874 17.7017L97.4901 17.7762L97.7276 20.9586L99.3487 18.2097L98.4874 17.7017ZM99.9034 16.2857L100.389 17.1599L99.9034 16.2857ZM104.319 16.4537L103.779 17.2949V17.2949L104.319 16.4537ZM105.783 18.4217L104.838 18.7483L105.698 21.2365L106.707 18.8051L105.783 18.4217ZM107.271 16.4777L107.845 17.297V17.297L107.271 16.4777ZM112.743 17.1497L111.977 17.7926L111.983 17.7994L112.743 17.1497ZM113.847 21.2297L112.847 21.2211V21.2297H113.847ZM113.847 28.0938V29.0938H114.847V28.0938H113.847ZM111.183 28.0938H110.183V29.0938H111.183V28.0938ZM110.871 19.7417L109.941 20.1083L109.945 20.1181L110.871 19.7417ZM110.031 18.6377L110.54 17.7768L110.54 17.7768L110.031 18.6377ZM108.807 18.3258L108.788 19.3256L108.798 19.3258H108.807V18.3258ZM106.863 19.2137L106.068 18.6071L106.063 18.6138L106.058 18.6206L106.863 19.2137ZM106.191 28.0938V29.0938H107.191V28.0938H106.191ZM103.503 28.0938H102.503V29.0938H103.503V28.0938ZM103.191 19.7417L102.252 20.0835L102.258 20.1009L102.265 20.1181L103.191 19.7417ZM102.375 18.6377L102.884 17.7768V17.7768L102.375 18.6377ZM101.151 18.3258L101.132 19.3256L101.142 19.3258H101.151V18.3258ZM99.2074 19.2137L98.4124 18.6071L98.4073 18.6138L98.4023 18.6206L99.2074 19.2137ZM98.5354 28.0938V29.0938H99.5354V28.0938H98.5354ZM95.8474 28.0938H96.8474V16.0938H95.8474H94.8474V28.0938H95.8474ZM95.8474 16.0938V17.0938H98.3674V16.0938V15.0938H95.8474V16.0938ZM98.3674 16.0938L97.3701 16.1682L97.4901 17.7762L98.4874 17.7017L99.4846 17.6273L99.3646 16.0193L98.3674 16.0938ZM98.4874 17.7017L99.3487 18.2097C99.6356 17.7234 99.9838 17.385 100.389 17.1599L99.9034 16.2857L99.4177 15.4116C98.671 15.8265 98.0752 16.4321 97.626 17.1938L98.4874 17.7017ZM99.9034 16.2857L100.389 17.1599C100.8 16.9318 101.285 16.8057 101.871 16.8057V15.8057V14.8057C100.986 14.8057 100.159 14.9997 99.4177 15.4116L99.9034 16.2857ZM101.871 15.8057V16.8057C102.679 16.8057 103.298 16.9859 103.779 17.2949L104.319 16.4537L104.86 15.6126C103.997 15.0576 102.984 14.8057 101.871 14.8057V15.8057ZM104.319 16.4537L103.779 17.2949C104.232 17.5862 104.595 18.0437 104.838 18.7483L105.783 18.4217L106.729 18.0952C106.364 17.0398 105.751 16.1853 104.86 15.6126L104.319 16.4537ZM105.783 18.4217L106.707 18.8051C106.999 18.1015 107.386 17.618 107.845 17.297L107.271 16.4777L106.698 15.6585C105.877 16.2335 105.272 17.046 104.86 18.0384L105.783 18.4217ZM107.271 16.4777L107.845 17.297C108.299 16.979 108.846 16.8057 109.527 16.8057V15.8057V14.8057C108.481 14.8057 107.524 15.0805 106.698 15.6585L107.271 16.4777ZM109.527 15.8057V16.8057C110.686 16.8057 111.452 17.1666 111.977 17.7926L112.743 17.1497L113.509 16.5069C112.531 15.3409 111.153 14.8057 109.527 14.8057V15.8057ZM112.743 17.1497L111.983 17.7994C112.509 18.4146 112.862 19.4877 112.847 21.2211L113.847 21.2297L114.847 21.2384C114.864 19.2918 114.482 17.6449 113.504 16.5001L112.743 17.1497ZM113.847 21.2297H112.847V28.0938H113.847H114.847V21.2297H113.847ZM113.847 28.0938V27.0938H111.183V28.0938V29.0938H113.847V28.0938ZM111.183 28.0938H112.183V21.9497H111.183H110.183V28.0938H111.183ZM111.183 21.9497H112.183C112.183 20.9417 112.078 20.0541 111.798 19.3654L110.871 19.7417L109.945 20.1181C110.081 20.4534 110.183 21.0378 110.183 21.9497H111.183ZM110.871 19.7417L111.802 19.3752C111.543 18.7191 111.146 18.1348 110.54 17.7768L110.031 18.6377L109.523 19.4987C109.621 19.5567 109.783 19.7084 109.941 20.1083L110.871 19.7417ZM110.031 18.6377L110.54 17.7768C110.014 17.466 109.426 17.3258 108.807 17.3258V18.3258V19.3258C109.117 19.3258 109.345 19.3935 109.523 19.4987L110.031 18.6377ZM108.807 18.3258L108.827 17.3259C107.709 17.3044 106.745 17.721 106.068 18.6071L106.863 19.2137L107.658 19.8204C107.91 19.4905 108.242 19.3151 108.788 19.3256L108.807 18.3258ZM106.863 19.2137L106.058 18.6206C105.434 19.4675 105.191 20.5823 105.191 21.8298H106.191H107.191C107.191 20.8052 107.396 20.176 107.668 19.8069L106.863 19.2137ZM106.191 21.8298H105.191V28.0938H106.191H107.191V21.8298H106.191ZM106.191 28.0938V27.0938H103.503V28.0938V29.0938H106.191V28.0938ZM103.503 28.0938H104.503V21.9497H103.503H102.503V28.0938H103.503ZM103.503 21.9497H104.503C104.503 20.9417 104.398 20.0541 104.118 19.3654L103.191 19.7417L102.265 20.1181C102.401 20.4534 102.503 21.0378 102.503 21.9497H103.503ZM103.191 19.7417L104.131 19.4C103.889 18.7352 103.499 18.1401 102.884 17.7768L102.375 18.6377L101.867 19.4987C101.956 19.5514 102.109 19.6923 102.252 20.0835L103.191 19.7417ZM102.375 18.6377L102.884 17.7768C102.358 17.466 101.77 17.3258 101.151 17.3258V18.3258V19.3258C101.461 19.3258 101.689 19.3935 101.867 19.4987L102.375 18.6377ZM101.151 18.3258L101.171 17.3259C100.053 17.3044 99.0887 17.721 98.4124 18.6071L99.2074 19.2137L100.002 19.8204C100.254 19.4905 100.586 19.3151 101.132 19.3256L101.151 18.3258ZM99.2074 19.2137L98.4023 18.6206C97.7782 19.4675 97.5354 20.5823 97.5354 21.8298H98.5354H99.5354C99.5354 20.8052 99.7405 20.176 100.012 19.8069L99.2074 19.2137ZM98.5354 21.8298H97.5354V28.0938H98.5354H99.5354V21.8298H98.5354ZM98.5354 28.0938V27.0938H95.8474V28.0938V29.0938H98.5354V28.0938ZM116.258 28.0938H115.258V29.0938H116.258V28.0938ZM116.258 16.0938V15.0938H115.258V16.0938H116.258ZM118.922 16.0938H119.922V15.0938H118.922V16.0938ZM118.922 28.0938V29.0938H119.922V28.0938H118.922ZM116.474 13.3577L115.749 14.0465L115.766 14.0651L115.785 14.0827L116.474 13.3577ZM116.474 11.1257L115.785 10.4008L115.776 10.4096L115.766 10.4186L116.474 11.1257ZM118.706 11.1257L117.998 11.8329L118.008 11.8419L118.017 11.8507L118.706 11.1257ZM118.706 13.3577L117.998 12.6506L118.706 13.3577ZM116.258 28.0938H117.258V16.0938H116.258H115.258V28.0938H116.258ZM116.258 16.0938V17.0938H118.922V16.0938V15.0938H116.258V16.0938ZM118.922 16.0938H117.922V28.0938H118.922H119.922V16.0938H118.922ZM118.922 28.0938V27.0938H116.258V28.0938V29.0938H118.922V28.0938ZM117.602 13.8137V12.8137C117.432 12.8137 117.301 12.7645 117.162 12.6327L116.474 13.3577L115.785 14.0827C116.286 14.559 116.907 14.8137 117.602 14.8137V13.8137ZM116.474 13.3577L117.199 12.669C117.067 12.5304 117.018 12.3993 117.018 12.2297H116.018H115.018C115.018 12.9242 115.272 13.5451 115.749 14.0465L116.474 13.3577ZM116.018 12.2297H117.018C117.018 12.0615 117.065 11.9483 117.181 11.8329L116.474 11.1257L115.766 10.4186C115.274 10.9112 115.018 11.534 115.018 12.2297H116.018ZM116.474 11.1257L117.162 11.8507C117.301 11.719 117.432 11.6698 117.602 11.6698V10.6698V9.66975C116.907 9.66975 116.286 9.92446 115.785 10.4008L116.474 11.1257ZM117.602 10.6698V11.6698C117.77 11.6698 117.883 11.7174 117.998 11.8329L118.706 11.1257L119.413 10.4186C118.92 9.92609 118.297 9.66975 117.602 9.66975V10.6698ZM118.706 11.1257L118.017 11.8507C118.143 11.9706 118.186 12.0785 118.186 12.2297H119.186H120.186C120.186 11.517 119.908 10.8889 119.394 10.4008L118.706 11.1257ZM119.186 12.2297H118.186C118.186 12.3828 118.141 12.5082 117.998 12.6506L118.706 13.3577L119.413 14.0649C119.91 13.5673 120.186 12.9407 120.186 12.2297H119.186ZM118.706 13.3577L117.998 12.6506C117.883 12.7661 117.77 12.8137 117.602 12.8137V13.8137V14.8137C118.297 14.8137 118.92 14.5574 119.413 14.0649L118.706 13.3577ZM121.59 28.0938H120.59V29.0938H121.59V28.0938ZM121.59 16.0938V15.0938H120.59V16.0938H121.59ZM124.11 16.0938L125.107 16.0179L125.036 15.0938H124.11V16.0938ZM124.278 18.3018H125.278V18.2638L125.275 18.2259L124.278 18.3018ZM124.278 28.0938V29.0938H125.278V28.0938H124.278ZM129.726 28.0938H128.726V29.0938H129.726V28.0938ZM129.726 21.9497V20.9497H128.726V21.9497H129.726ZM132.414 21.9497H133.414V20.9497H132.414V21.9497ZM132.414 28.0938V29.0938H133.414V28.0938H132.414ZM129.726 21.9497H128.726V22.9497H129.726V21.9497ZM129.39 19.7417L128.459 20.1083L128.466 20.1256L128.473 20.1426L129.39 19.7417ZM128.478 18.6377L128.001 19.517L128.009 19.5211L128.016 19.525L128.478 18.6377ZM127.11 18.3258L127.092 19.3256L127.101 19.3258H127.11V18.3258ZM125.022 19.2137L125.796 19.8459L125.022 19.2137ZM124.278 21.8298V22.8298H125.278V21.8298H124.278ZM123.27 21.8298H122.27V22.8298H123.27V21.8298ZM123.822 18.5897L124.747 18.9697L124.749 18.9639L123.822 18.5897ZM125.406 16.5257L125.965 17.3548L125.971 17.3504L125.978 17.3459L125.406 16.5257ZM130.302 16.3817L129.805 17.25L129.814 17.2549L130.302 16.3817ZM131.862 18.1817L130.943 18.5778L130.948 18.5888L130.953 18.5997L131.862 18.1817ZM132.414 21.9497V22.9497H133.414V21.9497H132.414ZM121.59 28.0938H122.59V16.0938H121.59H120.59V28.0938H121.59ZM121.59 16.0938V17.0938H124.11V16.0938V15.0938H121.59V16.0938ZM124.11 16.0938L123.112 16.1696L123.28 18.3776L124.278 18.3018L125.275 18.2259L125.107 16.0179L124.11 16.0938ZM124.278 18.3018H123.278V28.0938H124.278H125.278V18.3018H124.278ZM124.278 28.0938V27.0938H121.59V28.0938V29.0938H124.278V28.0938ZM129.726 28.0938H130.726V21.9497H129.726H128.726V28.0938H129.726ZM129.726 21.9497V22.9497H132.414V21.9497V20.9497H129.726V21.9497ZM132.414 21.9497H131.414V28.0938H132.414H133.414V21.9497H132.414ZM132.414 28.0938V27.0938H129.726V28.0938V29.0938H132.414V28.0938ZM129.726 21.9497H130.726C130.726 20.9368 130.611 20.0391 130.306 19.3409L129.39 19.7417L128.473 20.1426C128.616 20.4684 128.726 21.0427 128.726 21.9497H129.726ZM129.39 19.7417L130.32 19.3752C130.047 18.6827 129.604 18.0963 128.939 17.7505L128.478 18.6377L128.016 19.525C128.151 19.5952 128.316 19.7448 128.459 20.1083L129.39 19.7417ZM128.478 18.6377L128.954 17.7585C128.396 17.4563 127.769 17.3258 127.11 17.3258V18.3258V19.3258C127.506 19.3258 127.791 19.4032 128.001 19.517L128.478 18.6377ZM127.11 18.3258L127.127 17.3259C125.974 17.3053 124.966 17.7002 124.247 18.5816L125.022 19.2137L125.796 19.8459C126.069 19.5113 126.453 19.3142 127.092 19.3256L127.11 18.3258ZM125.022 19.2137L124.247 18.5816C123.552 19.4329 123.278 20.5638 123.278 21.8298H124.278H125.278C125.278 20.8237 125.499 20.2106 125.796 19.8459L125.022 19.2137ZM124.278 21.8298V20.8298H123.27V21.8298V22.8298H124.278V21.8298ZM123.27 21.8298H124.27C124.27 20.6582 124.441 19.7145 124.747 18.9697L123.822 18.5897L122.897 18.2098C122.466 19.257 122.27 20.4733 122.27 21.8298H123.27ZM123.822 18.5897L124.749 18.9639C125.056 18.202 125.471 17.688 125.965 17.3548L125.406 16.5257L124.846 15.6967C123.964 16.2915 123.323 17.1535 122.894 18.2156L123.822 18.5897ZM125.406 16.5257L125.978 17.3459C126.477 16.9973 127.088 16.8057 127.854 16.8057V15.8057V14.8057C126.732 14.8057 125.71 15.0942 124.833 15.7056L125.406 16.5257ZM127.854 15.8057V16.8057C128.681 16.8057 129.317 16.9708 129.805 17.25L130.302 16.3817L130.798 15.5135C129.942 15.0247 128.946 14.8057 127.854 14.8057V15.8057ZM130.302 16.3817L129.814 17.2549C130.286 17.5181 130.667 17.9368 130.943 18.5778L131.862 18.1817L132.78 17.7857C132.352 16.7947 131.693 16.0134 130.789 15.5086L130.302 16.3817ZM131.862 18.1817L130.953 18.5997C131.239 19.2217 131.414 20.1116 131.414 21.3258H132.414H133.414C133.414 19.9479 133.22 18.7418 132.77 17.7638L131.862 18.1817ZM132.414 21.3258H131.414V21.9497H132.414H133.414V21.3258H132.414ZM132.414 21.9497V20.9497H129.726V21.9497V22.9497H132.414V21.9497ZM137.492 32.9897L137.283 33.9676L137.288 33.9685L137.492 32.9897ZM135.788 32.4858L135.406 33.4098H135.406L135.788 32.4858ZM134.708 31.9338L133.806 31.5026L133.438 32.2737L134.142 32.7578L134.708 31.9338ZM135.74 29.7738L136.188 28.8793L135.277 28.424L134.838 29.3426L135.74 29.7738ZM136.628 30.1817L137.045 29.2727L137.036 29.2686L137.027 29.2647L136.628 30.1817ZM137.972 30.6378L137.73 31.6079L137.972 30.6378ZM141.548 30.3978L141.101 29.5033L141.091 29.5085L141.081 29.514L141.548 30.3978ZM142.82 29.1257L143.705 29.5925L142.82 29.1257ZM143.276 16.0938V15.0938H142.276V16.0938H143.276ZM145.964 16.0938H146.964V15.0938H145.964V16.0938ZM145.196 30.3018L144.317 29.825L144.314 29.8312L145.196 30.3018ZM143.036 32.4618L142.577 31.5735L142.565 31.5798L143.036 32.4618ZM136.532 27.1098L136.005 27.9597L136.013 27.9643L136.532 27.1098ZM134.636 25.0457L133.742 25.493L133.747 25.5026L133.752 25.5122L134.636 25.0457ZM134.636 18.7097L133.745 18.2562L133.739 18.2688L134.636 18.7097ZM136.532 16.5737L136.001 15.7267L135.993 15.7315L136.532 16.5737ZM141.932 16.5737L141.353 17.3887L141.361 17.3947L141.932 16.5737ZM143.636 18.7337L142.718 19.1296L142.721 19.1354L143.636 18.7337ZM143.636 25.0697L142.726 24.6559L143.636 25.0697ZM141.932 27.1337L142.487 27.9658L142.491 27.963L141.932 27.1337ZM141.716 25.0938L141.149 24.2705L141.142 24.2752L141.135 24.28L141.716 25.0938ZM142.796 23.7978L143.701 24.2236L143.706 24.2135L142.796 23.7978ZM142.796 19.9578L141.887 20.3735L141.892 20.3835L142.796 19.9578ZM141.716 18.6618L141.149 19.485L141.158 19.4917L141.168 19.4982L141.716 18.6618ZM138.404 18.6618L138.94 19.5066L138.947 19.502L138.404 18.6618ZM137.252 19.9578L136.363 19.5004L136.358 19.5105L137.252 19.9578ZM137.252 23.7978L136.353 24.2347L136.361 24.2503L136.369 24.2656L137.252 23.7978ZM138.428 25.0938L137.886 25.934L138.428 25.0938ZM139.796 33.2057V32.2057C139.004 32.2057 138.306 32.1383 137.697 32.011L137.492 32.9897L137.288 33.9685C138.055 34.1292 138.893 34.2057 139.796 34.2057V33.2057ZM137.492 32.9897L137.702 32.0119C137.069 31.8763 136.563 31.7239 136.171 31.5617L135.788 32.4858L135.406 33.4098C135.942 33.6316 136.572 33.8152 137.283 33.9676L137.492 32.9897ZM135.788 32.4858L136.171 31.5617C135.737 31.3823 135.449 31.2294 135.275 31.1097L134.708 31.9338L134.142 32.7578C134.48 32.9901 134.912 33.2052 135.406 33.4098L135.788 32.4858ZM134.708 31.9338L135.611 32.3649L136.643 30.2049L135.74 29.7738L134.838 29.3426L133.806 31.5026L134.708 31.9338ZM135.74 29.7738L135.293 30.6682C135.54 30.7914 135.854 30.9354 136.23 31.0988L136.628 30.1817L137.027 29.2647C136.667 29.1081 136.389 28.9801 136.188 28.8793L135.74 29.7738ZM136.628 30.1817L136.212 31.0908C136.664 31.2979 137.172 31.4685 137.73 31.6079L137.972 30.6378L138.215 29.6676C137.749 29.551 137.361 29.4176 137.045 29.2727L136.628 30.1817ZM137.972 30.6378L137.73 31.6079C138.336 31.7594 138.995 31.8298 139.7 31.8298V30.8298V29.8298C139.126 29.8298 138.633 29.7721 138.215 29.6676L137.972 30.6378ZM139.7 30.8298V31.8298C140.532 31.8298 141.312 31.6545 142.016 31.2815L141.548 30.3978L141.081 29.514C140.697 29.717 140.245 29.8298 139.7 29.8298V30.8298ZM141.548 30.3978L141.996 31.2922C142.74 30.92 143.311 30.3394 143.705 29.5925L142.82 29.1257L141.936 28.659C141.722 29.0641 141.445 29.3315 141.101 29.5033L141.548 30.3978ZM142.82 29.1257L143.705 29.5925C144.108 28.8288 144.276 27.9184 144.276 26.9177H143.276H142.276C142.276 27.7091 142.141 28.2707 141.936 28.659L142.82 29.1257ZM143.276 26.9177H144.276V16.0938H143.276H142.276V26.9177H143.276ZM143.276 16.0938V17.0938H145.964V16.0938V15.0938H143.276V16.0938ZM145.964 16.0938H144.964V26.8458H145.964H146.964V16.0938H145.964ZM145.964 26.8458H144.964C144.964 28.0827 144.732 29.0613 144.317 29.825L145.196 30.3018L146.075 30.7785C146.685 29.6542 146.964 28.3288 146.964 26.8458H145.964ZM145.196 30.3018L144.314 29.8312C143.893 30.6202 143.317 31.1907 142.577 31.5735L143.036 32.4618L143.496 33.35C144.612 32.7728 145.476 31.9033 146.079 30.7723L145.196 30.3018ZM143.036 32.4618L142.565 31.5798C141.805 31.986 140.892 32.2057 139.796 32.2057V33.2057V34.2057C141.165 34.2057 142.412 33.9295 143.508 33.3437L143.036 32.4618ZM139.388 27.8538V26.8538C138.458 26.8538 137.69 26.6434 137.052 26.2552L136.532 27.1098L136.013 27.9643C137.006 28.5681 138.143 28.8538 139.388 28.8538V27.8538ZM136.532 27.1098L137.059 26.2598C136.419 25.863 135.907 25.3113 135.521 24.5793L134.636 25.0457L133.752 25.5122C134.294 26.5402 135.046 27.3645 136.006 27.9597L136.532 27.1098ZM134.636 25.0457L135.531 24.5985C135.163 23.8627 134.964 22.9882 134.964 21.9497H133.964H132.964C132.964 23.2473 133.214 24.4368 133.742 25.493L134.636 25.0457ZM133.964 21.9497H134.964C134.964 20.8204 135.167 19.8977 135.534 19.1507L134.636 18.7097L133.739 18.2688C133.21 19.3458 132.964 20.5831 132.964 21.9497H133.964ZM134.636 18.7097L135.528 19.1632C135.917 18.3972 136.433 17.8247 137.071 17.416L136.532 16.5737L135.993 15.7315C135.032 16.3468 134.283 17.1983 133.745 18.2563L134.636 18.7097ZM136.532 16.5737L137.064 17.4208C137.701 17.0212 138.463 16.8057 139.388 16.8057V15.8057V14.8057C138.137 14.8057 136.996 15.1023 136.001 15.7267L136.532 16.5737ZM139.388 15.8057V16.8057C140.18 16.8057 140.82 17.0096 141.353 17.3887L141.932 16.5737L142.512 15.7588C141.605 15.1139 140.549 14.8057 139.388 14.8057V15.8057ZM141.932 16.5737L141.361 17.3947C141.925 17.787 142.382 18.3505 142.718 19.1296L143.636 18.7337L144.555 18.3379C144.091 17.261 143.411 16.3845 142.504 15.7528L141.932 16.5737ZM143.636 18.7337L142.721 19.1354C143.053 19.8931 143.236 20.8301 143.236 21.9737H144.236H145.236C145.236 20.6214 145.02 19.3984 144.552 18.3321L143.636 18.7337ZM144.236 21.9737H143.236C143.236 23.0464 143.055 23.9317 142.726 24.6559L143.636 25.0697L144.547 25.4836C145.018 24.4478 145.236 23.2691 145.236 21.9737H144.236ZM143.636 25.0697L142.726 24.6559C142.396 25.3832 141.943 25.921 141.374 26.3045L141.932 27.1337L142.491 27.963C143.394 27.3545 144.077 26.5163 144.547 25.4836L143.636 25.0697ZM141.932 27.1337L141.378 26.3017C140.842 26.6586 140.193 26.8538 139.388 26.8538V27.8538V28.8538C140.536 28.8538 141.582 28.5689 142.487 27.9658L141.932 27.1337ZM140.132 25.5737V26.5737C140.926 26.5737 141.662 26.3612 142.298 25.9075L141.716 25.0938L141.135 24.28C140.874 24.4663 140.555 24.5737 140.132 24.5737V25.5737ZM141.716 25.0938L142.284 25.917C142.903 25.4899 143.375 24.9164 143.701 24.2235L142.796 23.7978L141.892 23.372C141.706 23.7671 141.457 24.0576 141.149 24.2705L141.716 25.0938ZM142.796 23.7978L143.706 24.2135C144.031 23.5028 144.18 22.7171 144.18 21.8778H143.18H142.18C142.18 22.4784 142.074 22.9727 141.887 23.382L142.796 23.7978ZM143.18 21.8778H144.18C144.18 21.0269 144.032 20.2356 143.701 19.532L142.796 19.9578L141.892 20.3835C142.072 20.7679 142.18 21.2566 142.18 21.8778H143.18ZM142.796 19.9578L143.706 19.542C143.38 18.83 142.903 18.2438 142.264 17.8253L141.716 18.6618L141.168 19.4982C141.458 19.6877 141.7 19.9655 141.887 20.3735L142.796 19.9578ZM141.716 18.6618L142.284 17.8385C141.64 17.3942 140.902 17.1817 140.108 17.1817V18.1817V19.1817C140.53 19.1817 140.865 19.2893 141.149 19.485L141.716 18.6618ZM140.108 18.1817V17.1817C139.293 17.1817 138.534 17.3884 137.862 17.8215L138.404 18.6618L138.947 19.502C139.267 19.2951 139.644 19.1817 140.108 19.1817V18.1817ZM138.404 18.6618L137.869 17.8169C137.223 18.2263 136.724 18.7996 136.363 19.5004L137.252 19.9578L138.142 20.4151C138.357 19.9959 138.626 19.7052 138.939 19.5066L138.404 18.6618ZM137.252 19.9578L136.358 19.5105C136.003 20.2196 135.844 21.0187 135.844 21.8778H136.844H137.844C137.844 21.2648 137.957 20.7839 138.147 20.405L137.252 19.9578ZM136.844 21.8778H135.844C135.844 22.7254 136.005 23.5187 136.353 24.2347L137.252 23.7978L138.152 23.3608C137.956 22.9568 137.844 22.4701 137.844 21.8778H136.844ZM137.252 23.7978L136.369 24.2656C136.733 24.9542 137.24 25.5172 137.886 25.934L138.428 25.0938L138.971 24.2535C138.625 24.0303 138.348 23.7293 138.136 23.3299L137.252 23.7978ZM138.428 25.0938L137.886 25.934C138.558 26.3671 139.317 26.5737 140.132 26.5737V25.5737V24.5737C139.668 24.5737 139.291 24.4604 138.971 24.2535L138.428 25.0938ZM148.433 28.0938H147.433V29.0938H148.433V28.0938ZM148.433 11.2937V10.2937H147.433V11.2937H148.433ZM151.121 11.2937H152.121V10.2937H151.121V11.2937ZM151.121 25.8617L152.119 25.9261L152.121 25.894V25.8617H151.121ZM150.977 28.0938V29.0938H151.915L151.975 28.1581L150.977 28.0938ZM152.297 27.6138L151.706 28.4202L151.716 28.4275L151.726 28.4347L152.297 27.6138ZM150.641 25.4058L151.568 25.029L150.641 25.4058ZM150.641 18.7817L151.565 19.1641L151.568 19.1585L150.641 18.7817ZM152.297 16.5977L152.877 17.4127L152.88 17.4103L152.297 16.5977ZM157.745 16.5977L157.194 17.4324L157.204 17.4387L157.214 17.4448L157.745 16.5977ZM159.641 18.7817L158.738 19.2105L158.742 19.2198L158.747 19.229L159.641 18.7817ZM159.641 25.4058L158.744 24.9646L158.738 24.977L159.641 25.4058ZM157.745 27.6138L158.284 28.456L158.289 28.4533L157.745 27.6138ZM155.945 25.4538L156.487 26.294L156.497 26.288L156.506 26.2817L155.945 25.4538ZM157.121 24.0858L156.237 23.619L156.232 23.6287L156.227 23.6385L157.121 24.0858ZM157.145 20.1017L156.241 20.5288L156.246 20.5389L156.251 20.549L157.145 20.1017ZM155.993 18.7577L156.535 17.9175L155.993 18.7577ZM152.633 18.7577L152.079 17.9257L152.633 18.7577ZM151.505 20.1017L150.601 19.6747L150.596 19.6851L150.591 19.6956L151.505 20.1017ZM151.505 24.0858L150.591 24.4919L150.596 24.5024L150.601 24.5128L151.505 24.0858ZM152.609 25.4538L152.023 26.2637L152.038 26.2751L152.055 26.2858L152.609 25.4538ZM148.433 28.0938H149.433V11.2937H148.433H147.433V28.0938H148.433ZM148.433 11.2937V12.2937H151.121V11.2937V10.2937H148.433V11.2937ZM151.121 11.2937H150.121V25.8617H151.121H152.121V11.2937H151.121ZM151.121 25.8617L150.123 25.7974L149.979 28.0294L150.977 28.0938L151.975 28.1581L152.119 25.9261L151.121 25.8617ZM150.977 28.0938V27.0938H148.433V28.0938V29.0938H150.977V28.0938ZM154.913 28.3818V27.3818C154.083 27.3818 153.416 27.174 152.868 26.7928L152.297 27.6138L151.726 28.4347C152.65 29.0775 153.728 29.3818 154.913 29.3818V28.3818ZM152.297 27.6138L152.889 26.8073C152.338 26.4036 151.892 25.8263 151.568 25.029L150.641 25.4058L149.715 25.7825C150.159 26.8732 150.817 27.7679 151.706 28.4202L152.297 27.6138ZM150.641 25.4058L151.568 25.029C151.242 24.2296 151.065 23.2586 151.065 22.0938H150.065H149.065C149.065 23.4569 149.272 24.6939 149.715 25.7825L150.641 25.4058ZM150.065 22.0938H151.065C151.065 20.9104 151.243 19.9426 151.565 19.1641L150.641 18.7817L149.717 18.3994C149.271 19.4769 149.065 20.7171 149.065 22.0938H150.065ZM150.641 18.7817L151.568 19.1585C151.891 18.363 152.334 17.7985 152.877 17.4127L152.297 16.5977L151.718 15.7828C150.82 16.421 150.159 17.3125 149.715 18.405L150.641 18.7817ZM152.297 16.5977L152.88 17.4103C153.427 17.0178 154.09 16.8057 154.913 16.8057V15.8057V14.8057C153.721 14.8057 152.639 15.1217 151.714 15.7852L152.297 16.5977ZM154.913 15.8057V16.8057C155.833 16.8057 156.579 17.0263 157.194 17.4324L157.745 16.5977L158.296 15.7631C157.311 15.1132 156.17 14.8057 154.913 14.8057V15.8057ZM157.745 16.5977L157.214 17.4448C157.855 17.8471 158.364 18.4233 158.738 19.2105L159.641 18.7817L160.545 18.353C160.022 17.2522 159.268 16.3724 158.277 15.7507L157.745 16.5977ZM159.641 18.7817L158.747 19.229C159.127 19.9894 159.337 20.9334 159.337 22.0938H160.337H161.337C161.337 20.6941 161.084 19.4301 160.536 18.3345L159.641 18.7817ZM160.337 22.0938H159.337C159.337 23.2353 159.128 24.1828 158.744 24.9646L159.641 25.4058L160.539 25.8469C161.082 24.7406 161.337 23.4802 161.337 22.0938H160.337ZM159.641 25.4058L158.738 24.977C158.363 25.7664 157.85 26.3546 157.202 26.7742L157.745 27.6138L158.289 28.4533C159.272 27.8169 160.023 26.9331 160.545 25.8345L159.641 25.4058ZM157.745 27.6138L157.206 26.7715C156.59 27.1661 155.839 27.3818 154.913 27.3818V28.3818V29.3818C156.164 29.3818 157.301 29.0854 158.284 28.456L157.745 27.6138ZM154.241 25.9338V26.9338C155.057 26.9338 155.816 26.7271 156.487 26.294L155.945 25.4538L155.403 24.6135C155.082 24.8204 154.706 24.9338 154.241 24.9338V25.9338ZM155.945 25.4538L156.506 26.2817C157.155 25.8423 157.657 25.2505 158.016 24.533L157.121 24.0858L156.227 23.6385C156.01 24.073 155.728 24.3932 155.384 24.6258L155.945 25.4538ZM157.121 24.0858L158.006 24.5525C158.397 23.8118 158.577 22.9831 158.577 22.0938H157.577H156.577C156.577 22.7084 156.454 23.2077 156.237 23.619L157.121 24.0858ZM157.577 22.0938H158.577C158.577 21.2125 158.408 20.3909 158.04 19.6545L157.145 20.1017L156.251 20.549C156.459 20.9646 156.577 21.471 156.577 22.0938H157.577ZM157.145 20.1017L158.05 19.6747C157.704 18.9438 157.201 18.3467 156.535 17.9175L155.993 18.7577L155.451 19.598C155.778 19.8088 156.042 20.1077 156.241 20.5288L157.145 20.1017ZM155.993 18.7577L156.535 17.9175C155.86 17.4818 155.091 17.2778 154.265 17.2778V18.2778V19.2778C154.751 19.2778 155.134 19.3937 155.451 19.598L155.993 18.7577ZM154.265 18.2778V17.2778C153.471 17.2778 152.732 17.4901 152.079 17.9257L152.633 18.7577L153.188 19.5898C153.495 19.3854 153.844 19.2778 154.265 19.2778V18.2778ZM152.633 18.7577L152.079 17.9257C151.432 18.3568 150.942 18.9521 150.601 19.6747L151.505 20.1017L152.41 20.5288C152.612 20.0994 152.875 19.7987 153.188 19.5898L152.633 18.7577ZM151.505 20.1017L150.591 19.6956C150.269 20.4217 150.121 21.2284 150.121 22.0938H151.121H152.121C152.121 21.4551 152.23 20.9338 152.419 20.5079L151.505 20.1017ZM151.121 22.0938H150.121C150.121 22.9591 150.269 23.7658 150.591 24.4919L151.505 24.0858L152.419 23.6796C152.23 23.2537 152.121 22.7324 152.121 22.0938H151.121ZM151.505 24.0858L150.601 24.5128C150.937 25.2237 151.408 25.8182 152.023 26.2637L152.609 25.4538L153.196 24.6438C152.883 24.4173 152.618 24.0998 152.41 23.6587L151.505 24.0858ZM152.609 25.4538L152.055 26.2858C152.708 26.7214 153.447 26.9338 154.241 26.9338V25.9338V24.9338C153.82 24.9338 153.471 24.8261 153.164 24.6217L152.609 25.4538ZM162.304 28.0938H161.304V29.0938H162.304V28.0938ZM162.304 16.0938V15.0938H161.304V16.0938H162.304ZM164.968 16.0938H165.968V15.0938H164.968V16.0938ZM164.968 28.0938V29.0938H165.968V28.0938H164.968ZM162.52 13.3577L161.795 14.0465L161.813 14.0651L161.832 14.0827L162.52 13.3577ZM162.52 11.1257L161.832 10.4008L161.822 10.4096L161.813 10.4186L162.52 11.1257ZM164.752 11.1257L164.045 11.8329L164.054 11.8419L164.064 11.8507L164.752 11.1257ZM164.752 13.3577L164.045 12.6506L164.752 13.3577ZM162.304 28.0938H163.304V16.0938H162.304H161.304V28.0938H162.304ZM162.304 16.0938V17.0938H164.968V16.0938V15.0938H162.304V16.0938ZM164.968 16.0938H163.968V28.0938H164.968H165.968V16.0938H164.968ZM164.968 28.0938V27.0938H162.304V28.0938V29.0938H164.968V28.0938ZM163.648 13.8137V12.8137C163.479 12.8137 163.348 12.7645 163.209 12.6327L162.52 13.3577L161.832 14.0827C162.333 14.559 162.954 14.8137 163.648 14.8137V13.8137ZM162.52 13.3577L163.245 12.669C163.114 12.5304 163.064 12.3993 163.064 12.2297H162.064H161.064C161.064 12.9242 161.319 13.5451 161.795 14.0465L162.52 13.3577ZM162.064 12.2297H163.064C163.064 12.0615 163.112 11.9483 163.228 11.8329L162.52 11.1257L161.813 10.4186C161.321 10.9112 161.064 11.534 161.064 12.2297H162.064ZM162.52 11.1257L163.209 11.8507C163.348 11.719 163.479 11.6698 163.648 11.6698V10.6698V9.66975C162.954 9.66975 162.333 9.92446 161.832 10.4008L162.52 11.1257ZM163.648 10.6698V11.6698C163.817 11.6698 163.93 11.7174 164.045 11.8329L164.752 11.1257L165.46 10.4186C164.967 9.92609 164.344 9.66975 163.648 9.66975V10.6698ZM164.752 11.1257L164.064 11.8507C164.19 11.9706 164.232 12.0785 164.232 12.2297H165.232H166.232C166.232 11.517 165.955 10.8889 165.441 10.4008L164.752 11.1257ZM165.232 12.2297H164.232C164.232 12.3828 164.188 12.5082 164.045 12.6506L164.752 13.3577L165.46 14.0649C165.957 13.5673 166.232 12.9407 166.232 12.2297H165.232ZM164.752 13.3577L164.045 12.6506C163.93 12.7661 163.817 12.8137 163.648 12.8137V13.8137V14.8137C164.344 14.8137 164.967 14.5574 165.46 14.0649L164.752 13.3577ZM169.412 21.7097H168.412V22.7638L169.465 22.7084L169.412 21.7097ZM172.076 16.6698L172.531 17.5605L172.538 17.557L172.076 16.6698ZM174.572 16.0457H175.572V15.0457H174.572V16.0457ZM174.572 18.6138V19.6138H175.572V18.6138H174.572ZM172.484 18.9257L172.772 19.8836L172.779 19.8813L172.787 19.879L172.484 18.9257ZM170.924 19.8857L171.67 20.5518L170.924 19.8857ZM170.324 21.6618L170.377 22.6604L171.324 22.6105V21.6618H170.324ZM167.636 28.0938H166.636V29.0938H167.636V28.0938ZM167.636 16.0938V15.0938H166.636V16.0938H167.636ZM170.324 16.0938H171.324V15.0938H170.324V16.0938ZM170.324 28.0938V29.0938H171.324V28.0938H170.324ZM169.412 21.7097H170.412C170.412 20.535 170.638 19.6631 171.015 19.0298L170.156 18.5177L169.297 18.0057C168.683 19.0364 168.412 20.2925 168.412 21.7097H169.412ZM170.156 18.5177L171.015 19.0298C171.425 18.3428 171.931 17.8664 172.531 17.5605L172.076 16.6698L171.622 15.779C170.654 16.2731 169.88 17.0287 169.297 18.0057L170.156 18.5177ZM172.076 16.6698L172.538 17.557C173.202 17.2117 173.876 17.0457 174.572 17.0457V16.0457V15.0457C173.541 15.0457 172.551 15.2958 171.615 15.7825L172.076 16.6698ZM174.572 16.0457H173.572V18.6138H174.572H175.572V16.0457H174.572ZM174.572 18.6138V17.6137C173.741 17.6137 172.943 17.7314 172.182 17.9725L172.484 18.9257L172.787 19.879C173.338 19.7041 173.932 19.6138 174.572 19.6138V18.6138ZM172.484 18.9257L172.197 17.9679C171.401 18.2068 170.715 18.6189 170.178 19.2197L170.924 19.8857L171.67 20.5518C171.934 20.2566 172.288 20.0287 172.772 19.8836L172.484 18.9257ZM170.924 19.8857L170.178 19.2197C169.58 19.89 169.324 20.738 169.324 21.6618H170.324H171.324C171.324 21.1135 171.469 20.7775 171.67 20.5518L170.924 19.8857ZM170.324 21.6618L170.272 20.6631L169.36 20.7111L169.412 21.7097L169.465 22.7084L170.377 22.6604L170.324 21.6618ZM167.636 28.0938H168.636V16.0938H167.636H166.636V28.0938H167.636ZM167.636 16.0938V17.0938H170.324V16.0938V15.0938H167.636V16.0938ZM170.324 16.0938H169.324V28.0938H170.324H171.324V16.0938H170.324ZM170.324 28.0938V27.0938H167.636V28.0938V29.0938H170.324V28.0938ZM184.519 28.0938L183.521 28.1474L183.572 29.0938H184.519V28.0938ZM184.399 25.8617H183.399V25.8886L183.401 25.9154L184.399 25.8617ZM184.399 11.2937V10.2937H183.399V11.2937H184.399ZM187.063 11.2937H188.063V10.2937H187.063V11.2937ZM187.063 28.0938V29.0938H188.063V28.0938H187.063ZM177.751 27.6138L177.2 28.4484L177.21 28.4547L177.22 28.4608L177.751 27.6138ZM175.855 25.4058L174.952 25.8345L174.958 25.8469L175.855 25.4058ZM175.855 18.7817L174.958 18.3406L174.955 18.347L175.855 18.7817ZM177.751 16.5977L178.29 17.44L178.294 17.4373L177.751 16.5977ZM183.199 16.5977L182.608 17.4042L182.618 17.4115L182.628 17.4187L183.199 16.5977ZM184.879 18.7817L183.953 19.1586L183.955 19.1641L184.879 18.7817ZM183.199 27.6138L183.779 28.4287L183.782 28.4263L183.199 27.6138ZM182.887 25.4538L183.455 26.277L183.461 26.273L182.887 25.4538ZM183.991 24.0858L183.087 23.6587L183.082 23.6691L183.077 23.6796L183.991 24.0858ZM183.991 20.1017L183.077 20.5079L183.082 20.5184L183.087 20.5288L183.991 20.1017ZM182.887 18.7577L182.319 19.581L182.326 19.5854L182.332 19.5898L182.887 18.7577ZM179.551 18.7577L179.009 17.9175L179.551 18.7577ZM178.375 20.1017L177.481 19.6545L177.476 19.6646L177.471 19.6747L178.375 20.1017ZM177.943 22.0938L176.943 22.0725L176.943 22.0938L176.943 22.115L177.943 22.0938ZM178.375 24.0858L177.471 24.5128L177.476 24.5229L177.481 24.533L178.375 24.0858ZM179.551 25.4538L178.99 26.2817L179.006 26.292L179.021 26.3017L179.551 25.4538ZM184.519 28.0938L185.518 28.0401L185.398 25.8081L184.399 25.8617L183.401 25.9154L183.521 28.1474L184.519 28.0938ZM184.399 25.8617H185.399V11.2937H184.399H183.399V25.8617H184.399ZM184.399 11.2937V12.2937H187.063V11.2937V10.2937H184.399V11.2937ZM187.063 11.2937H186.063V28.0938H187.063H188.063V11.2937H187.063ZM187.063 28.0938V27.0938H184.519V28.0938V29.0938H187.063V28.0938ZM180.607 28.3818V27.3818C179.682 27.3818 178.919 27.1663 178.283 26.7667L177.751 27.6138L177.22 28.4608C178.215 29.0852 179.356 29.3818 180.607 29.3818V28.3818ZM177.751 27.6138L178.302 26.7791C177.665 26.3585 177.146 25.765 176.753 24.9646L175.855 25.4058L174.958 25.8469C175.492 26.9345 176.238 27.813 177.2 28.4484L177.751 27.6138ZM175.855 25.4058L176.759 24.977C176.386 24.1921 176.183 23.24 176.183 22.0938H175.183H174.183C174.183 23.4755 174.428 24.7314 174.952 25.8345L175.855 25.4058ZM175.183 22.0938H176.183C176.183 20.9287 176.387 19.9801 176.756 19.2165L175.855 18.7817L174.955 18.347C174.427 19.4394 174.183 20.6988 174.183 22.0938H175.183ZM175.855 18.7817L176.753 19.2229C177.145 18.4247 177.66 17.8432 178.29 17.44L177.751 16.5977L177.212 15.7555C176.242 16.3763 175.493 17.2508 174.958 18.3406L175.855 18.7817ZM177.751 16.5977L178.294 17.4373C178.93 17.0262 179.688 16.8057 180.607 16.8057V15.8057V14.8057C179.35 14.8057 178.205 15.1132 177.208 15.7582L177.751 16.5977ZM180.607 15.8057V16.8057C181.431 16.8057 182.081 17.0179 182.608 17.4042L183.199 16.5977L183.791 15.7913C182.877 15.1216 181.799 14.8057 180.607 14.8057V15.8057ZM183.199 16.5977L182.628 17.4187C183.184 17.8055 183.632 18.3686 183.953 19.1585L184.879 18.7817L185.805 18.405C185.359 17.3069 184.686 16.414 183.77 15.7768L183.199 16.5977ZM184.879 18.7817L183.955 19.1641C184.277 19.9426 184.455 20.9104 184.455 22.0938H185.455H186.455C186.455 20.7171 186.249 19.4769 185.803 18.3994L184.879 18.7817ZM185.455 22.0938H184.455C184.455 23.2586 184.278 24.2296 183.953 25.029L184.879 25.4058L185.805 25.7825C186.248 24.6939 186.455 23.4569 186.455 22.0938H185.455ZM184.879 25.4058L183.953 25.029C183.631 25.8207 183.18 26.3965 182.616 26.8012L183.199 27.6138L183.782 28.4263C184.69 27.775 185.36 26.8788 185.805 25.7825L184.879 25.4058ZM183.199 27.6138L182.62 26.7988C182.092 27.1739 181.438 27.3818 180.607 27.3818V28.3818V29.3818C181.793 29.3818 182.866 29.0776 183.779 28.4287L183.199 27.6138ZM181.279 25.9338V26.9338C182.073 26.9338 182.811 26.7213 183.455 26.277L182.887 25.4538L182.319 24.6305C182.036 24.8262 181.701 24.9338 181.279 24.9338V25.9338ZM182.887 25.4538L183.461 26.273C184.101 25.8249 184.581 25.2209 184.905 24.4919L183.991 24.0858L183.077 23.6796C182.889 24.1026 182.634 24.4106 182.314 24.6345L182.887 25.4538ZM183.991 24.0858L184.895 24.5128C185.241 23.7812 185.399 22.967 185.399 22.0938H184.399H183.399C183.399 22.7245 183.286 23.2383 183.087 23.6587L183.991 24.0858ZM184.399 22.0938H185.399C185.399 21.2205 185.241 20.4063 184.895 19.6747L183.991 20.1017L183.087 20.5288C183.286 20.9492 183.399 21.463 183.399 22.0938H184.399ZM183.991 20.1017L184.905 19.6956C184.579 18.9631 184.094 18.3605 183.442 17.9257L182.887 18.7577L182.332 19.5898C182.64 19.795 182.891 20.0884 183.077 20.5079L183.991 20.1017ZM182.887 18.7577L183.455 17.9345C182.806 17.4872 182.059 17.2778 181.255 17.2778V18.2778V19.2778C181.699 19.2778 182.04 19.3883 182.319 19.581L182.887 18.7577ZM181.255 18.2778V17.2778C180.44 17.2778 179.68 17.4844 179.009 17.9175L179.551 18.7577L180.093 19.598C180.414 19.3911 180.791 19.2778 181.255 19.2778V18.2778ZM179.551 18.7577L179.009 17.9175C178.349 18.3433 177.841 18.9334 177.481 19.6545L178.375 20.1017L179.27 20.549C179.485 20.1181 179.761 19.8122 180.093 19.598L179.551 18.7577ZM178.375 20.1017L177.471 19.6747C177.129 20.3987 176.962 21.2051 176.943 22.0725L177.943 22.0938L178.943 22.115C178.957 21.4784 179.077 20.9568 179.279 20.5288L178.375 20.1017ZM177.943 22.0938L176.943 22.115C176.962 22.9824 177.129 23.7888 177.471 24.5128L178.375 24.0858L179.279 23.6587C179.077 23.2306 178.957 22.7091 178.943 22.0725L177.943 22.0938ZM178.375 24.0858L177.481 24.533C177.84 25.2505 178.342 25.8423 178.99 26.2817L179.551 25.4538L180.112 24.6258C179.769 24.3932 179.487 24.073 179.27 23.6385L178.375 24.0858ZM179.551 25.4538L179.021 26.3017C179.702 26.7271 180.464 26.9338 181.279 26.9338V25.9338V24.9338C180.815 24.9338 180.425 24.8204 180.081 24.6058L179.551 25.4538Z" fill="#4D595E" mask="url(#path-2-outside-1_34560_76192)"/>
</g>
<defs>
<linearGradient id="paint0_linear_34560_76192" x1="18.0809" y1="-2.42906" x2="39.9149" y2="49.2909" gradientUnits="userSpaceOnUse">
<stop stop-color="#1E90FF"/>
<stop offset="0.5" stop-color="#0074E6"/>
<stop offset="1" stop-color="#003970"/>
</linearGradient>
<clipPath id="clip0_34560_76192">
<rect width="200" height="40" fill="white" transform="translate(0 0.09375)"/>
</clipPath>
</defs>
</svg>
