<svg width="176" height="47" viewBox="0 0 176 47" fill="none" xmlns="http://www.w3.org/2000/svg">
<g clip-path="url(#clip0_34438_68499)">
<path d="M11.1533 9.27148C13.0173 7.73349 16.0171 6.80119 18.2656 11.8789L28.4248 38.5967L23.4277 33.0928C22.3869 31.9463 21.1213 31.2342 19.8477 30.6299C17.0934 29.3232 13.504 26.3474 12.5801 20.8652C12.2266 18.7675 11.7187 14.6028 10.4863 12.8105C10.1781 12.3625 9.73957 12.1342 9.30762 11.9355L3.01172 9.04004L9.34766 9.90918C9.98383 9.99629 10.6101 9.71959 11.1533 9.27148ZM20.1699 14.6738C21.8586 12.501 26.8321 8.51911 33.1064 10.0205L22.8652 21.7617L20.1699 14.6738ZM12.8008 10.0068C12.2145 10.007 11.7393 10.6379 11.7393 11.416C11.7393 12.194 12.2146 12.8251 12.8008 12.8252C13.3871 12.8252 13.8622 12.1941 13.8623 11.416C13.8623 10.6378 13.3871 10.0068 12.8008 10.0068Z" fill="url(#paint0_linear_34438_68499)"/>
<path d="M44.8516 30.4736V10.9639H47.4034V30.4736H44.8516ZM52.5756 30.4736V23.3386H55.1275V30.4736H52.5756ZM52.5756 23.3386C52.5756 22.2238 52.4692 21.3691 52.2566 20.7745C52.0439 20.1613 51.7477 19.734 51.368 19.4924C51.0034 19.2509 50.5781 19.1301 50.092 19.1301C49.2262 19.1115 48.5579 19.4553 48.087 20.1613C47.6313 20.8674 47.4034 21.88 47.4034 23.1993H46.4237C46.4237 21.7314 46.5984 20.4772 46.9478 19.4367C47.3123 18.3776 47.8212 17.5786 48.4743 17.0398C49.1275 16.4824 49.9022 16.2036 50.7984 16.2036C51.6946 16.2036 52.4692 16.4266 53.1224 16.8725C53.7756 17.3185 54.2692 18.0153 54.6034 18.9629C54.9528 19.8919 55.1275 21.1089 55.1275 22.614V23.3386H52.5756Z" fill="#4D595E"/>
<path d="M64.8701 30.4736L64.7334 27.9095V16.5381H67.2625V30.4736H64.8701ZM56.9866 23.6731V16.5381H59.5385V23.6731H56.9866ZM59.5385 23.6731C59.5385 24.7693 59.6448 25.624 59.8575 26.2372C60.0701 26.8504 60.3587 27.2777 60.7233 27.5193C61.103 27.7608 61.536 27.8816 62.022 27.8816C62.8878 27.9002 63.5562 27.5564 64.0271 26.8504C64.498 26.1443 64.7334 25.1316 64.7334 23.8124H65.6904C65.6904 25.2803 65.5081 26.5438 65.1435 27.6029C64.7942 28.6434 64.2929 29.4424 63.6397 29.9998C63.0018 30.5386 62.2271 30.808 61.3157 30.808C60.4195 30.808 59.6448 30.5851 58.9917 30.1391C58.3537 29.6932 57.86 28.9964 57.5107 28.0488C57.1613 27.1012 56.9866 25.8842 56.9866 24.3977V23.6731H59.5385Z" fill="#4D595E"/>
<path d="M69.6235 30.4736V16.5381H72.0158L72.1298 18.4055C72.4791 17.6808 72.9272 17.1327 73.4741 16.7611C74.0209 16.3895 74.6437 16.2036 75.3424 16.2036C76.2538 16.2036 77.0285 16.4545 77.6665 16.9562C78.3044 17.4578 78.7677 18.2196 79.0563 19.2416C79.3905 18.2568 79.8614 17.5043 80.469 16.984C81.0766 16.4638 81.7905 16.2036 82.6107 16.2036C83.9322 16.2036 84.95 16.7239 85.6639 17.7644C86.3778 18.7864 86.7272 20.3657 86.712 22.5025V30.4736H84.1829V23.3386C84.1829 22.2238 84.0841 21.3691 83.8867 20.7745C83.6892 20.1613 83.4234 19.734 83.0892 19.4924C82.755 19.2509 82.3677 19.1301 81.9272 19.1301C81.1373 19.1115 80.5221 19.4553 80.0816 20.1613C79.6563 20.8674 79.4437 21.88 79.4437 23.1993V30.4736H76.8918V23.3386C76.8918 22.2238 76.793 21.3691 76.5956 20.7745C76.4133 20.1613 76.1551 19.734 75.8209 19.4924C75.4867 19.2509 75.0994 19.1301 74.6589 19.1301C73.869 19.1115 73.2538 19.4553 72.8133 20.1613C72.388 20.8674 72.1753 21.88 72.1753 23.1993V30.4736H69.6235Z" fill="#4D595E"/>
<path d="M88.8406 30.4736V16.5381H91.233L91.3469 18.4055C91.6963 17.6808 92.1444 17.1327 92.6912 16.7611C93.2381 16.3895 93.8609 16.2036 94.5596 16.2036C95.471 16.2036 96.2457 16.4545 96.8836 16.9562C97.5216 17.4578 97.9849 18.2196 98.2735 19.2416C98.6077 18.2568 99.0786 17.5043 99.6861 16.984C100.294 16.4638 101.008 16.2036 101.828 16.2036C103.149 16.2036 104.167 16.7239 104.881 17.7644C105.595 18.7864 105.944 20.3657 105.929 22.5025V30.4736H103.4V23.3386C103.4 22.2238 103.301 21.3691 103.104 20.7745C102.906 20.1613 102.641 19.734 102.306 19.4924C101.972 19.2509 101.585 19.1301 101.144 19.1301C100.354 19.1115 99.7393 19.4553 99.2988 20.1613C98.8735 20.8674 98.6608 21.88 98.6608 23.1993V30.4736H96.1089V23.3386C96.1089 22.2238 96.0102 21.3691 95.8127 20.7745C95.6305 20.1613 95.3722 19.734 95.0381 19.4924C94.7039 19.2509 94.3165 19.1301 93.876 19.1301C93.0862 19.1115 92.471 19.4553 92.0305 20.1613C91.6052 20.8674 91.3925 21.88 91.3925 23.1993V30.4736H88.8406Z" fill="#4D595E"/>
<path d="M108.217 30.4736V16.5381H110.746V30.4736H108.217ZM109.493 13.8904C109.083 13.8904 108.726 13.7138 108.422 13.3608C108.134 12.9892 107.989 12.5525 107.989 12.0509C107.989 11.5492 108.134 11.1218 108.422 10.7688C108.726 10.4158 109.083 10.2393 109.493 10.2393C109.903 10.2393 110.253 10.4158 110.541 10.7688C110.845 11.1218 110.997 11.5492 110.997 12.0509C110.997 12.5525 110.845 12.9892 110.541 13.3608C110.253 13.7138 109.903 13.8904 109.493 13.8904Z" fill="#4D595E"/>
<path d="M113.279 30.4736V16.5381H115.672L115.831 19.1022V30.4736H113.279ZM121.003 30.4736V23.3386H123.555V30.4736H121.003ZM121.003 23.3386C121.003 22.2238 120.897 21.3691 120.684 20.7745C120.487 20.1613 120.198 19.734 119.819 19.4924C119.454 19.2509 119.021 19.1301 118.52 19.1301C117.669 19.1115 117.008 19.4553 116.538 20.1613C116.067 20.8674 115.831 21.88 115.831 23.1993H114.874C114.874 21.7314 115.049 20.4772 115.398 19.4367C115.748 18.3776 116.249 17.5786 116.902 17.0398C117.555 16.4824 118.33 16.2036 119.226 16.2036C120.137 16.2036 120.912 16.4266 121.55 16.8725C122.203 17.3185 122.697 18.0153 123.031 18.9629C123.381 19.8919 123.555 21.1089 123.555 22.614V23.3386H121.003Z" fill="#4D595E"/>
<path d="M130.564 36.4101C129.759 36.4101 129.03 36.3265 128.377 36.1593C127.739 35.992 127.2 35.7969 126.759 35.574C126.319 35.351 125.977 35.1373 125.734 34.9329L126.714 32.4245C126.926 32.5546 127.207 32.7125 127.557 32.8984C127.921 33.1027 128.347 33.2793 128.833 33.4279C129.319 33.5765 129.865 33.6509 130.473 33.6509C131.126 33.6509 131.711 33.4836 132.228 33.1492C132.744 32.8333 133.146 32.3409 133.435 31.672C133.724 31.0031 133.868 30.1484 133.868 29.1079V16.5381H136.42V29.0243C136.42 30.6036 136.177 31.9415 135.691 33.0377C135.205 34.1525 134.521 34.9887 133.64 35.5461C132.759 36.1221 131.734 36.4101 130.564 36.4101ZM130.177 30.1949C129.144 30.1949 128.24 29.9069 127.465 29.3309C126.706 28.7549 126.106 27.9559 125.666 26.934C125.24 25.8935 125.028 24.695 125.028 23.3386C125.028 21.8893 125.24 20.6351 125.666 19.576C126.106 18.5169 126.706 17.6901 127.465 17.0955C128.24 16.5009 129.144 16.2036 130.177 16.2036C131.103 16.2036 131.909 16.5009 132.592 17.0955C133.291 17.6901 133.83 18.5262 134.21 19.6039C134.59 20.663 134.779 21.9172 134.779 23.3665C134.779 24.7415 134.59 25.9399 134.21 26.9618C133.83 27.9838 133.291 28.7827 132.592 29.3587C131.909 29.9162 131.103 30.1949 130.177 30.1949ZM130.883 27.5471C131.46 27.5471 131.962 27.3613 132.387 26.9897C132.827 26.6181 133.169 26.1164 133.412 25.4847C133.655 24.8344 133.777 24.0911 133.777 23.255C133.777 22.4003 133.655 21.6571 133.412 21.0253C133.169 20.375 132.827 19.8733 132.387 19.5203C131.946 19.1487 131.438 18.9629 130.86 18.9629C130.253 18.9629 129.714 19.1487 129.243 19.5203C128.787 19.8733 128.422 20.375 128.149 21.0253C127.891 21.6571 127.762 22.4003 127.762 23.255C127.762 24.0911 127.891 24.8344 128.149 25.4847C128.422 26.1164 128.795 26.6181 129.265 26.9897C129.736 27.3613 130.276 27.5471 130.883 27.5471Z" fill="#4D595E"/>
<path d="M138.764 30.4736V10.9639H141.316V27.8816L141.179 30.4736H138.764ZM144.916 30.808C143.959 30.808 143.131 30.5107 142.432 29.9162C141.749 29.303 141.224 28.4483 140.86 27.352C140.495 26.2558 140.313 24.9737 140.313 23.5058C140.313 22.0194 140.495 20.7373 140.86 19.6596C141.224 18.5634 141.749 17.718 142.432 17.1234C143.131 16.5102 143.959 16.2036 144.916 16.2036C145.949 16.2036 146.845 16.5102 147.604 17.1234C148.379 17.718 148.979 18.5634 149.404 19.6596C149.845 20.7373 150.065 22.0194 150.065 23.5058C150.065 24.9737 149.845 26.2558 149.404 27.352C148.979 28.4483 148.379 29.303 147.604 29.9162C146.845 30.5107 145.949 30.808 144.916 30.808ZM144.278 27.9652C144.885 27.9652 145.424 27.7794 145.895 27.4078C146.366 27.0176 146.738 26.488 147.012 25.8191C147.3 25.1502 147.445 24.3791 147.445 23.5058C147.445 22.6325 147.308 21.8615 147.035 21.1925C146.776 20.5236 146.412 20.0034 145.941 19.6318C145.47 19.2602 144.923 19.0744 144.3 19.0744C143.723 19.0744 143.207 19.2602 142.751 19.6318C142.295 20.0034 141.938 20.5236 141.68 21.1925C141.437 21.8615 141.316 22.6325 141.316 23.5058C141.316 24.3791 141.437 25.1502 141.68 25.8191C141.938 26.488 142.288 27.0176 142.728 27.4078C143.184 27.7794 143.7 27.9652 144.278 27.9652Z" fill="#4D595E"/>
<path d="M151.932 30.4736V16.5381H154.462V30.4736H151.932ZM153.208 13.8904C152.798 13.8904 152.441 13.7138 152.138 13.3608C151.849 12.9892 151.705 12.5525 151.705 12.0509C151.705 11.5492 151.849 11.1218 152.138 10.7688C152.441 10.4158 152.798 10.2393 153.208 10.2393C153.619 10.2393 153.968 10.4158 154.257 10.7688C154.56 11.1218 154.712 11.5492 154.712 12.0509C154.712 12.5525 154.56 12.9892 154.257 13.3608C153.968 13.7138 153.619 13.8904 153.208 13.8904Z" fill="#4D595E"/>
<path d="M158.681 23.0599C158.681 21.5549 158.916 20.3193 159.387 19.3531C159.858 18.3869 160.465 17.6715 161.21 17.207C161.969 16.7239 162.759 16.4824 163.579 16.4824V19.4645C162.881 19.4645 162.22 19.5853 161.597 19.8269C160.989 20.0498 160.496 20.4215 160.116 20.9417C159.736 21.462 159.546 22.1495 159.546 23.0042L158.681 23.0599ZM156.994 30.4736V16.5381H159.546V30.4736H156.994Z" fill="#4D595E"/>
<path d="M173.022 30.4736L172.908 27.8816V10.9639H175.438V30.4736H173.022ZM169.308 30.808C168.276 30.808 167.372 30.5107 166.597 29.9162C165.838 29.303 165.238 28.4483 164.797 27.352C164.372 26.2558 164.159 24.9737 164.159 23.5058C164.159 22.0194 164.372 20.7373 164.797 19.6596C165.238 18.5634 165.838 17.718 166.597 17.1234C167.372 16.5102 168.276 16.2036 169.308 16.2036C170.265 16.2036 171.086 16.5102 171.769 17.1234C172.468 17.718 173 18.5634 173.364 19.6596C173.729 20.7373 173.911 22.0194 173.911 23.5058C173.911 24.9737 173.729 26.2558 173.364 27.352C173 28.4483 172.468 29.303 171.769 29.9162C171.086 30.5107 170.265 30.808 169.308 30.808ZM169.946 27.9652C170.524 27.9652 171.032 27.7794 171.473 27.4078C171.929 27.0176 172.278 26.488 172.521 25.8191C172.779 25.1502 172.908 24.3791 172.908 23.5058C172.908 22.6325 172.779 21.8615 172.521 21.1925C172.278 20.5236 171.929 20.0034 171.473 19.6318C171.032 19.2602 170.516 19.0744 169.924 19.0744C169.316 19.0744 168.777 19.2602 168.306 19.6318C167.835 20.0034 167.463 20.5236 167.189 21.1925C166.931 21.8615 166.794 22.6325 166.779 23.5058C166.794 24.3791 166.931 25.1502 167.189 25.8191C167.463 26.488 167.835 27.0176 168.306 27.4078C168.792 27.7794 169.339 27.9652 169.946 27.9652Z" fill="#4D595E"/>
</g>
<defs>
<linearGradient id="paint0_linear_34438_68499" x1="16.382" y1="-2.83118" x2="46.5572" y2="51.0274" gradientUnits="userSpaceOnUse">
<stop stop-color="#1E90FF"/>
<stop offset="0.5" stop-color="#0074E6"/>
<stop offset="1" stop-color="#003970"/>
</linearGradient>
<clipPath id="clip0_34438_68499">
<rect width="174.876" height="46.4516" fill="white" transform="translate(0.5625 0.0986328)"/>
</clipPath>
</defs>
</svg>
