<svg width="198" height="123" viewBox="0 0 198 123" fill="none" xmlns="http://www.w3.org/2000/svg">
<g clip-path="url(#clip0_34438_68508)">
<g clip-path="url(#clip1_34438_68508)">
<path d="M25.0045 12.3749C27.4981 12.103 30.9355 12.8635 31.3596 17.9175L31.8689 43.6829L28.7721 36.9379C28.127 35.533 27.0894 34.3545 26.0023 33.2553C23.6516 30.8786 21.0624 26.7936 22.1539 22.0807C22.5716 20.2772 23.5997 16.7931 22.9978 14.7924C22.8471 14.2919 22.4804 13.8976 22.1092 13.5295L16.7026 8.16826L22.9054 11.9771C23.5286 12.3596 24.2776 12.4542 25.0045 12.3749ZM32.2805 21.0288C34.8301 20.1773 41.4377 19.5463 47.3425 23.8153L32.4156 27.8641L32.2805 21.0288ZM26.4257 13.7603C25.8218 13.4706 25.0974 13.725 24.8074 14.3288C24.5174 14.9327 24.7716 15.6579 25.3754 15.948C25.9795 16.238 26.7051 15.9832 26.9951 15.3791C27.2849 14.775 27.0298 14.0503 26.4257 13.7603Z" fill="url(#paint0_linear_34438_68508)"/>
</g>
<path d="M50.0243 46.6859L57.2954 31.5409L59.7186 32.7042L52.4475 47.8493L50.0243 46.6859ZM57.3589 50.2072L60.018 44.6684L62.4412 45.8318L59.7821 51.3705L57.3589 50.2072ZM60.018 44.6684C60.4335 43.803 60.651 43.091 60.6707 42.5325C60.6973 41.9596 60.5753 41.4928 60.3047 41.1322C60.0486 40.7785 59.6897 40.4908 59.2281 40.2692C58.4129 39.8601 57.6502 39.8222 56.9399 40.1557C56.244 40.496 55.6503 41.1783 55.1586 42.2023L54.2283 41.7557C54.7753 40.6162 55.4086 39.7222 56.1282 39.0738C56.869 38.4178 57.65 38.0296 58.471 37.909C59.299 37.7741 60.1385 37.9109 60.9895 38.3195C61.8405 38.728 62.493 39.2543 62.9471 39.8982C63.4011 40.5421 63.6102 41.3081 63.5744 42.1961C63.5599 43.0765 63.2722 44.1009 62.7113 45.2692L62.4412 45.8318L60.018 44.6684ZM69.0334 55.8121L69.8593 53.7592L74.0972 44.9318L76.4988 46.0848L71.3052 56.9027L69.0334 55.8121ZM64.0819 46.939L66.7411 41.4002L69.1643 42.5636L66.5051 48.1023L64.0819 46.939ZM66.5051 48.1023C66.0966 48.9533 65.879 49.6653 65.8524 50.2382C65.8258 50.8112 65.9406 51.2745 66.1968 51.6282C66.4674 51.9888 66.8334 52.2799 67.295 52.5015C68.1102 52.9107 68.873 52.9485 69.5833 52.6151C70.2935 52.2816 70.8945 51.6029 71.3862 50.5788L72.2949 51.015C71.7478 52.1545 71.1038 53.0523 70.363 53.7082C69.6434 54.3567 68.8697 54.7484 68.0417 54.8833C67.2351 55.0108 66.3991 54.8668 65.5336 54.4513C64.6826 54.0427 64.0301 53.5165 63.5761 52.8725C63.1365 52.2355 62.9274 51.4696 62.9488 50.5747C62.9702 49.6798 63.2579 48.6554 63.8119 47.5015L64.0819 46.939L66.5051 48.1023ZM73.5471 57.979L78.7407 47.1611L81.0124 48.2518L80.4247 49.7533C81.0265 49.3501 81.6563 49.1288 82.314 49.0897C82.9718 49.0505 83.6324 49.1902 84.2959 49.5087C85.1613 49.9242 85.8035 50.4721 86.2223 51.1524C86.6411 51.8326 86.7971 52.6352 86.6903 53.5601C87.3747 52.948 88.1023 52.5785 88.8731 52.4516C89.644 52.3247 90.4188 52.4483 91.1977 52.8222C92.4526 53.4247 93.2251 54.2925 93.5152 55.4257C93.8123 56.5445 93.5554 57.9298 92.7447 59.5816L89.7739 65.7694L87.3724 64.6164L90.0315 59.0777C90.447 58.2122 90.6717 57.5037 90.7058 56.9522C90.7468 56.3861 90.6537 55.9332 90.4264 55.5934C90.1991 55.2535 89.8763 54.9832 89.458 54.7823C88.7149 54.4078 88.0026 54.3942 87.3212 54.7415C86.6542 55.0957 86.0748 55.7849 85.5832 56.809L82.8721 62.4559L80.4489 61.2925L83.108 55.7538C83.5235 54.8883 83.7483 54.1798 83.7824 53.6283C83.8378 53.0692 83.7519 52.6197 83.5246 52.2798C83.2973 51.94 82.9745 51.6697 82.5562 51.4688C81.8131 51.0943 81.1008 51.0807 80.4194 51.428C79.7524 51.7822 79.173 52.4714 78.6814 53.4955L75.9703 59.1424L73.5471 57.979ZM91.7952 66.7398L96.9888 55.9219L99.2606 57.0126L98.6728 58.5141C99.2746 58.1109 99.9044 57.8896 100.562 57.8505C101.22 57.8113 101.881 57.951 102.544 58.2695C103.409 58.685 104.052 59.2329 104.47 59.9132C104.889 60.5934 105.045 61.396 104.938 62.3209C105.623 61.7088 106.35 61.3393 107.121 61.2124C107.892 61.0855 108.667 61.2091 109.446 61.583C110.701 62.1855 111.473 63.0533 111.763 64.1865C112.06 65.3053 111.804 66.6906 110.993 68.3424L108.022 74.5302L105.62 73.3772L108.28 67.8385C108.695 66.973 108.92 66.2645 108.954 65.713C108.995 65.1469 108.902 64.694 108.675 64.3542C108.447 64.0143 108.124 63.744 107.706 63.5431C106.963 63.1686 106.251 63.155 105.569 63.5023C104.902 63.8565 104.323 64.5457 103.831 65.5698L101.12 71.2167L98.697 70.0533L101.356 64.5146C101.772 63.6491 101.996 62.9406 102.031 62.3891C102.086 61.83 102 61.3805 101.773 61.0406C101.545 60.7008 101.223 60.4305 100.804 60.2296C100.061 59.8551 99.3489 59.8415 98.6675 60.1888C98.0005 60.543 97.4212 61.2322 96.9295 62.2563L94.2184 67.9032L91.7952 66.7398ZM110.195 75.5733L115.388 64.7555L117.79 65.9084L112.596 76.7263L110.195 75.5733ZM117.587 63.2817C117.197 63.0948 116.924 62.795 116.767 62.3825C116.632 61.9624 116.657 61.5577 116.844 61.1682C117.031 60.7788 117.328 60.5128 117.733 60.3703C118.153 60.2348 118.558 60.2605 118.948 60.4475C119.337 60.6344 119.603 60.9307 119.745 61.3363C119.902 61.7489 119.887 62.1499 119.7 62.5393C119.513 62.9288 119.206 63.1985 118.779 63.3485C118.374 63.4909 117.976 63.4687 117.587 63.2817ZM115.002 77.881L120.195 67.0631L122.467 68.1538L121.663 70.217L117.425 79.0444L115.002 77.881ZM122.336 81.4023L124.995 75.8635L127.418 77.0269L124.759 82.5656L122.336 81.4023ZM124.995 75.8635C125.411 74.9981 125.628 74.2861 125.648 73.7276C125.689 73.1616 125.574 72.6983 125.304 72.3376C125.047 71.9839 124.681 71.6928 124.205 71.4643C123.405 71.0621 122.649 71.0277 121.939 71.3612C121.228 71.6946 120.627 72.3734 120.136 73.3975L119.227 72.9612C119.774 71.8217 120.407 70.9277 121.127 70.2793C121.853 69.6164 122.627 69.2247 123.448 69.1041C124.276 68.9692 125.116 69.106 125.967 69.5146C126.832 69.93 127.485 70.4563 127.924 71.0933C128.378 71.7373 128.587 72.5032 128.552 73.3912C128.537 74.2716 128.249 75.296 127.688 76.4644L127.418 77.0269L124.995 75.8635ZM129.202 90.3694C128.438 90.0023 127.777 89.6051 127.219 89.1775C126.675 88.7568 126.236 88.3595 125.901 87.9856C125.566 87.6117 125.321 87.29 125.166 87.0206L127.031 85.52C127.185 85.7179 127.393 85.9686 127.655 86.2721C127.925 86.597 128.263 86.9279 128.67 87.2649C129.076 87.6019 129.567 87.9089 130.144 88.1859C130.764 88.4836 131.382 88.6204 131.997 88.5962C132.605 88.5865 133.171 88.3878 133.694 88.0001C134.218 87.6124 134.673 87.0147 135.061 86.2069L139.746 76.4492L142.169 77.6126L137.515 87.3054C136.927 88.5314 136.197 89.4591 135.327 90.0885C134.45 90.7324 133.49 91.0698 132.445 91.1009C131.394 91.1464 130.313 90.9026 129.202 90.3694ZM131.151 85.368C130.17 84.8971 129.419 84.2615 128.898 83.4612C128.392 82.6678 128.12 81.7741 128.082 80.78C128.066 79.7783 128.311 78.751 128.817 77.6981C129.357 76.573 130.026 75.6964 130.825 75.0681C131.638 74.4468 132.515 74.0784 133.458 73.9631C134.415 73.8547 135.384 74.036 136.365 74.5068C137.245 74.9293 137.899 75.5271 138.326 76.3002C138.768 77.0803 138.969 77.9752 138.928 78.9849C138.893 79.9802 138.606 81.0404 138.066 82.1654C137.554 83.2328 136.927 84.0766 136.185 84.6968C135.444 85.317 134.634 85.6914 133.756 85.82C132.899 85.9411 132.031 85.7904 131.151 85.368ZM132.808 83.6346C133.357 83.8977 133.902 83.982 134.444 83.8874C135.001 83.7998 135.512 83.5662 135.979 83.1865C136.452 82.7925 136.844 82.2709 137.156 81.6219C137.474 80.9584 137.636 80.326 137.641 79.7248C137.652 79.1092 137.515 78.5639 137.228 78.0891C136.948 77.5998 136.534 77.2235 135.986 76.9604C135.409 76.6834 134.828 76.5818 134.242 76.6556C133.678 76.7219 133.145 76.9452 132.643 77.3254C132.162 77.6981 131.763 78.2162 131.444 78.8797C131.132 79.5287 130.978 80.1645 130.981 80.7871C131.005 81.4022 131.171 81.9613 131.48 82.4644C131.789 82.9675 132.231 83.3576 132.808 83.6346ZM139.201 89.499L146.472 74.3539L148.895 75.5173L142.59 88.6502L141.494 90.6L139.201 89.499ZM144.918 92.5631C144.009 92.1269 143.334 91.5187 142.892 90.7386C142.471 89.951 142.292 89.0486 142.355 88.0314C142.417 87.0142 142.722 85.9358 143.269 84.7964C143.823 83.6425 144.474 82.7303 145.222 82.0599C145.976 81.3751 146.789 80.9577 147.66 80.8078C148.552 80.6503 149.452 80.7897 150.361 81.226C151.342 81.6969 152.078 82.3434 152.571 83.1657C153.085 83.9804 153.34 84.9102 153.335 85.9551C153.352 86.9925 153.083 88.0882 152.529 89.2421C151.982 90.3816 151.295 91.2764 150.468 91.9266C149.656 92.5837 148.768 92.9737 147.803 93.0965C146.861 93.2118 145.899 93.034 144.918 92.5631ZM145.372 90.0655C145.949 90.3424 146.53 90.444 147.116 90.3702C147.708 90.282 148.259 90.0406 148.768 89.646C149.291 89.2583 149.716 88.7255 150.041 88.0475C150.366 87.3696 150.524 86.7087 150.514 86.0648C150.518 85.4278 150.365 84.8578 150.057 84.3546C149.748 83.8515 149.298 83.4579 148.707 83.174C148.159 82.9109 147.599 82.8197 147.028 82.9004C146.457 82.9811 145.924 83.2223 145.429 83.6238C144.949 84.0323 144.546 84.5755 144.221 85.2534C143.895 85.9313 143.723 86.5853 143.705 87.2154C143.701 87.8523 143.835 88.4227 144.108 88.9264C144.402 89.4226 144.824 89.8023 145.372 90.0655ZM151.706 95.5024L156.899 84.6845L159.301 85.8375L154.107 96.6554L151.706 95.5024ZM159.098 83.2108C158.708 83.0238 158.435 82.7241 158.278 82.3115C158.143 81.8915 158.168 81.4867 158.355 81.0973C158.542 80.7078 158.838 80.4419 159.244 80.2994C159.664 80.1638 160.069 80.1895 160.458 80.3765C160.848 80.5635 161.114 80.8598 161.256 81.2654C161.413 81.6779 161.398 82.0789 161.211 82.4684C161.024 82.8578 160.717 83.1275 160.29 83.2775C159.885 83.42 159.487 83.3978 159.098 83.2108ZM160.876 92.8236C161.437 91.6553 162.121 90.8034 162.929 90.2681C163.736 89.7327 164.579 89.4544 165.459 89.4331C166.361 89.4043 167.201 89.5769 167.979 89.9508L166.868 92.2658C166.205 91.9473 165.532 91.7398 164.851 91.6434C164.191 91.5395 163.583 91.6029 163.029 91.8337C162.474 92.0644 162.038 92.5116 161.719 93.175L160.876 92.8236ZM156.512 97.8101L161.706 86.9922L164.129 88.1555L158.936 98.9734L156.512 97.8101ZM171.732 105.117L172.59 103.053L178.895 89.9199L181.296 91.0729L174.025 106.218L171.732 105.117ZM168.081 103.683C167.1 103.213 166.353 102.57 165.838 101.755C165.346 100.933 165.095 99.9958 165.085 98.9439C165.09 97.899 165.365 96.8068 165.913 95.6674C166.466 94.5134 167.146 93.6151 167.952 92.9725C168.779 92.3223 169.663 91.9395 170.606 91.8242C171.57 91.7014 172.543 91.8754 173.524 92.3463C174.432 92.7825 175.097 93.3945 175.518 94.1821C175.959 94.9622 176.149 95.8608 176.087 96.878C176.031 97.8808 175.727 98.9592 175.173 100.113C174.626 101.253 173.975 102.165 173.22 102.85C172.465 103.534 171.642 103.955 170.75 104.113C169.879 104.263 168.989 104.12 168.081 103.683ZM169.746 101.767C170.294 102.031 170.847 102.118 171.403 102.031C171.982 101.935 172.511 101.684 172.991 101.275C173.485 100.874 173.895 100.334 174.221 99.656C174.546 98.9781 174.711 98.3207 174.715 97.6837C174.733 97.0536 174.596 96.4905 174.301 95.9943C174.022 95.505 173.6 95.1253 173.038 94.8552C172.461 94.5782 171.88 94.4766 171.294 94.5504C170.708 94.6243 170.161 94.8585 169.652 95.2531C169.158 95.6546 168.741 96.1909 168.401 96.8619C168.09 97.5467 167.932 98.2076 167.928 98.8446C167.938 99.4885 168.094 100.069 168.396 100.587C168.719 101.097 169.169 101.49 169.746 101.767Z" fill="#4D595E"/>
</g>
<defs>
<linearGradient id="paint0_linear_34438_68508" x1="34.9016" y1="5.56642" x2="32.2004" y2="61.6412" gradientUnits="userSpaceOnUse">
<stop stop-color="#1E90FF"/>
<stop offset="0.5" stop-color="#0074E6"/>
<stop offset="1" stop-color="#003970"/>
</linearGradient>
<clipPath id="clip0_34438_68508">
<rect width="200" height="40" fill="white" transform="translate(17.5078 0.015625) rotate(25.6453)"/>
</clipPath>
<clipPath id="clip1_34438_68508">
<rect width="40" height="40" fill="white" transform="translate(17.5078 0.015625) rotate(25.6453)"/>
</clipPath>
</defs>
</svg>
