<svg width="251" height="51" viewBox="0 0 251 51" fill="none" xmlns="http://www.w3.org/2000/svg">
<g clip-path="url(#clip0_34438_68468)">
<path d="M15.2988 10.7617C17.9617 9.10624 22.2458 8.10282 25.458 13.5684L39.9717 42.3271L32.833 36.4023C31.346 35.1681 29.5385 34.4015 27.7188 33.751C23.7842 32.3445 18.6568 29.1419 17.3369 23.2412C16.8319 20.9831 16.1055 16.5002 14.3447 14.5713C13.9042 14.0888 13.2785 13.8428 12.6611 13.6289L3.66797 10.5127L12.7188 11.4482C13.6279 11.5422 14.5226 11.2442 15.2988 10.7617ZM28.1797 16.5771C30.5921 14.2383 37.6967 9.9521 46.6602 11.5684L32.0303 24.207L28.1797 16.5771ZM17.6494 11.5527C16.8118 11.5528 16.1328 12.2317 16.1328 13.0693C16.1328 13.9069 16.8118 14.5859 17.6494 14.5859C18.487 14.5859 19.166 13.907 19.166 13.0693C19.166 12.2317 18.487 11.5527 17.6494 11.5527Z" fill="white"/>
<path d="M62.0541 36.3887V15.3887H65.4141V36.3887H62.0541ZM72.2241 36.3887V28.7087H75.5841V36.3887H72.2241ZM72.2241 28.7087C72.2241 27.5087 72.0841 26.5887 71.8041 25.9487C71.5241 25.2887 71.1341 24.8287 70.6341 24.5687C70.1541 24.3087 69.5941 24.1787 68.9541 24.1787C67.8141 24.1587 66.9341 24.5287 66.3141 25.2887C65.7141 26.0487 65.4141 27.1387 65.4141 28.5587H64.1241C64.1241 26.9787 64.3541 25.6287 64.8141 24.5087C65.2941 23.3687 65.9641 22.5087 66.8241 21.9287C67.6841 21.3287 68.7041 21.0287 69.8841 21.0287C71.0641 21.0287 72.0841 21.2687 72.9441 21.7487C73.8041 22.2287 74.4541 22.9787 74.8941 23.9987C75.3541 24.9987 75.5841 26.3087 75.5841 27.9287V28.7087H72.2241ZM88.412 36.3887L88.232 33.6287V21.3887H91.562V36.3887H88.412ZM78.032 29.0687V21.3887H81.392V29.0687H78.032ZM81.392 29.0687C81.392 30.2487 81.532 31.1687 81.812 31.8287C82.092 32.4887 82.472 32.9487 82.952 33.2087C83.452 33.4687 84.022 33.5987 84.662 33.5987C85.802 33.6187 86.682 33.2487 87.302 32.4887C87.922 31.7287 88.232 30.6387 88.232 29.2187H89.492C89.492 30.7987 89.252 32.1587 88.772 33.2987C88.312 34.4187 87.652 35.2787 86.792 35.8787C85.952 36.4587 84.932 36.7487 83.732 36.7487C82.552 36.7487 81.532 36.5087 80.672 36.0287C79.832 35.5487 79.182 34.7987 78.722 33.7787C78.262 32.7587 78.032 31.4487 78.032 29.8487V29.0687H81.392ZM94.6705 36.3887V21.3887H97.8205L97.9705 23.3987C98.4305 22.6187 99.0205 22.0287 99.7405 21.6287C100.461 21.2287 101.281 21.0287 102.201 21.0287C103.401 21.0287 104.421 21.2987 105.261 21.8387C106.101 22.3787 106.711 23.1987 107.091 24.2987C107.531 23.2387 108.151 22.4287 108.951 21.8687C109.751 21.3087 110.691 21.0287 111.771 21.0287C113.511 21.0287 114.851 21.5887 115.791 22.7087C116.731 23.8087 117.191 25.5087 117.171 27.8087V36.3887H113.841V28.7087C113.841 27.5087 113.711 26.5887 113.451 25.9487C113.191 25.2887 112.841 24.8287 112.401 24.5687C111.961 24.3087 111.451 24.1787 110.871 24.1787C109.831 24.1587 109.021 24.5287 108.441 25.2887C107.881 26.0487 107.601 27.1387 107.601 28.5587V36.3887H104.241V28.7087C104.241 27.5087 104.111 26.5887 103.851 25.9487C103.611 25.2887 103.271 24.8287 102.831 24.5687C102.391 24.3087 101.881 24.1787 101.301 24.1787C100.261 24.1587 99.4505 24.5287 98.8705 25.2887C98.3105 26.0487 98.0305 27.1387 98.0305 28.5587V36.3887H94.6705ZM119.973 36.3887V21.3887H123.123L123.273 23.3987C123.733 22.6187 124.323 22.0287 125.043 21.6287C125.763 21.2287 126.583 21.0287 127.503 21.0287C128.703 21.0287 129.723 21.2987 130.563 21.8387C131.403 22.3787 132.013 23.1987 132.393 24.2987C132.833 23.2387 133.453 22.4287 134.253 21.8687C135.053 21.3087 135.993 21.0287 137.073 21.0287C138.813 21.0287 140.153 21.5887 141.093 22.7087C142.033 23.8087 142.493 25.5087 142.473 27.8087V36.3887H139.143V28.7087C139.143 27.5087 139.013 26.5887 138.753 25.9487C138.493 25.2887 138.143 24.8287 137.703 24.5687C137.263 24.3087 136.753 24.1787 136.173 24.1787C135.133 24.1587 134.323 24.5287 133.743 25.2887C133.183 26.0487 132.903 27.1387 132.903 28.5587V36.3887H129.543V28.7087C129.543 27.5087 129.413 26.5887 129.153 25.9487C128.913 25.2887 128.573 24.8287 128.133 24.5687C127.693 24.3087 127.183 24.1787 126.603 24.1787C125.563 24.1587 124.753 24.5287 124.173 25.2887C123.613 26.0487 123.333 27.1387 123.333 28.5587V36.3887H119.973ZM145.486 36.3887V21.3887H148.816V36.3887H145.486ZM147.166 18.5387C146.626 18.5387 146.156 18.3487 145.756 17.9687C145.376 17.5687 145.186 17.0987 145.186 16.5587C145.186 16.0187 145.376 15.5587 145.756 15.1787C146.156 14.7987 146.626 14.6087 147.166 14.6087C147.706 14.6087 148.166 14.7987 148.546 15.1787C148.946 15.5587 149.146 16.0187 149.146 16.5587C149.146 17.0987 148.946 17.5687 148.546 17.9687C148.166 18.3487 147.706 18.5387 147.166 18.5387ZM152.151 36.3887V21.3887H155.301L155.511 24.1487V36.3887H152.151ZM162.321 36.3887V28.7087H165.681V36.3887H162.321ZM162.321 28.7087C162.321 27.5087 162.181 26.5887 161.901 25.9487C161.641 25.2887 161.261 24.8287 160.761 24.5687C160.281 24.3087 159.711 24.1787 159.051 24.1787C157.931 24.1587 157.061 24.5287 156.441 25.2887C155.821 26.0487 155.511 27.1387 155.511 28.5587H154.251C154.251 26.9787 154.481 25.6287 154.941 24.5087C155.401 23.3687 156.061 22.5087 156.921 21.9287C157.781 21.3287 158.801 21.0287 159.981 21.0287C161.181 21.0287 162.201 21.2687 163.041 21.7487C163.901 22.2287 164.551 22.9787 164.991 23.9987C165.451 24.9987 165.681 26.3087 165.681 27.9287V28.7087H162.321ZM174.91 42.7787C173.85 42.7787 172.89 42.6887 172.03 42.5087C171.19 42.3287 170.48 42.1187 169.9 41.8787C169.32 41.6387 168.87 41.4087 168.55 41.1887L169.84 38.4887C170.12 38.6287 170.49 38.7987 170.95 38.9987C171.43 39.2187 171.99 39.4087 172.63 39.5687C173.27 39.7287 173.99 39.8087 174.79 39.8087C175.65 39.8087 176.42 39.6287 177.1 39.2687C177.78 38.9287 178.31 38.3987 178.69 37.6787C179.07 36.9587 179.26 36.0387 179.26 34.9187V21.3887H182.62V34.8287C182.62 36.5287 182.3 37.9687 181.66 39.1487C181.02 40.3487 180.12 41.2487 178.96 41.8487C177.8 42.4687 176.45 42.7787 174.91 42.7787ZM174.4 36.0887C173.04 36.0887 171.85 35.7787 170.83 35.1587C169.83 34.5387 169.04 33.6787 168.46 32.5787C167.9 31.4587 167.62 30.1687 167.62 28.7087C167.62 27.1487 167.9 25.7987 168.46 24.6587C169.04 23.5187 169.83 22.6287 170.83 21.9887C171.85 21.3487 173.04 21.0287 174.4 21.0287C175.62 21.0287 176.68 21.3487 177.58 21.9887C178.5 22.6287 179.21 23.5287 179.71 24.6887C180.21 25.8287 180.46 27.1787 180.46 28.7387C180.46 30.2187 180.21 31.5087 179.71 32.6087C179.21 33.7087 178.5 34.5687 177.58 35.1887C176.68 35.7887 175.62 36.0887 174.4 36.0887ZM175.33 33.2387C176.09 33.2387 176.75 33.0387 177.31 32.6387C177.89 32.2387 178.34 31.6987 178.66 31.0187C178.98 30.3187 179.14 29.5187 179.14 28.6187C179.14 27.6987 178.98 26.8987 178.66 26.2187C178.34 25.5187 177.89 24.9787 177.31 24.5987C176.73 24.1987 176.06 23.9987 175.3 23.9987C174.5 23.9987 173.79 24.1987 173.17 24.5987C172.57 24.9787 172.09 25.5187 171.73 26.2187C171.39 26.8987 171.22 27.6987 171.22 28.6187C171.22 29.5187 171.39 30.3187 171.73 31.0187C172.09 31.6987 172.58 32.2387 173.2 32.6387C173.82 33.0387 174.53 33.2387 175.33 33.2387ZM185.706 36.3887V15.3887H189.066V33.5987L188.886 36.3887H185.706ZM193.806 36.7487C192.546 36.7487 191.456 36.4287 190.536 35.7887C189.636 35.1287 188.946 34.2087 188.466 33.0287C187.986 31.8487 187.746 30.4687 187.746 28.8887C187.746 27.2887 187.986 25.9087 188.466 24.7487C188.946 23.5687 189.636 22.6587 190.536 22.0187C191.456 21.3587 192.546 21.0287 193.806 21.0287C195.166 21.0287 196.346 21.3587 197.346 22.0187C198.366 22.6587 199.156 23.5687 199.716 24.7487C200.296 25.9087 200.586 27.2887 200.586 28.8887C200.586 30.4687 200.296 31.8487 199.716 33.0287C199.156 34.2087 198.366 35.1287 197.346 35.7887C196.346 36.4287 195.166 36.7487 193.806 36.7487ZM192.966 33.6887C193.766 33.6887 194.476 33.4887 195.096 33.0887C195.716 32.6687 196.206 32.0987 196.566 31.3787C196.946 30.6587 197.136 29.8287 197.136 28.8887C197.136 27.9487 196.956 27.1187 196.596 26.3987C196.256 25.6787 195.776 25.1187 195.156 24.7187C194.536 24.3187 193.816 24.1187 192.996 24.1187C192.236 24.1187 191.556 24.3187 190.956 24.7187C190.356 25.1187 189.886 25.6787 189.546 26.3987C189.226 27.1187 189.066 27.9487 189.066 28.8887C189.066 29.8287 189.226 30.6587 189.546 31.3787C189.886 32.0987 190.346 32.6687 190.926 33.0887C191.526 33.4887 192.206 33.6887 192.966 33.6887ZM203.045 36.3887V21.3887H206.375V36.3887H203.045ZM204.725 18.5387C204.185 18.5387 203.715 18.3487 203.315 17.9687C202.935 17.5687 202.745 17.0987 202.745 16.5587C202.745 16.0187 202.935 15.5587 203.315 15.1787C203.715 14.7987 204.185 14.6087 204.725 14.6087C205.265 14.6087 205.725 14.7987 206.105 15.1787C206.505 15.5587 206.705 16.0187 206.705 16.5587C206.705 17.0987 206.505 17.5687 206.105 17.9687C205.725 18.3487 205.265 18.5387 204.725 18.5387ZM211.93 28.4087C211.93 26.7887 212.24 25.4587 212.86 24.4187C213.48 23.3787 214.28 22.6087 215.26 22.1087C216.26 21.5887 217.3 21.3287 218.38 21.3287V24.5387C217.46 24.5387 216.59 24.6687 215.77 24.9287C214.97 25.1687 214.32 25.5687 213.82 26.1287C213.32 26.6887 213.07 27.4287 213.07 28.3487L211.93 28.4087ZM209.71 36.3887V21.3887H213.07V36.3887H209.71ZM230.813 36.3887L230.663 33.5987V15.3887H233.993V36.3887H230.813ZM225.923 36.7487C224.563 36.7487 223.373 36.4287 222.353 35.7887C221.353 35.1287 220.563 34.2087 219.983 33.0287C219.423 31.8487 219.143 30.4687 219.143 28.8887C219.143 27.2887 219.423 25.9087 219.983 24.7487C220.563 23.5687 221.353 22.6587 222.353 22.0187C223.373 21.3587 224.563 21.0287 225.923 21.0287C227.183 21.0287 228.263 21.3587 229.163 22.0187C230.083 22.6587 230.783 23.5687 231.263 24.7487C231.743 25.9087 231.983 27.2887 231.983 28.8887C231.983 30.4687 231.743 31.8487 231.263 33.0287C230.783 34.2087 230.083 35.1287 229.163 35.7887C228.263 36.4287 227.183 36.7487 225.923 36.7487ZM226.763 33.6887C227.523 33.6887 228.193 33.4887 228.773 33.0887C229.373 32.6687 229.833 32.0987 230.153 31.3787C230.493 30.6587 230.663 29.8287 230.663 28.8887C230.663 27.9487 230.493 27.1187 230.153 26.3987C229.833 25.6787 229.373 25.1187 228.773 24.7187C228.193 24.3187 227.513 24.1187 226.733 24.1187C225.933 24.1187 225.223 24.3187 224.603 24.7187C223.983 25.1187 223.493 25.6787 223.133 26.3987C222.793 27.1187 222.613 27.9487 222.593 28.8887C222.613 29.8287 222.793 30.6587 223.133 31.3787C223.493 32.0987 223.983 32.6687 224.603 33.0887C225.243 33.4887 225.963 33.6887 226.763 33.6887Z" fill="white"/>
</g>
<defs>
<clipPath id="clip0_34438_68468">
<rect width="250" height="50" fill="white" transform="translate(0.164062 0.888672)"/>
</clipPath>
</defs>
</svg>
