<svg width="251" height="51" viewBox="0 0 251 51" fill="none" xmlns="http://www.w3.org/2000/svg">
<g clip-path="url(#clip0_34438_68462)">
<path d="M15.6348 10.7617C18.2976 9.10624 22.5818 8.10282 25.7939 13.5684L40.3076 42.3271L33.1689 36.4023C31.6819 35.1681 29.8744 34.4015 28.0547 33.751C24.1202 32.3445 18.9927 29.1419 17.6729 23.2412C17.1679 20.9831 16.4414 16.5002 14.6807 14.5713C14.2401 14.0888 13.6144 13.8428 12.9971 13.6289L4.00391 10.5127L13.0547 11.4482C13.9638 11.5422 14.8586 11.2442 15.6348 10.7617ZM28.5156 16.5771C30.928 14.2383 38.0326 9.9521 46.9961 11.5684L32.3662 24.207L28.5156 16.5771ZM17.9854 11.5527C17.1478 11.5528 16.4688 12.2317 16.4688 13.0693C16.4688 13.9069 17.1478 14.5859 17.9854 14.5859C18.823 14.5859 19.5019 13.907 19.502 13.0693C19.502 12.2317 18.823 11.5527 17.9854 11.5527Z" fill="black"/>
<path d="M62.39 36.3887V15.3887H65.75V36.3887H62.39ZM72.56 36.3887V28.7087H75.92V36.3887H72.56ZM72.56 28.7087C72.56 27.5087 72.42 26.5887 72.14 25.9487C71.86 25.2887 71.47 24.8287 70.97 24.5687C70.49 24.3087 69.93 24.1787 69.29 24.1787C68.15 24.1587 67.27 24.5287 66.65 25.2887C66.05 26.0487 65.75 27.1387 65.75 28.5587H64.46C64.46 26.9787 64.69 25.6287 65.15 24.5087C65.63 23.3687 66.3 22.5087 67.16 21.9287C68.02 21.3287 69.04 21.0287 70.22 21.0287C71.4 21.0287 72.42 21.2687 73.28 21.7487C74.14 22.2287 74.79 22.9787 75.23 23.9987C75.69 24.9987 75.92 26.3087 75.92 27.9287V28.7087H72.56ZM88.7479 36.3887L88.5679 33.6287V21.3887H91.8979V36.3887H88.7479ZM78.3679 29.0687V21.3887H81.7279V29.0687H78.3679ZM81.7279 29.0687C81.7279 30.2487 81.8679 31.1687 82.1479 31.8287C82.4279 32.4887 82.8079 32.9487 83.2879 33.2087C83.7879 33.4687 84.3579 33.5987 84.9979 33.5987C86.1379 33.6187 87.0179 33.2487 87.6379 32.4887C88.2579 31.7287 88.5679 30.6387 88.5679 29.2187H89.8279C89.8279 30.7987 89.5879 32.1587 89.1079 33.2987C88.6479 34.4187 87.9879 35.2787 87.1279 35.8787C86.2879 36.4587 85.2679 36.7487 84.0679 36.7487C82.8879 36.7487 81.8679 36.5087 81.0079 36.0287C80.1679 35.5487 79.5179 34.7987 79.0579 33.7787C78.5979 32.7587 78.3679 31.4487 78.3679 29.8487V29.0687H81.7279ZM95.0065 36.3887V21.3887H98.1565L98.3065 23.3987C98.7665 22.6187 99.3565 22.0287 100.076 21.6287C100.796 21.2287 101.616 21.0287 102.536 21.0287C103.736 21.0287 104.756 21.2987 105.596 21.8387C106.436 22.3787 107.046 23.1987 107.426 24.2987C107.866 23.2387 108.486 22.4287 109.286 21.8687C110.086 21.3087 111.026 21.0287 112.106 21.0287C113.846 21.0287 115.186 21.5887 116.126 22.7087C117.066 23.8087 117.526 25.5087 117.506 27.8087V36.3887H114.176V28.7087C114.176 27.5087 114.046 26.5887 113.786 25.9487C113.526 25.2887 113.176 24.8287 112.736 24.5687C112.296 24.3087 111.786 24.1787 111.206 24.1787C110.166 24.1587 109.356 24.5287 108.776 25.2887C108.216 26.0487 107.936 27.1387 107.936 28.5587V36.3887H104.576V28.7087C104.576 27.5087 104.446 26.5887 104.186 25.9487C103.946 25.2887 103.606 24.8287 103.166 24.5687C102.726 24.3087 102.216 24.1787 101.636 24.1787C100.596 24.1587 99.7865 24.5287 99.2065 25.2887C98.6465 26.0487 98.3665 27.1387 98.3665 28.5587V36.3887H95.0065ZM120.309 36.3887V21.3887H123.459L123.609 23.3987C124.069 22.6187 124.659 22.0287 125.379 21.6287C126.099 21.2287 126.919 21.0287 127.839 21.0287C129.039 21.0287 130.059 21.2987 130.899 21.8387C131.739 22.3787 132.349 23.1987 132.729 24.2987C133.169 23.2387 133.789 22.4287 134.589 21.8687C135.389 21.3087 136.329 21.0287 137.409 21.0287C139.149 21.0287 140.489 21.5887 141.429 22.7087C142.369 23.8087 142.829 25.5087 142.809 27.8087V36.3887H139.479V28.7087C139.479 27.5087 139.349 26.5887 139.089 25.9487C138.829 25.2887 138.479 24.8287 138.039 24.5687C137.599 24.3087 137.089 24.1787 136.509 24.1787C135.469 24.1587 134.659 24.5287 134.079 25.2887C133.519 26.0487 133.239 27.1387 133.239 28.5587V36.3887H129.879V28.7087C129.879 27.5087 129.749 26.5887 129.489 25.9487C129.249 25.2887 128.909 24.8287 128.469 24.5687C128.029 24.3087 127.519 24.1787 126.939 24.1787C125.899 24.1587 125.089 24.5287 124.509 25.2887C123.949 26.0487 123.669 27.1387 123.669 28.5587V36.3887H120.309ZM145.822 36.3887V21.3887H149.152V36.3887H145.822ZM147.502 18.5387C146.962 18.5387 146.492 18.3487 146.092 17.9687C145.712 17.5687 145.522 17.0987 145.522 16.5587C145.522 16.0187 145.712 15.5587 146.092 15.1787C146.492 14.7987 146.962 14.6087 147.502 14.6087C148.042 14.6087 148.502 14.7987 148.882 15.1787C149.282 15.5587 149.482 16.0187 149.482 16.5587C149.482 17.0987 149.282 17.5687 148.882 17.9687C148.502 18.3487 148.042 18.5387 147.502 18.5387ZM152.487 36.3887V21.3887H155.637L155.847 24.1487V36.3887H152.487ZM162.657 36.3887V28.7087H166.017V36.3887H162.657ZM162.657 28.7087C162.657 27.5087 162.517 26.5887 162.237 25.9487C161.977 25.2887 161.597 24.8287 161.097 24.5687C160.617 24.3087 160.047 24.1787 159.387 24.1787C158.267 24.1587 157.397 24.5287 156.777 25.2887C156.157 26.0487 155.847 27.1387 155.847 28.5587H154.587C154.587 26.9787 154.817 25.6287 155.277 24.5087C155.737 23.3687 156.397 22.5087 157.257 21.9287C158.117 21.3287 159.137 21.0287 160.317 21.0287C161.517 21.0287 162.537 21.2687 163.377 21.7487C164.237 22.2287 164.887 22.9787 165.327 23.9987C165.787 24.9987 166.017 26.3087 166.017 27.9287V28.7087H162.657ZM175.246 42.7787C174.186 42.7787 173.226 42.6887 172.366 42.5087C171.526 42.3287 170.816 42.1187 170.236 41.8787C169.656 41.6387 169.206 41.4087 168.886 41.1887L170.176 38.4887C170.456 38.6287 170.826 38.7987 171.286 38.9987C171.766 39.2187 172.326 39.4087 172.966 39.5687C173.606 39.7287 174.326 39.8087 175.126 39.8087C175.986 39.8087 176.756 39.6287 177.436 39.2687C178.116 38.9287 178.646 38.3987 179.026 37.6787C179.406 36.9587 179.596 36.0387 179.596 34.9187V21.3887H182.956V34.8287C182.956 36.5287 182.636 37.9687 181.996 39.1487C181.356 40.3487 180.456 41.2487 179.296 41.8487C178.136 42.4687 176.786 42.7787 175.246 42.7787ZM174.736 36.0887C173.376 36.0887 172.186 35.7787 171.166 35.1587C170.166 34.5387 169.376 33.6787 168.796 32.5787C168.236 31.4587 167.956 30.1687 167.956 28.7087C167.956 27.1487 168.236 25.7987 168.796 24.6587C169.376 23.5187 170.166 22.6287 171.166 21.9887C172.186 21.3487 173.376 21.0287 174.736 21.0287C175.956 21.0287 177.016 21.3487 177.916 21.9887C178.836 22.6287 179.546 23.5287 180.046 24.6887C180.546 25.8287 180.796 27.1787 180.796 28.7387C180.796 30.2187 180.546 31.5087 180.046 32.6087C179.546 33.7087 178.836 34.5687 177.916 35.1887C177.016 35.7887 175.956 36.0887 174.736 36.0887ZM175.666 33.2387C176.426 33.2387 177.086 33.0387 177.646 32.6387C178.226 32.2387 178.676 31.6987 178.996 31.0187C179.316 30.3187 179.476 29.5187 179.476 28.6187C179.476 27.6987 179.316 26.8987 178.996 26.2187C178.676 25.5187 178.226 24.9787 177.646 24.5987C177.066 24.1987 176.396 23.9987 175.636 23.9987C174.836 23.9987 174.126 24.1987 173.506 24.5987C172.906 24.9787 172.426 25.5187 172.066 26.2187C171.726 26.8987 171.556 27.6987 171.556 28.6187C171.556 29.5187 171.726 30.3187 172.066 31.0187C172.426 31.6987 172.916 32.2387 173.536 32.6387C174.156 33.0387 174.866 33.2387 175.666 33.2387ZM186.042 36.3887V15.3887H189.402V33.5987L189.222 36.3887H186.042ZM194.142 36.7487C192.882 36.7487 191.792 36.4287 190.872 35.7887C189.972 35.1287 189.282 34.2087 188.802 33.0287C188.322 31.8487 188.082 30.4687 188.082 28.8887C188.082 27.2887 188.322 25.9087 188.802 24.7487C189.282 23.5687 189.972 22.6587 190.872 22.0187C191.792 21.3587 192.882 21.0287 194.142 21.0287C195.502 21.0287 196.682 21.3587 197.682 22.0187C198.702 22.6587 199.492 23.5687 200.052 24.7487C200.632 25.9087 200.922 27.2887 200.922 28.8887C200.922 30.4687 200.632 31.8487 200.052 33.0287C199.492 34.2087 198.702 35.1287 197.682 35.7887C196.682 36.4287 195.502 36.7487 194.142 36.7487ZM193.302 33.6887C194.102 33.6887 194.812 33.4887 195.432 33.0887C196.052 32.6687 196.542 32.0987 196.902 31.3787C197.282 30.6587 197.472 29.8287 197.472 28.8887C197.472 27.9487 197.292 27.1187 196.932 26.3987C196.592 25.6787 196.112 25.1187 195.492 24.7187C194.872 24.3187 194.152 24.1187 193.332 24.1187C192.572 24.1187 191.892 24.3187 191.292 24.7187C190.692 25.1187 190.222 25.6787 189.882 26.3987C189.562 27.1187 189.402 27.9487 189.402 28.8887C189.402 29.8287 189.562 30.6587 189.882 31.3787C190.222 32.0987 190.682 32.6687 191.262 33.0887C191.862 33.4887 192.542 33.6887 193.302 33.6887ZM203.381 36.3887V21.3887H206.711V36.3887H203.381ZM205.061 18.5387C204.521 18.5387 204.051 18.3487 203.651 17.9687C203.271 17.5687 203.081 17.0987 203.081 16.5587C203.081 16.0187 203.271 15.5587 203.651 15.1787C204.051 14.7987 204.521 14.6087 205.061 14.6087C205.601 14.6087 206.061 14.7987 206.441 15.1787C206.841 15.5587 207.041 16.0187 207.041 16.5587C207.041 17.0987 206.841 17.5687 206.441 17.9687C206.061 18.3487 205.601 18.5387 205.061 18.5387ZM212.266 28.4087C212.266 26.7887 212.576 25.4587 213.196 24.4187C213.816 23.3787 214.616 22.6087 215.596 22.1087C216.596 21.5887 217.636 21.3287 218.716 21.3287V24.5387C217.796 24.5387 216.926 24.6687 216.106 24.9287C215.306 25.1687 214.656 25.5687 214.156 26.1287C213.656 26.6887 213.406 27.4287 213.406 28.3487L212.266 28.4087ZM210.046 36.3887V21.3887H213.406V36.3887H210.046ZM231.149 36.3887L230.999 33.5987V15.3887H234.329V36.3887H231.149ZM226.259 36.7487C224.899 36.7487 223.709 36.4287 222.689 35.7887C221.689 35.1287 220.899 34.2087 220.319 33.0287C219.759 31.8487 219.479 30.4687 219.479 28.8887C219.479 27.2887 219.759 25.9087 220.319 24.7487C220.899 23.5687 221.689 22.6587 222.689 22.0187C223.709 21.3587 224.899 21.0287 226.259 21.0287C227.519 21.0287 228.599 21.3587 229.499 22.0187C230.419 22.6587 231.119 23.5687 231.599 24.7487C232.079 25.9087 232.319 27.2887 232.319 28.8887C232.319 30.4687 232.079 31.8487 231.599 33.0287C231.119 34.2087 230.419 35.1287 229.499 35.7887C228.599 36.4287 227.519 36.7487 226.259 36.7487ZM227.099 33.6887C227.859 33.6887 228.529 33.4887 229.109 33.0887C229.709 32.6687 230.169 32.0987 230.489 31.3787C230.829 30.6587 230.999 29.8287 230.999 28.8887C230.999 27.9487 230.829 27.1187 230.489 26.3987C230.169 25.6787 229.709 25.1187 229.109 24.7187C228.529 24.3187 227.849 24.1187 227.069 24.1187C226.269 24.1187 225.559 24.3187 224.939 24.7187C224.319 25.1187 223.829 25.6787 223.469 26.3987C223.129 27.1187 222.949 27.9487 222.929 28.8887C222.949 29.8287 223.129 30.6587 223.469 31.3787C223.829 32.0987 224.319 32.6687 224.939 33.0887C225.579 33.4887 226.299 33.6887 227.099 33.6887Z" fill="black"/>
</g>
<defs>
<clipPath id="clip0_34438_68462">
<rect width="250" height="50" fill="white" transform="translate(0.5 0.888672)"/>
</clipPath>
</defs>
</svg>
