<svg width="200" height="40" viewBox="0 0 200 40" fill="none" xmlns="http://www.w3.org/2000/svg">
<g clip-path="url(#clip0_34526_29938)">
<path d="M12.1133 7.89795C14.2436 6.57359 17.6715 5.77144 20.2412 10.144L31.8516 33.1509L26.1406 28.4106C24.951 27.4233 23.5056 26.8099 22.0498 26.2896C18.902 25.1643 14.7999 22.6024 13.7441 17.8813C13.3402 16.0748 12.7591 12.4889 11.3506 10.9458C10.9981 10.5598 10.4968 10.363 10.0029 10.1919L2.80859 7.69873L10.0488 8.44775C10.7762 8.52294 11.4923 8.28402 12.1133 7.89795ZM22.418 12.5503C24.3479 10.6792 30.0315 7.25055 37.2021 8.54346L25.498 18.6538L22.418 12.5503ZM13.9941 8.53174C13.3243 8.53197 12.7814 9.07479 12.7812 9.74463C12.7812 10.4146 13.3242 10.9583 13.9941 10.9585C14.6642 10.9585 15.208 10.4147 15.208 9.74463C15.2079 9.07465 14.6642 8.53174 13.9941 8.53174Z" fill="url(#paint0_linear_34526_29938)"/>
<path d="M49.5198 28V11.2H52.2078V28H49.5198ZM57.6558 28V21.856H60.3438V28H57.6558ZM57.6558 21.856C57.6558 20.896 57.5438 20.16 57.3198 19.648C57.0958 19.12 56.7838 18.752 56.3838 18.544C55.9998 18.336 55.5518 18.232 55.0398 18.232C54.1278 18.216 53.4238 18.512 52.9278 19.12C52.4478 19.728 52.2078 20.6 52.2078 21.736H51.1758C51.1758 20.472 51.3598 19.392 51.7278 18.496C52.1118 17.584 52.6478 16.896 53.3358 16.432C54.0238 15.952 54.8398 15.712 55.7838 15.712C56.7278 15.712 57.5438 15.904 58.2318 16.288C58.9198 16.672 59.4398 17.272 59.7918 18.088C60.1598 18.888 60.3438 19.936 60.3438 21.232V21.856H57.6558ZM70.6061 28L70.4621 25.792V16H73.1261V28H70.6061ZM62.3021 22.144V16H64.9901V22.144H62.3021ZM64.9901 22.144C64.9901 23.088 65.1021 23.824 65.3261 24.352C65.5501 24.88 65.8541 25.248 66.2381 25.456C66.6381 25.664 67.0941 25.768 67.6061 25.768C68.5181 25.784 69.2221 25.488 69.7181 24.88C70.2141 24.272 70.4621 23.4 70.4621 22.264H71.4701C71.4701 23.528 71.2781 24.616 70.8941 25.528C70.5261 26.424 69.9981 27.112 69.3101 27.592C68.6381 28.056 67.8221 28.288 66.8621 28.288C65.9181 28.288 65.1021 28.096 64.4141 27.712C63.7421 27.328 63.2221 26.728 62.8541 25.912C62.4861 25.096 62.3021 24.048 62.3021 22.768V22.144H64.9901ZM75.613 28V16H78.133L78.253 17.608C78.621 16.984 79.093 16.512 79.669 16.192C80.245 15.872 80.901 15.712 81.637 15.712C82.597 15.712 83.413 15.928 84.085 16.36C84.757 16.792 85.245 17.448 85.549 18.328C85.901 17.48 86.397 16.832 87.037 16.384C87.677 15.936 88.429 15.712 89.293 15.712C90.685 15.712 91.757 16.16 92.509 17.056C93.261 17.936 93.629 19.296 93.613 21.136V28H90.949V21.856C90.949 20.896 90.845 20.16 90.637 19.648C90.429 19.12 90.149 18.752 89.797 18.544C89.445 18.336 89.037 18.232 88.573 18.232C87.741 18.216 87.093 18.512 86.629 19.12C86.181 19.728 85.957 20.6 85.957 21.736V28H83.269V21.856C83.269 20.896 83.165 20.16 82.957 19.648C82.765 19.12 82.493 18.752 82.141 18.544C81.789 18.336 81.381 18.232 80.917 18.232C80.085 18.216 79.437 18.512 78.973 19.12C78.525 19.728 78.301 20.6 78.301 21.736V28H75.613ZM95.8552 28V16H98.3752L98.4952 17.608C98.8632 16.984 99.3352 16.512 99.9112 16.192C100.487 15.872 101.143 15.712 101.879 15.712C102.839 15.712 103.655 15.928 104.327 16.36C104.999 16.792 105.487 17.448 105.791 18.328C106.143 17.48 106.639 16.832 107.279 16.384C107.919 15.936 108.671 15.712 109.535 15.712C110.927 15.712 111.999 16.16 112.751 17.056C113.503 17.936 113.871 19.296 113.855 21.136V28H111.191V21.856C111.191 20.896 111.087 20.16 110.879 19.648C110.671 19.12 110.391 18.752 110.039 18.544C109.687 18.336 109.279 18.232 108.815 18.232C107.983 18.216 107.335 18.512 106.871 19.12C106.423 19.728 106.199 20.6 106.199 21.736V28H103.511V21.856C103.511 20.896 103.407 20.16 103.199 19.648C103.007 19.12 102.735 18.752 102.383 18.544C102.031 18.336 101.623 18.232 101.159 18.232C100.327 18.216 99.6792 18.512 99.2152 19.12C98.7672 19.728 98.5432 20.6 98.5432 21.736V28H95.8552ZM116.265 28V16H118.929V28H116.265ZM117.609 13.72C117.177 13.72 116.801 13.568 116.481 13.264C116.177 12.944 116.025 12.568 116.025 12.136C116.025 11.704 116.177 11.336 116.481 11.032C116.801 10.728 117.177 10.576 117.609 10.576C118.041 10.576 118.409 10.728 118.713 11.032C119.033 11.336 119.193 11.704 119.193 12.136C119.193 12.568 119.033 12.944 118.713 13.264C118.409 13.568 118.041 13.72 117.609 13.72ZM121.597 28V16H124.117L124.285 18.208V28H121.597ZM129.733 28V21.856H132.421V28H129.733ZM129.733 21.856C129.733 20.896 129.621 20.16 129.397 19.648C129.189 19.12 128.885 18.752 128.485 18.544C128.101 18.336 127.645 18.232 127.117 18.232C126.221 18.216 125.525 18.512 125.029 19.12C124.533 19.728 124.285 20.6 124.285 21.736H123.277C123.277 20.472 123.461 19.392 123.829 18.496C124.197 17.584 124.725 16.896 125.413 16.432C126.101 15.952 126.917 15.712 127.861 15.712C128.821 15.712 129.637 15.904 130.309 16.288C130.997 16.672 131.517 17.272 131.869 18.088C132.237 18.888 132.421 19.936 132.421 21.232V21.856H129.733ZM139.804 33.112C138.956 33.112 138.188 33.04 137.5 32.896C136.828 32.752 136.26 32.584 135.796 32.392C135.332 32.2 134.972 32.016 134.716 31.84L135.748 29.68C135.972 29.792 136.268 29.928 136.636 30.088C137.02 30.264 137.468 30.416 137.98 30.544C138.492 30.672 139.068 30.736 139.708 30.736C140.396 30.736 141.012 30.592 141.556 30.304C142.1 30.032 142.524 29.608 142.828 29.032C143.132 28.456 143.284 27.72 143.284 26.824V16H145.972V26.752C145.972 28.112 145.716 29.264 145.204 30.208C144.692 31.168 143.972 31.888 143.044 32.368C142.116 32.864 141.036 33.112 139.804 33.112ZM139.396 27.76C138.308 27.76 137.356 27.512 136.54 27.016C135.74 26.52 135.108 25.832 134.644 24.952C134.196 24.056 133.972 23.024 133.972 21.856C133.972 20.608 134.196 19.528 134.644 18.616C135.108 17.704 135.74 16.992 136.54 16.48C137.356 15.968 138.308 15.712 139.396 15.712C140.372 15.712 141.22 15.968 141.94 16.48C142.676 16.992 143.244 17.712 143.644 18.64C144.044 19.552 144.244 20.632 144.244 21.88C144.244 23.064 144.044 24.096 143.644 24.976C143.244 25.856 142.676 26.544 141.94 27.04C141.22 27.52 140.372 27.76 139.396 27.76ZM140.14 25.48C140.748 25.48 141.276 25.32 141.724 25C142.188 24.68 142.548 24.248 142.804 23.704C143.06 23.144 143.188 22.504 143.188 21.784C143.188 21.048 143.06 20.408 142.804 19.864C142.548 19.304 142.188 18.872 141.724 18.568C141.26 18.248 140.724 18.088 140.116 18.088C139.476 18.088 138.908 18.248 138.412 18.568C137.932 18.872 137.548 19.304 137.26 19.864C136.988 20.408 136.852 21.048 136.852 21.784C136.852 22.504 136.988 23.144 137.26 23.704C137.548 24.248 137.94 24.68 138.436 25C138.932 25.32 139.5 25.48 140.14 25.48ZM148.441 28V11.2H151.129V25.768L150.985 28H148.441ZM154.921 28.288C153.913 28.288 153.041 28.032 152.305 27.52C151.585 26.992 151.033 26.256 150.649 25.312C150.265 24.368 150.073 23.264 150.073 22C150.073 20.72 150.265 19.616 150.649 18.688C151.033 17.744 151.585 17.016 152.305 16.504C153.041 15.976 153.913 15.712 154.921 15.712C156.009 15.712 156.953 15.976 157.753 16.504C158.569 17.016 159.201 17.744 159.649 18.688C160.113 19.616 160.345 20.72 160.345 22C160.345 23.264 160.113 24.368 159.649 25.312C159.201 26.256 158.569 26.992 157.753 27.52C156.953 28.032 156.009 28.288 154.921 28.288ZM154.249 25.84C154.889 25.84 155.457 25.68 155.953 25.36C156.449 25.024 156.841 24.568 157.129 23.992C157.433 23.416 157.585 22.752 157.585 22C157.585 21.248 157.441 20.584 157.153 20.008C156.881 19.432 156.497 18.984 156.001 18.664C155.505 18.344 154.929 18.184 154.273 18.184C153.665 18.184 153.121 18.344 152.641 18.664C152.161 18.984 151.785 19.432 151.513 20.008C151.257 20.584 151.129 21.248 151.129 22C151.129 22.752 151.257 23.416 151.513 23.992C151.785 24.568 152.153 25.024 152.617 25.36C153.097 25.68 153.641 25.84 154.249 25.84ZM162.312 28V16H164.976V28H162.312ZM163.656 13.72C163.224 13.72 162.848 13.568 162.528 13.264C162.224 12.944 162.072 12.568 162.072 12.136C162.072 11.704 162.224 11.336 162.528 11.032C162.848 10.728 163.224 10.576 163.656 10.576C164.088 10.576 164.456 10.728 164.76 11.032C165.08 11.336 165.24 11.704 165.24 12.136C165.24 12.568 165.08 12.944 164.76 13.264C164.456 13.568 164.088 13.72 163.656 13.72ZM169.42 21.616C169.42 20.32 169.668 19.256 170.164 18.424C170.66 17.592 171.3 16.976 172.084 16.576C172.884 16.16 173.716 15.952 174.58 15.952V18.52C173.844 18.52 173.148 18.624 172.492 18.832C171.852 19.024 171.332 19.344 170.932 19.792C170.532 20.24 170.332 20.832 170.332 21.568L169.42 21.616ZM167.644 28V16H170.332V28H167.644ZM184.527 28L184.407 25.768V11.2H187.071V28H184.527ZM180.615 28.288C179.527 28.288 178.575 28.032 177.759 27.52C176.959 26.992 176.327 26.256 175.863 25.312C175.415 24.368 175.191 23.264 175.191 22C175.191 20.72 175.415 19.616 175.863 18.688C176.327 17.744 176.959 17.016 177.759 16.504C178.575 15.976 179.527 15.712 180.615 15.712C181.623 15.712 182.487 15.976 183.207 16.504C183.943 17.016 184.503 17.744 184.887 18.688C185.271 19.616 185.463 20.72 185.463 22C185.463 23.264 185.271 24.368 184.887 25.312C184.503 26.256 183.943 26.992 183.207 27.52C182.487 28.032 181.623 28.288 180.615 28.288ZM181.287 25.84C181.895 25.84 182.431 25.68 182.895 25.36C183.375 25.024 183.743 24.568 183.999 23.992C184.271 23.416 184.407 22.752 184.407 22C184.407 21.248 184.271 20.584 183.999 20.008C183.743 19.432 183.375 18.984 182.895 18.664C182.431 18.344 181.887 18.184 181.263 18.184C180.623 18.184 180.055 18.344 179.559 18.664C179.063 18.984 178.671 19.432 178.383 20.008C178.111 20.584 177.967 21.248 177.951 22C177.967 22.752 178.111 23.416 178.383 23.992C178.671 24.568 179.063 25.024 179.559 25.36C180.071 25.68 180.647 25.84 181.287 25.84Z" fill="#4D595E"/>
</g>
<defs>
<linearGradient id="paint0_linear_34526_29938" x1="18.0887" y1="-2.5233" x2="39.9227" y2="49.1967" gradientUnits="userSpaceOnUse">
<stop stop-color="#1E90FF"/>
<stop offset="0.5" stop-color="#0074E6"/>
<stop offset="1" stop-color="#003970"/>
</linearGradient>
<clipPath id="clip0_34526_29938">
<rect width="200" height="40" fill="white" transform="translate(0.0078125)"/>
</clipPath>
</defs>
</svg>
