<svg width="140" height="44" viewBox="0 0 140 44" fill="none" xmlns="http://www.w3.org/2000/svg">
<g clip-path="url(#clip0_36244_4330)">
<path d="M25.6337 29.4498C21.5314 29.4498 18.0898 26.3111 18.0898 22.0711C18.0898 17.8586 21.5314 14.6924 25.6337 14.6924C29.7086 14.6924 33.1501 17.8586 33.1501 22.0711C33.1501 26.3111 29.7086 29.4498 25.6337 29.4498ZM25.6337 17.8311C23.4036 17.8311 21.6966 19.6207 21.6966 22.0711C21.6966 24.5215 23.4036 26.3111 25.6337 26.3111C27.8638 26.3111 29.5433 24.5215 29.5433 22.0711C29.5433 19.6207 27.8638 17.8311 25.6337 17.8311Z" fill="#0969DA"/>
<path d="M38.9624 16.6747V29.1194H35.3281V15.0228H38.9624V16.6747C39.7058 15.5459 41.165 14.6924 42.9547 14.6924C46.2034 14.6924 48.1032 16.9225 48.1032 20.0612V29.1194H44.469V21.0248C44.469 19.3729 43.8022 18.2439 42.6311 17.2657C41.4601 16.2875 40.0048 16.4826 38.9624 16.6747Z" fill="#0969DA"/>
<path d="M50.1523 22.0986C50.1523 17.8586 53.5388 14.6924 57.3934 14.6924C61.8536 14.6924 64.1113 17.9687 64.1113 22.1537C64.1113 22.429 64.1113 22.7043 64.0837 23.0072H53.5663C53.9518 25.1822 55.824 26.4212 58.4121 26.4212C60.064 26.4212 61.8536 25.843 63.065 24.8519V28.0456C61.6609 29.0093 59.7336 29.4498 57.9716 29.4498C53.5388 29.4498 50.1523 26.3386 50.1523 22.0986ZM57.3383 17.6108C55.5762 17.6108 54.1721 18.7672 53.6765 20.5843H60.6973C60.5321 19.0976 59.4032 17.6108 57.3383 17.6108Z" fill="#0969DA"/>
<path fill-rule="evenodd" clip-rule="evenodd" d="M88.4204 14.8037C92.8806 14.8037 95.1381 18.08 95.1382 22.2649C95.1382 22.5402 95.1388 22.8157 95.1113 23.1186H84.5944C84.9799 25.2935 86.8515 26.5318 89.4394 26.5318C91.0914 26.5318 92.8808 25.9541 94.0923 24.963V28.1573C92.6882 29.1208 90.7604 29.5607 88.9985 29.5607C84.5659 29.5605 81.1797 26.4496 81.1797 22.2098C81.1798 17.97 84.566 14.8039 88.4204 14.8037ZM88.3653 17.7223C86.6034 17.7225 85.1988 18.879 84.7032 20.696H91.7248C91.5597 19.2093 90.4303 17.7223 88.3653 17.7223Z" fill="#1F2328"/>
<path d="M101.767 14.8037C103.363 14.8037 104.741 15.2991 105.759 16.015V19.2912C104.575 18.3827 103.171 17.6942 101.795 17.6941C100.749 17.6941 100.032 18.1627 100.032 18.9887C100.032 19.7045 100.556 19.9799 101.519 20.4204L103.997 21.4946C105.676 22.238 106.585 23.2838 106.585 25.1284C106.585 27.8815 103.997 29.5605 101.162 29.5607C99.3168 29.5607 97.6644 29.0377 96.4805 28.2393V24.8528C97.7744 26.0367 99.5365 26.7254 101.133 26.7255C102.29 26.7255 103.143 26.2573 103.143 25.3488C103.143 24.6606 102.785 24.3852 101.932 23.9722L99.344 22.843C97.8572 22.1822 96.6458 21.2459 96.6458 19.1809C96.6461 16.7308 98.7932 14.8038 101.767 14.8037Z" fill="#1F2328"/>
<path d="M69.8976 29.2611H66.6523V21.0108H66.9764C68.0383 21.0108 69.0344 20.7304 69.8976 20.2432V29.2611Z" fill="#1F2328"/>
<path d="M72.9102 15.0947C76.5053 15.1486 79.7944 18.2772 79.7946 22.1755V22.6043C79.7946 26.629 75.8107 29.2562 73.218 29.2562H72.9142V26.6454H72.9707C74.2885 26.6454 76.7412 24.8615 76.7415 22.326V22.1835C76.7414 19.7632 74.8205 17.8135 72.9142 17.7243V15.3058C72.9162 15.2577 72.9147 15.223 72.9128 15.1861C72.9114 15.159 72.9102 15.1303 72.9102 15.0947Z" fill="#1F2328"/>
<path d="M112.271 21.6813L117.667 15.1289H121.962L115.988 21.6813L122.183 29.2258H117.859L112.271 21.6813V29.2258H108.664V15.1289H112.271V21.6813Z" fill="#1F2328"/>
<path d="M69.8942 15.0947C69.8941 16.8697 68.4546 18.3087 66.6798 18.3091H66.6475L66.6367 15.0947H69.8942Z" fill="#1F2328"/>
</g>
<defs>
<clipPath id="clip0_36244_4330">
<rect width="104.722" height="15.2" fill="white" transform="translate(17.4727 14.5684)"/>
</clipPath>
</defs>
</svg>
