<svg width="140" height="44" viewBox="0 0 140 44" fill="none" xmlns="http://www.w3.org/2000/svg">
<g clip-path="url(#clip0_36244_3685)">
<path d="M64.7927 22.5685C62.8387 22.5685 61.8618 21.6199 61.8618 19.7226V17.0607H60.84L60.25 15.4608H61.8618V13.4219H63.9998V15.4608H66.0528V17.0607H63.9998V19.6377C63.9998 20.0341 64.0894 20.3314 64.2688 20.5296C64.4576 20.7279 64.7549 20.827 65.1608 20.827C65.3581 20.827 65.5699 20.7971 65.7597 20.7412L66.3077 22.2287C66.1095 22.3326 65.8735 22.4128 65.5997 22.4694C65.326 22.5355 65.057 22.5685 64.7927 22.5685Z" fill="#5BC142"/>
<path d="M67.1016 22.4142V13.3682H69.2396V16.4108C69.485 16.0521 69.8012 15.7831 70.1882 15.6038C70.5752 15.415 71.0047 15.3206 71.4767 15.3206C73.1097 15.3206 73.9262 16.2928 73.9262 18.2373V22.4142H71.7882V18.3364C71.7882 17.855 71.6985 17.5105 71.5192 17.3028C71.3398 17.0857 71.0755 16.9772 70.7263 16.9772C70.2732 16.9772 69.9098 17.1188 69.636 17.402C69.3717 17.6851 69.2396 18.0627 69.2396 18.5347V22.4142H67.1016Z" fill="#5BC142"/>
<path d="M79.134 22.5697C78.3127 22.5697 77.6048 22.4234 77.0101 22.1307C76.4249 21.8287 75.9718 21.4086 75.6508 20.8706C75.3393 20.3231 75.1836 19.6813 75.1836 18.945C75.1836 18.2276 75.3346 17.5999 75.6367 17.0619C75.9482 16.5144 76.3682 16.0896 76.8968 15.7876C77.4349 15.4761 78.0532 15.3203 78.7517 15.3203C79.7617 15.3203 80.564 15.6412 81.1587 16.2831C81.7534 16.9156 82.0507 17.7745 82.0507 18.8601V19.3981H77.2225C77.298 19.9456 77.4962 20.3467 77.8172 20.6016C78.1475 20.847 78.6006 20.9697 79.1764 20.9697C79.554 20.9697 79.9363 20.9131 80.3233 20.7998C80.7103 20.6865 81.0596 20.5119 81.3711 20.2759L81.9374 21.706C81.5882 21.9703 81.1587 22.1827 80.649 22.3431C80.1487 22.4942 79.6437 22.5697 79.134 22.5697ZM78.8366 16.7362C78.3835 16.7362 78.0154 16.8731 77.7322 17.1468C77.4585 17.4206 77.2886 17.8029 77.2225 18.2937H80.2808C80.2242 17.2554 79.7428 16.7362 78.8366 16.7362Z" fill="#5BC142"/>
<path d="M83.3242 22.4139V15.4619H85.4198V16.4672C85.6274 16.1085 85.9106 15.83 86.2693 15.6318C86.6374 15.4241 87.0622 15.3203 87.5436 15.3203C88.0344 15.3203 88.4498 15.4289 88.7896 15.646C89.1388 15.8631 89.4031 16.1935 89.5825 16.6371C89.7996 16.2218 90.1111 15.9008 90.517 15.6743C90.9323 15.4383 91.3901 15.3203 91.8904 15.3203C92.6833 15.3203 93.2733 15.561 93.6603 16.0424C94.0473 16.5144 94.2408 17.2459 94.2408 18.2371V22.4139H92.1028V18.3079C92.1028 17.8453 92.0273 17.5102 91.8763 17.3026C91.7347 17.0855 91.4892 16.9769 91.14 16.9769C90.7341 16.9769 90.4179 17.1185 90.1913 17.4017C89.9648 17.6849 89.8515 18.086 89.8515 18.6052V22.4139H87.7135V18.3079C87.7135 17.8453 87.638 17.5102 87.487 17.3026C87.3359 17.0855 87.0905 16.9769 86.7507 16.9769C86.3448 16.9769 86.0286 17.1185 85.802 17.4017C85.5755 17.6849 85.4622 18.086 85.4622 18.6052V22.4139H83.3242Z" fill="#5BC142"/>
<path d="M99.2941 22.5697C98.4729 22.5697 97.7649 22.4234 97.1703 22.1307C96.585 21.8287 96.1319 21.4086 95.811 20.8706C95.4995 20.3231 95.3438 19.6813 95.3438 18.945C95.3438 18.2276 95.4948 17.5999 95.7968 17.0619C96.1083 16.5144 96.5284 16.0896 97.057 15.7876C97.595 15.4761 98.2133 15.3203 98.9118 15.3203C99.9218 15.3203 100.724 15.6412 101.319 16.2831C101.914 16.9156 102.211 17.7745 102.211 18.8601V19.3981H97.3826C97.4582 19.9456 97.6564 20.3467 97.9773 20.6016C98.3077 20.847 98.7608 20.9697 99.3366 20.9697C99.7142 20.9697 100.096 20.9131 100.483 20.7998C100.87 20.6865 101.22 20.5119 101.531 20.2759L102.098 21.706C101.748 21.9703 101.319 22.1827 100.809 22.3431C100.309 22.4942 99.8038 22.5697 99.2941 22.5697ZM98.9968 16.7362C98.5437 16.7362 98.1755 16.8731 97.8924 17.1468C97.6186 17.4206 97.4487 17.8029 97.3826 18.2937H100.441C100.384 17.2554 99.903 16.7362 98.9968 16.7362Z" fill="#5BC142"/>
<path d="M63.0349 30.5175L60.2031 23.5654H62.3695L64.0261 28.0255L65.6827 23.5654H67.0986L68.7552 28.0821L70.4118 23.5654H72.4648L69.6613 30.5175H67.849L66.3198 26.5671L64.8331 30.5175H63.0349Z" fill="#5BC142"/>
<path d="M75.1775 30.7025C74.6584 30.7025 74.2005 30.6034 73.8041 30.4052C73.4076 30.207 73.0914 29.9379 72.8554 29.5981C72.6289 29.2583 72.5156 28.876 72.5156 28.4513C72.5156 27.951 72.6478 27.5498 72.9121 27.2477C73.1764 26.9457 73.6059 26.7333 74.2005 26.6106C74.7952 26.4784 75.5834 26.4124 76.5651 26.4124H77.0748V26.1717C77.0748 25.7563 76.9804 25.4637 76.7916 25.2938C76.6029 25.1144 76.2819 25.0248 75.8288 25.0248C75.4513 25.0248 75.0501 25.0861 74.6253 25.2088C74.21 25.3221 73.7947 25.4967 73.3793 25.7327L72.7988 24.3027C73.0442 24.1422 73.3416 23.9959 73.6908 23.8637C74.0495 23.7316 74.4224 23.6325 74.8094 23.5664C75.1964 23.4909 75.5645 23.4531 75.9138 23.4531C76.9899 23.4531 77.7922 23.6985 78.3208 24.1894C78.8494 24.6708 79.1137 25.4212 79.1137 26.4407V30.5468H77.1173V29.499C76.9757 29.8672 76.735 30.1598 76.3952 30.3769C76.0648 30.594 75.6589 30.7025 75.1775 30.7025ZM75.6589 29.2725C76.0554 29.2725 76.3905 29.1356 76.6642 28.8619C76.938 28.5881 77.0748 28.2341 77.0748 27.7999V27.5168H76.5793C75.8524 27.5168 75.338 27.5828 75.0359 27.715C74.7339 27.8377 74.5828 28.0548 74.5828 28.3663C74.5828 28.6306 74.6725 28.8477 74.8519 29.0176C75.0406 29.1875 75.3097 29.2725 75.6589 29.2725Z" fill="#5BC142"/>
<path d="M83.887 30.705C83.0701 30.705 82.3746 30.5531 81.8007 30.2492C81.2335 29.9454 80.7164 29.566 80.3682 29.0035C80.0058 28.418 79.9258 27.7882 79.9258 27.059C79.9258 26.3028 80.0241 25.5954 80.4174 25.0381C80.823 24.4633 81.2943 24.1018 81.8817 23.7979C82.4691 23.4941 83.21 23.4697 84.0085 23.4697C84.4391 23.4697 84.97 23.4821 85.4223 23.6172C85.8747 23.7522 86.2089 23.863 86.5404 24.0714L85.9732 25.5095C85.4543 25.1711 84.7438 25.0381 84.0085 25.0381C83.3672 25.0381 82.8371 25.2683 82.4995 25.6329C82.1687 25.9975 81.9931 26.3704 81.9931 27.059C81.9931 27.7477 82.2333 28.2316 82.5709 28.5827C82.9085 28.9337 83.3367 29.1453 83.9984 29.1453C84.309 29.1453 84.6567 29.098 85.0415 29.0035V27.8794H83.6135V26.5729H86.5606V30.1581C86.1826 30.3336 85.7606 30.4687 85.2947 30.5632C84.8288 30.6577 84.3596 30.705 83.887 30.705Z" fill="#5BC142"/>
<path d="M91.0251 30.7025C90.2794 30.7025 89.6281 30.5562 89.0711 30.2636C88.5237 29.9615 88.0989 29.5415 87.7968 29.0035C87.4948 28.456 87.3438 27.8094 87.3438 27.0637C87.3438 26.3274 87.4948 25.6902 87.7968 25.1522C88.0989 24.6047 88.5237 24.1847 89.0711 23.8921C89.6281 23.5994 90.2794 23.4531 91.0251 23.4531C91.7708 23.4531 92.4174 23.5994 92.9649 23.8921C93.5218 24.1847 93.9513 24.6047 94.2533 25.1522C94.5648 25.6902 94.7206 26.3274 94.7206 27.0637C94.7206 27.8094 94.5648 28.456 94.2533 29.0035C93.9513 29.5415 93.5218 29.9615 92.9649 30.2636C92.4174 30.5562 91.7708 30.7025 91.0251 30.7025ZM91.0251 29.1026C91.4782 29.1026 91.8463 28.9374 92.1295 28.607C92.4221 28.2766 92.5684 27.7622 92.5684 27.0637C92.5684 26.3746 92.4221 25.8696 92.1295 25.5487C91.8463 25.2183 91.4782 25.0531 91.0251 25.0531C90.572 25.0531 90.2039 25.2183 89.9207 25.5487C89.6375 25.8696 89.4959 26.3746 89.4959 27.0637C89.4959 27.7622 89.6375 28.2766 89.9207 28.607C90.2039 28.9374 90.572 29.1026 91.0251 29.1026Z" fill="#5BC142"/>
<path d="M95.5312 30.5468V23.5947H97.6268V24.6142C97.8628 24.2366 98.179 23.9487 98.5754 23.7505C98.9719 23.5522 99.4155 23.4531 99.9064 23.4531C100.728 23.4531 101.341 23.6938 101.747 24.1752C102.153 24.6472 102.356 25.3787 102.356 26.3699V30.5468H100.218V26.469C100.218 25.9876 100.128 25.6431 99.9489 25.4354C99.7695 25.2183 99.5052 25.1097 99.156 25.1097C98.7029 25.1097 98.3395 25.2513 98.0657 25.5345C97.8014 25.8177 97.6693 26.1953 97.6693 26.6672V30.5468H95.5312Z" fill="#5BC142"/>
<mask id="mask0_36244_3685" style="mask-type:luminance" maskUnits="userSpaceOnUse" x="37" y="10" width="22" height="24">
<path d="M58.8527 10.418H37.2891V33.918H58.8527V10.418Z" fill="white"/>
</mask>
<g mask="url(#mask0_36244_3685)">
<path d="M58.4128 22.9145C58.4128 21.0923 57.8705 19.253 56.5573 17.9899C55.6178 17.0862 54.6756 16.4753 53.1758 15.6532C50.8637 14.3858 47.7928 13.7539 47.7928 13.7539C49.3842 13.4229 50.7449 13.7398 50.8012 13.753C46.1602 11.4813 42.835 13.0682 42.835 13.0682L40.5976 11.4443C40.1611 12.2136 40.4401 13.4907 40.6073 14.0637C40.6628 14.2608 40.6346 14.4765 40.5237 14.6454L39.1304 16.7948C39.075 16.8793 39.038 16.9831 39.038 17.0958L39.0011 18.4098C38.267 19.4423 37.8868 20.4562 37.6914 21.2448C37.5057 21.2827 37.3481 21.4614 37.3015 21.6955C37.2557 21.949 37.3385 22.184 37.5154 22.2869C37.4872 22.5879 37.4969 22.7569 37.4969 22.7569L38.7133 24.7654C38.9262 25.0752 39.3162 25.1976 39.6691 25.047L41.0342 24.4838C41.2569 24.3896 41.396 24.174 41.396 23.9301V22.7375C41.396 22.6064 41.4426 22.484 41.5262 22.3899C41.7771 22.0994 42.4363 21.5458 43.8656 21.5458C45.7967 21.5458 46.2984 19.2645 46.1408 18.3254C46.1408 18.3254 46.8828 20.5601 45.5274 21.7799C44.9429 22.3063 44.8681 23.2066 45.3232 23.8544C46.2588 25.3199 46.3398 31.1307 40.0898 31.4492C42.2004 32.9799 44.796 33.882 47.6028 33.882C49.0542 33.882 50.6832 33.5088 51.7491 33.1955C53.836 32.3761 54.9979 31.4492 56.1358 30.2083C57.8847 28.301 58.1223 25.9193 57.6902 23.8738C56.6876 19.1236 50.5231 14.8144 44.3946 13.8947C47.4126 14.3453 52.5675 15.3416 56.0804 19.2179C57.0837 20.325 58.4128 22.9145 58.4128 22.9145ZM40.1796 18.6818C39.7061 17.6309 41.3123 17.4901 41.3123 17.4901C41.0897 19.1703 40.1796 18.6818 40.1796 18.6818Z" fill="#5BC142"/>
<path d="M43.0324 12.5761C43.8219 12.3147 44.2461 12.2038 44.9723 12.0621L42.4674 10.418C42.228 10.6239 41.8504 11.549 42.1593 11.96L43.0324 12.5761Z" fill="#5BC142"/>
</g>
</g>
<defs>
<clipPath id="clip0_36244_3685">
<rect width="65.092" height="23.5" fill="white" transform="translate(37.2891 10.418)"/>
</clipPath>
</defs>
</svg>
