<svg width="200" height="88" viewBox="0 0 200 88" fill="none" xmlns="http://www.w3.org/2000/svg">
<rect width="200" height="26" rx="8" fill="white"/>
<rect x="0.5" y="0.5" width="199" height="25" rx="7.5" stroke="#C9D0DE" stroke-opacity="0.6"/>
<rect x="8" y="8" width="105.563" height="10" rx="2" fill="#C9D0DE"/>
<path d="M181.999 15.5843C181.929 15.5843 181.856 15.5704 181.78 15.5426C181.704 15.5149 181.631 15.4663 181.561 15.3968L177.457 11.2926C177.332 11.1676 177.27 11.0149 177.27 10.8343C177.27 10.6538 177.332 10.501 177.457 10.376C177.582 10.251 177.728 10.1885 177.895 10.1885C178.061 10.1885 178.207 10.251 178.332 10.376L181.999 14.0426L185.665 10.376C185.79 10.251 185.94 10.1885 186.113 10.1885C186.287 10.1885 186.436 10.251 186.561 10.376C186.686 10.501 186.749 10.6503 186.749 10.8239C186.749 10.9975 186.686 11.1468 186.561 11.2718L182.436 15.3968C182.367 15.4663 182.297 15.5149 182.228 15.5426C182.158 15.5704 182.082 15.5843 181.999 15.5843Z" fill="#505763"/>
<rect y="34" width="200" height="54" rx="8" fill="white"/>
<rect x="0.5" y="34.5" width="199" height="53" rx="7.5" stroke="#C9D0DE" stroke-opacity="0.6"/>
<rect x="8" y="42" width="109.748" height="10" rx="2" fill="#C9D0DE"/>
<path d="M177.459 49.1035C177.348 48.9646 177.289 48.8118 177.282 48.6452C177.275 48.4785 177.334 48.3327 177.459 48.2077L181.563 44.1035C181.632 44.0341 181.702 43.9855 181.771 43.9577C181.841 43.9299 181.917 43.916 182.001 43.916C182.084 43.916 182.16 43.9299 182.23 43.9577C182.299 43.9855 182.369 44.0341 182.438 44.1035L186.563 48.2285C186.674 48.3396 186.73 48.482 186.73 48.6556C186.73 48.8292 186.667 48.9785 186.542 49.1035C186.417 49.2285 186.268 49.291 186.094 49.291C185.921 49.291 185.771 49.2285 185.646 49.1035L182.001 45.4577L178.355 49.1035C178.23 49.2285 178.084 49.2875 177.917 49.2806C177.751 49.2737 177.598 49.2146 177.459 49.1035Z" fill="#505763"/>
<rect x="8" y="60" width="149" height="8" rx="2" fill="#EFF2F8"/>
<rect x="8" y="72" width="120" height="8" rx="2" fill="#EFF2F8"/>
</svg>
