<svg width="200" height="88" viewBox="0 0 200 88" fill="none" xmlns="http://www.w3.org/2000/svg">
<rect width="200" height="26" rx="8" fill="#07080A"/>
<rect x="0.5" y="0.5" width="199" height="25" rx="7.5" stroke="#1D2025" stroke-opacity="0.6"/>
<rect x="8" y="8" width="105.563" height="10" rx="2" fill="#505763"/>
<path d="M181.999 15.5833C181.929 15.5833 181.856 15.5694 181.78 15.5417C181.704 15.5139 181.631 15.4653 181.561 15.3958L177.457 11.2917C177.332 11.1667 177.27 11.0139 177.27 10.8333C177.27 10.6528 177.332 10.5 177.457 10.375C177.582 10.25 177.728 10.1875 177.895 10.1875C178.061 10.1875 178.207 10.25 178.332 10.375L181.999 14.0417L185.665 10.375C185.79 10.25 185.94 10.1875 186.113 10.1875C186.287 10.1875 186.436 10.25 186.561 10.375C186.686 10.5 186.749 10.6493 186.749 10.8229C186.749 10.9965 186.686 11.1458 186.561 11.2708L182.436 15.3958C182.367 15.4653 182.297 15.5139 182.228 15.5417C182.158 15.5694 182.082 15.5833 181.999 15.5833Z" fill="#A4ABB9"/>
<rect y="34" width="200" height="54" rx="8" fill="#07080A"/>
<rect x="0.5" y="34.5" width="199" height="53" rx="7.5" stroke="#1D2025" stroke-opacity="0.6"/>
<rect x="8" y="42" width="109.748" height="10" rx="2" fill="#505763"/>
<path d="M177.459 49.1035C177.348 48.9646 177.289 48.8118 177.282 48.6452C177.275 48.4785 177.334 48.3327 177.459 48.2077L181.563 44.1035C181.632 44.0341 181.702 43.9855 181.771 43.9577C181.841 43.9299 181.917 43.916 182.001 43.916C182.084 43.916 182.16 43.9299 182.23 43.9577C182.299 43.9855 182.369 44.0341 182.438 44.1035L186.563 48.2285C186.674 48.3396 186.73 48.482 186.73 48.6556C186.73 48.8292 186.667 48.9785 186.542 49.1035C186.417 49.2285 186.268 49.291 186.094 49.291C185.921 49.291 185.771 49.2285 185.646 49.1035L182.001 45.4577L178.355 49.1035C178.23 49.2285 178.084 49.2875 177.917 49.2806C177.751 49.2737 177.598 49.2146 177.459 49.1035Z" fill="#A4ABB9"/>
<rect x="8" y="60" width="149" height="8" rx="2" fill="#1D2025"/>
<rect x="8" y="72" width="120" height="8" rx="2" fill="#1D2025"/>
</svg>
