<svg width="200" height="120" viewBox="0 0 200 120" fill="none" xmlns="http://www.w3.org/2000/svg">
<rect y="2" width="200" height="26" rx="4" fill="#EFF2F8"/>
<path d="M12.438 20.168C11.8967 20.168 11.416 20.112 10.996 20C10.576 19.8787 10.212 19.7153 9.904 19.51C9.596 19.2953 9.344 19.062 9.148 18.81C8.952 18.5487 8.80733 18.2733 8.714 17.984L9.848 17.592C9.988 18.0027 10.268 18.362 10.688 18.67C11.1173 18.9687 11.64 19.118 12.256 19.118C13.012 19.118 13.6047 18.9687 14.034 18.67C14.4633 18.3713 14.678 17.9747 14.678 17.48C14.678 17.0227 14.4867 16.654 14.104 16.374C13.7213 16.0847 13.2173 15.8607 12.592 15.702L11.514 15.422C11.0753 15.31 10.6693 15.1467 10.296 14.932C9.932 14.708 9.638 14.428 9.414 14.092C9.19933 13.7467 9.092 13.336 9.092 12.86C9.092 11.9733 9.37667 11.2827 9.946 10.788C10.5247 10.284 11.3553 10.032 12.438 10.032C13.082 10.032 13.6373 10.1393 14.104 10.354C14.5707 10.5593 14.9487 10.8253 15.238 11.152C15.5367 11.4693 15.7467 11.8147 15.868 12.188L14.748 12.58C14.5707 12.1133 14.272 11.7493 13.852 11.488C13.432 11.2173 12.9233 11.082 12.326 11.082C11.7007 11.082 11.2013 11.236 10.828 11.544C10.464 11.8427 10.282 12.2533 10.282 12.776C10.282 13.224 10.4267 13.5693 10.716 13.812C11.0053 14.0453 11.3833 14.218 11.85 14.33L12.928 14.596C13.88 14.82 14.608 15.1933 15.112 15.716C15.6253 16.2293 15.882 16.7847 15.882 17.382C15.882 17.8953 15.7513 18.3667 15.49 18.796C15.2287 19.216 14.8413 19.552 14.328 19.804C13.824 20.0467 13.194 20.168 12.438 20.168ZM20.6456 20.168C19.9643 20.168 19.3623 20.014 18.8396 19.706C18.3169 19.3887 17.9063 18.9547 17.6076 18.404C17.3183 17.8533 17.1736 17.2187 17.1736 16.5C17.1736 15.7813 17.3183 15.1467 17.6076 14.596C17.9063 14.0453 18.3123 13.616 18.8256 13.308C19.3483 12.9907 19.9456 12.832 20.6176 12.832C21.2709 12.832 21.8356 12.9953 22.3116 13.322C22.7876 13.6393 23.1563 14.0873 23.4176 14.666C23.6789 15.2447 23.8096 15.926 23.8096 16.71H18.0276L18.3076 16.472C18.3076 17.032 18.4056 17.5127 18.6016 17.914C18.8069 18.3153 19.0916 18.6233 19.4556 18.838C19.8196 19.0433 20.2349 19.146 20.7016 19.146C21.1963 19.146 21.6116 19.0293 21.9476 18.796C22.2929 18.5627 22.5589 18.2547 22.7456 17.872L23.7116 18.362C23.5343 18.726 23.2963 19.0433 22.9976 19.314C22.7083 19.5847 22.3629 19.7947 21.9616 19.944C21.5696 20.0933 21.1309 20.168 20.6456 20.168ZM18.3776 15.996L18.0836 15.772H22.9136L22.6196 16.01C22.6196 15.562 22.5309 15.1747 22.3536 14.848C22.1763 14.5213 21.9383 14.2693 21.6396 14.092C21.3409 13.9147 20.9956 13.826 20.6036 13.826C20.2209 13.826 19.8569 13.9147 19.5116 14.092C19.1756 14.2693 18.9003 14.5213 18.6856 14.848C18.4803 15.1653 18.3776 15.548 18.3776 15.996ZM25.2222 20V10.2H26.3422V20H25.2222ZM31.3644 20.168C30.683 20.168 30.081 20.014 29.5584 19.706C29.0357 19.3887 28.625 18.9547 28.3264 18.404C28.037 17.8533 27.8924 17.2187 27.8924 16.5C27.8924 15.7813 28.037 15.1467 28.3264 14.596C28.625 14.0453 29.031 13.616 29.5444 13.308C30.067 12.9907 30.6644 12.832 31.3364 12.832C31.9897 12.832 32.5544 12.9953 33.0304 13.322C33.5064 13.6393 33.875 14.0873 34.1364 14.666C34.3977 15.2447 34.5284 15.926 34.5284 16.71H28.7464L29.0264 16.472C29.0264 17.032 29.1244 17.5127 29.3204 17.914C29.5257 18.3153 29.8104 18.6233 30.1744 18.838C30.5384 19.0433 30.9537 19.146 31.4204 19.146C31.915 19.146 32.3304 19.0293 32.6664 18.796C33.0117 18.5627 33.2777 18.2547 33.4644 17.872L34.4304 18.362C34.253 18.726 34.015 19.0433 33.7164 19.314C33.427 19.5847 33.0817 19.7947 32.6804 19.944C32.2884 20.0933 31.8497 20.168 31.3644 20.168ZM29.0964 15.996L28.8024 15.772H33.6324L33.3384 16.01C33.3384 15.562 33.2497 15.1747 33.0724 14.848C32.895 14.5213 32.657 14.2693 32.3584 14.092C32.0597 13.9147 31.7144 13.826 31.3224 13.826C30.9397 13.826 30.5757 13.9147 30.2304 14.092C29.8944 14.2693 29.619 14.5213 29.4044 14.848C29.199 15.1653 29.0964 15.548 29.0964 15.996ZM39.0629 20.168C38.3723 20.168 37.7609 20.014 37.2289 19.706C36.6969 19.3887 36.2816 18.9547 35.9829 18.404C35.6843 17.8533 35.5349 17.2187 35.5349 16.5C35.5349 15.7813 35.6796 15.1467 35.9689 14.596C36.2676 14.0453 36.6829 13.616 37.2149 13.308C37.7469 12.9907 38.3536 12.832 39.0349 12.832C39.7069 12.832 40.3089 12.986 40.8409 13.294C41.3729 13.602 41.7789 14.036 42.0589 14.596L41.0369 15.058C40.8503 14.6847 40.5796 14.3953 40.2249 14.19C39.8703 13.9753 39.4643 13.868 39.0069 13.868C38.5496 13.868 38.1436 13.98 37.7889 14.204C37.4436 14.428 37.1683 14.7407 36.9629 15.142C36.7669 15.534 36.6689 15.9867 36.6689 16.5C36.6689 17.0133 36.7669 17.4707 36.9629 17.872C37.1683 18.264 37.4483 18.572 37.8029 18.796C38.1669 19.02 38.5776 19.132 39.0349 19.132C39.4923 19.132 39.8983 19.0153 40.2529 18.782C40.6169 18.5487 40.8923 18.222 41.0789 17.802L42.1009 18.264C41.8209 18.8613 41.4149 19.328 40.8829 19.664C40.3509 20 39.7443 20.168 39.0629 20.168ZM46.1472 20.168C45.4658 20.168 44.9385 19.9907 44.5652 19.636C44.1918 19.2813 44.0052 18.782 44.0052 18.138V10.816H45.1252V18.026C45.1252 18.3807 45.2185 18.656 45.4052 18.852C45.6012 19.0387 45.8718 19.132 46.2172 19.132C46.3292 19.132 46.4365 19.118 46.5392 19.09C46.6512 19.0527 46.7958 18.9687 46.9732 18.838L47.4072 19.748C47.1645 19.9067 46.9452 20.014 46.7492 20.07C46.5532 20.1353 46.3525 20.168 46.1472 20.168ZM42.7872 13.994V13H47.2252V13.994H42.7872Z" fill="#505763"/>
<rect x="84.5" y="6.5" width="51" height="17" rx="8.5" stroke="#C9D0DE"/>
<rect x="90" y="11.0825" width="24" height="7.83496" rx="2" fill="#C9D0DE"/>
<g opacity="0.5">
<path d="M123.862 17.1375C123.938 17.2125 124.025 17.25 124.125 17.25C124.225 17.25 124.312 17.2125 124.387 17.1375L126 15.525L127.625 17.15C127.692 17.2167 127.777 17.2479 127.881 17.2437C127.985 17.2396 128.071 17.2042 128.137 17.1375C128.212 17.0625 128.25 16.975 128.25 16.875C128.25 16.775 128.212 16.6875 128.137 16.6125L126.525 15L128.15 13.375C128.217 13.3083 128.248 13.2229 128.244 13.1188C128.24 13.0146 128.204 12.9292 128.137 12.8625C128.062 12.7875 127.975 12.75 127.875 12.75C127.775 12.75 127.688 12.7875 127.613 12.8625L126 14.475L124.375 12.85C124.308 12.7833 124.223 12.7521 124.119 12.7562C124.015 12.7604 123.929 12.7958 123.862 12.8625C123.787 12.9375 123.75 13.025 123.75 13.125C123.75 13.225 123.787 13.3125 123.862 13.3875L125.475 15L123.85 16.625C123.783 16.6917 123.752 16.7771 123.756 16.8812C123.76 16.9854 123.796 17.0708 123.862 17.1375ZM126 20C125.292 20 124.633 19.8729 124.025 19.6187C123.417 19.3646 122.888 19.0125 122.438 18.5625C121.988 18.1125 121.635 17.5833 121.381 16.975C121.127 16.3667 121 15.7083 121 15C121 14.3 121.127 13.6458 121.381 13.0375C121.635 12.4292 121.988 11.9 122.438 11.45C122.888 11 123.417 10.6458 124.025 10.3875C124.633 10.1292 125.292 10 126 10C126.7 10 127.354 10.1292 127.963 10.3875C128.571 10.6458 129.1 11 129.55 11.45C130 11.9 130.354 12.4292 130.613 13.0375C130.871 13.6458 131 14.3 131 15C131 15.7083 130.871 16.3667 130.613 16.975C130.354 17.5833 130 18.1125 129.55 18.5625C129.1 19.0125 128.571 19.3646 127.963 19.6187C127.354 19.8729 126.7 20 126 20Z" fill="#7C8491"/>
</g>
<rect x="140.5" y="6.5" width="51" height="17" rx="8.5" stroke="#C9D0DE"/>
<rect x="146" y="11.0825" width="24" height="7.83496" rx="2" fill="#C9D0DE"/>
<g opacity="0.5">
<path d="M179.862 17.1375C179.938 17.2125 180.025 17.25 180.125 17.25C180.225 17.25 180.312 17.2125 180.387 17.1375L182 15.525L183.625 17.15C183.692 17.2167 183.777 17.2479 183.881 17.2437C183.985 17.2396 184.071 17.2042 184.137 17.1375C184.212 17.0625 184.25 16.975 184.25 16.875C184.25 16.775 184.212 16.6875 184.137 16.6125L182.525 15L184.15 13.375C184.217 13.3083 184.248 13.2229 184.244 13.1188C184.24 13.0146 184.204 12.9292 184.137 12.8625C184.062 12.7875 183.975 12.75 183.875 12.75C183.775 12.75 183.688 12.7875 183.613 12.8625L182 14.475L180.375 12.85C180.308 12.7833 180.223 12.7521 180.119 12.7562C180.015 12.7604 179.929 12.7958 179.862 12.8625C179.787 12.9375 179.75 13.025 179.75 13.125C179.75 13.225 179.787 13.3125 179.862 13.3875L181.475 15L179.85 16.625C179.783 16.6917 179.752 16.7771 179.756 16.8812C179.76 16.9854 179.796 17.0708 179.862 17.1375ZM182 20C181.292 20 180.633 19.8729 180.025 19.6187C179.417 19.3646 178.888 19.0125 178.438 18.5625C177.988 18.1125 177.635 17.5833 177.381 16.975C177.127 16.3667 177 15.7083 177 15C177 14.3 177.127 13.6458 177.381 13.0375C177.635 12.4292 177.988 11.9 178.438 11.45C178.888 11 179.417 10.6458 180.025 10.3875C180.633 10.1292 181.292 10 182 10C182.7 10 183.354 10.1292 183.963 10.3875C184.571 10.6458 185.1 11 185.55 11.45C186 11.9 186.354 12.4292 186.613 13.0375C186.871 13.6458 187 14.3 187 15C187 15.7083 186.871 16.3667 186.613 16.975C186.354 17.5833 186 18.1125 185.55 18.5625C185.1 19.0125 184.571 19.3646 183.963 19.6187C183.354 19.8729 182.7 20 182 20Z" fill="#7C8491"/>
</g>
<g clip-path="url(#clip0_35324_8754)">
<rect y="32" width="200" height="88" rx="8" fill="white"/>
<rect x="8.5" y="47.5" width="9" height="9" rx="1.5" stroke="#DFE4ED"/>
<rect x="22" y="48" width="170" height="8" rx="2" fill="#EFF2F8"/>
<rect x="8.5" y="71.5" width="9" height="9" rx="1.5" stroke="#DFE4ED"/>
<rect x="22" y="72" width="170" height="8" rx="2" fill="#EFF2F8"/>
<rect x="8.5" y="95.5" width="9" height="9" rx="1.5" stroke="#DFE4ED"/>
<rect x="22" y="96" width="170" height="8" rx="2" fill="#EFF2F8"/>
</g>
<rect x="0.5" y="32.5" width="199" height="87" rx="7.5" stroke="#C9D0DE" stroke-opacity="0.6"/>
<defs>
<clipPath id="clip0_35324_8754">
<rect y="32" width="200" height="88" rx="8" fill="white"/>
</clipPath>
</defs>
</svg>
