<svg width="294" height="200" viewBox="0 0 294 200" fill="none" xmlns="http://www.w3.org/2000/svg">
<g opacity="0.2">
<g clip-path="url(#clip0_35496_29461)">
<rect x="179.754" y="97" width="67.0769" height="6" rx="3" fill="#1E90FF"/>
</g>
</g>
<g clip-path="url(#clip1_35496_29461)">
<rect x="113.293" y="97" width="68" height="6" rx="3" fill="#1E90FF"/>
</g>
<circle opacity="0.16" cx="178.216" cy="99.9995" r="16.1538" fill="#1E90FF"/>
<circle cx="178.216" cy="99.9999" r="7.69231" fill="#1E90FF"/>
<g opacity="0.2">
<g clip-path="url(#clip2_35496_29461)">
<rect x="46.832" y="97" width="68" height="6" rx="3" fill="#1E90FF"/>
</g>
</g>
<circle opacity="0.16" cx="111.755" cy="99.9995" r="16.1538" fill="#1E90FF"/>
<circle cx="111.755" cy="99.9999" r="7.69231" fill="#1E90FF"/>
<path d="M107.466 77.4365V75.0365H102.282V73.5645L107.29 66.2365H109.242V73.4205H111.322V75.0365H109.242V77.4365H107.466ZM104.25 73.4205H107.466V68.7005L104.25 73.4205ZM116.953 77.6285C116.078 77.6285 115.299 77.3832 114.617 76.8925C113.934 76.3912 113.395 75.7085 113.001 74.8445C112.617 73.9699 112.425 72.9672 112.425 71.8365C112.425 70.7059 112.617 69.7085 113.001 68.8445C113.395 67.9699 113.929 67.2872 114.601 66.7965C115.283 66.2952 116.067 66.0445 116.953 66.0445C117.838 66.0445 118.622 66.2952 119.305 66.7965C119.987 67.2872 120.521 67.9699 120.905 68.8445C121.299 69.7085 121.497 70.7059 121.497 71.8365C121.497 72.9672 121.299 73.9699 120.905 74.8445C120.521 75.7085 119.987 76.3912 119.305 76.8925C118.633 77.3832 117.849 77.6285 116.953 77.6285ZM116.969 75.9485C117.491 75.9485 117.955 75.7725 118.361 75.4205C118.777 75.0685 119.097 74.5832 119.321 73.9645C119.555 73.3459 119.673 72.6365 119.673 71.8365C119.673 71.0365 119.555 70.3272 119.321 69.7085C119.097 69.0792 118.777 68.5885 118.361 68.2365C117.955 67.8845 117.486 67.7085 116.953 67.7085C116.419 67.7085 115.95 67.8845 115.545 68.2365C115.139 68.5885 114.819 69.0739 114.585 69.6925C114.361 70.3112 114.249 71.0259 114.249 71.8365C114.249 72.6365 114.361 73.3459 114.585 73.9645C114.819 74.5832 115.139 75.0685 115.545 75.4205C115.961 75.7725 116.435 75.9485 116.969 75.9485Z" fill="#0074E6"/>
<path d="M169.639 77.4365L174.599 67.6605H176.503L171.687 77.4365H169.639ZM168.791 67.9325V66.2365H176.503V67.6605L174.759 67.9325H168.791ZM182.132 77.6285C181.258 77.6285 180.479 77.3832 179.796 76.8925C179.114 76.3912 178.575 75.7085 178.18 74.8445C177.796 73.9699 177.604 72.9672 177.604 71.8365C177.604 70.7059 177.796 69.7085 178.18 68.8445C178.575 67.9699 179.108 67.2872 179.78 66.7965C180.463 66.2952 181.247 66.0445 182.132 66.0445C183.018 66.0445 183.802 66.2952 184.484 66.7965C185.167 67.2872 185.7 67.9699 186.084 68.8445C186.479 69.7085 186.676 70.7059 186.676 71.8365C186.676 72.9672 186.479 73.9699 186.084 74.8445C185.7 75.7085 185.167 76.3912 184.484 76.8925C183.812 77.3832 183.028 77.6285 182.132 77.6285ZM182.148 75.9485C182.671 75.9485 183.135 75.7725 183.54 75.4205C183.956 75.0685 184.276 74.5832 184.5 73.9645C184.735 73.3459 184.852 72.6365 184.852 71.8365C184.852 71.0365 184.735 70.3272 184.5 69.7085C184.276 69.0792 183.956 68.5885 183.54 68.2365C183.135 67.8845 182.666 67.7085 182.132 67.7085C181.599 67.7085 181.13 67.8845 180.724 68.2365C180.319 68.5885 179.999 69.0739 179.764 69.6925C179.54 70.3112 179.428 71.0259 179.428 71.8365C179.428 72.6365 179.54 73.3459 179.764 73.9645C179.999 74.5832 180.319 75.0685 180.724 75.4205C181.14 75.7725 181.615 75.9485 182.148 75.9485Z" fill="#0074E6"/>
<defs>
<clipPath id="clip0_35496_29461">
<rect x="179.754" y="97" width="67.0769" height="6" rx="3" fill="white"/>
</clipPath>
<clipPath id="clip1_35496_29461">
<rect x="113.293" y="97" width="68" height="6" rx="3" fill="white"/>
</clipPath>
<clipPath id="clip2_35496_29461">
<rect x="46.832" y="97" width="68" height="6" rx="3" fill="white"/>
</clipPath>
</defs>
</svg>
