<svg width="200" height="54" viewBox="0 0 200 54" fill="none" xmlns="http://www.w3.org/2000/svg">
<rect width="200" height="54" rx="8" fill="white"/>
<rect x="0.5" y="0.5" width="199" height="53" rx="7.5" stroke="#C9D0DE" stroke-opacity="0.6"/>
<path d="M8 26C8 16.0589 16.0589 8 26 8V8C35.9411 8 44 16.0589 44 26V26C44 35.9411 35.9411 44 26 44V44C16.0589 44 8 35.9411 8 26V26Z" fill="#FBFCFE"/>
<path d="M17.9167 33.5003C17.6806 33.5003 17.5 33.3962 17.375 33.1878C17.25 32.9795 17.25 32.7712 17.375 32.5628L25.4583 18.6045C25.5833 18.3962 25.7639 18.292 26 18.292C26.2361 18.292 26.4167 18.3962 26.5417 18.6045L34.625 32.5628C34.75 32.7712 34.75 32.9795 34.625 33.1878C34.5 33.3962 34.3194 33.5003 34.0833 33.5003H17.9167ZM26.0833 24.0837C25.9028 24.0837 25.7535 24.1427 25.6354 24.2607C25.5174 24.3788 25.4583 24.5281 25.4583 24.7087V28.1253C25.4583 28.3059 25.5174 28.4552 25.6354 28.5732C25.7535 28.6913 25.9028 28.7503 26.0833 28.7503C26.2639 28.7503 26.4132 28.6913 26.5312 28.5732C26.6493 28.4552 26.7083 28.3059 26.7083 28.1253V24.7087C26.7083 24.5281 26.6493 24.3788 26.5312 24.2607C26.4132 24.1427 26.2639 24.0837 26.0833 24.0837ZM26.0833 31.0628C26.2639 31.0628 26.4132 31.0038 26.5312 30.8857C26.6493 30.7677 26.7083 30.6184 26.7083 30.4378C26.7083 30.2573 26.6493 30.108 26.5312 29.9899C26.4132 29.8719 26.2639 29.8128 26.0833 29.8128C25.9028 29.8128 25.7535 29.8719 25.6354 29.9899C25.5174 30.108 25.4583 30.2573 25.4583 30.4378C25.4583 30.6184 25.5174 30.7677 25.6354 30.8857C25.7535 31.0038 25.9028 31.0628 26.0833 31.0628ZM19 32.2503H33L26 20.167L19 32.2503Z" fill="#505763"/>
<rect x="52" y="8" width="95.084" height="10" rx="2" fill="#C9D0DE"/>
<rect x="52" y="26" width="140" height="8" rx="2" fill="#EFF2F8"/>
<rect x="52" y="38" width="67.6396" height="8" rx="2" fill="#EFF2F8"/>
</svg>
