<svg width="110" height="30" viewBox="0 0 110 30" fill="none" xmlns="http://www.w3.org/2000/svg">
<rect width="30" height="30" rx="15" fill="#4DA7FF"/>
<path d="M16.1078 19.0875L12.3953 15.375C12.3328 15.3125 12.2891 15.25 12.2641 15.1875C12.2391 15.125 12.2266 15.0563 12.2266 14.9813C12.2266 14.9063 12.2391 14.8375 12.2641 14.775C12.2891 14.7125 12.3328 14.65 12.3953 14.5875L16.1266 10.8562C16.2391 10.7437 16.3734 10.6875 16.5297 10.6875C16.6859 10.6875 16.8203 10.7437 16.9328 10.8562C17.0453 10.9687 17.0984 11.1063 17.0922 11.2688C17.0859 11.4313 17.0266 11.5687 16.9141 11.6812L13.6141 14.9813L16.9328 18.3C17.0453 18.4125 17.1016 18.5437 17.1016 18.6937C17.1016 18.8437 17.0453 18.975 16.9328 19.0875C16.8203 19.2 16.6828 19.2562 16.5203 19.2562C16.3578 19.2562 16.2203 19.2 16.1078 19.0875Z" fill="#00101F"/>
<rect x="46" width="64" height="30" rx="4" fill="#4DA7FF"/>
<path d="M57.162 20V10.2H60.396C61.068 10.2 61.6467 10.3027 62.132 10.508C62.6267 10.7133 63.0093 11.0213 63.28 11.432C63.5507 11.8333 63.686 12.3373 63.686 12.944C63.686 13.364 63.5833 13.742 63.378 14.078C63.182 14.414 62.902 14.694 62.538 14.918C63.014 15.1513 63.378 15.464 63.63 15.856C63.882 16.248 64.008 16.7147 64.008 17.256C64.008 17.8347 63.8773 18.3293 63.616 18.74C63.3547 19.1507 62.986 19.4633 62.51 19.678C62.034 19.8927 61.4693 20 60.816 20H57.162ZM58.758 18.544H60.69C61.2033 18.544 61.6093 18.418 61.908 18.166C62.2067 17.914 62.356 17.5733 62.356 17.144C62.356 16.6773 62.188 16.3133 61.852 16.052C61.5253 15.7907 61.0633 15.66 60.466 15.66H58.758V18.544ZM58.758 14.316H60.536C61.0027 14.316 61.3667 14.1947 61.628 13.952C61.8987 13.7 62.034 13.3547 62.034 12.916C62.034 12.468 61.88 12.1273 61.572 11.894C61.2733 11.6513 60.8533 11.53 60.312 11.53H58.758V14.316ZM70.1303 20L70.0463 18.712V13H71.6003V20H70.1303ZM65.2863 16.584V13H66.8543V16.584H65.2863ZM66.8543 16.584C66.8543 17.1347 66.9196 17.564 67.0503 17.872C67.1809 18.18 67.3583 18.3947 67.5823 18.516C67.8156 18.6373 68.0816 18.698 68.3803 18.698C68.9123 18.7073 69.3229 18.5347 69.6123 18.18C69.9016 17.8253 70.0463 17.3167 70.0463 16.654H70.6343C70.6343 17.3913 70.5223 18.026 70.2983 18.558C70.0836 19.0807 69.7756 19.482 69.3743 19.762C68.9823 20.0327 68.5063 20.168 67.9463 20.168C67.3956 20.168 66.9196 20.056 66.5183 19.832C66.1263 19.608 65.8229 19.258 65.6083 18.782C65.3936 18.306 65.2863 17.6947 65.2863 16.948V16.584H66.8543ZM76.1286 20.168C75.3913 20.168 74.8266 19.986 74.4346 19.622C74.0519 19.2487 73.8606 18.7167 73.8606 18.026V10.816H75.4146V17.732C75.4146 18.0587 75.4893 18.306 75.6386 18.474C75.7973 18.642 76.0259 18.726 76.3246 18.726C76.4179 18.726 76.5206 18.7073 76.6326 18.67C76.7446 18.6327 76.8706 18.5627 77.0106 18.46L77.5846 19.65C77.3419 19.818 77.0993 19.944 76.8566 20.028C76.6139 20.1213 76.3713 20.168 76.1286 20.168ZM72.6986 14.344V13H77.3046V14.344H72.6986ZM81.6247 20.168C80.8874 20.168 80.3227 19.986 79.9307 19.622C79.548 19.2487 79.3567 18.7167 79.3567 18.026V10.816H80.9107V17.732C80.9107 18.0587 80.9854 18.306 81.1347 18.474C81.2934 18.642 81.522 18.726 81.8207 18.726C81.914 18.726 82.0167 18.7073 82.1287 18.67C82.2407 18.6327 82.3667 18.5627 82.5067 18.46L83.0807 19.65C82.838 19.818 82.5954 19.944 82.3527 20.028C82.11 20.1213 81.8674 20.168 81.6247 20.168ZM78.1947 14.344V13H82.8007V14.344H78.1947ZM87.4591 20.168C86.7591 20.168 86.1338 20.014 85.5831 19.706C85.0418 19.3887 84.6171 18.9547 84.3091 18.404C84.0011 17.8533 83.8471 17.2187 83.8471 16.5C83.8471 15.7813 83.9964 15.1467 84.2951 14.596C84.6031 14.0453 85.0278 13.616 85.5691 13.308C86.1104 12.9907 86.7311 12.832 87.4311 12.832C88.1311 12.832 88.7518 12.9907 89.2931 13.308C89.8344 13.616 90.2544 14.0453 90.5531 14.596C90.8611 15.1467 91.0151 15.7813 91.0151 16.5C91.0151 17.2187 90.8658 17.8533 90.5671 18.404C90.2684 18.9547 89.8484 19.3887 89.3071 19.706C88.7658 20.014 88.1498 20.168 87.4591 20.168ZM87.4591 18.726C87.8418 18.726 88.1824 18.6327 88.4811 18.446C88.7798 18.25 89.0131 17.9887 89.1811 17.662C89.3491 17.326 89.4331 16.9387 89.4331 16.5C89.4331 16.0613 89.3444 15.6787 89.1671 15.352C88.9991 15.016 88.7658 14.7547 88.4671 14.568C88.1684 14.372 87.8231 14.274 87.4311 14.274C87.0391 14.274 86.6938 14.3673 86.3951 14.554C86.0964 14.7407 85.8631 15.002 85.6951 15.338C85.5271 15.674 85.4431 16.0613 85.4431 16.5C85.4431 16.9387 85.5271 17.326 85.6951 17.662C85.8724 17.9887 86.1104 18.25 86.4091 18.446C86.7171 18.6327 87.0671 18.726 87.4591 18.726ZM92.3739 20V13H93.8439L93.9419 14.288V20H92.3739ZM97.1199 20V16.416H98.6879V20H97.1199ZM97.1199 16.416C97.1199 15.856 97.0545 15.4267 96.9239 15.128C96.8025 14.82 96.6252 14.6053 96.3919 14.484C96.1679 14.3627 95.9019 14.302 95.5939 14.302C95.0712 14.2927 94.6652 14.4653 94.3759 14.82C94.0865 15.1747 93.9419 15.6833 93.9419 16.346H93.3539C93.3539 15.6087 93.4612 14.9787 93.6759 14.456C93.8905 13.924 94.1985 13.5227 94.5999 13.252C95.0012 12.972 95.4772 12.832 96.0279 12.832C96.5879 12.832 97.0639 12.944 97.4559 13.168C97.8572 13.392 98.1605 13.742 98.3659 14.218C98.5805 14.6847 98.6879 15.296 98.6879 16.052V16.416H97.1199Z" fill="#00101F"/>
</svg>
