<svg width="200" height="30" viewBox="0 0 200 30" fill="none" xmlns="http://www.w3.org/2000/svg">
<mask id="path-1-inside-1_34356_68816" fill="white">
<path d="M0 4C0 1.79086 1.79086 0 4 0H66.6667V30H4C1.79086 30 0 28.2091 0 26V4Z"/>
</mask>
<path d="M0 4C0 1.79086 1.79086 0 4 0H66.6667V30H4C1.79086 30 0 28.2091 0 26V4Z" fill="#EFF2F8"/>
<path d="M-1 4C-1 1.23858 1.23858 -1 4 -1H66.6667V1H4C2.34315 1 1 2.34315 1 4H-1ZM66.6667 31H4C1.23858 31 -1 28.7614 -1 26H1C1 27.6569 2.34315 29 4 29H66.6667V31ZM4 31C1.23858 31 -1 28.7614 -1 26V4C-1 1.23858 1.23858 -1 4 -1V1C2.34315 1 1 2.34315 1 4V26C1 27.6569 2.34315 29 4 29V31ZM66.6667 0V30V0Z" fill="#C9D0DE" mask="url(#path-1-inside-1_34356_68816)"/>
<path d="M12.494 20V10.2H15.728C16.4 10.2 16.9787 10.3027 17.464 10.508C17.9587 10.7133 18.3414 11.0213 18.612 11.432C18.8827 11.8333 19.018 12.3373 19.018 12.944C19.018 13.364 18.9154 13.742 18.71 14.078C18.514 14.414 18.234 14.694 17.87 14.918C18.346 15.1513 18.71 15.464 18.962 15.856C19.214 16.248 19.34 16.7147 19.34 17.256C19.34 17.8347 19.2094 18.3293 18.948 18.74C18.6867 19.1507 18.318 19.4633 17.842 19.678C17.366 19.8927 16.8014 20 16.148 20H12.494ZM14.09 18.544H16.022C16.5354 18.544 16.9414 18.418 17.24 18.166C17.5387 17.914 17.688 17.5733 17.688 17.144C17.688 16.6773 17.52 16.3133 17.184 16.052C16.8574 15.7907 16.3954 15.66 15.798 15.66H14.09V18.544ZM14.09 14.316H15.868C16.3347 14.316 16.6987 14.1947 16.96 13.952C17.2307 13.7 17.366 13.3547 17.366 12.916C17.366 12.468 17.212 12.1273 16.904 11.894C16.6054 11.6513 16.1854 11.53 15.644 11.53H14.09V14.316ZM25.4623 20L25.3783 18.712V13H26.9323V20H25.4623ZM20.6183 16.584V13H22.1863V16.584H20.6183ZM22.1863 16.584C22.1863 17.1347 22.2516 17.564 22.3823 17.872C22.513 18.18 22.6903 18.3947 22.9143 18.516C23.1476 18.6373 23.4136 18.698 23.7123 18.698C24.2443 18.7073 24.655 18.5347 24.9443 18.18C25.2336 17.8253 25.3783 17.3167 25.3783 16.654H25.9663C25.9663 17.3913 25.8543 18.026 25.6303 18.558C25.4156 19.0807 25.1076 19.482 24.7063 19.762C24.3143 20.0327 23.8383 20.168 23.2783 20.168C22.7276 20.168 22.2516 20.056 21.8503 19.832C21.4583 19.608 21.155 19.258 20.9403 18.782C20.7256 18.306 20.6183 17.6947 20.6183 16.948V16.584H22.1863ZM31.4606 20.168C30.7233 20.168 30.1586 19.986 29.7666 19.622C29.384 19.2487 29.1926 18.7167 29.1926 18.026V10.816H30.7466V17.732C30.7466 18.0587 30.8213 18.306 30.9706 18.474C31.1293 18.642 31.358 18.726 31.6566 18.726C31.75 18.726 31.8526 18.7073 31.9646 18.67C32.0766 18.6327 32.2026 18.5627 32.3426 18.46L32.9166 19.65C32.674 19.818 32.4313 19.944 32.1886 20.028C31.946 20.1213 31.7033 20.168 31.4606 20.168ZM28.0306 14.344V13H32.6366V14.344H28.0306ZM36.9567 20.168C36.2194 20.168 35.6547 19.986 35.2627 19.622C34.8801 19.2487 34.6887 18.7167 34.6887 18.026V10.816H36.2427V17.732C36.2427 18.0587 36.3174 18.306 36.4667 18.474C36.6254 18.642 36.8541 18.726 37.1527 18.726C37.2461 18.726 37.3487 18.7073 37.4607 18.67C37.5727 18.6327 37.6987 18.5627 37.8387 18.46L38.4127 19.65C38.1701 19.818 37.9274 19.944 37.6847 20.028C37.4421 20.1213 37.1994 20.168 36.9567 20.168ZM33.5267 14.344V13H38.1327V14.344H33.5267ZM42.7911 20.168C42.0911 20.168 41.4658 20.014 40.9151 19.706C40.3738 19.3887 39.9491 18.9547 39.6411 18.404C39.3331 17.8533 39.1791 17.2187 39.1791 16.5C39.1791 15.7813 39.3285 15.1467 39.6271 14.596C39.9351 14.0453 40.3598 13.616 40.9011 13.308C41.4425 12.9907 42.0631 12.832 42.7631 12.832C43.4631 12.832 44.0838 12.9907 44.6251 13.308C45.1665 13.616 45.5865 14.0453 45.8851 14.596C46.1931 15.1467 46.3471 15.7813 46.3471 16.5C46.3471 17.2187 46.1978 17.8533 45.8991 18.404C45.6005 18.9547 45.1805 19.3887 44.6391 19.706C44.0978 20.014 43.4818 20.168 42.7911 20.168ZM42.7911 18.726C43.1738 18.726 43.5145 18.6327 43.8131 18.446C44.1118 18.25 44.3451 17.9887 44.5131 17.662C44.6811 17.326 44.7651 16.9387 44.7651 16.5C44.7651 16.0613 44.6765 15.6787 44.4991 15.352C44.3311 15.016 44.0978 14.7547 43.7991 14.568C43.5005 14.372 43.1551 14.274 42.7631 14.274C42.3711 14.274 42.0258 14.3673 41.7271 14.554C41.4285 14.7407 41.1951 15.002 41.0271 15.338C40.8591 15.674 40.7751 16.0613 40.7751 16.5C40.7751 16.9387 40.8591 17.326 41.0271 17.662C41.2045 17.9887 41.4425 18.25 41.7411 18.446C42.0491 18.6327 42.3991 18.726 42.7911 18.726ZM47.7059 20V13H49.1759L49.2739 14.288V20H47.7059ZM52.4519 20V16.416H54.0199V20H52.4519ZM52.4519 16.416C52.4519 15.856 52.3866 15.4267 52.2559 15.128C52.1346 14.82 51.9572 14.6053 51.7239 14.484C51.4999 14.3627 51.2339 14.302 50.9259 14.302C50.4032 14.2927 49.9972 14.4653 49.7079 14.82C49.4186 15.1747 49.2739 15.6833 49.2739 16.346H48.6859C48.6859 15.6087 48.7932 14.9787 49.0079 14.456C49.2226 13.924 49.5306 13.5227 49.9319 13.252C50.3332 12.972 50.8092 12.832 51.3599 12.832C51.9199 12.832 52.3959 12.944 52.7879 13.168C53.1892 13.392 53.4926 13.742 53.6979 14.218C53.9126 14.6847 54.0199 15.296 54.0199 16.052V16.416H52.4519Z" fill="#111317"/>
<path d="M132.835 0.5V29.5H67.168V0.5H132.835Z" fill="#1E90FF" fill-opacity="0.16"/>
<path d="M132.835 0.5V29.5H67.168V0.5H132.835Z" stroke="#0074E6"/>
<path d="M79.162 20V10.2H82.396C83.068 10.2 83.6467 10.3027 84.132 10.508C84.6267 10.7133 85.0093 11.0213 85.28 11.432C85.5507 11.8333 85.686 12.3373 85.686 12.944C85.686 13.364 85.5833 13.742 85.378 14.078C85.182 14.414 84.902 14.694 84.538 14.918C85.014 15.1513 85.378 15.464 85.63 15.856C85.882 16.248 86.008 16.7147 86.008 17.256C86.008 17.8347 85.8773 18.3293 85.616 18.74C85.3547 19.1507 84.986 19.4633 84.51 19.678C84.034 19.8927 83.4693 20 82.816 20H79.162ZM80.758 18.544H82.69C83.2033 18.544 83.6093 18.418 83.908 18.166C84.2067 17.914 84.356 17.5733 84.356 17.144C84.356 16.6773 84.188 16.3133 83.852 16.052C83.5253 15.7907 83.0633 15.66 82.466 15.66H80.758V18.544ZM80.758 14.316H82.536C83.0027 14.316 83.3667 14.1947 83.628 13.952C83.8987 13.7 84.034 13.3547 84.034 12.916C84.034 12.468 83.88 12.1273 83.572 11.894C83.2733 11.6513 82.8533 11.53 82.312 11.53H80.758V14.316ZM92.1303 20L92.0463 18.712V13H93.6003V20H92.1303ZM87.2863 16.584V13H88.8543V16.584H87.2863ZM88.8543 16.584C88.8543 17.1347 88.9196 17.564 89.0503 17.872C89.1809 18.18 89.3583 18.3947 89.5823 18.516C89.8156 18.6373 90.0816 18.698 90.3803 18.698C90.9123 18.7073 91.3229 18.5347 91.6123 18.18C91.9016 17.8253 92.0463 17.3167 92.0463 16.654H92.6343C92.6343 17.3913 92.5223 18.026 92.2983 18.558C92.0836 19.0807 91.7756 19.482 91.3743 19.762C90.9823 20.0327 90.5063 20.168 89.9463 20.168C89.3956 20.168 88.9196 20.056 88.5183 19.832C88.1263 19.608 87.8229 19.258 87.6083 18.782C87.3936 18.306 87.2863 17.6947 87.2863 16.948V16.584H88.8543ZM98.1286 20.168C97.3913 20.168 96.8266 19.986 96.4346 19.622C96.0519 19.2487 95.8606 18.7167 95.8606 18.026V10.816H97.4146V17.732C97.4146 18.0587 97.4893 18.306 97.6386 18.474C97.7973 18.642 98.0259 18.726 98.3246 18.726C98.4179 18.726 98.5206 18.7073 98.6326 18.67C98.7446 18.6327 98.8706 18.5627 99.0106 18.46L99.5846 19.65C99.3419 19.818 99.0993 19.944 98.8566 20.028C98.6139 20.1213 98.3713 20.168 98.1286 20.168ZM94.6986 14.344V13H99.3046V14.344H94.6986ZM103.625 20.168C102.887 20.168 102.323 19.986 101.931 19.622C101.548 19.2487 101.357 18.7167 101.357 18.026V10.816H102.911V17.732C102.911 18.0587 102.985 18.306 103.135 18.474C103.293 18.642 103.522 18.726 103.821 18.726C103.914 18.726 104.017 18.7073 104.129 18.67C104.241 18.6327 104.367 18.5627 104.507 18.46L105.081 19.65C104.838 19.818 104.595 19.944 104.353 20.028C104.11 20.1213 103.867 20.168 103.625 20.168ZM100.195 14.344V13H104.801V14.344H100.195ZM109.459 20.168C108.759 20.168 108.134 20.014 107.583 19.706C107.042 19.3887 106.617 18.9547 106.309 18.404C106.001 17.8533 105.847 17.2187 105.847 16.5C105.847 15.7813 105.996 15.1467 106.295 14.596C106.603 14.0453 107.028 13.616 107.569 13.308C108.11 12.9907 108.731 12.832 109.431 12.832C110.131 12.832 110.752 12.9907 111.293 13.308C111.834 13.616 112.254 14.0453 112.553 14.596C112.861 15.1467 113.015 15.7813 113.015 16.5C113.015 17.2187 112.866 17.8533 112.567 18.404C112.268 18.9547 111.848 19.3887 111.307 19.706C110.766 20.014 110.15 20.168 109.459 20.168ZM109.459 18.726C109.842 18.726 110.182 18.6327 110.481 18.446C110.78 18.25 111.013 17.9887 111.181 17.662C111.349 17.326 111.433 16.9387 111.433 16.5C111.433 16.0613 111.344 15.6787 111.167 15.352C110.999 15.016 110.766 14.7547 110.467 14.568C110.168 14.372 109.823 14.274 109.431 14.274C109.039 14.274 108.694 14.3673 108.395 14.554C108.096 14.7407 107.863 15.002 107.695 15.338C107.527 15.674 107.443 16.0613 107.443 16.5C107.443 16.9387 107.527 17.326 107.695 17.662C107.872 17.9887 108.11 18.25 108.409 18.446C108.717 18.6327 109.067 18.726 109.459 18.726ZM114.374 20V13H115.844L115.942 14.288V20H114.374ZM119.12 20V16.416H120.688V20H119.12ZM119.12 16.416C119.12 15.856 119.055 15.4267 118.924 15.128C118.803 14.82 118.625 14.6053 118.392 14.484C118.168 14.3627 117.902 14.302 117.594 14.302C117.071 14.2927 116.665 14.4653 116.376 14.82C116.087 15.1747 115.942 15.6833 115.942 16.346H115.354C115.354 15.6087 115.461 14.9787 115.676 14.456C115.891 13.924 116.199 13.5227 116.6 13.252C117.001 12.972 117.477 12.832 118.028 12.832C118.588 12.832 119.064 12.944 119.456 13.168C119.857 13.392 120.161 13.742 120.366 14.218C120.581 14.6847 120.688 15.296 120.688 16.052V16.416H119.12Z" fill="#0074E6"/>
<mask id="path-6-inside-2_34356_68816" fill="white">
<path d="M133.332 0H195.999C198.208 0 199.999 1.79086 199.999 4V26C199.999 28.2091 198.208 30 195.999 30H133.332V0Z"/>
</mask>
<path d="M133.332 0H195.999C198.208 0 199.999 1.79086 199.999 4V26C199.999 28.2091 198.208 30 195.999 30H133.332V0Z" fill="#EFF2F8"/>
<path d="M133.332 -1H195.999C198.76 -1 200.999 1.23858 200.999 4H198.999C198.999 2.34315 197.656 1 195.999 1H133.332V-1ZM200.999 26C200.999 28.7614 198.76 31 195.999 31H133.332V29H195.999C197.656 29 198.999 27.6569 198.999 26H200.999ZM133.332 30V0V30ZM195.999 -1C198.76 -1 200.999 1.23858 200.999 4V26C200.999 28.7614 198.76 31 195.999 31V29C197.656 29 198.999 27.6569 198.999 26V4C198.999 2.34315 197.656 1 195.999 1V-1Z" fill="#C9D0DE" mask="url(#path-6-inside-2_34356_68816)"/>
<path d="M145.826 20V10.2H149.06C149.732 10.2 150.311 10.3027 150.796 10.508C151.291 10.7133 151.673 11.0213 151.944 11.432C152.215 11.8333 152.35 12.3373 152.35 12.944C152.35 13.364 152.247 13.742 152.042 14.078C151.846 14.414 151.566 14.694 151.202 14.918C151.678 15.1513 152.042 15.464 152.294 15.856C152.546 16.248 152.672 16.7147 152.672 17.256C152.672 17.8347 152.541 18.3293 152.28 18.74C152.019 19.1507 151.65 19.4633 151.174 19.678C150.698 19.8927 150.133 20 149.48 20H145.826ZM147.422 18.544H149.354C149.867 18.544 150.273 18.418 150.572 18.166C150.871 17.914 151.02 17.5733 151.02 17.144C151.02 16.6773 150.852 16.3133 150.516 16.052C150.189 15.7907 149.727 15.66 149.13 15.66H147.422V18.544ZM147.422 14.316H149.2C149.667 14.316 150.031 14.1947 150.292 13.952C150.563 13.7 150.698 13.3547 150.698 12.916C150.698 12.468 150.544 12.1273 150.236 11.894C149.937 11.6513 149.517 11.53 148.976 11.53H147.422V14.316ZM158.794 20L158.71 18.712V13H160.264V20H158.794ZM153.95 16.584V13H155.518V16.584H153.95ZM155.518 16.584C155.518 17.1347 155.584 17.564 155.714 17.872C155.845 18.18 156.022 18.3947 156.246 18.516C156.48 18.6373 156.746 18.698 157.044 18.698C157.576 18.7073 157.987 18.5347 158.276 18.18C158.566 17.8253 158.71 17.3167 158.71 16.654H159.298C159.298 17.3913 159.186 18.026 158.962 18.558C158.748 19.0807 158.44 19.482 158.038 19.762C157.646 20.0327 157.17 20.168 156.61 20.168C156.06 20.168 155.584 20.056 155.182 19.832C154.79 19.608 154.487 19.258 154.272 18.782C154.058 18.306 153.95 17.6947 153.95 16.948V16.584H155.518ZM164.793 20.168C164.055 20.168 163.491 19.986 163.099 19.622C162.716 19.2487 162.525 18.7167 162.525 18.026V10.816H164.079V17.732C164.079 18.0587 164.153 18.306 164.303 18.474C164.461 18.642 164.69 18.726 164.989 18.726C165.082 18.726 165.185 18.7073 165.297 18.67C165.409 18.6327 165.535 18.5627 165.675 18.46L166.249 19.65C166.006 19.818 165.763 19.944 165.521 20.028C165.278 20.1213 165.035 20.168 164.793 20.168ZM161.363 14.344V13H165.969V14.344H161.363ZM170.289 20.168C169.551 20.168 168.987 19.986 168.595 19.622C168.212 19.2487 168.021 18.7167 168.021 18.026V10.816H169.575V17.732C169.575 18.0587 169.649 18.306 169.799 18.474C169.957 18.642 170.186 18.726 170.485 18.726C170.578 18.726 170.681 18.7073 170.793 18.67C170.905 18.6327 171.031 18.5627 171.171 18.46L171.745 19.65C171.502 19.818 171.259 19.944 171.017 20.028C170.774 20.1213 170.531 20.168 170.289 20.168ZM166.859 14.344V13H171.465V14.344H166.859ZM176.123 20.168C175.423 20.168 174.798 20.014 174.247 19.706C173.706 19.3887 173.281 18.9547 172.973 18.404C172.665 17.8533 172.511 17.2187 172.511 16.5C172.511 15.7813 172.66 15.1467 172.959 14.596C173.267 14.0453 173.692 13.616 174.233 13.308C174.774 12.9907 175.395 12.832 176.095 12.832C176.795 12.832 177.416 12.9907 177.957 13.308C178.498 13.616 178.918 14.0453 179.217 14.596C179.525 15.1467 179.679 15.7813 179.679 16.5C179.679 17.2187 179.53 17.8533 179.231 18.404C178.932 18.9547 178.512 19.3887 177.971 19.706C177.43 20.014 176.814 20.168 176.123 20.168ZM176.123 18.726C176.506 18.726 176.846 18.6327 177.145 18.446C177.444 18.25 177.677 17.9887 177.845 17.662C178.013 17.326 178.097 16.9387 178.097 16.5C178.097 16.0613 178.008 15.6787 177.831 15.352C177.663 15.016 177.43 14.7547 177.131 14.568C176.832 14.372 176.487 14.274 176.095 14.274C175.703 14.274 175.358 14.3673 175.059 14.554C174.76 14.7407 174.527 15.002 174.359 15.338C174.191 15.674 174.107 16.0613 174.107 16.5C174.107 16.9387 174.191 17.326 174.359 17.662C174.536 17.9887 174.774 18.25 175.073 18.446C175.381 18.6327 175.731 18.726 176.123 18.726ZM181.038 20V13H182.508L182.606 14.288V20H181.038ZM185.784 20V16.416H187.352V20H185.784ZM185.784 16.416C185.784 15.856 185.719 15.4267 185.588 15.128C185.467 14.82 185.289 14.6053 185.056 14.484C184.832 14.3627 184.566 14.302 184.258 14.302C183.735 14.2927 183.329 14.4653 183.04 14.82C182.751 15.1747 182.606 15.6833 182.606 16.346H182.018C182.018 15.6087 182.125 14.9787 182.34 14.456C182.555 13.924 182.863 13.5227 183.264 13.252C183.665 12.972 184.141 12.832 184.692 12.832C185.252 12.832 185.728 12.944 186.12 13.168C186.521 13.392 186.825 13.742 187.03 14.218C187.245 14.6847 187.352 15.296 187.352 16.052V16.416H185.784Z" fill="#111317"/>
</svg>
