<svg width="120" height="142" viewBox="0 0 120 142" fill="none" xmlns="http://www.w3.org/2000/svg">
<rect width="120" height="142" rx="8" fill="#07080A"/>
<rect x="0.5" y="0.5" width="119" height="141" rx="7.5" stroke="#1D2025" stroke-opacity="0.6"/>
<rect x="8" y="8" width="104" height="80" rx="8" fill="#111317"/>
<path d="M55.5417 52.2292H64.4792C64.6181 52.2292 64.7153 52.1736 64.7708 52.0625C64.8264 51.9514 64.8125 51.8403 64.7292 51.7292L62.2917 48.4792C62.2222 48.3958 62.1389 48.3542 62.0417 48.3542C61.9444 48.3542 61.8611 48.3958 61.7917 48.4792L59.2917 51.7083L57.6042 49.3958C57.5347 49.3125 57.4514 49.2708 57.3542 49.2708C57.2569 49.2708 57.1736 49.3125 57.1042 49.3958L55.3125 51.7292C55.2431 51.8403 55.2326 51.9514 55.2813 52.0625C55.3299 52.1736 55.4167 52.2292 55.5417 52.2292ZM53.75 55.5C53.4167 55.5 53.125 55.375 52.875 55.125C52.625 54.875 52.5 54.5833 52.5 54.25V41.75C52.5 41.4167 52.625 41.125 52.875 40.875C53.125 40.625 53.4167 40.5 53.75 40.5H66.25C66.5833 40.5 66.875 40.625 67.125 40.875C67.375 41.125 67.5 41.4167 67.5 41.75V54.25C67.5 54.5833 67.375 54.875 67.125 55.125C66.875 55.375 66.5833 55.5 66.25 55.5H53.75ZM53.75 54.25H66.25V41.75H53.75V54.25ZM53.75 41.75V54.25V41.75Z" fill="#A4ABB9"/>
<rect x="8" y="96" width="68" height="10" rx="2" fill="#505763"/>
<rect x="8" y="114" width="104" height="8" rx="2" fill="#1D2025"/>
<rect x="8" y="126" width="67.6396" height="8" rx="2" fill="#1D2025"/>
</svg>
