<svg width="200" height="100" viewBox="0 0 200 100" fill="none" xmlns="http://www.w3.org/2000/svg">
<rect width="200" height="100" rx="8" fill="#07080A"/>
<rect x="0.5" y="0.5" width="199" height="99" rx="7.5" stroke="#1D2025" stroke-opacity="0.6"/>
<path d="M19.2305 54.0404L15.1055 49.9154C15.036 49.8459 14.9874 49.7765 14.9596 49.707C14.9319 49.6376 14.918 49.5612 14.918 49.4779C14.918 49.3945 14.9319 49.3181 14.9596 49.2487C14.9874 49.1793 15.036 49.1098 15.1055 49.0404L19.2513 44.8945C19.3763 44.7695 19.5256 44.707 19.6992 44.707C19.8728 44.707 20.0221 44.7695 20.1471 44.8945C20.2721 45.0195 20.3312 45.1723 20.3242 45.3529C20.3173 45.5334 20.2513 45.6862 20.1263 45.8112L16.4596 49.4779L20.1471 53.1654C20.2721 53.2904 20.3346 53.4362 20.3346 53.6029C20.3346 53.7695 20.2721 53.9154 20.1471 54.0404C20.0221 54.1654 19.8694 54.2279 19.6888 54.2279C19.5082 54.2279 19.3555 54.1654 19.2305 54.0404Z" fill="#A4ABB9"/>
<path d="M94.65 54.575H105.375C105.542 54.575 105.658 54.5083 105.725 54.375C105.792 54.2417 105.775 54.1083 105.675 53.975L102.75 50.075C102.667 49.975 102.567 49.925 102.45 49.925C102.333 49.925 102.233 49.975 102.15 50.075L99.15 53.95L97.125 51.175C97.0417 51.075 96.9417 51.025 96.825 51.025C96.7083 51.025 96.6083 51.075 96.525 51.175L94.375 53.975C94.2917 54.1083 94.2792 54.2417 94.3375 54.375C94.3958 54.5083 94.5 54.575 94.65 54.575ZM92.5 58.5C92.1 58.5 91.75 58.35 91.45 58.05C91.15 57.75 91 57.4 91 57V42C91 41.6 91.15 41.25 91.45 40.95C91.75 40.65 92.1 40.5 92.5 40.5H107.5C107.9 40.5 108.25 40.65 108.55 40.95C108.85 41.25 109 41.6 109 42V57C109 57.4 108.85 57.75 108.55 58.05C108.25 58.35 107.9 58.5 107.5 58.5H92.5ZM92.5 57H107.5V42H92.5V57ZM92.5 42V57V42Z" fill="#A4ABB9"/>
<path d="M179.373 54.0435C179.262 53.9046 179.203 53.7518 179.196 53.5851C179.189 53.4185 179.248 53.2726 179.373 53.1476L183.04 49.481L179.352 45.7935C179.241 45.6824 179.189 45.533 179.196 45.3455C179.203 45.158 179.262 45.0087 179.373 44.8976C179.512 44.7587 179.661 44.6928 179.821 44.6997C179.981 44.7067 180.123 44.7726 180.248 44.8976L184.394 49.0435C184.463 49.1129 184.512 49.1824 184.54 49.2518C184.567 49.3212 184.581 49.3976 184.581 49.481C184.581 49.5643 184.567 49.6407 184.54 49.7101C184.512 49.7796 184.463 49.849 184.394 49.9185L180.269 54.0435C180.144 54.1685 179.998 54.2275 179.831 54.2205C179.665 54.2136 179.512 54.1546 179.373 54.0435Z" fill="#A4ABB9"/>
<circle cx="86" cy="89.5" r="2.5" fill="#282C32"/>
<circle cx="93" cy="89.5" r="2.5" fill="#282C32"/>
<circle cx="100" cy="89.5" r="2.5" fill="#505763"/>
<circle cx="107" cy="89.5" r="2.5" fill="#282C32"/>
<circle cx="114" cy="89.5" r="2.5" fill="#282C32"/>
</svg>
