<svg width="40" height="40" viewBox="0 0 40 40" fill="none" xmlns="http://www.w3.org/2000/svg">
<rect width="40" height="40" rx="5" fill="#07080A"/>
<rect x="0.625" y="0.625" width="38.75" height="38.75" rx="4.375" stroke="#1D2025" stroke-opacity="0.6" stroke-width="1.25"/>
<path d="M20 21.408L12.9598 28.4483C12.7586 28.6494 12.5239 28.75 12.2557 28.75C11.9875 28.75 11.7529 28.6494 11.5517 28.4483C11.3506 28.2471 11.25 28.0125 11.25 27.7443C11.25 27.4761 11.3506 27.2414 11.5517 27.0402L18.592 20L11.5517 12.9598C11.3506 12.7586 11.25 12.5239 11.25 12.2557C11.25 11.9875 11.3506 11.7529 11.5517 11.5517C11.7529 11.3506 11.9875 11.25 12.2557 11.25C12.5239 11.25 12.7586 11.3506 12.9598 11.5517L20 18.592L27.0402 11.5517C27.2414 11.3506 27.4761 11.25 27.7443 11.25C28.0125 11.25 28.2471 11.3506 28.4483 11.5517C28.6494 11.7529 28.75 11.9875 28.75 12.2557C28.75 12.5239 28.6494 12.7586 28.4483 12.9598L21.408 20L28.4483 27.0402C28.6494 27.2414 28.75 27.4761 28.75 27.7443C28.75 28.0125 28.6494 28.2471 28.4483 28.4483C28.2471 28.6494 28.0125 28.75 27.7443 28.75C27.4761 28.75 27.2414 28.6494 27.0402 28.4483L20 21.408Z" fill="#A4ABB9"/>
</svg>
