<svg width="200" height="86" viewBox="0 0 200 86" fill="none" xmlns="http://www.w3.org/2000/svg">
<rect width="200" height="26" rx="4" fill="#1E90FF" fill-opacity="0.16"/>
<path d="M8.996 17V8.6H11.636C12.46 8.6 13.188 8.78 13.82 9.14C14.46 9.492 14.96 9.984 15.32 10.616C15.688 11.248 15.872 11.976 15.872 12.8C15.872 13.616 15.688 14.34 15.32 14.972C14.96 15.604 14.46 16.1 13.82 16.46C13.188 16.82 12.46 17 11.636 17H8.996ZM10.388 15.704H11.636C12.028 15.704 12.396 15.632 12.74 15.488C13.084 15.336 13.384 15.128 13.64 14.864C13.896 14.6 14.096 14.292 14.24 13.94C14.384 13.588 14.456 13.208 14.456 12.8C14.456 12.392 14.384 12.012 14.24 11.66C14.096 11.308 13.896 11 13.64 10.736C13.384 10.472 13.084 10.268 12.74 10.124C12.396 9.972 12.028 9.896 11.636 9.896H10.388V15.704ZM17.9758 13.808C17.9758 13.16 18.0998 12.628 18.3478 12.212C18.5958 11.796 18.9158 11.488 19.3078 11.288C19.7078 11.08 20.1238 10.976 20.5558 10.976V12.26C20.1878 12.26 19.8398 12.312 19.5117 12.416C19.1918 12.512 18.9318 12.672 18.7318 12.896C18.5318 13.12 18.4318 13.416 18.4318 13.784L17.9758 13.808ZM17.0878 17V11H18.4318V17H17.0878ZM24.2071 17.144C23.6071 17.144 23.0711 17.012 22.5991 16.748C22.1351 16.476 21.7711 16.104 21.5071 15.632C21.2431 15.16 21.1111 14.616 21.1111 14C21.1111 13.384 21.2391 12.84 21.4951 12.368C21.7591 11.896 22.1231 11.528 22.5871 11.264C23.0511 10.992 23.5831 10.856 24.1831 10.856C24.7831 10.856 25.3151 10.992 25.7791 11.264C26.2431 11.528 26.6031 11.896 26.8591 12.368C27.1231 12.84 27.2551 13.384 27.2551 14C27.2551 14.616 27.1271 15.16 26.8711 15.632C26.6151 16.104 26.2551 16.476 25.7911 16.748C25.3271 17.012 24.7991 17.144 24.2071 17.144ZM24.2071 15.908C24.5351 15.908 24.8271 15.828 25.0831 15.668C25.3391 15.5 25.5391 15.276 25.6831 14.996C25.8271 14.708 25.8991 14.376 25.8991 14C25.8991 13.624 25.8231 13.296 25.6711 13.016C25.5271 12.728 25.3271 12.504 25.0711 12.344C24.8151 12.176 24.5191 12.092 24.1831 12.092C23.8471 12.092 23.5511 12.172 23.2951 12.332C23.0391 12.492 22.8391 12.716 22.6951 13.004C22.5511 13.292 22.4791 13.624 22.4791 14C22.4791 14.376 22.5511 14.708 22.6951 14.996C22.8471 15.276 23.0511 15.5 23.3071 15.668C23.5711 15.828 23.8711 15.908 24.2071 15.908ZM28.4798 19.4V11H29.7398L29.8238 12.104V19.4H28.4798ZM31.7198 17.144C31.2158 17.144 30.7798 17.016 30.4118 16.76C30.0518 16.496 29.7758 16.128 29.5838 15.656C29.3918 15.184 29.2958 14.632 29.2958 14C29.2958 13.36 29.3918 12.808 29.5838 12.344C29.7758 11.872 30.0518 11.508 30.4118 11.252C30.7798 10.988 31.2158 10.856 31.7198 10.856C32.2638 10.856 32.7358 10.988 33.1358 11.252C33.5438 11.508 33.8598 11.872 34.0838 12.344C34.3158 12.808 34.4318 13.36 34.4318 14C34.4318 14.632 34.3158 15.184 34.0838 15.656C33.8598 16.128 33.5438 16.496 33.1358 16.76C32.7358 17.016 32.2638 17.144 31.7198 17.144ZM31.3838 15.92C31.7038 15.92 31.9878 15.84 32.2358 15.68C32.4838 15.512 32.6798 15.284 32.8238 14.996C32.9758 14.708 33.0518 14.376 33.0518 14C33.0518 13.624 32.9798 13.292 32.8358 13.004C32.6998 12.716 32.5078 12.492 32.2598 12.332C32.0118 12.172 31.7238 12.092 31.3958 12.092C31.0918 12.092 30.8198 12.172 30.5798 12.332C30.3398 12.492 30.1518 12.716 30.0158 13.004C29.8878 13.292 29.8238 13.624 29.8238 14C29.8238 14.376 29.8878 14.708 30.0158 14.996C30.1518 15.284 30.3358 15.512 30.5678 15.68C30.8078 15.84 31.0798 15.92 31.3838 15.92ZM39.9119 17L39.8519 15.884V8.6H41.1839V17H39.9119ZM37.9559 17.144C37.4119 17.144 36.9359 17.016 36.5279 16.76C36.1279 16.496 35.8119 16.128 35.5799 15.656C35.3559 15.184 35.2439 14.632 35.2439 14C35.2439 13.36 35.3559 12.808 35.5799 12.344C35.8119 11.872 36.1279 11.508 36.5279 11.252C36.9359 10.988 37.4119 10.856 37.9559 10.856C38.4599 10.856 38.8919 10.988 39.2519 11.252C39.6199 11.508 39.8999 11.872 40.0919 12.344C40.2839 12.808 40.3799 13.36 40.3799 14C40.3799 14.632 40.2839 15.184 40.0919 15.656C39.8999 16.128 39.6199 16.496 39.2519 16.76C38.8919 17.016 38.4599 17.144 37.9559 17.144ZM38.2919 15.92C38.5959 15.92 38.8639 15.84 39.0959 15.68C39.3359 15.512 39.5199 15.284 39.6479 14.996C39.7839 14.708 39.8519 14.376 39.8519 14C39.8519 13.624 39.7839 13.292 39.6479 13.004C39.5199 12.716 39.3359 12.492 39.0959 12.332C38.8639 12.172 38.5919 12.092 38.2799 12.092C37.9599 12.092 37.6759 12.172 37.4279 12.332C37.1799 12.492 36.9839 12.716 36.8399 13.004C36.7039 13.292 36.6319 13.624 36.6239 14C36.6319 14.376 36.7039 14.708 36.8399 14.996C36.9839 15.284 37.1799 15.512 37.4279 15.68C37.6839 15.84 37.9719 15.92 38.2919 15.92ZM45.4298 17.144C44.8298 17.144 44.2938 17.012 43.8218 16.748C43.3578 16.476 42.9938 16.104 42.7298 15.632C42.4658 15.16 42.3338 14.616 42.3338 14C42.3338 13.384 42.4618 12.84 42.7178 12.368C42.9818 11.896 43.3458 11.528 43.8098 11.264C44.2738 10.992 44.8058 10.856 45.4058 10.856C46.0058 10.856 46.5378 10.992 47.0018 11.264C47.4658 11.528 47.8258 11.896 48.0818 12.368C48.3458 12.84 48.4778 13.384 48.4778 14C48.4778 14.616 48.3498 15.16 48.0938 15.632C47.8378 16.104 47.4778 16.476 47.0138 16.748C46.5498 17.012 46.0218 17.144 45.4298 17.144ZM45.4298 15.908C45.7578 15.908 46.0498 15.828 46.3058 15.668C46.5618 15.5 46.7618 15.276 46.9058 14.996C47.0498 14.708 47.1218 14.376 47.1218 14C47.1218 13.624 47.0458 13.296 46.8938 13.016C46.7498 12.728 46.5498 12.504 46.2938 12.344C46.0378 12.176 45.7418 12.092 45.4058 12.092C45.0698 12.092 44.7738 12.172 44.5178 12.332C44.2618 12.492 44.0618 12.716 43.9178 13.004C43.7738 13.292 43.7018 13.624 43.7018 14C43.7018 14.376 43.7738 14.708 43.9178 14.996C44.0698 15.276 44.2738 15.5 44.5298 15.668C44.7938 15.828 45.0938 15.908 45.4298 15.908ZM54.9758 17L56.9798 11H58.3358L56.2958 17H54.9758ZM50.9558 17L52.9118 11H54.0998L52.1678 17H50.9558ZM50.8358 17L48.7958 11H50.1518L52.1078 17H50.8358ZM54.9638 17L53.0438 11H54.2318L56.1878 17H54.9638ZM59.2049 17V11H60.4649L60.5489 12.104V17H59.2049ZM63.2729 17V13.928H64.6169V17H63.2729ZM63.2729 13.928C63.2729 13.448 63.2169 13.08 63.1049 12.824C63.0009 12.56 62.8489 12.376 62.6489 12.272C62.4569 12.168 62.2289 12.116 61.9649 12.116C61.5169 12.108 61.1689 12.256 60.9209 12.56C60.6729 12.864 60.5489 13.3 60.5489 13.868H60.0449C60.0449 13.236 60.1369 12.696 60.3209 12.248C60.5049 11.792 60.7689 11.448 61.1129 11.216C61.4569 10.976 61.8649 10.856 62.3369 10.856C62.8169 10.856 63.2249 10.952 63.5609 11.144C63.9049 11.336 64.1649 11.636 64.3409 12.044C64.5249 12.444 64.6169 12.968 64.6169 13.616V13.928H63.2729Z" fill="#0074E6"/>
<path d="M180.914 14.8934C180.814 14.7684 180.761 14.6309 180.754 14.4809C180.748 14.3309 180.801 14.1996 180.914 14.0871L184.608 10.3934C184.67 10.3309 184.733 10.2871 184.795 10.2621C184.858 10.2371 184.926 10.2246 185.001 10.2246C185.076 10.2246 185.145 10.2371 185.208 10.2621C185.27 10.2871 185.333 10.3309 185.395 10.3934L189.108 14.1059C189.208 14.2059 189.258 14.334 189.258 14.4902C189.258 14.6465 189.201 14.7809 189.089 14.8934C188.976 15.0059 188.842 15.0621 188.686 15.0621C188.529 15.0621 188.395 15.0059 188.283 14.8934L185.001 11.6121L181.72 14.8934C181.608 15.0059 181.476 15.059 181.326 15.0527C181.176 15.0465 181.039 14.9934 180.914 14.8934Z" fill="#0074E6"/>
<rect y="30" width="200" height="56" rx="8" fill="white"/>
<rect x="0.5" y="30.5" width="199" height="55" rx="7.5" stroke="#C9D0DE" stroke-opacity="0.6"/>
<rect x="8" y="38" width="8" height="8" rx="2" fill="#DFE4ED"/>
<rect x="20" y="38" width="172" height="8" rx="2" fill="#EFF2F8"/>
<rect x="8" y="54" width="8" height="8" rx="2" fill="#DFE4ED"/>
<rect x="20" y="54" width="172" height="8" rx="2" fill="#EFF2F8"/>
<rect x="8" y="70" width="8" height="8" rx="2" fill="#DFE4ED"/>
<rect x="20" y="70" width="172" height="8" rx="2" fill="#EFF2F8"/>
</svg>
