<svg width="160" height="120" viewBox="0 0 160 120" fill="none" xmlns="http://www.w3.org/2000/svg">
<rect width="160" height="24" rx="4" fill="#EFF2F8"/>
<rect x="8" y="7.5" width="10" height="9" rx="2" fill="#DFE4ED"/>
<path d="M20.15 16.84L22.91 8.53H23.86L21.12 16.84H20.15Z" fill="#A4ABB9"/>
<rect x="27" y="7.5" width="10" height="9" rx="2" fill="#DFE4ED"/>
<path d="M39.15 16.84L41.91 8.53H42.86L40.12 16.84H39.15Z" fill="#A4ABB9"/>
<rect x="46" y="7.5" width="26" height="9" rx="2" fill="#DFE4ED"/>
<path d="M142.25 17C142.05 17 141.875 16.925 141.725 16.775C141.575 16.625 141.5 16.45 141.5 16.25V8.5C141.5 8.3 141.575 8.125 141.725 7.975C141.875 7.825 142.05 7.75 142.25 7.75H143.062V7.3875C143.062 7.27917 143.1 7.1875 143.175 7.1125C143.25 7.0375 143.346 7 143.463 7C143.579 7 143.677 7.0375 143.756 7.1125C143.835 7.1875 143.875 7.28333 143.875 7.4V7.75H148.125V7.3875C148.125 7.27917 148.163 7.1875 148.238 7.1125C148.312 7.0375 148.408 7 148.525 7C148.642 7 148.74 7.0375 148.819 7.1125C148.898 7.1875 148.938 7.28333 148.938 7.4V7.75H149.75C149.95 7.75 150.125 7.825 150.275 7.975C150.425 8.125 150.5 8.3 150.5 8.5V16.25C150.5 16.45 150.425 16.625 150.275 16.775C150.125 16.925 149.95 17 149.75 17H142.25ZM142.25 16.25H149.75V10.875H142.25V16.25ZM142.25 10.125H149.75V8.5H142.25V10.125ZM142.25 10.125V8.5V10.125Z" fill="#A4ABB9"/>
<g clip-path="url(#clip0_35535_27295)">
<rect y="28" width="160" height="92" rx="8" fill="white"/>
<rect x="14" y="36" width="132" height="12" rx="4" fill="#FBFCFE"/>
<rect x="17" y="40" width="12" height="4" rx="2" fill="#EFF2F8"/>
<rect x="36" y="40" width="12" height="4" rx="2" fill="#EFF2F8"/>
<rect x="55" y="40" width="12" height="4" rx="2" fill="#EFF2F8"/>
<rect x="74" y="40" width="12" height="4" rx="2" fill="#EFF2F8"/>
<rect x="93" y="40" width="12" height="4" rx="2" fill="#EFF2F8"/>
<rect x="112" y="40" width="12" height="4" rx="2" fill="#EFF2F8"/>
<rect x="131" y="40" width="12" height="4" rx="2" fill="#EFF2F8"/>
<rect x="16" y="52" width="12" height="12" rx="2" fill="#EFF2F8"/>
<rect x="35.332" y="52" width="12" height="12" rx="2" fill="#EFF2F8"/>
<rect x="54.668" y="52" width="12" height="12" rx="2" fill="#EFF2F8"/>
<rect x="74" y="52" width="12" height="12" rx="2" fill="#EFF2F8"/>
<rect x="93.332" y="52" width="12" height="12" rx="2" fill="#EFF2F8"/>
<rect x="112.668" y="52" width="12" height="12" rx="2" fill="#EFF2F8"/>
<rect x="132" y="52" width="12" height="12" rx="2" fill="#EFF2F8"/>
<rect x="16" y="68" width="12" height="12" rx="2" fill="#EFF2F8"/>
<rect x="35.332" y="68" width="12" height="12" rx="2" fill="#EFF2F8"/>
<rect x="54.668" y="68" width="12" height="12" rx="2" fill="#EFF2F8"/>
<rect x="74" y="68" width="12" height="12" rx="2" fill="#EFF2F8"/>
<rect x="93.332" y="68" width="12" height="12" rx="2" fill="#EFF2F8"/>
<rect x="112.668" y="68" width="12" height="12" rx="2" fill="#EFF2F8"/>
<rect x="132" y="68" width="12" height="12" rx="2" fill="#EFF2F8"/>
<rect x="16" y="84" width="12" height="12" rx="2" fill="#EFF2F8"/>
<rect x="35.332" y="84" width="12" height="12" rx="2" fill="#EFF2F8"/>
<rect x="54.668" y="84" width="12" height="12" rx="2" fill="#1E90FF"/>
<rect x="74" y="84" width="12" height="12" rx="2" fill="#EFF2F8"/>
<rect x="93.332" y="84" width="12" height="12" rx="2" fill="#EFF2F8"/>
<rect x="112.668" y="84" width="12" height="12" rx="2" fill="#EFF2F8"/>
<rect x="132" y="84" width="12" height="12" rx="2" fill="#EFF2F8"/>
<rect x="16" y="100" width="12" height="12" rx="2" fill="#EFF2F8"/>
<rect x="35.332" y="100" width="12" height="12" rx="2" fill="#EFF2F8"/>
<rect x="54.668" y="100" width="12" height="12" rx="2" fill="#EFF2F8"/>
<rect x="74" y="100" width="12" height="12" rx="2" fill="#EFF2F8"/>
<rect x="93.332" y="100" width="12" height="12" rx="2" fill="#EFF2F8"/>
<rect x="112.668" y="100" width="12" height="12" rx="2" fill="#EFF2F8"/>
<rect x="132" y="100" width="12" height="12" rx="2" fill="#EFF2F8"/>
</g>
<rect x="0.5" y="28.5" width="159" height="91" rx="7.5" stroke="#C9D0DE" stroke-opacity="0.6"/>
<defs>
<clipPath id="clip0_35535_27295">
<rect y="28" width="160" height="92" rx="8" fill="white"/>
</clipPath>
</defs>
</svg>
