<svg width="200" height="36" viewBox="0 0 200 36" fill="none" xmlns="http://www.w3.org/2000/svg">
<g clip-path="url(#clip0_35325_9929)">
<rect width="200" height="36" rx="8" fill="#1D2025"/>
<mask id="path-3-inside-1_35325_9929" fill="white">
<path d="M0 0H56V36H0V0Z"/>
</mask>
<path d="M0 0H56V36H0V0Z" fill="#282C32"/>
<path d="M56 0H55V36H56H57V0H56Z" fill="#1D2025" fill-opacity="0.6" mask="url(#path-3-inside-1_35325_9929)"/>
<path d="M12.212 22.18C11.564 22.18 10.992 22.048 10.496 21.784C10.008 21.512 9.628 21.136 9.356 20.656C9.084 20.168 8.948 19.608 8.948 18.976V13.6H10.124V18.976C10.124 19.392 10.212 19.76 10.388 20.08C10.572 20.4 10.82 20.648 11.132 20.824C11.452 21 11.82 21.088 12.236 21.088C12.652 21.088 13.02 21 13.34 20.824C13.66 20.648 13.908 20.4 14.084 20.08C14.26 19.76 14.348 19.392 14.348 18.976V13.6H15.536V18.976C15.536 19.608 15.396 20.168 15.116 20.656C14.844 21.136 14.456 21.512 13.952 21.784C13.456 22.048 12.876 22.18 12.212 22.18ZM17.3247 24.4V16H18.3927L18.4647 17.104V24.4H17.3247ZM20.4327 22.144C19.9287 22.144 19.4887 22.012 19.1127 21.748C18.7447 21.484 18.4607 21.116 18.2607 20.644C18.0607 20.172 17.9607 19.624 17.9607 19C17.9607 18.368 18.0607 17.82 18.2607 17.356C18.4607 16.884 18.7447 16.516 19.1127 16.252C19.4887 15.988 19.9287 15.856 20.4327 15.856C20.9687 15.856 21.4407 15.988 21.8487 16.252C22.2567 16.516 22.5727 16.884 22.7967 17.356C23.0287 17.82 23.1447 18.368 23.1447 19C23.1447 19.624 23.0287 20.172 22.7967 20.644C22.5727 21.116 22.2567 21.484 21.8487 21.748C21.4407 22.012 20.9687 22.144 20.4327 22.144ZM20.1567 21.112C20.5167 21.112 20.8327 21.024 21.1047 20.848C21.3767 20.664 21.5887 20.416 21.7407 20.104C21.9007 19.784 21.9807 19.416 21.9807 19C21.9807 18.584 21.9047 18.22 21.7527 17.908C21.6007 17.588 21.3887 17.34 21.1167 17.164C20.8447 16.98 20.5287 16.888 20.1687 16.888C19.8407 16.888 19.5447 16.98 19.2807 17.164C19.0247 17.34 18.8247 17.588 18.6807 17.908C18.5367 18.228 18.4647 18.592 18.4647 19C18.4647 19.416 18.5367 19.784 18.6807 20.104C18.8247 20.416 19.0247 20.664 19.2807 20.848C19.5367 21.024 19.8287 21.112 20.1567 21.112ZM24.3897 22V13.6H25.5297V22H24.3897ZM29.8204 22.144C29.2204 22.144 28.6924 22.012 28.2364 21.748C27.7804 21.476 27.4204 21.104 27.1564 20.632C26.9004 20.16 26.7724 19.616 26.7724 19C26.7724 18.384 26.9004 17.84 27.1564 17.368C27.4124 16.896 27.7684 16.528 28.2244 16.264C28.6804 15.992 29.2044 15.856 29.7964 15.856C30.3884 15.856 30.9124 15.992 31.3684 16.264C31.8244 16.528 32.1804 16.896 32.4364 17.368C32.6924 17.84 32.8204 18.384 32.8204 19C32.8204 19.616 32.6924 20.16 32.4364 20.632C32.1804 21.104 31.8244 21.476 31.3684 21.748C30.9204 22.012 30.4044 22.144 29.8204 22.144ZM29.8204 21.1C30.1804 21.1 30.5004 21.012 30.7804 20.836C31.0604 20.652 31.2764 20.404 31.4284 20.092C31.5884 19.78 31.6684 19.416 31.6684 19C31.6684 18.584 31.5884 18.22 31.4284 17.908C31.2764 17.596 31.0564 17.352 30.7684 17.176C30.4804 16.992 30.1564 16.9 29.7964 16.9C29.4284 16.9 29.1044 16.992 28.8244 17.176C28.5444 17.352 28.3244 17.596 28.1644 17.908C28.0044 18.22 27.9244 18.584 27.9244 19C27.9244 19.416 28.0044 19.78 28.1644 20.092C28.3244 20.404 28.5484 20.652 28.8364 20.836C29.1244 21.012 29.4524 21.1 29.8204 21.1ZM38.4613 22L38.4133 20.884V16H39.5413V22H38.4613ZM36.4453 22.144C35.9013 22.144 35.4253 22.012 35.0173 21.748C34.6173 21.484 34.3013 21.116 34.0693 20.644C33.8453 20.172 33.7333 19.624 33.7333 19C33.7333 18.368 33.8453 17.82 34.0693 17.356C34.3013 16.884 34.6173 16.516 35.0173 16.252C35.4253 15.988 35.9013 15.856 36.4453 15.856C36.9493 15.856 37.3853 15.988 37.7533 16.252C38.1293 16.516 38.4173 16.884 38.6173 17.356C38.8173 17.82 38.9173 18.368 38.9173 19C38.9173 19.624 38.8173 20.172 38.6173 20.644C38.4173 21.116 38.1293 21.484 37.7533 21.748C37.3853 22.012 36.9493 22.144 36.4453 22.144ZM36.7093 21.112C37.0453 21.112 37.3413 21.024 37.5973 20.848C37.8533 20.664 38.0533 20.416 38.1973 20.104C38.3413 19.784 38.4133 19.416 38.4133 19C38.4133 18.584 38.3413 18.22 38.1973 17.908C38.0533 17.588 37.8533 17.34 37.5973 17.164C37.3413 16.98 37.0413 16.888 36.6973 16.888C36.3453 16.888 36.0333 16.98 35.7613 17.164C35.4893 17.34 35.2773 17.588 35.1253 17.908C34.9733 18.22 34.8973 18.584 34.8973 19C34.8973 19.416 34.9733 19.784 35.1253 20.104C35.2853 20.416 35.5013 20.664 35.7733 20.848C36.0453 21.024 36.3573 21.112 36.7093 21.112ZM45.516 22L45.468 20.884V13.6H46.596V22H45.516ZM43.5 22.144C42.956 22.144 42.48 22.012 42.072 21.748C41.672 21.484 41.356 21.116 41.124 20.644C40.9 20.172 40.788 19.624 40.788 19C40.788 18.368 40.9 17.82 41.124 17.356C41.356 16.884 41.672 16.516 42.072 16.252C42.48 15.988 42.956 15.856 43.5 15.856C44.004 15.856 44.44 15.988 44.808 16.252C45.184 16.516 45.472 16.884 45.672 17.356C45.872 17.82 45.972 18.368 45.972 19C45.972 19.624 45.872 20.172 45.672 20.644C45.472 21.116 45.184 21.484 44.808 21.748C44.44 22.012 44.004 22.144 43.5 22.144ZM43.764 21.112C44.1 21.112 44.396 21.024 44.652 20.848C44.908 20.664 45.108 20.416 45.252 20.104C45.396 19.784 45.468 19.416 45.468 19C45.468 18.584 45.396 18.22 45.252 17.908C45.108 17.588 44.908 17.34 44.652 17.164C44.396 16.98 44.096 16.888 43.752 16.888C43.4 16.888 43.088 16.98 42.816 17.164C42.544 17.34 42.332 17.588 42.18 17.908C42.028 18.22 41.952 18.584 41.952 19C41.952 19.416 42.028 19.784 42.18 20.104C42.34 20.416 42.556 20.664 42.828 20.848C43.1 21.024 43.412 21.112 43.764 21.112Z" fill="#A4ABB9"/>
</g>
<rect x="0.5" y="0.5" width="199" height="35" rx="7.5" stroke="#1D2025" stroke-opacity="0.6" stroke-linecap="round"/>
<defs>
<clipPath id="clip0_35325_9929">
<rect width="200" height="36" rx="8" fill="white"/>
</clipPath>
</defs>
</svg>
