<svg width="200" height="54" viewBox="0 0 200 54" fill="none" xmlns="http://www.w3.org/2000/svg">
<path d="M17.068 11V2.6H18.244V9.92H22.144V11H17.068ZM27.477 11L27.429 9.884V5H28.557V11H27.477ZM25.461 11.144C24.917 11.144 24.441 11.012 24.033 10.748C23.633 10.484 23.317 10.116 23.085 9.644C22.861 9.172 22.749 8.624 22.749 8C22.749 7.368 22.861 6.82 23.085 6.356C23.317 5.884 23.633 5.516 24.033 5.252C24.441 4.988 24.917 4.856 25.461 4.856C25.965 4.856 26.401 4.988 26.769 5.252C27.145 5.516 27.433 5.884 27.633 6.356C27.833 6.82 27.933 7.368 27.933 8C27.933 8.624 27.833 9.172 27.633 9.644C27.433 10.116 27.145 10.484 26.769 10.748C26.401 11.012 25.965 11.144 25.461 11.144ZM25.725 10.112C26.061 10.112 26.357 10.024 26.613 9.848C26.869 9.664 27.069 9.416 27.213 9.104C27.357 8.784 27.429 8.416 27.429 8C27.429 7.584 27.357 7.22 27.213 6.908C27.069 6.588 26.869 6.34 26.613 6.164C26.357 5.98 26.057 5.888 25.713 5.888C25.361 5.888 25.049 5.98 24.777 6.164C24.505 6.34 24.293 6.588 24.141 6.908C23.989 7.22 23.913 7.584 23.913 8C23.913 8.416 23.989 8.784 24.141 9.104C24.301 9.416 24.517 9.664 24.789 9.848C25.061 10.024 25.373 10.112 25.725 10.112ZM30.1397 11V2.6H31.2797V9.884L31.2197 11H30.1397ZM33.2477 11.144C32.7437 11.144 32.3037 11.012 31.9277 10.748C31.5597 10.484 31.2757 10.116 31.0757 9.644C30.8757 9.172 30.7757 8.624 30.7757 8C30.7757 7.368 30.8757 6.82 31.0757 6.356C31.2757 5.884 31.5597 5.516 31.9277 5.252C32.3037 4.988 32.7437 4.856 33.2477 4.856C33.7837 4.856 34.2557 4.988 34.6637 5.252C35.0717 5.516 35.3877 5.884 35.6117 6.356C35.8437 6.82 35.9597 7.368 35.9597 8C35.9597 8.624 35.8437 9.172 35.6117 9.644C35.3877 10.116 35.0717 10.484 34.6637 10.748C34.2557 11.012 33.7837 11.144 33.2477 11.144ZM32.9717 10.112C33.3317 10.112 33.6477 10.024 33.9197 9.848C34.1917 9.664 34.4037 9.416 34.5557 9.104C34.7157 8.784 34.7957 8.416 34.7957 8C34.7957 7.584 34.7197 7.22 34.5677 6.908C34.4157 6.588 34.2037 6.34 33.9317 6.164C33.6597 5.98 33.3437 5.888 32.9837 5.888C32.6557 5.888 32.3597 5.98 32.0957 6.164C31.8397 6.34 31.6397 6.588 31.4957 6.908C31.3517 7.228 31.2797 7.592 31.2797 8C31.2797 8.416 31.3517 8.784 31.4957 9.104C31.6397 9.416 31.8397 9.664 32.0957 9.848C32.3517 10.024 32.6437 10.112 32.9717 10.112ZM39.8581 11.144C39.2741 11.144 38.7581 11.012 38.3101 10.748C37.8621 10.476 37.5101 10.104 37.2541 9.632C36.9981 9.16 36.8701 8.616 36.8701 8C36.8701 7.384 36.9981 6.84 37.2541 6.368C37.5101 5.896 37.8621 5.528 38.3101 5.264C38.7661 4.992 39.2861 4.856 39.8701 4.856C40.4221 4.856 40.9061 4.996 41.3221 5.276C41.7381 5.548 42.0621 5.94 42.2941 6.452C42.5341 6.956 42.6541 7.552 42.6541 8.24H37.8061L38.0221 8.06C38.0221 8.484 38.1061 8.852 38.2741 9.164C38.4421 9.476 38.6701 9.716 38.9581 9.884C39.2461 10.044 39.5741 10.124 39.9421 10.124C40.3421 10.124 40.6741 10.032 40.9381 9.848C41.2101 9.656 41.4221 9.416 41.5741 9.128L42.5581 9.584C42.3981 9.896 42.1901 10.172 41.9341 10.412C41.6781 10.644 41.3741 10.824 41.0221 10.952C40.6781 11.08 40.2901 11.144 39.8581 11.144ZM38.0941 7.52L37.8661 7.34H41.6581L41.4421 7.52C41.4421 7.168 41.3701 6.868 41.2261 6.62C41.0821 6.364 40.8901 6.172 40.6501 6.044C40.4101 5.908 40.1421 5.84 39.8461 5.84C39.5581 5.84 39.2781 5.908 39.0061 6.044C38.7421 6.172 38.5221 6.36 38.3461 6.608C38.1781 6.856 38.0941 7.16 38.0941 7.52ZM43.7803 11V2.6H44.9203V11H43.7803Z" fill="#A4ABB9"/>
<rect y="18" width="200" height="36" rx="8" fill="#1D2025"/>
<path d="M17.302 41V31.2H20.494C21.1287 31.2 21.6887 31.3307 22.174 31.592C22.6687 31.8533 23.0513 32.2173 23.322 32.684C23.602 33.1507 23.742 33.692 23.742 34.308C23.742 34.9053 23.616 35.4373 23.364 35.904C23.112 36.3707 22.7667 36.7393 22.328 37.01C21.8893 37.2713 21.3807 37.402 20.802 37.402H18.492V41H17.302ZM18.492 36.324H20.802C21.3153 36.324 21.7353 36.1373 22.062 35.764C22.398 35.3813 22.566 34.896 22.566 34.308C22.566 33.7013 22.37 33.2113 21.978 32.838C21.586 32.4647 21.0867 32.278 20.48 32.278H18.492V36.324ZM25.0874 41V31.2H26.2074V41H25.0874ZM33.3436 41L33.2876 39.698V34H34.4076V41H33.3436ZM30.9216 41.168C30.2963 41.168 29.7456 41.014 29.2696 40.706C28.7936 40.398 28.4203 39.9687 28.1496 39.418C27.8883 38.858 27.7576 38.2187 27.7576 37.5C27.7576 36.772 27.8883 36.1327 28.1496 35.582C28.4203 35.0313 28.7936 34.602 29.2696 34.294C29.7456 33.986 30.2963 33.832 30.9216 33.832C31.5096 33.832 32.0229 33.986 32.4616 34.294C32.9096 34.602 33.2549 35.0313 33.4976 35.582C33.7403 36.1327 33.8616 36.772 33.8616 37.5C33.8616 38.2187 33.7403 38.858 33.4976 39.418C33.2549 39.9687 32.9096 40.398 32.4616 40.706C32.0229 41.014 31.5096 41.168 30.9216 41.168ZM31.1736 40.146C31.5843 40.146 31.9483 40.034 32.2656 39.81C32.5829 39.586 32.8303 39.2733 33.0076 38.872C33.1943 38.4707 33.2876 38.0133 33.2876 37.5C33.2876 36.9867 33.1943 36.5293 33.0076 36.128C32.8303 35.7267 32.5829 35.414 32.2656 35.19C31.9483 34.966 31.5796 34.854 31.1596 34.854C30.7209 34.854 30.3289 34.966 29.9836 35.19C29.6476 35.414 29.3816 35.7267 29.1856 36.128C28.9896 36.5293 28.8916 36.9867 28.8916 37.5C28.8916 38.0133 28.9896 38.4707 29.1856 38.872C29.3816 39.2733 29.6523 39.586 29.9976 39.81C30.3429 40.034 30.7349 40.146 31.1736 40.146ZM39.4887 41.168C38.7981 41.168 38.1867 41.014 37.6547 40.706C37.1227 40.3887 36.7074 39.9547 36.4087 39.404C36.1101 38.8533 35.9607 38.2187 35.9607 37.5C35.9607 36.7813 36.1054 36.1467 36.3947 35.596C36.6934 35.0453 37.1087 34.616 37.6407 34.308C38.1727 33.9907 38.7794 33.832 39.4607 33.832C40.1327 33.832 40.7347 33.986 41.2667 34.294C41.7987 34.602 42.2047 35.036 42.4847 35.596L41.4627 36.058C41.2761 35.6847 41.0054 35.3953 40.6507 35.19C40.2961 34.9753 39.8901 34.868 39.4327 34.868C38.9754 34.868 38.5694 34.98 38.2147 35.204C37.8694 35.428 37.5941 35.7407 37.3887 36.142C37.1927 36.534 37.0947 36.9867 37.0947 37.5C37.0947 38.0133 37.1927 38.4707 37.3887 38.872C37.5941 39.264 37.8741 39.572 38.2287 39.796C38.5927 40.02 39.0034 40.132 39.4607 40.132C39.9181 40.132 40.3241 40.0153 40.6787 39.782C41.0427 39.5487 41.3181 39.222 41.5047 38.802L42.5267 39.264C42.2467 39.8613 41.8407 40.328 41.3087 40.664C40.7767 41 40.1701 41.168 39.4887 41.168ZM47.0069 41.168C46.3256 41.168 45.7236 41.014 45.2009 40.706C44.6783 40.3887 44.2676 39.9547 43.9689 39.404C43.6796 38.8533 43.5349 38.2187 43.5349 37.5C43.5349 36.7813 43.6796 36.1467 43.9689 35.596C44.2676 35.0453 44.6736 34.616 45.1869 34.308C45.7096 33.9907 46.3069 33.832 46.9789 33.832C47.6323 33.832 48.1969 33.9953 48.6729 34.322C49.1489 34.6393 49.5176 35.0873 49.7789 35.666C50.0403 36.2447 50.1709 36.926 50.1709 37.71H44.3889L44.6689 37.472C44.6689 38.032 44.7669 38.5127 44.9629 38.914C45.1683 39.3153 45.4529 39.6233 45.8169 39.838C46.1809 40.0433 46.5963 40.146 47.0629 40.146C47.5576 40.146 47.9729 40.0293 48.3089 39.796C48.6543 39.5627 48.9203 39.2547 49.1069 38.872L50.0729 39.362C49.8956 39.726 49.6576 40.0433 49.3589 40.314C49.0696 40.5847 48.7243 40.7947 48.3229 40.944C47.9309 41.0933 47.4923 41.168 47.0069 41.168ZM44.7389 36.996L44.4449 36.772H49.2749L48.9809 37.01C48.9809 36.562 48.8923 36.1747 48.7149 35.848C48.5376 35.5213 48.2996 35.2693 48.0009 35.092C47.7023 34.9147 47.3569 34.826 46.9649 34.826C46.5823 34.826 46.2183 34.9147 45.8729 35.092C45.5369 35.2693 45.2616 35.5213 45.0469 35.848C44.8416 36.1653 44.7389 36.548 44.7389 36.996ZM51.5835 41V31.2H52.7035V41H51.5835ZM56.5115 41V37.416H57.6315V41H56.5115ZM56.5115 37.416C56.5115 36.7253 56.4275 36.198 56.2595 35.834C56.1008 35.47 55.8815 35.2227 55.6015 35.092C55.3215 34.952 55.0042 34.882 54.6495 34.882C54.0335 34.882 53.5528 35.1013 53.2075 35.54C52.8715 35.9693 52.7035 36.5807 52.7035 37.374H52.1575C52.1575 36.6367 52.2648 36.002 52.4795 35.47C52.7035 34.938 53.0208 34.532 53.4315 34.252C53.8422 33.972 54.3368 33.832 54.9155 33.832C55.4568 33.832 55.9328 33.944 56.3435 34.168C56.7542 34.3827 57.0715 34.728 57.2955 35.204C57.5288 35.68 57.6408 36.3053 57.6315 37.08V37.416H56.5115ZM62.4842 41.168C61.8028 41.168 61.1962 41.014 60.6642 40.706C60.1415 40.3887 59.7308 39.9547 59.4322 39.404C59.1335 38.8533 58.9842 38.2187 58.9842 37.5C58.9842 36.7813 59.1288 36.1467 59.4182 35.596C59.7168 35.0453 60.1275 34.616 60.6502 34.308C61.1822 33.9907 61.7842 33.832 62.4562 33.832C63.1468 33.832 63.7535 33.9907 64.2762 34.308C64.8082 34.616 65.2188 35.0453 65.5082 35.596C65.8068 36.1467 65.9562 36.7813 65.9562 37.5C65.9562 38.2187 65.8068 38.8533 65.5082 39.404C65.2188 39.9547 64.8128 40.3887 64.2902 40.706C63.7675 41.014 63.1655 41.168 62.4842 41.168ZM62.4842 40.132C62.9508 40.132 63.3568 40.02 63.7022 39.796C64.0475 39.572 64.3182 39.264 64.5142 38.872C64.7195 38.48 64.8222 38.0227 64.8222 37.5C64.8222 36.9773 64.7195 36.52 64.5142 36.128C64.3182 35.736 64.0428 35.428 63.6882 35.204C63.3335 34.98 62.9228 34.868 62.4562 34.868C61.9988 34.868 61.5928 34.98 61.2382 35.204C60.8928 35.428 60.6175 35.736 60.4122 36.128C60.2162 36.52 60.1182 36.9773 60.1182 37.5C60.1182 38.0133 60.2162 38.4707 60.4122 38.872C60.6175 39.264 60.8975 39.572 61.2522 39.796C61.6162 40.02 62.0268 40.132 62.4842 40.132ZM67.5113 41V31.2H68.6313V41H67.5113ZM75.7674 41L75.7114 39.698V31.2H76.8314V41H75.7674ZM73.3454 41.168C72.7201 41.168 72.1694 41.014 71.6934 40.706C71.2174 40.398 70.8441 39.9687 70.5734 39.418C70.3121 38.858 70.1814 38.2187 70.1814 37.5C70.1814 36.772 70.3121 36.1327 70.5734 35.582C70.8441 35.0313 71.2174 34.602 71.6934 34.294C72.1694 33.986 72.7201 33.832 73.3454 33.832C73.9334 33.832 74.4468 33.986 74.8854 34.294C75.3334 34.602 75.6788 35.0313 75.9214 35.582C76.1641 36.1327 76.2854 36.772 76.2854 37.5C76.2854 38.2187 76.1641 38.858 75.9214 39.418C75.6788 39.9687 75.3334 40.398 74.8854 40.706C74.4468 41.014 73.9334 41.168 73.3454 41.168ZM73.5974 40.146C74.0081 40.146 74.3721 40.034 74.6894 39.81C75.0068 39.586 75.2541 39.2733 75.4314 38.872C75.6181 38.4707 75.7114 38.0133 75.7114 37.5C75.7114 36.9867 75.6181 36.5293 75.4314 36.128C75.2541 35.7267 75.0068 35.414 74.6894 35.19C74.3721 34.966 74.0034 34.854 73.5834 34.854C73.1448 34.854 72.7528 34.966 72.4074 35.19C72.0714 35.414 71.8054 35.7267 71.6094 36.128C71.4134 36.5293 71.3154 36.9867 71.3154 37.5C71.3154 38.0133 71.4134 38.4707 71.6094 38.872C71.8054 39.2733 72.0761 39.586 72.4214 39.81C72.7668 40.034 73.1588 40.146 73.5974 40.146ZM81.8565 41.168C81.1752 41.168 80.5732 41.014 80.0505 40.706C79.5279 40.3887 79.1172 39.9547 78.8185 39.404C78.5292 38.8533 78.3845 38.2187 78.3845 37.5C78.3845 36.7813 78.5292 36.1467 78.8185 35.596C79.1172 35.0453 79.5232 34.616 80.0365 34.308C80.5592 33.9907 81.1565 33.832 81.8285 33.832C82.4819 33.832 83.0465 33.9953 83.5225 34.322C83.9985 34.6393 84.3672 35.0873 84.6285 35.666C84.8899 36.2447 85.0205 36.926 85.0205 37.71H79.2385L79.5185 37.472C79.5185 38.032 79.6165 38.5127 79.8125 38.914C80.0179 39.3153 80.3025 39.6233 80.6665 39.838C81.0305 40.0433 81.4459 40.146 81.9125 40.146C82.4072 40.146 82.8225 40.0293 83.1585 39.796C83.5039 39.5627 83.7699 39.2547 83.9565 38.872L84.9225 39.362C84.7452 39.726 84.5072 40.0433 84.2085 40.314C83.9192 40.5847 83.5739 40.7947 83.1725 40.944C82.7805 41.0933 82.3419 41.168 81.8565 41.168ZM79.5885 36.996L79.2945 36.772H84.1245L83.8305 37.01C83.8305 36.562 83.7419 36.1747 83.5645 35.848C83.3872 35.5213 83.1492 35.2693 82.8505 35.092C82.5519 34.9147 82.2065 34.826 81.8145 34.826C81.4319 34.826 81.0679 34.9147 80.7225 35.092C80.3865 35.2693 80.1112 35.5213 79.8965 35.848C79.6912 36.1653 79.5885 36.548 79.5885 36.996ZM87.0491 37.206C87.0491 36.45 87.1938 35.8387 87.4831 35.372C87.7725 34.896 88.1411 34.546 88.5891 34.322C89.0465 34.0887 89.5271 33.972 90.0311 33.972V35.022C89.6205 35.022 89.2238 35.092 88.8411 35.232C88.4678 35.3627 88.1598 35.582 87.9171 35.89C87.6745 36.198 87.5531 36.618 87.5531 37.15L87.0491 37.206ZM86.4331 41V34H87.5531V41H86.4331Z" fill="#A4ABB9"/>
</svg>
