<svg width="200" height="42" viewBox="0 0 200 42" fill="none" xmlns="http://www.w3.org/2000/svg">
<rect width="200" height="42" rx="8" fill="#1D2025"/>
<path d="M13.302 26V16.2H14.492V24.922H19.112V26H13.302ZM25.4334 26L25.3774 24.698V19H26.4974V26H25.4334ZM23.0114 26.168C22.3861 26.168 21.8354 26.014 21.3594 25.706C20.8834 25.398 20.5101 24.9687 20.2394 24.418C19.9781 23.858 19.8474 23.2187 19.8474 22.5C19.8474 21.772 19.9781 21.1327 20.2394 20.582C20.5101 20.0313 20.8834 19.602 21.3594 19.294C21.8354 18.986 22.3861 18.832 23.0114 18.832C23.5994 18.832 24.1128 18.986 24.5514 19.294C24.9994 19.602 25.3448 20.0313 25.5874 20.582C25.8301 21.1327 25.9514 21.772 25.9514 22.5C25.9514 23.2187 25.8301 23.858 25.5874 24.418C25.3448 24.9687 24.9994 25.398 24.5514 25.706C24.1128 26.014 23.5994 26.168 23.0114 26.168ZM23.2634 25.146C23.6741 25.146 24.0381 25.034 24.3554 24.81C24.6728 24.586 24.9201 24.2733 25.0974 23.872C25.2841 23.4707 25.3774 23.0133 25.3774 22.5C25.3774 21.9867 25.2841 21.5293 25.0974 21.128C24.9201 20.7267 24.6728 20.414 24.3554 20.19C24.0381 19.966 23.6694 19.854 23.2494 19.854C22.8108 19.854 22.4188 19.966 22.0734 20.19C21.7374 20.414 21.4714 20.7267 21.2754 21.128C21.0794 21.5293 20.9814 21.9867 20.9814 22.5C20.9814 23.0133 21.0794 23.4707 21.2754 23.872C21.4714 24.2733 21.7421 24.586 22.0874 24.81C22.4328 25.034 22.8248 25.146 23.2634 25.146ZM28.4566 26V16.2H29.5766V24.698L29.5206 26H28.4566ZM31.9426 26.168C31.3546 26.168 30.8366 26.014 30.3886 25.706C29.9499 25.398 29.6092 24.9687 29.3666 24.418C29.1239 23.858 29.0026 23.2187 29.0026 22.5C29.0026 21.772 29.1239 21.1327 29.3666 20.582C29.6092 20.0313 29.9499 19.602 30.3886 19.294C30.8366 18.986 31.3546 18.832 31.9426 18.832C32.5679 18.832 33.1186 18.986 33.5946 19.294C34.0706 19.602 34.4392 20.0313 34.7006 20.582C34.9712 21.1327 35.1066 21.772 35.1066 22.5C35.1066 23.2187 34.9712 23.858 34.7006 24.418C34.4392 24.9687 34.0706 25.398 33.5946 25.706C33.1186 26.014 32.5679 26.168 31.9426 26.168ZM31.6906 25.146C32.1292 25.146 32.5166 25.034 32.8526 24.81C33.1979 24.586 33.4686 24.2733 33.6646 23.872C33.8699 23.4707 33.9726 23.0133 33.9726 22.5C33.9726 21.9867 33.8746 21.5293 33.6786 21.128C33.4919 20.7267 33.2259 20.414 32.8806 20.19C32.5352 19.966 32.1432 19.854 31.7046 19.854C31.2939 19.854 30.9252 19.966 30.5986 20.19C30.2812 20.414 30.0292 20.7267 29.8426 21.128C29.6652 21.5293 29.5766 21.9867 29.5766 22.5C29.5766 23.0133 29.6652 23.4707 29.8426 23.872C30.0292 24.2733 30.2812 24.586 30.5986 24.81C30.9159 25.034 31.2799 25.146 31.6906 25.146ZM39.7257 26.168C39.0444 26.168 38.4424 26.014 37.9197 25.706C37.397 25.3887 36.9864 24.9547 36.6877 24.404C36.3984 23.8533 36.2537 23.2187 36.2537 22.5C36.2537 21.7813 36.3984 21.1467 36.6877 20.596C36.9864 20.0453 37.3924 19.616 37.9057 19.308C38.4284 18.9907 39.0257 18.832 39.6977 18.832C40.351 18.832 40.9157 18.9953 41.3917 19.322C41.8677 19.6393 42.2364 20.0873 42.4977 20.666C42.759 21.2447 42.8897 21.926 42.8897 22.71H37.1077L37.3877 22.472C37.3877 23.032 37.4857 23.5127 37.6817 23.914C37.887 24.3153 38.1717 24.6233 38.5357 24.838C38.8997 25.0433 39.315 25.146 39.7817 25.146C40.2764 25.146 40.6917 25.0293 41.0277 24.796C41.373 24.5627 41.639 24.2547 41.8257 23.872L42.7917 24.362C42.6144 24.726 42.3764 25.0433 42.0777 25.314C41.7884 25.5847 41.443 25.7947 41.0417 25.944C40.6497 26.0933 40.211 26.168 39.7257 26.168ZM37.4577 21.996L37.1637 21.772H41.9937L41.6997 22.01C41.6997 21.562 41.611 21.1747 41.4337 20.848C41.2564 20.5213 41.0184 20.2693 40.7197 20.092C40.421 19.9147 40.0757 19.826 39.6837 19.826C39.301 19.826 38.937 19.9147 38.5917 20.092C38.2557 20.2693 37.9804 20.5213 37.7657 20.848C37.5604 21.1653 37.4577 21.548 37.4577 21.996ZM44.3023 26V16.2H45.4223V26H44.3023Z" fill="#A4ABB9"/>
</svg>
