<svg width="120" height="116" viewBox="0 0 120 116" fill="none" xmlns="http://www.w3.org/2000/svg">
<rect width="120" height="116" rx="8" fill="white"/>
<rect x="0.5" y="0.5" width="119" height="115" rx="7.5" stroke="#C9D0DE" stroke-opacity="0.6"/>
<rect x="8" y="8" width="68" height="10" rx="2" fill="#C9D0DE"/>
<path d="M104.998 13.6131L101.935 16.6756C101.848 16.7631 101.746 16.8068 101.629 16.8068C101.512 16.8068 101.41 16.7631 101.323 16.6756C101.235 16.5881 101.191 16.486 101.191 16.3693C101.191 16.2527 101.235 16.1506 101.323 16.0631L104.385 13.0006L101.323 9.93809C101.235 9.85059 101.191 9.7485 101.191 9.63184C101.191 9.51517 101.235 9.41309 101.323 9.32559C101.41 9.23809 101.512 9.19434 101.629 9.19434C101.746 9.19434 101.848 9.23809 101.935 9.32559L104.998 12.3881L108.06 9.32559C108.148 9.23809 108.25 9.19434 108.366 9.19434C108.483 9.19434 108.585 9.23809 108.673 9.32559C108.76 9.41309 108.804 9.51517 108.804 9.63184C108.804 9.7485 108.76 9.85059 108.673 9.93809L105.61 13.0006L108.673 16.0631C108.76 16.1506 108.804 16.2527 108.804 16.3693C108.804 16.486 108.76 16.5881 108.673 16.6756C108.585 16.7631 108.483 16.8068 108.366 16.8068C108.25 16.8068 108.148 16.7631 108.06 16.6756L104.998 13.6131Z" fill="#505763"/>
<rect x="8" y="34" width="104" height="8" rx="2" fill="#EFF2F8"/>
<rect x="8" y="46" width="99.6406" height="8" rx="2" fill="#EFF2F8"/>
<rect x="8" y="58" width="104" height="8" rx="2" fill="#EFF2F8"/>
<rect x="8" y="70" width="67.6396" height="8" rx="2" fill="#EFF2F8"/>
<rect x="72" y="94" width="40" height="14" rx="2" fill="#1E90FF"/>
</svg>
