<svg width="120" height="116" viewBox="0 0 120 116" fill="none" xmlns="http://www.w3.org/2000/svg">
<rect width="120" height="116" rx="8" fill="#07080A"/>
<rect x="0.5" y="0.5" width="119" height="115" rx="7.5" stroke="#1D2025" stroke-opacity="0.6"/>
<rect x="8" y="8" width="68" height="10" rx="2" fill="#505763"/>
<path d="M104.998 13.6141L101.935 16.6766C101.848 16.7641 101.746 16.8078 101.629 16.8078C101.512 16.8078 101.41 16.7641 101.323 16.6766C101.235 16.5891 101.191 16.487 101.191 16.3703C101.191 16.2536 101.235 16.1516 101.323 16.0641L104.385 13.0016L101.323 9.93906C101.235 9.85156 101.191 9.74948 101.191 9.63281C101.191 9.51615 101.235 9.41406 101.323 9.32656C101.41 9.23906 101.512 9.19531 101.629 9.19531C101.746 9.19531 101.848 9.23906 101.935 9.32656L104.998 12.3891L108.06 9.32656C108.148 9.23906 108.25 9.19531 108.366 9.19531C108.483 9.19531 108.585 9.23906 108.673 9.32656C108.76 9.41406 108.804 9.51615 108.804 9.63281C108.804 9.74948 108.76 9.85156 108.673 9.93906L105.61 13.0016L108.673 16.0641C108.76 16.1516 108.804 16.2536 108.804 16.3703C108.804 16.487 108.76 16.5891 108.673 16.6766C108.585 16.7641 108.483 16.8078 108.366 16.8078C108.25 16.8078 108.148 16.7641 108.06 16.6766L104.998 13.6141Z" fill="#A4ABB9"/>
<rect x="8" y="34" width="104" height="8" rx="2" fill="#1D2025"/>
<rect x="8" y="46" width="99.6406" height="8" rx="2" fill="#1D2025"/>
<rect x="8" y="58" width="104" height="8" rx="2" fill="#1D2025"/>
<rect x="8" y="70" width="67.6396" height="8" rx="2" fill="#1D2025"/>
<rect x="72" y="94" width="40" height="14" rx="2" fill="#4DA7FF"/>
</svg>
