<svg width="200" height="36" viewBox="0 0 200 36" fill="none" xmlns="http://www.w3.org/2000/svg">
<mask id="path-1-inside-1_34357_70030" fill="white">
<path d="M0 0H66.6667V36H0V0Z"/>
</mask>
<path d="M66.6667 36V34H0V36V38H66.6667V36Z" fill="#4DA7FF" mask="url(#path-1-inside-1_34357_70030)"/>
<path d="M19.468 23V14.95H16.528V13.2H24.312V14.95H21.386V23H19.468ZM29.3738 23L29.2758 21.698V16H31.1238V23H29.3738ZM27.1758 23.168C26.5318 23.168 25.9718 23.0187 25.4958 22.72C25.0291 22.4213 24.6651 21.9967 24.4038 21.446C24.1425 20.8953 24.0118 20.2467 24.0118 19.5C24.0118 18.744 24.1425 18.0953 24.4038 17.554C24.6651 17.0033 25.0291 16.5787 25.4958 16.28C25.9718 15.9813 26.5318 15.832 27.1758 15.832C27.7638 15.832 28.2585 15.9813 28.6598 16.28C29.0705 16.5787 29.3831 17.0033 29.5978 17.554C29.8125 18.0953 29.9198 18.744 29.9198 19.5C29.9198 20.2467 29.8125 20.8953 29.5978 21.446C29.3831 21.9967 29.0705 22.4213 28.6598 22.72C28.2585 23.0187 27.7638 23.168 27.1758 23.168ZM27.6518 21.474C27.9691 21.474 28.2491 21.39 28.4918 21.222C28.7438 21.054 28.9398 20.8207 29.0798 20.522C29.2198 20.2233 29.2898 19.8827 29.2898 19.5C29.2898 19.1173 29.2198 18.7767 29.0798 18.478C28.9398 18.1793 28.7438 17.9507 28.4918 17.792C28.2491 17.624 27.9645 17.54 27.6378 17.54C27.3018 17.54 27.0078 17.624 26.7558 17.792C26.5038 17.9507 26.3031 18.1793 26.1538 18.478C26.0045 18.7767 25.9298 19.1173 25.9298 19.5C25.9298 19.8827 26.0045 20.2233 26.1538 20.522C26.3031 20.8207 26.5038 21.054 26.7558 21.222C27.0171 21.39 27.3158 21.474 27.6518 21.474ZM32.716 23V13.2H34.564V21.698L34.466 23H32.716ZM36.678 23.168C36.09 23.168 35.5906 23.0187 35.18 22.72C34.7786 22.4213 34.4706 21.9967 34.256 21.446C34.0413 20.8953 33.934 20.2467 33.934 19.5C33.934 18.744 34.0413 18.0953 34.256 17.554C34.4706 17.0033 34.7786 16.5787 35.18 16.28C35.5906 15.9813 36.09 15.832 36.678 15.832C37.322 15.832 37.8773 15.9813 38.344 16.28C38.82 16.5787 39.1886 17.0033 39.45 17.554C39.7113 18.0953 39.842 18.744 39.842 19.5C39.842 20.2467 39.7113 20.8953 39.45 21.446C39.1886 21.9967 38.82 22.4213 38.344 22.72C37.8773 23.0187 37.322 23.168 36.678 23.168ZM36.202 21.474C36.538 21.474 36.832 21.39 37.084 21.222C37.3453 21.054 37.5506 20.8207 37.7 20.522C37.8493 20.2233 37.924 19.8827 37.924 19.5C37.924 19.1173 37.8493 18.7767 37.7 18.478C37.56 18.1793 37.3593 17.9507 37.098 17.792C36.846 17.624 36.552 17.54 36.216 17.54C35.8986 17.54 35.614 17.624 35.362 17.792C35.11 17.96 34.914 18.1933 34.774 18.492C34.634 18.7813 34.564 19.1173 34.564 19.5C34.564 19.8827 34.634 20.2233 34.774 20.522C34.914 20.8207 35.1053 21.054 35.348 21.222C35.6 21.39 35.8846 21.474 36.202 21.474ZM46.3238 23V14.222L46.5058 13.2H48.1578V23H46.3238ZM44.2518 16.294V14.558C44.4851 14.5767 44.7371 14.5207 45.0078 14.39C45.2784 14.25 45.5444 14.0727 45.8058 13.858C46.0764 13.634 46.3098 13.41 46.5058 13.186L47.7238 14.376C47.3878 14.7493 47.0331 15.09 46.6598 15.398C46.2864 15.6967 45.8991 15.93 45.4978 16.098C45.1058 16.266 44.6904 16.3313 44.2518 16.294Z" fill="#4DA7FF"/>
<path d="M85.136 23V14.95H82.196V13.2H89.98V14.95H87.054V23H85.136ZM95.0418 23L94.9438 21.698V16H96.7918V23H95.0418ZM92.8438 23.168C92.1998 23.168 91.6398 23.0187 91.1638 22.72C90.6971 22.4213 90.3331 21.9967 90.0718 21.446C89.8104 20.8953 89.6798 20.2467 89.6798 19.5C89.6798 18.744 89.8104 18.0953 90.0718 17.554C90.3331 17.0033 90.6971 16.5787 91.1638 16.28C91.6398 15.9813 92.1998 15.832 92.8438 15.832C93.4318 15.832 93.9264 15.9813 94.3278 16.28C94.7384 16.5787 95.0511 17.0033 95.2658 17.554C95.4804 18.0953 95.5878 18.744 95.5878 19.5C95.5878 20.2467 95.4804 20.8953 95.2658 21.446C95.0511 21.9967 94.7384 22.4213 94.3278 22.72C93.9264 23.0187 93.4318 23.168 92.8438 23.168ZM93.3198 21.474C93.6371 21.474 93.9171 21.39 94.1598 21.222C94.4118 21.054 94.6078 20.8207 94.7478 20.522C94.8878 20.2233 94.9578 19.8827 94.9578 19.5C94.9578 19.1173 94.8878 18.7767 94.7478 18.478C94.6078 18.1793 94.4118 17.9507 94.1598 17.792C93.9171 17.624 93.6324 17.54 93.3058 17.54C92.9698 17.54 92.6758 17.624 92.4238 17.792C92.1718 17.9507 91.9711 18.1793 91.8218 18.478C91.6724 18.7767 91.5978 19.1173 91.5978 19.5C91.5978 19.8827 91.6724 20.2233 91.8218 20.522C91.9711 20.8207 92.1718 21.054 92.4238 21.222C92.6851 21.39 92.9838 21.474 93.3198 21.474ZM98.3839 23V13.2H100.232V21.698L100.134 23H98.3839ZM102.346 23.168C101.758 23.168 101.259 23.0187 100.848 22.72C100.447 22.4213 100.139 21.9967 99.9239 21.446C99.7093 20.8953 99.6019 20.2467 99.6019 19.5C99.6019 18.744 99.7093 18.0953 99.9239 17.554C100.139 17.0033 100.447 16.5787 100.848 16.28C101.259 15.9813 101.758 15.832 102.346 15.832C102.99 15.832 103.545 15.9813 104.012 16.28C104.488 16.5787 104.857 17.0033 105.118 17.554C105.379 18.0953 105.51 18.744 105.51 19.5C105.51 20.2467 105.379 20.8953 105.118 21.446C104.857 21.9967 104.488 22.4213 104.012 22.72C103.545 23.0187 102.99 23.168 102.346 23.168ZM101.87 21.474C102.206 21.474 102.5 21.39 102.752 21.222C103.013 21.054 103.219 20.8207 103.368 20.522C103.517 20.2233 103.592 19.8827 103.592 19.5C103.592 19.1173 103.517 18.7767 103.368 18.478C103.228 18.1793 103.027 17.9507 102.766 17.792C102.514 17.624 102.22 17.54 101.884 17.54C101.567 17.54 101.282 17.624 101.03 17.792C100.778 17.96 100.582 18.1933 100.442 18.492C100.302 18.7813 100.232 19.1173 100.232 19.5C100.232 19.8827 100.302 20.2233 100.442 20.522C100.582 20.8207 100.773 21.054 101.016 21.222C101.268 21.39 101.553 21.474 101.87 21.474ZM109.976 23V21.586C109.976 21.3153 110.06 21.0167 110.228 20.69C110.396 20.3633 110.629 20.0367 110.928 19.71C111.226 19.3833 111.576 19.08 111.978 18.8L113.462 17.736C113.667 17.596 113.858 17.4373 114.036 17.26C114.222 17.0827 114.372 16.8913 114.484 16.686C114.605 16.4713 114.666 16.266 114.666 16.07C114.666 15.8273 114.605 15.608 114.484 15.412C114.372 15.216 114.204 15.062 113.98 14.95C113.756 14.838 113.48 14.782 113.154 14.782C112.874 14.782 112.622 14.838 112.398 14.95C112.183 15.062 112.006 15.2113 111.866 15.398C111.726 15.5847 111.628 15.7853 111.572 16L109.598 15.664C109.691 15.1973 109.892 14.7633 110.2 14.362C110.508 13.9607 110.909 13.6387 111.404 13.396C111.908 13.144 112.477 13.018 113.112 13.018C113.84 13.018 114.465 13.1487 114.988 13.41C115.51 13.6713 115.912 14.0307 116.192 14.488C116.481 14.936 116.626 15.4587 116.626 16.056C116.626 16.6627 116.458 17.204 116.122 17.68C115.795 18.1467 115.342 18.5853 114.764 18.996L113.434 19.962C113.163 20.1487 112.93 20.354 112.734 20.578C112.538 20.802 112.388 21.0493 112.286 21.32H116.752V23H109.976Z" fill="#A4ABB9"/>
<path d="M151.8 23V14.95H148.86V13.2H156.644V14.95H153.718V23H151.8ZM161.706 23L161.608 21.698V16H163.456V23H161.706ZM159.508 23.168C158.864 23.168 158.304 23.0187 157.828 22.72C157.361 22.4213 156.997 21.9967 156.736 21.446C156.474 20.8953 156.344 20.2467 156.344 19.5C156.344 18.744 156.474 18.0953 156.736 17.554C156.997 17.0033 157.361 16.5787 157.828 16.28C158.304 15.9813 158.864 15.832 159.508 15.832C160.096 15.832 160.59 15.9813 160.992 16.28C161.402 16.5787 161.715 17.0033 161.93 17.554C162.144 18.0953 162.252 18.744 162.252 19.5C162.252 20.2467 162.144 20.8953 161.93 21.446C161.715 21.9967 161.402 22.4213 160.992 22.72C160.59 23.0187 160.096 23.168 159.508 23.168ZM159.984 21.474C160.301 21.474 160.581 21.39 160.824 21.222C161.076 21.054 161.272 20.8207 161.412 20.522C161.552 20.2233 161.622 19.8827 161.622 19.5C161.622 19.1173 161.552 18.7767 161.412 18.478C161.272 18.1793 161.076 17.9507 160.824 17.792C160.581 17.624 160.296 17.54 159.97 17.54C159.634 17.54 159.34 17.624 159.088 17.792C158.836 17.9507 158.635 18.1793 158.486 18.478C158.336 18.7767 158.262 19.1173 158.262 19.5C158.262 19.8827 158.336 20.2233 158.486 20.522C158.635 20.8207 158.836 21.054 159.088 21.222C159.349 21.39 159.648 21.474 159.984 21.474ZM165.048 23V13.2H166.896V21.698L166.798 23H165.048ZM169.01 23.168C168.422 23.168 167.923 23.0187 167.512 22.72C167.111 22.4213 166.803 21.9967 166.588 21.446C166.373 20.8953 166.266 20.2467 166.266 19.5C166.266 18.744 166.373 18.0953 166.588 17.554C166.803 17.0033 167.111 16.5787 167.512 16.28C167.923 15.9813 168.422 15.832 169.01 15.832C169.654 15.832 170.209 15.9813 170.676 16.28C171.152 16.5787 171.521 17.0033 171.782 17.554C172.043 18.0953 172.174 18.744 172.174 19.5C172.174 20.2467 172.043 20.8953 171.782 21.446C171.521 21.9967 171.152 22.4213 170.676 22.72C170.209 23.0187 169.654 23.168 169.01 23.168ZM168.534 21.474C168.87 21.474 169.164 21.39 169.416 21.222C169.677 21.054 169.883 20.8207 170.032 20.522C170.181 20.2233 170.256 19.8827 170.256 19.5C170.256 19.1173 170.181 18.7767 170.032 18.478C169.892 18.1793 169.691 17.9507 169.43 17.792C169.178 17.624 168.884 17.54 168.548 17.54C168.231 17.54 167.946 17.624 167.694 17.792C167.442 17.96 167.246 18.1933 167.106 18.492C166.966 18.7813 166.896 19.1173 166.896 19.5C166.896 19.8827 166.966 20.2233 167.106 20.522C167.246 20.8207 167.437 21.054 167.68 21.222C167.932 21.39 168.217 21.474 168.534 21.474ZM179.86 23.168C179.281 23.168 178.758 23.084 178.292 22.916C177.825 22.7387 177.433 22.4913 177.116 22.174C176.808 21.8473 176.593 21.4647 176.472 21.026L178.236 20.508C178.301 20.62 178.39 20.76 178.502 20.928C178.614 21.0867 178.768 21.222 178.964 21.334C179.16 21.446 179.416 21.502 179.734 21.502C180.2 21.502 180.569 21.376 180.84 21.124C181.12 20.8627 181.26 20.5267 181.26 20.116C181.26 19.836 181.19 19.5887 181.05 19.374C180.91 19.1593 180.681 18.996 180.364 18.884C180.056 18.7627 179.65 18.702 179.146 18.702H178.558V17.4H179.076C179.636 17.4 180.163 17.47 180.658 17.61C181.152 17.7407 181.586 17.9367 181.96 18.198C182.342 18.45 182.641 18.758 182.856 19.122C183.07 19.4767 183.178 19.8827 183.178 20.34C183.178 20.928 183.024 21.4367 182.716 21.866C182.408 22.286 182.002 22.608 181.498 22.832C180.994 23.056 180.448 23.168 179.86 23.168ZM178.558 18.352V17.134H179.146C179.799 17.134 180.284 17.022 180.602 16.798C180.919 16.574 181.078 16.266 181.078 15.874C181.078 15.65 181.022 15.4493 180.91 15.272C180.798 15.0947 180.639 14.9547 180.434 14.852C180.228 14.7493 179.99 14.698 179.72 14.698C179.542 14.698 179.36 14.7307 179.174 14.796C178.987 14.852 178.814 14.95 178.656 15.09C178.506 15.2207 178.385 15.412 178.292 15.664L176.556 15.146C176.686 14.6887 176.91 14.306 177.228 13.998C177.554 13.6807 177.942 13.4427 178.39 13.284C178.838 13.116 179.3 13.032 179.776 13.032C180.382 13.032 180.928 13.1487 181.414 13.382C181.899 13.606 182.282 13.9187 182.562 14.32C182.842 14.7213 182.982 15.1833 182.982 15.706C182.982 16.154 182.874 16.5413 182.66 16.868C182.445 17.1947 182.151 17.47 181.778 17.694C181.414 17.918 180.998 18.086 180.532 18.198C180.065 18.3007 179.58 18.352 179.076 18.352H178.558Z" fill="#A4ABB9"/>
</svg>
