<svg width="212" height="32" viewBox="0 0 212 32" fill="none" xmlns="http://www.w3.org/2000/svg">
<path d="M17.2305 20.5418L13.1055 16.4168C13.036 16.3474 12.9874 16.2779 12.9596 16.2085C12.9319 16.1391 12.918 16.0627 12.918 15.9793C12.918 15.896 12.9319 15.8196 12.9596 15.7502C12.9874 15.6807 13.036 15.6113 13.1055 15.5418L17.2513 11.396C17.3763 11.271 17.5256 11.2085 17.6992 11.2085C17.8728 11.2085 18.0221 11.271 18.1471 11.396C18.2721 11.521 18.3312 11.6738 18.3242 11.8543C18.3173 12.0349 18.2513 12.1877 18.1263 12.3127L14.4596 15.9793L18.1471 19.6668C18.2721 19.7918 18.3346 19.9377 18.3346 20.1043C18.3346 20.271 18.2721 20.4168 18.1471 20.5418C18.0221 20.6668 17.8694 20.7293 17.6888 20.7293C17.5082 20.7293 17.3555 20.6668 17.2305 20.5418Z" fill="#A4ABB9"/>
<rect x="36" width="32" height="32" rx="8" fill="#1E90FF"/>
<path d="M52.1464 21V11.83L52.2444 11.2H53.3084V21H52.1464ZM49.9484 13.72V12.642C50.1444 12.6513 50.3777 12.586 50.6484 12.446C50.9191 12.306 51.1991 12.124 51.4884 11.9C51.7777 11.676 52.0297 11.4427 52.2444 11.2L52.9724 11.998C52.6644 12.3247 52.3424 12.6187 52.0064 12.88C51.6704 13.1413 51.3297 13.3513 50.9844 13.51C50.6391 13.6593 50.2937 13.7293 49.9484 13.72Z" fill="white"/>
<path d="M84.8878 21V20.02C84.8878 19.712 84.9485 19.4087 85.0698 19.11C85.2005 18.802 85.3825 18.4987 85.6158 18.2C85.8585 17.9013 86.1525 17.6213 86.4978 17.36L88.5278 15.834C88.7705 15.666 88.9805 15.4747 89.1578 15.26C89.3445 15.036 89.4892 14.8073 89.5918 14.574C89.6945 14.3313 89.7458 14.098 89.7458 13.874C89.7458 13.5473 89.6665 13.2533 89.5078 12.992C89.3492 12.7213 89.1252 12.5067 88.8358 12.348C88.5465 12.1893 88.2058 12.11 87.8138 12.11C87.4312 12.11 87.0952 12.1847 86.8058 12.334C86.5165 12.474 86.2785 12.6653 86.0918 12.908C85.9052 13.1413 85.7698 13.3933 85.6858 13.664L84.4818 13.426C84.5938 13.006 84.7945 12.614 85.0838 12.25C85.3825 11.886 85.7605 11.592 86.2178 11.368C86.6752 11.144 87.1838 11.032 87.7438 11.032C88.3972 11.032 88.9618 11.158 89.4378 11.41C89.9138 11.6527 90.2825 11.9887 90.5438 12.418C90.8145 12.838 90.9498 13.3187 90.9498 13.86C90.9498 14.3733 90.8098 14.8587 90.5298 15.316C90.2498 15.7733 89.8438 16.2167 89.3118 16.646L87.3938 18.102C87.0205 18.382 86.7312 18.676 86.5258 18.984C86.3298 19.292 86.2178 19.614 86.1898 19.95H91.0898V21H84.8878Z" fill="#1D2025"/>
<path d="M119.191 17.25C118.848 17.25 118.553 17.1276 118.309 16.8827C118.064 16.638 117.941 16.3438 117.941 16C117.941 15.6563 118.064 15.362 118.309 15.1173C118.553 14.8724 118.848 14.75 119.191 14.75C119.535 14.75 119.829 14.8724 120.074 15.1173C120.319 15.362 120.441 15.6563 120.441 16C120.441 16.3438 120.319 16.638 120.074 16.8827C119.829 17.1276 119.535 17.25 119.191 17.25ZM123.999 17.25C123.655 17.25 123.361 17.1276 123.116 16.8827C122.872 16.638 122.749 16.3438 122.749 16C122.749 15.6563 122.872 15.362 123.116 15.1173C123.361 14.8724 123.655 14.75 123.999 14.75C124.343 14.75 124.637 14.8724 124.882 15.1173C125.127 15.362 125.249 15.6563 125.249 16C125.249 16.3438 125.127 16.638 124.882 16.8827C124.637 17.1276 124.343 17.25 123.999 17.25ZM128.807 17.25C128.463 17.25 128.169 17.1276 127.924 16.8827C127.679 16.638 127.557 16.3438 127.557 16C127.557 15.6563 127.679 15.362 127.924 15.1173C128.169 14.8724 128.463 14.75 128.807 14.75C129.151 14.75 129.445 14.8724 129.69 15.1173C129.934 15.362 130.057 15.6563 130.057 16C130.057 16.3438 129.934 16.638 129.69 16.8827C129.445 17.1276 129.151 17.25 128.807 17.25Z" fill="#A4ABB9"/>
<path d="M156.12 21V11.83L156.218 11.2H157.282V21H156.12ZM153.922 13.72V12.642C154.118 12.6513 154.351 12.586 154.622 12.446C154.893 12.306 155.173 12.124 155.462 11.9C155.751 11.676 156.003 11.4427 156.218 11.2L156.946 11.998C156.638 12.3247 156.316 12.6187 155.98 12.88C155.644 13.1413 155.303 13.3513 154.958 13.51C154.613 13.6593 154.267 13.7293 153.922 13.72ZM162.925 21.168C162.533 21.168 162.132 21.112 161.721 21C161.32 20.8787 160.937 20.6967 160.573 20.454C160.219 20.2113 159.925 19.8987 159.691 19.516L160.643 18.97C160.97 19.3807 161.325 19.6793 161.707 19.866C162.09 20.0527 162.487 20.146 162.897 20.146C163.541 20.146 164.064 19.95 164.465 19.558C164.876 19.1567 165.081 18.634 165.081 17.99C165.081 17.3553 164.885 16.8373 164.493 16.436C164.101 16.0347 163.588 15.834 162.953 15.834C162.608 15.834 162.267 15.9133 161.931 16.072C161.595 16.2213 161.334 16.408 161.147 16.632L160.083 16.38L160.559 11.2H165.781V12.264H161.609L161.315 15.386C161.577 15.2273 161.866 15.1013 162.183 15.008C162.501 14.9147 162.823 14.868 163.149 14.868C163.747 14.868 164.279 14.9987 164.745 15.26C165.212 15.5213 165.581 15.8853 165.851 16.352C166.122 16.8187 166.257 17.3553 166.257 17.962C166.257 18.5967 166.113 19.1567 165.823 19.642C165.543 20.118 165.151 20.4913 164.647 20.762C164.153 21.0327 163.579 21.168 162.925 21.168Z" fill="#1D2025"/>
<path d="M193.377 20.5415C193.266 20.4026 193.207 20.2498 193.2 20.0832C193.193 19.9165 193.252 19.7707 193.377 19.6457L197.044 15.979L193.356 12.2915C193.245 12.1804 193.193 12.0311 193.2 11.8436C193.207 11.6561 193.266 11.5068 193.377 11.3957C193.516 11.2568 193.665 11.1908 193.825 11.1978C193.985 11.2047 194.127 11.2707 194.252 11.3957L198.398 15.5415C198.467 15.611 198.516 15.6804 198.544 15.7498C198.571 15.8193 198.585 15.8957 198.585 15.979C198.585 16.0623 198.571 16.1387 198.544 16.2082C198.516 16.2776 198.467 16.3471 198.398 16.4165L194.273 20.5415C194.148 20.6665 194.002 20.7255 193.835 20.7186C193.669 20.7117 193.516 20.6526 193.377 20.5415Z" fill="#1D2025"/>
</svg>
