<svg width="200" height="99" viewBox="0 0 200 99" fill="none" xmlns="http://www.w3.org/2000/svg">
<rect x="47" width="106" height="54" rx="5" fill="#282C32"/>
<path d="M60.616 21V12.6H63.352C63.896 12.6 64.376 12.712 64.792 12.936C65.216 13.16 65.544 13.472 65.776 13.872C66.016 14.272 66.136 14.736 66.136 15.264C66.136 15.776 66.028 16.232 65.812 16.632C65.596 17.032 65.3 17.348 64.924 17.58C64.548 17.804 64.112 17.916 63.616 17.916H61.636V21H60.616ZM61.636 16.992H63.616C64.056 16.992 64.416 16.832 64.696 16.512C64.984 16.184 65.128 15.768 65.128 15.264C65.128 14.744 64.96 14.324 64.624 14.004C64.288 13.684 63.86 13.524 63.34 13.524H61.636V16.992ZM69.824 21.144C69.24 21.144 68.72 21.012 68.264 20.748C67.816 20.476 67.464 20.104 67.208 19.632C66.952 19.16 66.824 18.616 66.824 18C66.824 17.384 66.948 16.84 67.196 16.368C67.452 15.896 67.804 15.528 68.252 15.264C68.708 14.992 69.224 14.856 69.8 14.856C70.392 14.856 70.912 14.992 71.36 15.264C71.816 15.528 72.168 15.896 72.416 16.368C72.672 16.84 72.8 17.384 72.8 18C72.8 18.616 72.672 19.16 72.416 19.632C72.168 20.104 71.82 20.476 71.372 20.748C70.924 21.012 70.408 21.144 69.824 21.144ZM69.824 20.256C70.224 20.256 70.572 20.16 70.868 19.968C71.164 19.776 71.396 19.512 71.564 19.176C71.74 18.84 71.828 18.448 71.828 18C71.828 17.552 71.74 17.16 71.564 16.824C71.396 16.488 71.16 16.224 70.856 16.032C70.552 15.84 70.2 15.744 69.8 15.744C69.408 15.744 69.06 15.84 68.756 16.032C68.46 16.224 68.224 16.488 68.048 16.824C67.88 17.16 67.796 17.552 67.796 18C67.796 18.44 67.88 18.832 68.048 19.176C68.224 19.512 68.464 19.776 68.768 19.968C69.08 20.16 69.432 20.256 69.824 20.256ZM74.193 23.4V15H75.093L75.153 16.104V23.4H74.193ZM77.181 21.144C76.677 21.144 76.233 21.012 75.849 20.748C75.473 20.484 75.181 20.116 74.973 19.644C74.765 19.164 74.661 18.616 74.661 18C74.661 17.376 74.765 16.828 74.973 16.356C75.181 15.884 75.473 15.516 75.849 15.252C76.233 14.988 76.677 14.856 77.181 14.856C77.717 14.856 78.189 14.988 78.597 15.252C79.005 15.516 79.321 15.884 79.545 16.356C79.777 16.828 79.893 17.376 79.893 18C79.893 18.616 79.777 19.164 79.545 19.644C79.321 20.116 79.005 20.484 78.597 20.748C78.189 21.012 77.717 21.144 77.181 21.144ZM76.965 20.268C77.341 20.268 77.673 20.172 77.961 19.98C78.257 19.788 78.489 19.52 78.657 19.176C78.833 18.832 78.921 18.44 78.921 18C78.921 17.56 78.837 17.168 78.669 16.824C78.509 16.48 78.281 16.212 77.985 16.02C77.689 15.828 77.353 15.732 76.977 15.732C76.625 15.732 76.309 15.828 76.029 16.02C75.757 16.212 75.541 16.48 75.381 16.824C75.229 17.168 75.153 17.56 75.153 18C75.153 18.44 75.229 18.832 75.381 19.176C75.541 19.52 75.757 19.788 76.029 19.98C76.301 20.172 76.613 20.268 76.965 20.268ZM83.8748 21.144C83.2908 21.144 82.7708 21.012 82.3148 20.748C81.8668 20.476 81.5148 20.104 81.2588 19.632C81.0028 19.16 80.8748 18.616 80.8748 18C80.8748 17.384 80.9988 16.84 81.2468 16.368C81.5028 15.896 81.8548 15.528 82.3028 15.264C82.7588 14.992 83.2748 14.856 83.8508 14.856C84.4428 14.856 84.9628 14.992 85.4108 15.264C85.8668 15.528 86.2188 15.896 86.4668 16.368C86.7228 16.84 86.8508 17.384 86.8508 18C86.8508 18.616 86.7228 19.16 86.4668 19.632C86.2188 20.104 85.8708 20.476 85.4228 20.748C84.9748 21.012 84.4588 21.144 83.8748 21.144ZM83.8748 20.256C84.2748 20.256 84.6228 20.16 84.9188 19.968C85.2148 19.776 85.4468 19.512 85.6148 19.176C85.7908 18.84 85.8788 18.448 85.8788 18C85.8788 17.552 85.7908 17.16 85.6148 16.824C85.4468 16.488 85.2108 16.224 84.9068 16.032C84.6028 15.84 84.2508 15.744 83.8508 15.744C83.4588 15.744 83.1108 15.84 82.8068 16.032C82.5108 16.224 82.2748 16.488 82.0988 16.824C81.9308 17.16 81.8468 17.552 81.8468 18C81.8468 18.44 81.9308 18.832 82.0988 19.176C82.2748 19.512 82.5148 19.776 82.8188 19.968C83.1308 20.16 83.4828 20.256 83.8748 20.256ZM89.8674 21L92.3154 15H93.3234L90.8154 21H89.8674ZM89.8074 21L87.2994 15H88.2954L90.7434 21H89.8074ZM96.7532 21.144C96.1692 21.144 95.6532 21.012 95.2052 20.748C94.7572 20.476 94.4052 20.104 94.1492 19.632C93.9012 19.16 93.7772 18.616 93.7772 18C93.7772 17.384 93.9012 16.84 94.1492 16.368C94.4052 15.896 94.7532 15.528 95.1932 15.264C95.6412 14.992 96.1532 14.856 96.7292 14.856C97.2892 14.856 97.7732 14.996 98.1812 15.276C98.5892 15.548 98.9052 15.932 99.1292 16.428C99.3532 16.924 99.4652 17.508 99.4652 18.18H94.5092L94.7492 17.976C94.7492 18.456 94.8332 18.868 95.0012 19.212C95.1772 19.556 95.4212 19.82 95.7332 20.004C96.0452 20.18 96.4012 20.268 96.8012 20.268C97.2252 20.268 97.5812 20.168 97.8692 19.968C98.1652 19.768 98.3932 19.504 98.5532 19.176L99.3812 19.596C99.2292 19.908 99.0252 20.18 98.7692 20.412C98.5212 20.644 98.2252 20.824 97.8812 20.952C97.5452 21.08 97.1692 21.144 96.7532 21.144ZM94.8092 17.568L94.5572 17.376H98.6972L98.4452 17.58C98.4452 17.196 98.3692 16.864 98.2172 16.584C98.0652 16.304 97.8612 16.088 97.6052 15.936C97.3492 15.784 97.0532 15.708 96.7172 15.708C96.3892 15.708 96.0772 15.784 95.7812 15.936C95.4932 16.088 95.2572 16.304 95.0732 16.584C94.8972 16.856 94.8092 17.184 94.8092 17.568ZM101.204 17.748C101.204 17.1 101.328 16.576 101.576 16.176C101.824 15.768 102.14 15.468 102.524 15.276C102.916 15.076 103.328 14.976 103.76 14.976V15.876C103.408 15.876 103.068 15.936 102.74 16.056C102.42 16.168 102.156 16.356 101.948 16.62C101.74 16.884 101.636 17.244 101.636 17.7L101.204 17.748ZM100.676 21V15H101.636V21H100.676Z" fill="#EFF2F8"/>
<rect x="59.5" y="28" width="81" height="6" rx="2" fill="#505763"/>
<rect x="59.5" y="38" width="53.4414" height="6" rx="2" fill="#505763"/>
<path d="M98.5344 59.4217C99.3257 60.2738 100.674 60.2738 101.466 59.4217L106.5 54L93.5 54L98.5344 59.4217Z" fill="#282C32"/>
<rect x="14" y="67" width="172" height="32" rx="8" fill="#1D2025"/>
</svg>
