<svg width="294" height="200" viewBox="0 0 294 200" fill="none" xmlns="http://www.w3.org/2000/svg">
<path d="M95.748 84.9332C95.14 84.9332 94.5854 84.8425 94.084 84.6612C93.5827 84.4799 93.1614 84.2239 92.82 83.8932C92.4787 83.5625 92.2334 83.1892 92.084 82.7732L93.748 82.1492C93.8334 82.2985 93.9507 82.4639 94.1 82.6452C94.2494 82.8265 94.4467 82.9865 94.692 83.1252C94.9374 83.2532 95.252 83.3172 95.636 83.3172C96.244 83.3172 96.724 83.1465 97.076 82.8052C97.4387 82.4532 97.62 82.0105 97.62 81.4772C97.62 81.0932 97.5187 80.7625 97.316 80.4852C97.124 80.2079 96.82 79.9945 96.404 79.8452C95.9987 79.6959 95.4867 79.6212 94.868 79.6212H94.356V78.3092H94.82C95.4707 78.3092 96.0734 78.3839 96.628 78.5332C97.1934 78.6825 97.6894 78.9065 98.116 79.2052C98.5534 79.4932 98.8894 79.8452 99.124 80.2612C99.3694 80.6772 99.492 81.1465 99.492 81.6692C99.492 82.3412 99.316 82.9225 98.964 83.4132C98.6227 83.9039 98.1694 84.2825 97.604 84.5492C97.0387 84.8052 96.42 84.9332 95.748 84.9332ZM94.356 79.3332V78.0852H94.868C95.6894 78.0852 96.3134 77.9465 96.74 77.6692C97.1667 77.3919 97.38 77.0025 97.38 76.5012C97.38 76.2132 97.3054 75.9572 97.156 75.7332C97.0174 75.4985 96.8147 75.3119 96.548 75.1732C96.2814 75.0345 95.9667 74.9652 95.604 74.9652C95.3694 74.9652 95.14 75.0025 94.916 75.0772C94.692 75.1519 94.484 75.2692 94.292 75.4292C94.1 75.5892 93.94 75.7972 93.812 76.0532L92.196 75.4612C92.356 75.0132 92.612 74.6345 92.964 74.3252C93.316 74.0052 93.7267 73.7652 94.196 73.6052C94.6654 73.4345 95.156 73.3492 95.668 73.3492C96.3507 73.3492 96.9587 73.4772 97.492 73.7332C98.036 73.9892 98.4627 74.3465 98.772 74.8052C99.092 75.2532 99.252 75.7705 99.252 76.3572C99.252 76.8479 99.1294 77.2799 98.884 77.6532C98.6494 78.0265 98.324 78.3412 97.908 78.5972C97.492 78.8425 97.0174 79.0292 96.484 79.1572C95.9614 79.2745 95.4014 79.3332 94.804 79.3332H94.356ZM105.297 84.9332C104.422 84.9332 103.643 84.6879 102.961 84.1972C102.278 83.6959 101.739 83.0132 101.345 82.1492C100.961 81.2745 100.769 80.2719 100.769 79.1412C100.769 78.0105 100.961 77.0132 101.345 76.1492C101.739 75.2745 102.273 74.5919 102.945 74.1012C103.627 73.5999 104.411 73.3492 105.297 73.3492C106.182 73.3492 106.966 73.5999 107.649 74.1012C108.331 74.5919 108.865 75.2745 109.249 76.1492C109.643 77.0132 109.841 78.0105 109.841 79.1412C109.841 80.2719 109.643 81.2745 109.249 82.1492C108.865 83.0132 108.331 83.6959 107.649 84.1972C106.977 84.6879 106.193 84.9332 105.297 84.9332ZM105.313 83.2532C105.835 83.2532 106.299 83.0772 106.705 82.7252C107.121 82.3732 107.441 81.8879 107.665 81.2692C107.899 80.6505 108.017 79.9412 108.017 79.1412C108.017 78.3412 107.899 77.6319 107.665 77.0132C107.441 76.3839 107.121 75.8932 106.705 75.5412C106.299 75.1892 105.83 75.0132 105.297 75.0132C104.763 75.0132 104.294 75.1892 103.889 75.5412C103.483 75.8932 103.163 76.3785 102.929 76.9972C102.705 77.6159 102.593 78.3305 102.593 79.1412C102.593 79.9412 102.705 80.6505 102.929 81.2692C103.163 81.8879 103.483 82.3732 103.889 82.7252C104.305 83.0772 104.779 83.2532 105.313 83.2532ZM111.945 84.7412L119.897 73.5412H121.753L113.753 84.7412H111.945ZM120.041 84.9972C119.54 84.9972 119.097 84.8799 118.713 84.6452C118.329 84.4105 118.025 84.0852 117.801 83.6692C117.588 83.2532 117.481 82.7839 117.481 82.2612C117.481 81.7279 117.588 81.2585 117.801 80.8532C118.014 80.4479 118.313 80.1279 118.697 79.8932C119.092 79.6585 119.54 79.5412 120.041 79.5412C120.542 79.5412 120.985 79.6585 121.369 79.8932C121.753 80.1279 122.052 80.4479 122.265 80.8532C122.489 81.2585 122.601 81.7279 122.601 82.2612C122.601 82.7839 122.489 83.2532 122.265 83.6692C122.052 84.0852 121.753 84.4105 121.369 84.6452C120.985 84.8799 120.542 84.9972 120.041 84.9972ZM120.041 83.7332C120.393 83.7332 120.681 83.5945 120.905 83.3172C121.129 83.0399 121.241 82.6879 121.241 82.2612C121.241 81.8452 121.129 81.4985 120.905 81.2212C120.681 80.9332 120.393 80.7892 120.041 80.7892C119.689 80.7892 119.396 80.9332 119.161 81.2212C118.937 81.4985 118.825 81.8452 118.825 82.2612C118.825 82.6879 118.937 83.0399 119.161 83.3172C119.396 83.5945 119.689 83.7332 120.041 83.7332ZM113.705 78.7412C113.214 78.7412 112.772 78.6239 112.377 78.3892C111.993 78.1545 111.694 77.8292 111.481 77.4132C111.268 76.9972 111.161 76.5279 111.161 76.0052C111.161 75.4719 111.268 75.0025 111.481 74.5972C111.694 74.1919 111.993 73.8719 112.377 73.6372C112.772 73.4025 113.22 73.2852 113.721 73.2852C114.222 73.2852 114.665 73.4025 115.049 73.6372C115.433 73.8719 115.732 74.1919 115.945 74.5972C116.158 75.0025 116.265 75.4719 116.265 76.0052C116.265 76.5279 116.158 76.9972 115.945 77.4132C115.732 77.8292 115.428 78.1545 115.033 78.3892C114.649 78.6239 114.206 78.7412 113.705 78.7412ZM113.705 77.4772C114.068 77.4772 114.361 77.3385 114.585 77.0612C114.809 76.7839 114.921 76.4319 114.921 76.0052C114.921 75.5892 114.809 75.2425 114.585 74.9652C114.361 74.6879 114.068 74.5492 113.705 74.5492C113.353 74.5492 113.065 74.6879 112.841 74.9652C112.617 75.2425 112.505 75.5892 112.505 76.0052C112.505 76.4319 112.617 76.7839 112.841 77.0612C113.065 77.3385 113.353 77.4772 113.705 77.4772Z" fill="#7ABEFF"/>
<g clip-path="url(#clip0_35498_29656)">
<rect x="46.832" y="94" width="200" height="12" fill="#1D2025"/>
<g clip-path="url(#clip1_35498_29656)">
<rect x="46.832" y="94" width="61" height="12" rx="6" fill="#4DA7FF"/>
</g>
</g>
<defs>
<clipPath id="clip0_35498_29656">
<rect x="46.832" y="94" width="200" height="12" rx="6" fill="white"/>
</clipPath>
<clipPath id="clip1_35498_29656">
<rect x="46.832" y="94" width="61" height="12" rx="6" fill="white"/>
</clipPath>
</defs>
</svg>
