<svg width="200" height="52" viewBox="0 0 200 52" fill="none" xmlns="http://www.w3.org/2000/svg">
<g opacity="0.2">
<rect x="61.8477" y="32" width="138.154" height="6" rx="3" fill="#1E90FF"/>
</g>
<g clip-path="url(#clip0_34356_69085)">
<rect y="32" width="68" height="6" rx="3" fill="#1E90FF"/>
</g>
<circle opacity="0.16" cx="64.9234" cy="35.0767" r="16.1538" fill="#1E90FF"/>
<circle cx="64.9228" cy="35.0751" r="7.69231" fill="#1E90FF"/>
<path d="M57.712 12.1289V9.72891H52.528V8.25691L57.536 0.928905H59.488V8.11291H61.568V9.72891H59.488V12.1289H57.712ZM54.496 8.11291H57.712V3.39291L54.496 8.11291ZM66.7189 12.3209C66.2282 12.3209 65.7269 12.2462 65.2149 12.0969C64.7135 11.9369 64.2495 11.7022 63.8229 11.3929C63.3962 11.0729 63.0709 10.6729 62.8469 10.1929L64.4949 9.58491C64.7722 9.97957 65.0975 10.2676 65.4709 10.4489C65.8442 10.6196 66.2282 10.7049 66.6229 10.7049C67.2522 10.7049 67.7642 10.5182 68.1589 10.1449C68.5535 9.76091 68.7509 9.25424 68.7509 8.62491C68.7509 8.01691 68.5589 7.51557 68.1749 7.12091C67.7909 6.72624 67.2895 6.52891 66.6709 6.52891C66.3082 6.52891 65.9669 6.60891 65.6469 6.76891C65.3375 6.92891 65.0975 7.12091 64.9269 7.34491L63.2469 6.97691L63.8709 0.928905H70.0629V2.60891H65.4709L65.1509 5.64891C65.4389 5.47824 65.7589 5.34491 66.1109 5.24891C66.4735 5.14224 66.8522 5.08891 67.2469 5.08891C67.8869 5.08891 68.4629 5.23824 68.9749 5.53691C69.4869 5.83557 69.8922 6.24624 70.1909 6.76891C70.4895 7.28091 70.6389 7.87291 70.6389 8.54491C70.6389 9.29157 70.4682 9.94757 70.1269 10.5129C69.7962 11.0782 69.3375 11.5209 68.7509 11.8409C68.1642 12.1609 67.4869 12.3209 66.7189 12.3209ZM72.7849 12.1289L80.7369 0.928905H82.5929L74.5929 12.1289H72.7849ZM80.8809 12.3849C80.3795 12.3849 79.9369 12.2676 79.5529 12.0329C79.1689 11.7982 78.8649 11.4729 78.6409 11.0569C78.4275 10.6409 78.3209 10.1716 78.3209 9.64891C78.3209 9.11557 78.4275 8.64624 78.6409 8.24091C78.8542 7.83557 79.1529 7.51557 79.5369 7.28091C79.9315 7.04624 80.3795 6.92891 80.8809 6.92891C81.3822 6.92891 81.8249 7.04624 82.2089 7.28091C82.5929 7.51557 82.8915 7.83557 83.1049 8.24091C83.3289 8.64624 83.4409 9.11557 83.4409 9.64891C83.4409 10.1716 83.3289 10.6409 83.1049 11.0569C82.8915 11.4729 82.5929 11.7982 82.2089 12.0329C81.8249 12.2676 81.3822 12.3849 80.8809 12.3849ZM80.8809 11.1209C81.2329 11.1209 81.5209 10.9822 81.7449 10.7049C81.9689 10.4276 82.0809 10.0756 82.0809 9.64891C82.0809 9.23291 81.9689 8.88624 81.7449 8.60891C81.5209 8.32091 81.2329 8.17691 80.8809 8.17691C80.5289 8.17691 80.2355 8.32091 80.0009 8.60891C79.7769 8.88624 79.6649 9.23291 79.6649 9.64891C79.6649 10.0756 79.7769 10.4276 80.0009 10.7049C80.2355 10.9822 80.5289 11.1209 80.8809 11.1209ZM74.5449 6.12891C74.0542 6.12891 73.6115 6.01157 73.2169 5.77691C72.8329 5.54224 72.5342 5.21691 72.3209 4.80091C72.1075 4.38491 72.0009 3.91557 72.0009 3.39291C72.0009 2.85957 72.1075 2.39024 72.3209 1.98491C72.5342 1.57957 72.8329 1.25957 73.2169 1.02491C73.6115 0.790239 74.0595 0.672906 74.5609 0.672906C75.0622 0.672906 75.5049 0.790239 75.8889 1.02491C76.2729 1.25957 76.5715 1.57957 76.7849 1.98491C76.9982 2.39024 77.1049 2.85957 77.1049 3.39291C77.1049 3.91557 76.9982 4.38491 76.7849 4.80091C76.5715 5.21691 76.2675 5.54224 75.8729 5.77691C75.4889 6.01157 75.0462 6.12891 74.5449 6.12891ZM74.5449 4.86491C74.9075 4.86491 75.2009 4.72624 75.4249 4.44891C75.6489 4.17157 75.7609 3.81957 75.7609 3.39291C75.7609 2.97691 75.6489 2.63024 75.4249 2.35291C75.2009 2.07557 74.9075 1.93691 74.5449 1.93691C74.1929 1.93691 73.9049 2.07557 73.6809 2.35291C73.4569 2.63024 73.3449 2.97691 73.3449 3.39291C73.3449 3.81957 73.4569 4.17157 73.6809 4.44891C73.9049 4.72624 74.1929 4.86491 74.5449 4.86491Z" fill="#0074E6"/>
<defs>
<clipPath id="clip0_34356_69085">
<rect y="32" width="68" height="6" rx="3" fill="white"/>
</clipPath>
</defs>
</svg>
