<svg width="200" height="118" viewBox="0 0 200 118" fill="none" xmlns="http://www.w3.org/2000/svg">
<g clip-path="url(#clip0_35325_10459)">
<rect width="60" height="118" fill="#07080A"/>
<rect x="8" y="8" width="41" height="5" rx="1" fill="#4DA7FF"/>
<rect x="8" y="17" width="41.5859" height="4" rx="1" fill="#1D2025"/>
<rect x="8" y="25" width="38.8945" height="4" rx="1" fill="#1D2025"/>
<rect x="8" y="33" width="30.9883" height="4" rx="1" fill="#1D2025"/>
<rect x="8" y="41" width="44" height="4" rx="1" fill="#1D2025"/>
<rect width="140" height="118" transform="translate(60)" fill="#07080A"/>
<rect x="68" y="8" width="98.0625" height="6" rx="1.78705" fill="#282C32"/>
<g clip-path="url(#clip1_35325_10459)">
<path d="M173.842 14.2411C173.383 14.7002 172.843 14.9298 172.221 14.9298C171.6 14.9298 171.06 14.7002 170.601 14.2411C170.142 13.7819 169.912 13.2418 169.912 12.6206C169.912 11.9994 170.142 11.4593 170.601 11.0002L171.735 9.86584C171.805 9.79562 171.886 9.76051 171.978 9.76051C172.07 9.76051 172.151 9.79562 172.221 9.86584C172.292 9.93605 172.327 10.0171 172.327 10.1089C172.327 10.2007 172.292 10.2818 172.221 10.352L171.087 11.4863C170.763 11.8104 170.601 12.1885 170.601 12.6206C170.601 13.0527 170.763 13.4308 171.087 13.7549C171.411 14.079 171.789 14.2411 172.221 14.2411C172.653 14.2411 173.032 14.079 173.356 13.7549L174.49 12.6206C174.56 12.5504 174.641 12.5153 174.733 12.5153C174.825 12.5153 174.906 12.5504 174.976 12.6206C175.046 12.6908 175.081 12.7718 175.081 12.8637C175.081 12.9555 175.046 13.0365 174.976 13.1067L173.842 14.2411ZM173.072 12.256C173.002 12.3262 172.921 12.3613 172.829 12.3613C172.737 12.3613 172.656 12.3262 172.586 12.256C172.516 12.1858 172.481 12.1048 172.481 12.0129C172.481 11.9211 172.516 11.8401 172.586 11.7699L174.612 9.7443C174.682 9.67408 174.763 9.63897 174.855 9.63897C174.946 9.63897 175.027 9.67408 175.098 9.7443C175.168 9.81452 175.203 9.89554 175.203 9.98737C175.203 10.0792 175.168 10.1602 175.098 10.2304L173.072 12.256ZM175.948 12.1345C175.878 12.2047 175.797 12.2398 175.705 12.2398C175.614 12.2398 175.533 12.2047 175.462 12.1345C175.392 12.0642 175.357 11.9832 175.357 11.8914C175.357 11.7996 175.392 11.7186 175.462 11.6483L176.597 10.514C176.921 10.1899 177.083 9.81182 177.083 9.3797C177.083 8.94758 176.921 8.56947 176.597 8.24538C176.273 7.92129 175.894 7.75925 175.462 7.75925C175.03 7.75925 174.652 7.92129 174.328 8.24538L173.194 9.3797C173.123 9.44992 173.042 9.48503 172.951 9.48503C172.859 9.48503 172.778 9.44992 172.708 9.3797C172.637 9.30948 172.602 9.22846 172.602 9.13663C172.602 9.04481 172.637 8.96378 172.708 8.89356L173.842 7.75925C174.301 7.30012 174.841 7.07055 175.462 7.07055C176.083 7.07055 176.624 7.30012 177.083 7.75925C177.542 8.21837 177.771 8.75853 177.771 9.3797C177.771 10.0009 177.542 10.541 177.083 11.0002L175.948 12.1345Z" fill="#4DA7FF"/>
</g>
<rect x="68" y="22" width="124" height="4" rx="2" fill="#1D2025"/>
<rect x="68" y="30" width="124" height="4" rx="2" fill="#1D2025"/>
<rect x="68" y="38" width="95.625" height="4" rx="2" fill="#1D2025"/>
<rect x="68" y="67" width="98.0625" height="6" rx="1.78705" fill="#282C32"/>
<g clip-path="url(#clip2_35325_10459)">
<path d="M173.842 73.2411C173.383 73.7002 172.843 73.9298 172.221 73.9298C171.6 73.9298 171.06 73.7002 170.601 73.2411C170.142 72.7819 169.912 72.2418 169.912 71.6206C169.912 70.9994 170.142 70.4593 170.601 70.0002L171.735 68.8658C171.805 68.7956 171.886 68.7605 171.978 68.7605C172.07 68.7605 172.151 68.7956 172.221 68.8658C172.292 68.9361 172.327 69.0171 172.327 69.1089C172.327 69.2007 172.292 69.2818 172.221 69.352L171.087 70.4863C170.763 70.8104 170.601 71.1885 170.601 71.6206C170.601 72.0527 170.763 72.4308 171.087 72.7549C171.411 73.079 171.789 73.2411 172.221 73.2411C172.653 73.2411 173.032 73.079 173.356 72.7549L174.49 71.6206C174.56 71.5504 174.641 71.5153 174.733 71.5153C174.825 71.5153 174.906 71.5504 174.976 71.6206C175.046 71.6908 175.081 71.7718 175.081 71.8637C175.081 71.9555 175.046 72.0365 174.976 72.1067L173.842 73.2411ZM173.072 71.256C173.002 71.3262 172.921 71.3613 172.829 71.3613C172.737 71.3613 172.656 71.3262 172.586 71.256C172.516 71.1858 172.481 71.1048 172.481 71.0129C172.481 70.9211 172.516 70.8401 172.586 70.7699L174.612 68.7443C174.682 68.6741 174.763 68.639 174.855 68.639C174.946 68.639 175.027 68.6741 175.098 68.7443C175.168 68.8145 175.203 68.8955 175.203 68.9874C175.203 69.0792 175.168 69.1602 175.098 69.2304L173.072 71.256ZM175.948 71.1345C175.878 71.2047 175.797 71.2398 175.705 71.2398C175.614 71.2398 175.533 71.2047 175.462 71.1345C175.392 71.0642 175.357 70.9832 175.357 70.8914C175.357 70.7996 175.392 70.7186 175.462 70.6483L176.597 69.514C176.921 69.1899 177.083 68.8118 177.083 68.3797C177.083 67.9476 176.921 67.5695 176.597 67.2454C176.273 66.9213 175.894 66.7592 175.462 66.7592C175.03 66.7592 174.652 66.9213 174.328 67.2454L173.194 68.3797C173.123 68.4499 173.042 68.485 172.951 68.485C172.859 68.485 172.778 68.4499 172.708 68.3797C172.637 68.3095 172.602 68.2285 172.602 68.1366C172.602 68.0448 172.637 67.9638 172.708 67.8936L173.842 66.7592C174.301 66.3001 174.841 66.0706 175.462 66.0706C176.083 66.0706 176.624 66.3001 177.083 66.7592C177.542 67.2184 177.771 67.7585 177.771 68.3797C177.771 69.0009 177.542 69.541 177.083 70.0002L175.948 71.1345Z" fill="#505763"/>
</g>
<rect x="68" y="81" width="124" height="4" rx="2" fill="#1D2025"/>
<rect x="68" y="89" width="95.625" height="4" rx="2" fill="#1D2025"/>
</g>
<rect x="0.5" y="0.5" width="199" height="117" rx="7.5" stroke="#1D2025" stroke-opacity="0.6"/>
<defs>
<clipPath id="clip0_35325_10459">
<rect width="200" height="118" rx="8" fill="white"/>
</clipPath>
<clipPath id="clip1_35325_10459">
<rect width="11" height="11" fill="white" transform="translate(166.062 11) rotate(-45)"/>
</clipPath>
<clipPath id="clip2_35325_10459">
<rect width="11" height="11" fill="white" transform="translate(166.062 70) rotate(-45)"/>
</clipPath>
</defs>
</svg>
