<svg width="133" height="64" viewBox="0 0 133 64" fill="none" xmlns="http://www.w3.org/2000/svg">
<path d="M19.304 17.692C18.1947 17.692 17.2133 17.4467 16.36 16.956C15.5067 16.4653 14.8347 15.7827 14.344 14.908C13.864 14.0333 13.624 13.0307 13.624 11.9C13.624 10.7693 13.864 9.772 14.344 8.908C14.8347 8.03333 15.5013 7.35067 16.344 6.86C17.1867 6.35867 18.1573 6.108 19.256 6.108C20.3653 6.108 21.3413 6.35867 22.184 6.86C23.0373 7.35067 23.6987 8.03333 24.168 8.908C24.648 9.772 24.888 10.7693 24.888 11.9C24.888 13.0307 24.648 14.0333 24.168 14.908C23.6987 15.7827 23.0427 16.4653 22.2 16.956C21.368 17.4467 20.4027 17.692 19.304 17.692ZM19.304 15.996C20.0293 15.996 20.6693 15.82 21.224 15.468C21.7787 15.116 22.2107 14.636 22.52 14.028C22.84 13.4093 23 12.7 23 11.9C23 11.1107 22.84 10.4067 22.52 9.788C22.2 9.16933 21.7573 8.68933 21.192 8.348C20.6373 7.996 19.992 7.82 19.256 7.82C18.5307 7.82 17.8853 7.996 17.32 8.348C16.7653 8.68933 16.3227 9.16933 15.992 9.788C15.672 10.396 15.512 11.1 15.512 11.9C15.512 12.7 15.672 13.4093 15.992 14.028C16.3227 14.636 16.7707 15.116 17.336 15.468C17.912 15.82 18.568 15.996 19.304 15.996ZM26.5233 17.5V9.5H28.2033L28.3153 10.972V17.5H26.5233ZM31.9473 17.5V13.404H33.7393V17.5H31.9473ZM31.9473 13.404C31.9473 12.764 31.8726 12.2733 31.7233 11.932C31.5846 11.58 31.3819 11.3347 31.1153 11.196C30.8593 11.0573 30.5553 10.988 30.2033 10.988C29.6059 10.9773 29.1419 11.1747 28.8113 11.58C28.4806 11.9853 28.3153 12.5667 28.3153 13.324H27.6432C27.6432 12.4813 27.7659 11.7613 28.0113 11.164C28.2566 10.556 28.6086 10.0973 29.0673 9.788C29.5259 9.468 30.0699 9.308 30.6993 9.308C31.3393 9.308 31.8833 9.436 32.3313 9.692C32.7899 9.948 33.1366 10.348 33.3713 10.892C33.6166 11.4253 33.7393 12.124 33.7393 12.988V13.404H31.9473Z" fill="#505763"/>
<rect x="47" width="36" height="24" rx="12" fill="#1E90FF"/>
<circle cx="71" cy="12" r="10" fill="#EBF5FF"/>
<path d="M101.304 17.692C100.195 17.692 99.2133 17.4467 98.36 16.956C97.5067 16.4653 96.8347 15.7827 96.344 14.908C95.864 14.0333 95.624 13.0307 95.624 11.9C95.624 10.7693 95.864 9.772 96.344 8.908C96.8347 8.03333 97.5013 7.35067 98.344 6.86C99.1867 6.35867 100.157 6.108 101.256 6.108C102.365 6.108 103.341 6.35867 104.184 6.86C105.037 7.35067 105.699 8.03333 106.168 8.908C106.648 9.772 106.888 10.7693 106.888 11.9C106.888 13.0307 106.648 14.0333 106.168 14.908C105.699 15.7827 105.043 16.4653 104.2 16.956C103.368 17.4467 102.403 17.692 101.304 17.692ZM101.304 15.996C102.029 15.996 102.669 15.82 103.224 15.468C103.779 15.116 104.211 14.636 104.52 14.028C104.84 13.4093 105 12.7 105 11.9C105 11.1107 104.84 10.4067 104.52 9.788C104.2 9.16933 103.757 8.68933 103.192 8.348C102.637 7.996 101.992 7.82 101.256 7.82C100.531 7.82 99.8853 7.996 99.32 8.348C98.7653 8.68933 98.3227 9.16933 97.992 9.788C97.672 10.396 97.512 11.1 97.512 11.9C97.512 12.7 97.672 13.4093 97.992 14.028C98.3227 14.636 98.7707 15.116 99.336 15.468C99.912 15.82 100.568 15.996 101.304 15.996ZM109.323 17.5V8.652C109.323 7.80933 109.531 7.164 109.947 6.716C110.374 6.25733 111.014 6.028 111.867 6.028C112.145 6.028 112.438 6.076 112.747 6.172C113.067 6.25733 113.371 6.37467 113.659 6.524L113.003 7.852C112.801 7.756 112.619 7.68667 112.459 7.644C112.31 7.60133 112.177 7.58 112.059 7.58C111.739 7.58 111.499 7.68667 111.339 7.9C111.19 8.10267 111.115 8.43867 111.115 8.908V17.5H109.323ZM107.947 10.972V9.5H113.211V10.972H107.947ZM115.464 17.5V8.652C115.464 7.80933 115.672 7.164 116.088 6.716C116.515 6.25733 117.155 6.028 118.008 6.028C118.285 6.028 118.579 6.076 118.888 6.172C119.208 6.25733 119.512 6.37467 119.8 6.524L119.144 7.852C118.941 7.756 118.76 7.68667 118.6 7.644C118.451 7.60133 118.317 7.58 118.2 7.58C117.88 7.58 117.64 7.68667 117.48 7.9C117.331 8.10267 117.256 8.43867 117.256 8.908V17.5H115.464ZM114.088 10.972V9.5H119.352V10.972H114.088Z" fill="#505763"/>
<path d="M1.328 57.5V46.3H3.184V55.804H8.256V57.5H1.328ZM9.58838 57.5V49.5H11.3644V57.5H9.58838ZM10.4844 47.98C10.1964 47.98 9.94571 47.8787 9.73238 47.676C9.52971 47.4627 9.42838 47.212 9.42838 46.924C9.42838 46.636 9.52971 46.3907 9.73238 46.188C9.94571 45.9853 10.1964 45.884 10.4844 45.884C10.7724 45.884 11.0177 45.9853 11.2204 46.188C11.4337 46.3907 11.5404 46.636 11.5404 46.924C11.5404 47.212 11.4337 47.4627 11.2204 47.676C11.0177 47.8787 10.7724 47.98 10.4844 47.98ZM16.9164 60.908C16.351 60.908 15.839 60.86 15.3804 60.764C14.9324 60.668 14.5537 60.556 14.2444 60.428C13.935 60.3 13.695 60.1773 13.5244 60.06L14.2124 58.62C14.3617 58.6947 14.559 58.7853 14.8044 58.892C15.0604 59.0093 15.359 59.1107 15.7004 59.196C16.0417 59.2813 16.4257 59.324 16.8524 59.324C17.311 59.324 17.7217 59.228 18.0844 59.036C18.447 58.8547 18.7297 58.572 18.9324 58.188C19.135 57.804 19.2364 57.3133 19.2364 56.716V49.5H21.0284V56.668C21.0284 57.5747 20.8577 58.3427 20.5164 58.972C20.175 59.612 19.695 60.092 19.0764 60.412C18.4577 60.7427 17.7377 60.908 16.9164 60.908ZM16.6444 57.34C15.919 57.34 15.2844 57.1747 14.7404 56.844C14.207 56.5133 13.7857 56.0547 13.4764 55.468C13.1777 54.8707 13.0284 54.1827 13.0284 53.404C13.0284 52.572 13.1777 51.852 13.4764 51.244C13.7857 50.636 14.207 50.1613 14.7404 49.82C15.2844 49.4787 15.919 49.308 16.6444 49.308C17.295 49.308 17.8604 49.4787 18.3404 49.82C18.831 50.1613 19.2097 50.6413 19.4764 51.26C19.743 51.868 19.8764 52.588 19.8764 53.42C19.8764 54.2093 19.743 54.8973 19.4764 55.484C19.2097 56.0707 18.831 56.5293 18.3404 56.86C17.8604 57.18 17.295 57.34 16.6444 57.34ZM17.1404 55.82C17.5457 55.82 17.8977 55.7133 18.1964 55.5C18.5057 55.2867 18.7457 54.9987 18.9164 54.636C19.087 54.2627 19.1724 53.836 19.1724 53.356C19.1724 52.8653 19.087 52.4387 18.9164 52.076C18.7457 51.7027 18.5057 51.4147 18.1964 51.212C17.887 50.9987 17.5297 50.892 17.1244 50.892C16.6977 50.892 16.319 50.9987 15.9884 51.212C15.6684 51.4147 15.4124 51.7027 15.2204 52.076C15.039 52.4387 14.9484 52.8653 14.9484 53.356C14.9484 53.836 15.039 54.2627 15.2204 54.636C15.4124 54.9987 15.6737 55.2867 16.0044 55.5C16.335 55.7133 16.7137 55.82 17.1404 55.82ZM23.0236 57.5V46.3H24.8156V57.5H23.0236ZM28.4476 57.5V53.404H30.2396V57.5H28.4476ZM28.4476 53.404C28.4476 52.764 28.373 52.2733 28.2236 51.932C28.0743 51.58 27.8663 51.3347 27.5996 51.196C27.3436 51.0573 27.045 50.988 26.7036 50.988C26.0956 50.9773 25.6263 51.1747 25.2956 51.58C24.9756 51.9853 24.8156 52.5667 24.8156 53.324H24.1276C24.1276 52.4813 24.2503 51.7613 24.4956 51.164C24.7516 50.556 25.109 50.0973 25.5676 49.788C26.0263 49.468 26.5703 49.308 27.1996 49.308C27.829 49.308 28.373 49.436 28.8316 49.692C29.2903 49.948 29.637 50.348 29.8716 50.892C30.117 51.4253 30.2396 52.124 30.2396 52.988V53.404H28.4476ZM35.2385 57.692C34.3958 57.692 33.7505 57.484 33.3025 57.068C32.8652 56.6413 32.6465 56.0333 32.6465 55.244V47.004H34.4225V54.908C34.4225 55.2813 34.5078 55.564 34.6785 55.756C34.8598 55.948 35.1212 56.044 35.4625 56.044C35.5692 56.044 35.6865 56.0227 35.8145 55.98C35.9425 55.9373 36.0865 55.8573 36.2465 55.74L36.9025 57.1C36.6252 57.292 36.3478 57.436 36.0705 57.532C35.7932 57.6387 35.5158 57.692 35.2385 57.692ZM31.3185 51.036V49.5H36.5825V51.036H31.3185Z" fill="#505763"/>
<rect x="50" y="40" width="36" height="24" rx="12" fill="#DFE4ED"/>
<circle cx="62" cy="52" r="10" fill="#FBFCFE"/>
<path d="M99.328 57.5V46.3H102.848C103.947 46.3 104.917 46.54 105.76 47.02C106.613 47.4893 107.28 48.1453 107.76 48.988C108.251 49.8307 108.496 50.8013 108.496 51.9C108.496 52.988 108.251 53.9533 107.76 54.796C107.28 55.6387 106.613 56.3 105.76 56.78C104.917 57.26 103.947 57.5 102.848 57.5H99.328ZM101.184 55.772H102.848C103.371 55.772 103.861 55.676 104.32 55.484C104.779 55.2813 105.179 55.004 105.52 54.652C105.861 54.3 106.128 53.8893 106.32 53.42C106.512 52.9507 106.608 52.444 106.608 51.9C106.608 51.356 106.512 50.8493 106.32 50.38C106.128 49.9107 105.861 49.5 105.52 49.148C105.179 48.796 104.779 48.524 104.32 48.332C103.861 48.1293 103.371 48.028 102.848 48.028H101.184V55.772ZM115.893 57.5L115.813 56.012V49.5H117.589V57.5H115.893ZM113.285 57.692C112.56 57.692 111.925 57.5213 111.381 57.18C110.848 56.828 110.426 56.3373 110.117 55.708C109.818 55.0787 109.669 54.3427 109.669 53.5C109.669 52.6467 109.818 51.9107 110.117 51.292C110.426 50.6627 110.848 50.1773 111.381 49.836C111.925 49.484 112.56 49.308 113.285 49.308C113.957 49.308 114.533 49.484 115.013 49.836C115.504 50.1773 115.877 50.6627 116.133 51.292C116.389 51.9107 116.517 52.6467 116.517 53.5C116.517 54.3427 116.389 55.0787 116.133 55.708C115.877 56.3373 115.504 56.828 115.013 57.18C114.533 57.5213 113.957 57.692 113.285 57.692ZM113.733 56.06C114.138 56.06 114.496 55.9533 114.805 55.74C115.125 55.516 115.37 55.212 115.541 54.828C115.722 54.444 115.813 54.0013 115.813 53.5C115.813 52.9987 115.722 52.556 115.541 52.172C115.37 51.788 115.125 51.4893 114.805 51.276C114.496 51.0627 114.133 50.956 113.717 50.956C113.29 50.956 112.912 51.0627 112.581 51.276C112.25 51.4893 111.989 51.788 111.797 52.172C111.616 52.556 111.52 52.9987 111.509 53.5C111.52 54.0013 111.616 54.444 111.797 54.828C111.989 55.212 112.25 55.516 112.581 55.74C112.922 55.9533 113.306 56.06 113.733 56.06ZM120.754 53.244C120.754 52.38 120.919 51.6707 121.25 51.116C121.581 50.5613 122.007 50.1507 122.53 49.884C123.063 49.6067 123.618 49.468 124.194 49.468V51.18C123.703 51.18 123.239 51.2493 122.802 51.388C122.375 51.516 122.029 51.7293 121.762 52.028C121.495 52.3267 121.362 52.7213 121.362 53.212L120.754 53.244ZM119.57 57.5V49.5H121.362V57.5H119.57ZM127.095 55.26L126.007 54.028L130.167 49.5H132.327L127.095 55.26ZM125.383 57.5V46.3H127.175V57.5H125.383ZM130.471 57.5L127.655 53.356L128.823 52.108L132.599 57.5H130.471Z" fill="#505763"/>
</svg>
