<svg width="200" height="80" viewBox="0 0 200 80" fill="none" xmlns="http://www.w3.org/2000/svg">
<rect x="0.714286" y="0.714286" width="198.571" height="78.5714" rx="7.28571" fill="#EFF2F8"/>
<rect x="0.714286" y="0.714286" width="198.571" height="78.5714" rx="7.28571" stroke="#C9D0DE" stroke-width="1.42857" stroke-dasharray="5.71 2.86"/>
<path d="M99.9965 44.9704C99.7385 44.9704 99.5252 44.8861 99.3566 44.7174C99.1879 44.5488 99.1036 44.3355 99.1036 44.0775V33.9287L96.1572 36.8752C95.9786 37.0537 95.7703 37.1381 95.5322 37.1281C95.2941 37.1182 95.0858 37.024 94.9072 36.8454C94.7286 36.6668 94.6393 36.4535 94.6393 36.2055C94.6393 35.9575 94.7286 35.7442 94.9072 35.5656L99.3715 31.1014C99.4707 31.0021 99.5699 30.9327 99.6691 30.893C99.7683 30.8533 99.8774 30.8335 99.9965 30.8335C100.116 30.8335 100.225 30.8533 100.324 30.893C100.423 30.9327 100.522 31.0021 100.621 31.1014L105.116 35.5954C105.294 35.774 105.383 35.9823 105.383 36.2204C105.383 36.4585 105.294 36.6668 105.116 36.8454C104.937 37.024 104.724 37.1133 104.476 37.1133C104.228 37.1133 104.014 37.024 103.836 36.8454L100.889 33.9287V44.0775C100.889 44.3355 100.805 44.5488 100.636 44.7174C100.468 44.8861 100.254 44.9704 99.9965 44.9704ZM92.2584 49.524C91.7822 49.524 91.3655 49.3454 91.0084 48.9883C90.6512 48.6311 90.4727 48.2144 90.4727 47.7383V44.3752C90.4727 44.1172 90.557 43.9039 90.7256 43.7353C90.8943 43.5666 91.1076 43.4823 91.3655 43.4823C91.6234 43.4823 91.8367 43.5666 92.0054 43.7353C92.174 43.9039 92.2584 44.1172 92.2584 44.3752V47.7383H107.735V44.3752C107.735 44.1172 107.819 43.9039 107.988 43.7353C108.156 43.5666 108.369 43.4823 108.627 43.4823C108.885 43.4823 109.099 43.5666 109.267 43.7353C109.436 43.9039 109.52 44.1172 109.52 44.3752V47.7383C109.52 48.2144 109.342 48.6311 108.985 48.9883C108.627 49.3454 108.211 49.524 107.735 49.524H92.2584Z" fill="#505763"/>
</svg>
