<svg width="501" height="257" viewBox="0 0 501 257" fill="none" xmlns="http://www.w3.org/2000/svg">
<g clip-path="url(#clip0_34660_78789)">
<path d="M114.318 233.581C109.727 233.581 105.872 232.02 102.75 228.899C99.6291 225.594 98.0684 221.555 98.0684 216.781V87.3391L103.852 88.7162L50.6981 154.539L49.3211 150.958H146.816C151.222 150.958 154.894 152.427 157.832 155.365C160.77 158.303 162.239 161.975 162.239 166.381C162.239 170.604 160.77 174.185 157.832 177.122C154.894 179.876 151.222 181.253 146.816 181.253H26.4622C22.6065 181.253 18.8426 179.693 15.1704 176.571C11.6819 173.45 9.93768 169.594 9.93768 165.004C9.93768 160.965 11.3147 157.293 14.0688 153.988L101.098 47.4049C102.567 45.3852 104.495 43.8246 106.881 42.7229C109.268 41.4377 111.931 40.7951 114.868 40.7951C119.642 40.7951 123.498 42.4475 126.435 45.7524C129.557 48.8737 131.117 52.8212 131.117 57.595V216.781C131.117 221.555 129.465 225.594 126.16 228.899C123.039 232.02 119.091 233.581 114.318 233.581ZM253.644 236.335C237.854 236.335 224.451 232.204 213.434 223.942C202.602 215.496 194.339 203.837 188.648 188.965C182.956 173.909 180.11 156.65 180.11 137.188C180.11 117.542 182.956 100.283 188.648 85.4112C194.339 70.5392 202.602 58.972 213.434 50.7098C224.451 42.2639 237.854 38.041 253.644 38.041C269.434 38.041 282.746 42.2639 293.578 50.7098C304.595 58.972 312.949 70.5392 318.641 85.4112C324.332 100.283 327.178 117.542 327.178 137.188C327.178 156.65 324.332 173.909 318.641 188.965C312.949 203.837 304.595 215.496 293.578 223.942C282.746 232.204 269.434 236.335 253.644 236.335ZM253.644 203.286C261.356 203.286 267.965 200.899 273.474 196.125C279.165 191.168 283.572 183.824 286.693 174.093C289.814 164.178 291.375 151.877 291.375 137.188C291.375 122.316 289.814 110.014 286.693 100.283C283.572 90.5522 279.165 83.2998 273.474 78.526C267.965 73.5687 261.356 71.09 253.644 71.09C246.116 71.09 239.506 73.5687 233.815 78.526C228.123 83.2998 223.716 90.5522 220.595 100.283C217.474 110.014 215.913 122.316 215.913 137.188C215.913 151.877 217.474 164.178 220.595 174.093C223.716 183.824 228.123 191.168 233.815 196.125C239.506 200.899 246.116 203.286 253.644 203.286ZM445.399 233.581C440.809 233.581 436.954 232.02 433.832 228.899C430.711 225.594 429.15 221.555 429.15 216.781V87.3391L434.934 88.7162L381.78 154.539L380.403 150.958H477.898C482.304 150.958 485.976 152.427 488.914 155.365C491.852 158.303 493.321 161.975 493.321 166.381C493.321 170.604 491.852 174.185 488.914 177.122C485.976 179.876 482.304 181.253 477.898 181.253H357.544C353.688 181.253 349.924 179.693 346.252 176.571C342.764 173.45 341.02 169.594 341.02 165.004C341.02 160.965 342.397 157.293 345.151 153.988L432.18 47.4049C433.649 45.3852 435.577 43.8246 437.963 42.7229C440.35 41.4377 443.013 40.7951 445.95 40.7951C450.724 40.7951 454.58 42.4475 457.517 45.7524C460.639 48.8737 462.199 52.8212 462.199 57.595V216.781C462.199 221.555 460.547 225.594 457.242 228.899C454.121 232.02 450.173 233.581 445.399 233.581Z" fill="#1D2025"/>
<path d="M108.075 228.937C103.485 228.937 99.6295 227.376 96.5082 224.255C93.387 220.95 91.8263 216.91 91.8263 212.137V82.6946L97.6099 84.0716L44.456 149.894L43.079 146.314H140.574C144.98 146.314 148.652 147.783 151.59 150.72C154.528 153.658 155.996 157.33 155.996 161.737C155.996 165.96 154.528 169.54 151.59 172.478C148.652 175.232 144.98 176.609 140.574 176.609H20.2201C16.3644 176.609 12.6004 175.048 8.92833 171.927C5.43982 168.806 3.69557 164.95 3.69557 160.36C3.69557 156.32 5.07261 152.648 7.8267 149.343L94.8558 42.7603C96.3246 40.7407 98.2525 39.18 100.639 38.0784C103.026 36.7932 105.689 36.1505 108.626 36.1505C113.4 36.1505 117.256 37.803 120.193 41.1079C123.315 44.2292 124.875 48.1767 124.875 52.9505V212.137C124.875 216.91 123.223 220.95 119.918 224.255C116.797 227.376 112.849 228.937 108.075 228.937ZM247.402 231.691C231.612 231.691 218.209 227.559 207.192 219.297C196.36 210.851 188.097 199.192 182.406 184.32C176.714 169.265 173.868 152.006 173.868 132.544C173.868 112.898 176.714 95.6388 182.406 80.7667C188.097 65.8947 196.36 54.3275 207.192 46.0652C218.209 37.6194 231.612 33.3965 247.402 33.3965C263.192 33.3965 276.504 37.6194 287.336 46.0652C298.353 54.3275 306.707 65.8947 312.398 80.7667C318.09 95.6388 320.936 112.898 320.936 132.544C320.936 152.006 318.09 169.265 312.398 184.32C306.707 199.192 298.353 210.851 287.336 219.297C276.504 227.559 263.192 231.691 247.402 231.691ZM247.402 198.642C255.113 198.642 261.723 196.255 267.231 191.481C272.923 186.524 277.33 179.179 280.451 169.448C283.572 159.534 285.133 147.232 285.133 132.544C285.133 117.671 283.572 105.37 280.451 95.6388C277.33 85.9077 272.923 78.6553 267.231 73.8815C261.723 68.9242 255.113 66.4455 247.402 66.4455C239.874 66.4455 233.264 68.9242 227.573 73.8815C221.881 78.6553 217.474 85.9077 214.353 95.6388C211.232 105.37 209.671 117.671 209.671 132.544C209.671 147.232 211.232 159.534 214.353 169.448C217.474 179.179 221.881 186.524 227.573 191.481C233.264 196.255 239.874 198.642 247.402 198.642ZM439.157 228.937C434.567 228.937 430.712 227.376 427.59 224.255C424.469 220.95 422.908 216.91 422.908 212.137V82.6946L428.692 84.0716L375.538 149.894L374.161 146.314H471.656C476.062 146.314 479.734 147.783 482.672 150.72C485.61 153.658 487.078 157.33 487.078 161.737C487.078 165.96 485.61 169.54 482.672 172.478C479.734 175.232 476.062 176.609 471.656 176.609H351.302C347.446 176.609 343.682 175.048 340.01 171.927C336.522 168.806 334.778 164.95 334.778 160.36C334.778 156.32 336.155 152.648 338.909 149.343L425.938 42.7603C427.407 40.7407 429.334 39.18 431.721 38.0784C434.108 36.7932 436.77 36.1505 439.708 36.1505C444.482 36.1505 448.338 37.803 451.275 41.1079C454.397 44.2292 455.957 48.1767 455.957 52.9505V212.137C455.957 216.91 454.305 220.95 451 224.255C447.879 227.376 443.931 228.937 439.157 228.937Z" fill="#1E90FF"/>
</g>
<defs>
<clipPath id="clip0_34660_78789">
<rect width="499.25" height="256.518" fill="white" transform="translate(0.933594)"/>
</clipPath>
</defs>
</svg>
