<svg width="500" height="257" viewBox="0 0 500 257" fill="none" xmlns="http://www.w3.org/2000/svg">
<g clip-path="url(#clip0_34641_74026)">
<path d="M113.759 233.581C109.169 233.581 105.313 232.02 102.192 228.899C99.0705 225.594 97.5098 221.555 97.5098 216.781V87.3391L103.293 88.7162L50.1396 154.539L48.7625 150.958H146.257C150.664 150.958 154.336 152.427 157.273 155.365C160.211 158.303 161.68 161.975 161.68 166.381C161.68 170.604 160.211 174.185 157.273 177.122C154.336 179.876 150.664 181.253 146.257 181.253H25.9036C22.0479 181.253 18.284 179.693 14.6118 176.571C11.1233 173.45 9.37909 169.594 9.37909 165.004C9.37909 160.965 10.7561 157.293 13.5102 153.988L100.539 47.4049C102.008 45.3852 103.936 43.8246 106.323 42.7229C108.71 41.4377 111.372 40.7951 114.31 40.7951C119.083 40.7951 122.939 42.4475 125.877 45.7524C128.998 48.8737 130.559 52.8212 130.559 57.595V216.781C130.559 221.555 128.906 225.594 125.601 228.899C122.48 232.02 118.533 233.581 113.759 233.581ZM253.086 236.335C237.295 236.335 223.892 232.204 212.876 223.942C202.043 215.496 193.781 203.837 188.089 188.965C182.397 173.909 179.551 156.65 179.551 137.188C179.551 117.542 182.397 100.283 188.089 85.4112C193.781 70.5392 202.043 58.972 212.876 50.7098C223.892 42.2639 237.295 38.041 253.086 38.041C268.876 38.041 282.187 42.2639 293.02 50.7098C304.036 58.972 312.39 70.5392 318.082 85.4112C323.774 100.283 326.62 117.542 326.62 137.188C326.62 156.65 323.774 173.909 318.082 188.965C312.39 203.837 304.036 215.496 293.02 223.942C282.187 232.204 268.876 236.335 253.086 236.335ZM253.086 203.286C260.797 203.286 267.407 200.899 272.915 196.125C278.607 191.168 283.013 183.824 286.135 174.093C289.256 164.178 290.816 151.877 290.816 137.188C290.816 122.316 289.256 110.014 286.135 100.283C283.013 90.5522 278.607 83.2998 272.915 78.526C267.407 73.5687 260.797 71.09 253.086 71.09C245.558 71.09 238.948 73.5687 233.256 78.526C227.564 83.2998 223.158 90.5522 220.036 100.283C216.915 110.014 215.355 122.316 215.355 137.188C215.355 151.877 216.915 164.178 220.036 174.093C223.158 183.824 227.564 191.168 233.256 196.125C238.948 200.899 245.558 203.286 253.086 203.286ZM444.841 233.581C440.251 233.581 436.395 232.02 433.274 228.899C430.152 225.594 428.592 221.555 428.592 216.781V87.3391L434.375 88.7162L381.221 154.539L379.844 150.958H477.339C481.746 150.958 485.418 152.427 488.355 155.365C491.293 158.303 492.762 161.975 492.762 166.381C492.762 170.604 491.293 174.185 488.355 177.122C485.418 179.876 481.746 181.253 477.339 181.253H356.986C353.13 181.253 349.366 179.693 345.694 176.571C342.205 173.45 340.461 169.594 340.461 165.004C340.461 160.965 341.838 157.293 344.592 153.988L431.621 47.4049C433.09 45.3852 435.018 43.8246 437.405 42.7229C439.792 41.4377 442.454 40.7951 445.392 40.7951C450.165 40.7951 454.021 42.4475 456.959 45.7524C460.08 48.8737 461.641 52.8212 461.641 57.595V216.781C461.641 221.555 459.988 225.594 456.683 228.899C453.562 232.02 449.615 233.581 444.841 233.581Z" fill="#EFF2F8"/>
<path d="M107.513 228.937C102.923 228.937 99.067 227.376 95.9457 224.255C92.8245 220.95 91.2638 216.91 91.2638 212.137V82.6946L97.0474 84.0716L43.8935 149.894L42.5165 146.314H140.011C144.418 146.314 148.09 147.783 151.027 150.72C153.965 153.658 155.434 157.33 155.434 161.737C155.434 165.96 153.965 169.54 151.027 172.478C148.09 175.232 144.418 176.609 140.011 176.609H19.6576C15.8019 176.609 12.0379 175.048 8.36583 171.927C4.87732 168.806 3.13307 164.95 3.13307 160.36C3.13307 156.32 4.51011 152.648 7.2642 149.343L94.2933 42.7603C95.7621 40.7407 97.69 39.18 100.077 38.0784C102.464 36.7932 105.126 36.1505 108.064 36.1505C112.837 36.1505 116.693 37.803 119.631 41.1079C122.752 44.2292 124.313 48.1767 124.313 52.9505V212.137C124.313 216.91 122.66 220.95 119.355 224.255C116.234 227.376 112.287 228.937 107.513 228.937ZM246.84 231.691C231.049 231.691 217.646 227.559 206.63 219.297C195.797 210.851 187.535 199.192 181.843 184.32C176.151 169.265 173.305 152.006 173.305 132.544C173.305 112.898 176.151 95.6388 181.843 80.7667C187.535 65.8947 195.797 54.3275 206.63 46.0652C217.646 37.6194 231.049 33.3965 246.84 33.3965C262.63 33.3965 275.941 37.6194 286.774 46.0652C297.79 54.3275 306.144 65.8947 311.836 80.7667C317.528 95.6388 320.374 112.898 320.374 132.544C320.374 152.006 317.528 169.265 311.836 184.32C306.144 199.192 297.79 210.851 286.774 219.297C275.941 227.559 262.63 231.691 246.84 231.691ZM246.84 198.642C254.551 198.642 261.161 196.255 266.669 191.481C272.361 186.524 276.767 179.179 279.889 169.448C283.01 159.534 284.57 147.232 284.57 132.544C284.57 117.671 283.01 105.37 279.889 95.6388C276.767 85.9077 272.361 78.6553 266.669 73.8815C261.161 68.9242 254.551 66.4455 246.84 66.4455C239.312 66.4455 232.702 68.9242 227.01 73.8815C221.318 78.6553 216.912 85.9077 213.79 95.6388C210.669 105.37 209.109 117.671 209.109 132.544C209.109 147.232 210.669 159.534 213.79 169.448C216.912 179.179 221.318 186.524 227.01 191.481C232.702 196.255 239.312 198.642 246.84 198.642ZM438.595 228.937C434.005 228.937 430.149 227.376 427.028 224.255C423.906 220.95 422.346 216.91 422.346 212.137V82.6946L428.129 84.0716L374.975 149.894L373.598 146.314H471.093C475.5 146.314 479.172 147.783 482.109 150.72C485.047 153.658 486.516 157.33 486.516 161.737C486.516 165.96 485.047 169.54 482.109 172.478C479.172 175.232 475.5 176.609 471.093 176.609H350.74C346.884 176.609 343.12 175.048 339.448 171.927C335.959 168.806 334.215 164.95 334.215 160.36C334.215 156.32 335.592 152.648 338.346 149.343L425.375 42.7603C426.844 40.7407 428.772 39.18 431.159 38.0784C433.546 36.7932 436.208 36.1505 439.146 36.1505C443.919 36.1505 447.775 37.803 450.713 41.1079C453.834 44.2292 455.395 48.1767 455.395 52.9505V212.137C455.395 216.91 453.742 220.95 450.437 224.255C447.316 227.376 443.369 228.937 438.595 228.937Z" fill="#4DA7FF"/>
</g>
<defs>
<clipPath id="clip0_34641_74026">
<rect width="499.25" height="256.518" fill="white" transform="translate(0.375)"/>
</clipPath>
</defs>
</svg>
