<svg width="200" height="54" viewBox="0 0 200 54" fill="none" xmlns="http://www.w3.org/2000/svg">
<rect width="200" height="54" rx="8" fill="#07080A"/>
<rect x="0.5" y="0.5" width="199" height="53" rx="7.5" stroke="#1D2025" stroke-opacity="0.6"/>
<path d="M8 26C8 16.0589 16.0589 8 26 8V8C35.9411 8 44 16.0589 44 26V26C44 35.9411 35.9411 44 26 44V44C16.0589 44 8 35.9411 8 26V26Z" fill="#111317"/>
<path d="M17.9167 33.5013C17.6806 33.5013 17.5 33.3971 17.375 33.1888C17.25 32.9805 17.25 32.7721 17.375 32.5638L25.4583 18.6055C25.5833 18.3971 25.7639 18.293 26 18.293C26.2361 18.293 26.4167 18.3971 26.5417 18.6055L34.625 32.5638C34.75 32.7721 34.75 32.9805 34.625 33.1888C34.5 33.3971 34.3194 33.5013 34.0833 33.5013H17.9167ZM26.0833 24.0846C25.9028 24.0846 25.7535 24.1437 25.6354 24.2617C25.5174 24.3798 25.4583 24.5291 25.4583 24.7096V28.1263C25.4583 28.3069 25.5174 28.4562 25.6354 28.5742C25.7535 28.6923 25.9028 28.7513 26.0833 28.7513C26.2639 28.7513 26.4132 28.6923 26.5312 28.5742C26.6493 28.4562 26.7083 28.3069 26.7083 28.1263V24.7096C26.7083 24.5291 26.6493 24.3798 26.5312 24.2617C26.4132 24.1437 26.2639 24.0846 26.0833 24.0846ZM26.0833 31.0638C26.2639 31.0638 26.4132 31.0048 26.5312 30.8867C26.6493 30.7687 26.7083 30.6194 26.7083 30.4388C26.7083 30.2582 26.6493 30.1089 26.5312 29.9909C26.4132 29.8728 26.2639 29.8138 26.0833 29.8138C25.9028 29.8138 25.7535 29.8728 25.6354 29.9909C25.5174 30.1089 25.4583 30.2582 25.4583 30.4388C25.4583 30.6194 25.5174 30.7687 25.6354 30.8867C25.7535 31.0048 25.9028 31.0638 26.0833 31.0638ZM19 32.2513H33L26 20.168L19 32.2513Z" fill="#A4ABB9"/>
<rect x="52" y="8" width="95.084" height="10" rx="2" fill="#505763"/>
<rect x="52" y="26" width="140" height="8" rx="2" fill="#1D2025"/>
<rect x="52" y="38" width="67.6396" height="8" rx="2" fill="#1D2025"/>
</svg>
