<svg width="200" height="90" viewBox="0 0 200 90" fill="none" xmlns="http://www.w3.org/2000/svg">
<rect x="83.5" y="0.5" width="33" height="33" rx="16.5" stroke="#FBFCFE"/>
<g clip-path="url(#clip0_34356_68855)">
<rect x="84" y="1" width="32" height="32" fill="#C9D0DE"/>
<rect x="93.75" y="22" width="14.25" height="12.5" rx="6.25" transform="rotate(-90 93.75 22)" fill="#FBFCFE"/>
<path d="M90.2383 33.028C90.2383 28.2226 93.3636 24.1858 98.1201 23.5016V23.5016C99.0647 23.3657 100.765 23.3611 101.709 23.5013V23.5013C106.459 24.207 109.684 28.2444 109.684 33.0467V33.0467C109.684 38.3931 105.323 42.7645 99.9766 42.7645V42.7645C94.6134 42.7645 90.2383 38.3913 90.2383 33.028V33.028Z" fill="#FBFCFE"/>
<rect x="97.25" y="19.75" width="5.5" height="5.5" fill="#FBFCFE"/>
</g>
<rect x="27.5" y="56.5" width="33" height="33" rx="16.5" stroke="#FBFCFE"/>
<g clip-path="url(#clip1_34356_68855)">
<rect x="28" y="57" width="32" height="32" fill="#C9D0DE"/>
<rect x="37.75" y="78" width="14.25" height="12.5" rx="6.25" transform="rotate(-90 37.75 78)" fill="#FBFCFE"/>
<path d="M34.2383 89.028C34.2383 84.2226 37.3636 80.1858 42.1201 79.5016V79.5016C43.0647 79.3657 44.765 79.3611 45.709 79.5013V79.5013C50.4592 80.207 53.6844 84.2444 53.6844 89.0467V89.0467C53.6844 94.3931 49.3231 98.7645 43.9766 98.7645V98.7645C38.6134 98.7645 34.2383 94.3913 34.2383 89.028V89.028Z" fill="#FBFCFE"/>
<rect x="41.25" y="75.75" width="5.5" height="5.5" fill="#FBFCFE"/>
</g>
<rect x="55.5" y="56.5" width="33" height="33" rx="16.5" stroke="#FBFCFE"/>
<g clip-path="url(#clip2_34356_68855)">
<rect x="56" y="57" width="32" height="32" fill="#C9D0DE"/>
<rect x="65.75" y="78" width="14.25" height="12.5" rx="6.25" transform="rotate(-90 65.75 78)" fill="#FBFCFE"/>
<path d="M62.2383 89.028C62.2383 84.2226 65.3636 80.1858 70.1201 79.5016V79.5016C71.0647 79.3657 72.765 79.3611 73.709 79.5013V79.5013C78.4592 80.207 81.6844 84.2444 81.6844 89.0467V89.0467C81.6844 94.3931 77.3231 98.7645 71.9766 98.7645V98.7645C66.6134 98.7645 62.2383 94.3913 62.2383 89.028V89.028Z" fill="#FBFCFE"/>
<rect x="69.25" y="75.75" width="5.5" height="5.5" fill="#FBFCFE"/>
</g>
<rect x="83.5" y="56.5" width="33" height="33" rx="16.5" stroke="#FBFCFE"/>
<g clip-path="url(#clip3_34356_68855)">
<rect x="84" y="57" width="32" height="32" fill="#C9D0DE"/>
<rect x="93.75" y="78" width="14.25" height="12.5" rx="6.25" transform="rotate(-90 93.75 78)" fill="#FBFCFE"/>
<path d="M90.2383 89.028C90.2383 84.2226 93.3636 80.1858 98.1201 79.5016V79.5016C99.0647 79.3657 100.765 79.3611 101.709 79.5013V79.5013C106.459 80.207 109.684 84.2444 109.684 89.0467V89.0467C109.684 94.3931 105.323 98.7645 99.9766 98.7645V98.7645C94.6134 98.7645 90.2383 94.3913 90.2383 89.028V89.028Z" fill="#FBFCFE"/>
<rect x="97.25" y="75.75" width="5.5" height="5.5" fill="#FBFCFE"/>
</g>
<rect x="111.5" y="56.5" width="33" height="33" rx="16.5" stroke="#FBFCFE"/>
<g clip-path="url(#clip4_34356_68855)">
<rect x="112" y="57" width="32" height="32" fill="#C9D0DE"/>
<rect x="121.75" y="78" width="14.25" height="12.5" rx="6.25" transform="rotate(-90 121.75 78)" fill="#FBFCFE"/>
<path d="M118.238 89.028C118.238 84.2226 121.364 80.1858 126.12 79.5016V79.5016C127.065 79.3657 128.765 79.3611 129.709 79.5013V79.5013C134.459 80.207 137.684 84.2444 137.684 89.0467V89.0467C137.684 94.3931 133.323 98.7645 127.977 98.7645V98.7645C122.613 98.7645 118.238 94.3913 118.238 89.028V89.028Z" fill="#FBFCFE"/>
<rect x="125.25" y="75.75" width="5.5" height="5.5" fill="#FBFCFE"/>
</g>
<rect x="139.5" y="56.5" width="33" height="33" rx="16.5" stroke="#FBFCFE"/>
<g clip-path="url(#clip5_34356_68855)">
<rect x="140" y="57" width="32" height="32" fill="#C9D0DE"/>
<rect x="149.75" y="78" width="14.25" height="12.5" rx="6.25" transform="rotate(-90 149.75 78)" fill="#FBFCFE"/>
<path d="M146.238 89.028C146.238 84.2226 149.364 80.1858 154.12 79.5016V79.5016C155.065 79.3657 156.765 79.3611 157.709 79.5013V79.5013C162.459 80.207 165.684 84.2444 165.684 89.0467V89.0467C165.684 94.3931 161.323 98.7645 155.977 98.7645V98.7645C150.613 98.7645 146.238 94.3913 146.238 89.028V89.028Z" fill="#FBFCFE"/>
<rect x="153.25" y="75.75" width="5.5" height="5.5" fill="#FBFCFE"/>
</g>
<defs>
<clipPath id="clip0_34356_68855">
<rect x="84" y="1" width="32" height="32" rx="16" fill="white"/>
</clipPath>
<clipPath id="clip1_34356_68855">
<rect x="28" y="57" width="32" height="32" rx="16" fill="white"/>
</clipPath>
<clipPath id="clip2_34356_68855">
<rect x="56" y="57" width="32" height="32" rx="16" fill="white"/>
</clipPath>
<clipPath id="clip3_34356_68855">
<rect x="84" y="57" width="32" height="32" rx="16" fill="white"/>
</clipPath>
<clipPath id="clip4_34356_68855">
<rect x="112" y="57" width="32" height="32" rx="16" fill="white"/>
</clipPath>
<clipPath id="clip5_34356_68855">
<rect x="140" y="57" width="32" height="32" rx="16" fill="white"/>
</clipPath>
</defs>
</svg>
