<svg width="200" height="100" viewBox="0 0 200 100" fill="none" xmlns="http://www.w3.org/2000/svg">
<rect width="200" height="100" rx="8" fill="white"/>
<rect x="0.5" y="0.5" width="199" height="99" rx="7.5" stroke="#C9D0DE" stroke-opacity="0.6"/>
<path d="M19.2305 54.0413L15.1055 49.9163C15.036 49.8469 14.9874 49.7775 14.9596 49.708C14.9319 49.6386 14.918 49.5622 14.918 49.4788C14.918 49.3955 14.9319 49.3191 14.9596 49.2497C14.9874 49.1802 15.036 49.1108 15.1055 49.0413L19.2513 44.8955C19.3763 44.7705 19.5256 44.708 19.6992 44.708C19.8728 44.708 20.0221 44.7705 20.1471 44.8955C20.2721 45.0205 20.3312 45.1733 20.3242 45.3538C20.3173 45.5344 20.2513 45.6872 20.1263 45.8122L16.4596 49.4788L20.1471 53.1663C20.2721 53.2913 20.3346 53.4372 20.3346 53.6038C20.3346 53.7705 20.2721 53.9163 20.1471 54.0413C20.0221 54.1663 19.8694 54.2288 19.6888 54.2288C19.5082 54.2288 19.3555 54.1663 19.2305 54.0413Z" fill="#505763"/>
<path d="M94.65 54.575H105.375C105.542 54.575 105.658 54.5083 105.725 54.375C105.792 54.2417 105.775 54.1083 105.675 53.975L102.75 50.075C102.667 49.975 102.567 49.925 102.45 49.925C102.333 49.925 102.233 49.975 102.15 50.075L99.15 53.95L97.125 51.175C97.0417 51.075 96.9417 51.025 96.825 51.025C96.7083 51.025 96.6083 51.075 96.525 51.175L94.375 53.975C94.2917 54.1083 94.2792 54.2417 94.3375 54.375C94.3958 54.5083 94.5 54.575 94.65 54.575ZM92.5 58.5C92.1 58.5 91.75 58.35 91.45 58.05C91.15 57.75 91 57.4 91 57V42C91 41.6 91.15 41.25 91.45 40.95C91.75 40.65 92.1 40.5 92.5 40.5H107.5C107.9 40.5 108.25 40.65 108.55 40.95C108.85 41.25 109 41.6 109 42V57C109 57.4 108.85 57.75 108.55 58.05C108.25 58.35 107.9 58.5 107.5 58.5H92.5ZM92.5 57H107.5V42H92.5V57ZM92.5 42V57V42Z" fill="#505763"/>
<path d="M179.373 54.0425C179.262 53.9036 179.203 53.7508 179.196 53.5842C179.189 53.4175 179.248 53.2717 179.373 53.1467L183.04 49.48L179.352 45.7925C179.241 45.6814 179.189 45.5321 179.196 45.3446C179.203 45.1571 179.262 45.0078 179.373 44.8967C179.512 44.7578 179.661 44.6918 179.821 44.6987C179.981 44.7057 180.123 44.7717 180.248 44.8967L184.394 49.0425C184.463 49.1119 184.512 49.1814 184.54 49.2508C184.567 49.3203 184.581 49.3967 184.581 49.48C184.581 49.5633 184.567 49.6397 184.54 49.7092C184.512 49.7786 184.463 49.848 184.394 49.9175L180.269 54.0425C180.144 54.1675 179.998 54.2265 179.831 54.2196C179.665 54.2126 179.512 54.1536 179.373 54.0425Z" fill="#505763"/>
<circle cx="86" cy="89.5" r="2.5" fill="#DFE4ED"/>
<circle cx="93" cy="89.5" r="2.5" fill="#DFE4ED"/>
<circle cx="100" cy="89.5" r="2.5" fill="#C9D0DE"/>
<circle cx="107" cy="89.5" r="2.5" fill="#DFE4ED"/>
<circle cx="114" cy="89.5" r="2.5" fill="#DFE4ED"/>
</svg>
