<svg width="172" height="92" viewBox="0 0 172 92" fill="none" xmlns="http://www.w3.org/2000/svg">
<rect y="2" width="16" height="16" rx="6" fill="#4DA7FF"/>
<rect y="2" width="16" height="16" rx="4" fill="#4DA7FF"/>
<path d="M6.30182 13.7009C6.23516 13.7009 6.17404 13.6898 6.11849 13.6676C6.06293 13.6454 6.00738 13.6065 5.95182 13.5509L2.93516 10.5342C2.83516 10.4342 2.78516 10.312 2.78516 10.1676C2.78516 10.0231 2.83516 9.90091 2.93516 9.80091C3.03516 9.70091 3.15182 9.65091 3.28516 9.65091C3.41849 9.65091 3.53516 9.70091 3.63516 9.80091L6.30182 12.4676L12.3518 6.41758C12.4518 6.31758 12.5713 6.26758 12.7102 6.26758C12.849 6.26758 12.9685 6.31758 13.0685 6.41758C13.1685 6.51758 13.2185 6.63702 13.2185 6.77591C13.2185 6.9148 13.1685 7.03424 13.0685 7.13424L6.65182 13.5509C6.59627 13.6065 6.54071 13.6454 6.48516 13.6676C6.4296 13.6898 6.36849 13.7009 6.30182 13.7009Z" fill="#00101F"/>
<rect x="24" width="140" height="8" rx="2" fill="#282C32"/>
<rect x="24" y="12" width="67.6396" height="8" rx="2" fill="#282C32"/>
<rect y="38" width="16" height="16" rx="4" fill="#4DA7FF"/>
<path d="M3.83203 46.5C3.68759 46.5 3.56814 46.4528 3.4737 46.3583C3.37925 46.2639 3.33203 46.1444 3.33203 46C3.33203 45.8556 3.37925 45.7361 3.4737 45.6417C3.56814 45.5472 3.68759 45.5 3.83203 45.5H12.1654C12.3098 45.5 12.4293 45.5472 12.5237 45.6417C12.6181 45.7361 12.6654 45.8556 12.6654 46C12.6654 46.1444 12.6181 46.2639 12.5237 46.3583C12.4293 46.4528 12.3098 46.5 12.1654 46.5H3.83203Z" fill="#00101F"/>
<rect x="24" y="36" width="140" height="8" rx="2" fill="#282C32"/>
<rect x="24" y="48" width="67.6396" height="8" rx="2" fill="#282C32"/>
<rect x="0.5" y="74.5" width="15" height="15" rx="3.5" stroke="#505763"/>
<rect x="24" y="72" width="140" height="8" rx="2" fill="#282C32"/>
<rect x="24" y="84" width="67.6396" height="8" rx="2" fill="#282C32"/>
</svg>
