<svg width="200" height="92" viewBox="0 0 200 92" fill="none" xmlns="http://www.w3.org/2000/svg">
<path d="M9.632 19.144C8.824 19.144 8.104 18.96 7.472 18.592C6.848 18.216 6.356 17.704 5.996 17.056C5.644 16.4 5.468 15.648 5.468 14.8C5.468 13.952 5.644 13.204 5.996 12.556C6.356 11.9 6.848 11.388 7.472 11.02C8.096 10.644 8.812 10.456 9.62 10.456C10.164 10.456 10.676 10.556 11.156 10.756C11.636 10.948 12.06 11.216 12.428 11.56C12.804 11.904 13.092 12.304 13.292 12.76L12.02 13.276C11.876 12.972 11.68 12.704 11.432 12.472C11.192 12.232 10.916 12.048 10.604 11.92C10.292 11.792 9.964 11.728 9.62 11.728C9.092 11.728 8.62 11.86 8.204 12.124C7.796 12.388 7.472 12.752 7.232 13.216C7 13.672 6.884 14.2 6.884 14.8C6.884 15.4 7 15.932 7.232 16.396C7.472 16.86 7.8 17.224 8.216 17.488C8.64 17.752 9.12 17.884 9.656 17.884C10.008 17.884 10.336 17.816 10.64 17.68C10.952 17.536 11.228 17.34 11.468 17.092C11.716 16.844 11.912 16.556 12.056 16.228L13.328 16.744C13.128 17.216 12.844 17.636 12.476 18.004C12.108 18.364 11.68 18.644 11.192 18.844C10.704 19.044 10.184 19.144 9.632 19.144ZM17.1759 19.144C16.5759 19.144 16.0399 19.012 15.5679 18.748C15.1039 18.476 14.7399 18.104 14.4759 17.632C14.2119 17.16 14.0799 16.616 14.0799 16C14.0799 15.384 14.2079 14.84 14.4639 14.368C14.7279 13.896 15.0919 13.528 15.5559 13.264C16.0199 12.992 16.5519 12.856 17.1519 12.856C17.7519 12.856 18.2839 12.992 18.7479 13.264C19.2119 13.528 19.5719 13.896 19.8279 14.368C20.0919 14.84 20.2239 15.384 20.2239 16C20.2239 16.616 20.0959 17.16 19.8399 17.632C19.5839 18.104 19.2239 18.476 18.7599 18.748C18.2959 19.012 17.7679 19.144 17.1759 19.144ZM17.1759 17.908C17.5039 17.908 17.7959 17.828 18.0519 17.668C18.3079 17.5 18.5079 17.276 18.6519 16.996C18.7959 16.708 18.8679 16.376 18.8679 16C18.8679 15.624 18.7919 15.296 18.6399 15.016C18.4959 14.728 18.2959 14.504 18.0399 14.344C17.7839 14.176 17.4879 14.092 17.1519 14.092C16.8159 14.092 16.5199 14.172 16.2639 14.332C16.0079 14.492 15.8079 14.716 15.6639 15.004C15.5199 15.292 15.4479 15.624 15.4479 16C15.4479 16.376 15.5199 16.708 15.6639 16.996C15.8159 17.276 16.0199 17.5 16.2759 17.668C16.5399 17.828 16.8399 17.908 17.1759 17.908ZM21.3885 19V10.6H22.7325V19H21.3885ZM24.2245 19V10.6H25.5685V19H24.2245ZM31.3924 19L31.3324 17.884V13H32.6644V19H31.3924ZM29.4364 19.144C28.8924 19.144 28.4164 19.016 28.0084 18.76C27.6084 18.496 27.2924 18.128 27.0604 17.656C26.8364 17.184 26.7244 16.632 26.7244 16C26.7244 15.36 26.8364 14.808 27.0604 14.344C27.2924 13.872 27.6084 13.508 28.0084 13.252C28.4164 12.988 28.8924 12.856 29.4364 12.856C29.9404 12.856 30.3724 12.988 30.7324 13.252C31.1004 13.508 31.3804 13.872 31.5724 14.344C31.7644 14.808 31.8604 15.36 31.8604 16C31.8604 16.632 31.7644 17.184 31.5724 17.656C31.3804 18.128 31.1004 18.496 30.7324 18.76C30.3724 19.016 29.9404 19.144 29.4364 19.144ZM29.7724 17.92C30.0764 17.92 30.3444 17.84 30.5764 17.68C30.8164 17.512 31.0004 17.284 31.1284 16.996C31.2644 16.708 31.3324 16.376 31.3324 16C31.3324 15.624 31.2644 15.292 31.1284 15.004C31.0004 14.716 30.8164 14.492 30.5764 14.332C30.3444 14.172 30.0724 14.092 29.7604 14.092C29.4404 14.092 29.1564 14.172 28.9084 14.332C28.6604 14.492 28.4644 14.716 28.3204 15.004C28.1844 15.292 28.1124 15.624 28.1044 16C28.1124 16.376 28.1844 16.708 28.3204 16.996C28.4644 17.284 28.6604 17.512 28.9084 17.68C29.1644 17.84 29.4524 17.92 29.7724 17.92ZM34.2103 21.4V13H35.4703L35.5543 14.104V21.4H34.2103ZM37.4503 19.144C36.9463 19.144 36.5103 19.016 36.1423 18.76C35.7823 18.496 35.5063 18.128 35.3143 17.656C35.1223 17.184 35.0263 16.632 35.0263 16C35.0263 15.36 35.1223 14.808 35.3143 14.344C35.5063 13.872 35.7823 13.508 36.1423 13.252C36.5103 12.988 36.9463 12.856 37.4503 12.856C37.9943 12.856 38.4663 12.988 38.8663 13.252C39.2743 13.508 39.5903 13.872 39.8143 14.344C40.0463 14.808 40.1623 15.36 40.1623 16C40.1623 16.632 40.0463 17.184 39.8143 17.656C39.5903 18.128 39.2743 18.496 38.8663 18.76C38.4663 19.016 37.9943 19.144 37.4503 19.144ZM37.1143 17.92C37.4343 17.92 37.7183 17.84 37.9663 17.68C38.2143 17.512 38.4103 17.284 38.5543 16.996C38.7063 16.708 38.7823 16.376 38.7823 16C38.7823 15.624 38.7103 15.292 38.5663 15.004C38.4303 14.716 38.2383 14.492 37.9903 14.332C37.7423 14.172 37.4543 14.092 37.1263 14.092C36.8223 14.092 36.5503 14.172 36.3103 14.332C36.0703 14.492 35.8823 14.716 35.7463 15.004C35.6183 15.292 35.5543 15.624 35.5543 16C35.5543 16.376 35.6183 16.708 35.7463 16.996C35.8823 17.284 36.0663 17.512 36.2983 17.68C36.5383 17.84 36.8103 17.92 37.1143 17.92ZM43.4944 19.144C43.0944 19.144 42.7264 19.084 42.3904 18.964C42.0544 18.844 41.7664 18.676 41.5264 18.46C41.2864 18.236 41.1024 17.976 40.9744 17.68L42.1384 17.164C42.2584 17.388 42.4344 17.576 42.6664 17.728C42.9064 17.88 43.1704 17.956 43.4584 17.956C43.7704 17.956 44.0184 17.904 44.2024 17.8C44.3944 17.688 44.4904 17.536 44.4904 17.344C44.4904 17.16 44.4184 17.02 44.2744 16.924C44.1304 16.82 43.9264 16.736 43.6624 16.672L43.0984 16.516C42.5304 16.372 42.0864 16.144 41.7664 15.832C41.4464 15.512 41.2864 15.148 41.2864 14.74C41.2864 14.14 41.4784 13.676 41.8624 13.348C42.2544 13.02 42.8144 12.856 43.5424 12.856C43.9104 12.856 44.2464 12.912 44.5504 13.024C44.8624 13.128 45.1304 13.28 45.3544 13.48C45.5784 13.672 45.7344 13.9 45.8224 14.164L44.7064 14.668C44.6264 14.468 44.4744 14.316 44.2504 14.212C44.0264 14.1 43.7784 14.044 43.5064 14.044C43.2344 14.044 43.0224 14.104 42.8704 14.224C42.7184 14.336 42.6424 14.496 42.6424 14.704C42.6424 14.824 42.7104 14.936 42.8464 15.04C42.9824 15.136 43.1784 15.216 43.4344 15.28L44.1424 15.448C44.5344 15.544 44.8544 15.696 45.1024 15.904C45.3504 16.104 45.5344 16.332 45.6544 16.588C45.7744 16.836 45.8344 17.088 45.8344 17.344C45.8344 17.704 45.7304 18.02 45.5224 18.292C45.3224 18.564 45.0464 18.776 44.6944 18.928C44.3424 19.072 43.9424 19.144 43.4944 19.144ZM49.5763 19.144C48.9923 19.144 48.4723 19.012 48.0163 18.748C47.5683 18.476 47.2123 18.104 46.9482 17.632C46.6923 17.16 46.5643 16.616 46.5643 16C46.5643 15.384 46.6963 14.84 46.9603 14.368C47.2243 13.896 47.5843 13.528 48.0403 13.264C48.5043 12.992 49.0323 12.856 49.6243 12.856C50.1603 12.856 50.6443 12.996 51.0763 13.276C51.5083 13.548 51.8483 13.944 52.0963 14.464C52.3523 14.984 52.4803 15.604 52.4803 16.324H47.7643L47.9443 16.156C47.9443 16.524 48.0243 16.844 48.1843 17.116C48.3443 17.38 48.5563 17.584 48.8203 17.728C49.0843 17.872 49.3763 17.944 49.6963 17.944C50.0643 17.944 50.3683 17.864 50.6083 17.704C50.8483 17.536 51.0363 17.32 51.1723 17.056L52.3603 17.56C52.1923 17.88 51.9763 18.16 51.7123 18.4C51.4563 18.64 51.1483 18.824 50.7883 18.952C50.4363 19.08 50.0323 19.144 49.5763 19.144ZM48.0283 15.46L47.8363 15.292H51.2203L51.0403 15.46C51.0403 15.132 50.9683 14.864 50.8243 14.656C50.6803 14.44 50.4963 14.28 50.2723 14.176C50.0563 14.064 49.8283 14.008 49.5883 14.008C49.3483 14.008 49.1083 14.064 48.8683 14.176C48.6283 14.28 48.4283 14.44 48.2683 14.656C48.1083 14.864 48.0283 15.132 48.0283 15.46Z" fill="#0074E6"/>
<path d="M61.9138 16.8934C61.8138 16.7684 61.7606 16.6309 61.7544 16.4809C61.7481 16.3309 61.8013 16.1996 61.9138 16.0871L65.6075 12.3934C65.67 12.3309 65.7325 12.2871 65.795 12.2621C65.8575 12.2371 65.9263 12.2246 66.0013 12.2246C66.0763 12.2246 66.145 12.2371 66.2075 12.2621C66.27 12.2871 66.3325 12.3309 66.395 12.3934L70.1075 16.1059C70.2075 16.2059 70.2575 16.334 70.2575 16.4902C70.2575 16.6465 70.2013 16.7809 70.0888 16.8934C69.9763 17.0059 69.8419 17.0621 69.6857 17.0621C69.5294 17.0621 69.395 17.0059 69.2825 16.8934L66.0013 13.6121L62.72 16.8934C62.6075 17.0059 62.4763 17.059 62.3263 17.0527C62.1763 17.0465 62.0388 16.9934 61.9138 16.8934Z" fill="#0074E6"/>
<rect y="38" width="200" height="54" rx="8" fill="white"/>
<rect x="0.5" y="38.5" width="199" height="53" rx="7.5" stroke="#C9D0DE" stroke-opacity="0.6"/>
<rect x="8" y="46" width="109.748" height="10" rx="2" fill="#C9D0DE"/>
<rect x="8" y="64" width="149" height="8" rx="2" fill="#EFF2F8"/>
<rect x="8" y="76" width="120" height="8" rx="2" fill="#EFF2F8"/>
</svg>
