<svg width="200" height="36" viewBox="0 0 200 36" fill="none" xmlns="http://www.w3.org/2000/svg">
<rect width="200" height="36" rx="8" fill="#1D2025"/>
<rect x="0.5" y="0.5" width="199" height="35" rx="7.5" stroke="#1D2025" stroke-opacity="0.6" stroke-linecap="round"/>
<path d="M9.068 22V13.6H10.244V20.92H14.144V22H9.068ZM19.477 22L19.429 20.884V16H20.557V22H19.477ZM17.461 22.144C16.917 22.144 16.441 22.012 16.033 21.748C15.633 21.484 15.317 21.116 15.085 20.644C14.861 20.172 14.749 19.624 14.749 19C14.749 18.368 14.861 17.82 15.085 17.356C15.317 16.884 15.633 16.516 16.033 16.252C16.441 15.988 16.917 15.856 17.461 15.856C17.965 15.856 18.401 15.988 18.769 16.252C19.145 16.516 19.433 16.884 19.633 17.356C19.833 17.82 19.933 18.368 19.933 19C19.933 19.624 19.833 20.172 19.633 20.644C19.433 21.116 19.145 21.484 18.769 21.748C18.401 22.012 17.965 22.144 17.461 22.144ZM17.725 21.112C18.061 21.112 18.357 21.024 18.613 20.848C18.869 20.664 19.069 20.416 19.213 20.104C19.357 19.784 19.429 19.416 19.429 19C19.429 18.584 19.357 18.22 19.213 17.908C19.069 17.588 18.869 17.34 18.613 17.164C18.357 16.98 18.057 16.888 17.713 16.888C17.361 16.888 17.049 16.98 16.777 17.164C16.505 17.34 16.293 17.588 16.141 17.908C15.989 18.22 15.913 18.584 15.913 19C15.913 19.416 15.989 19.784 16.141 20.104C16.301 20.416 16.517 20.664 16.789 20.848C17.061 21.024 17.373 21.112 17.725 21.112ZM22.1397 22V13.6H23.2797V20.884L23.2197 22H22.1397ZM25.2477 22.144C24.7437 22.144 24.3037 22.012 23.9277 21.748C23.5597 21.484 23.2757 21.116 23.0757 20.644C22.8757 20.172 22.7757 19.624 22.7757 19C22.7757 18.368 22.8757 17.82 23.0757 17.356C23.2757 16.884 23.5597 16.516 23.9277 16.252C24.3037 15.988 24.7437 15.856 25.2477 15.856C25.7837 15.856 26.2557 15.988 26.6637 16.252C27.0717 16.516 27.3877 16.884 27.6117 17.356C27.8437 17.82 27.9597 18.368 27.9597 19C27.9597 19.624 27.8437 20.172 27.6117 20.644C27.3877 21.116 27.0717 21.484 26.6637 21.748C26.2557 22.012 25.7837 22.144 25.2477 22.144ZM24.9717 21.112C25.3317 21.112 25.6477 21.024 25.9197 20.848C26.1917 20.664 26.4037 20.416 26.5557 20.104C26.7157 19.784 26.7957 19.416 26.7957 19C26.7957 18.584 26.7197 18.22 26.5677 17.908C26.4157 17.588 26.2037 17.34 25.9317 17.164C25.6597 16.98 25.3437 16.888 24.9837 16.888C24.6557 16.888 24.3597 16.98 24.0957 17.164C23.8397 17.34 23.6397 17.588 23.4957 17.908C23.3517 18.228 23.2797 18.592 23.2797 19C23.2797 19.416 23.3517 19.784 23.4957 20.104C23.6397 20.416 23.8397 20.664 24.0957 20.848C24.3517 21.024 24.6437 21.112 24.9717 21.112ZM31.8581 22.144C31.2741 22.144 30.7581 22.012 30.3101 21.748C29.8621 21.476 29.5101 21.104 29.2541 20.632C28.9981 20.16 28.8701 19.616 28.8701 19C28.8701 18.384 28.9981 17.84 29.2541 17.368C29.5101 16.896 29.8621 16.528 30.3101 16.264C30.7661 15.992 31.2861 15.856 31.8701 15.856C32.4221 15.856 32.9061 15.996 33.3221 16.276C33.7381 16.548 34.0621 16.94 34.2941 17.452C34.5341 17.956 34.6541 18.552 34.6541 19.24H29.8061L30.0221 19.06C30.0221 19.484 30.1061 19.852 30.2741 20.164C30.4421 20.476 30.6701 20.716 30.9581 20.884C31.2461 21.044 31.5741 21.124 31.9421 21.124C32.3421 21.124 32.6741 21.032 32.9381 20.848C33.2101 20.656 33.4221 20.416 33.5741 20.128L34.5581 20.584C34.3981 20.896 34.1901 21.172 33.9341 21.412C33.6781 21.644 33.3741 21.824 33.0221 21.952C32.6781 22.08 32.2901 22.144 31.8581 22.144ZM30.0941 18.52L29.8661 18.34H33.6581L33.4421 18.52C33.4421 18.168 33.3701 17.868 33.2261 17.62C33.0821 17.364 32.8901 17.172 32.6501 17.044C32.4101 16.908 32.1421 16.84 31.8461 16.84C31.5581 16.84 31.2781 16.908 31.0061 17.044C30.7421 17.172 30.5221 17.36 30.3461 17.608C30.1781 17.856 30.0941 18.16 30.0941 18.52ZM35.7803 22V13.6H36.9203V22H35.7803Z" fill="#A4ABB9"/>
<rect x="143" width="1" height="36" fill="#1D2025" fill-opacity="0.6"/>
<rect x="152" y="10" width="40" height="16" rx="2" fill="#505763"/>
</svg>
