<svg width="33" height="24" viewBox="0 0 33 24" fill="none" xmlns="http://www.w3.org/2000/svg">
<path d="M1.86 19V5H3.56V17.46H10.16V19H1.86ZM10.8906 19V9H12.4906V19H10.8906ZM11.7106 6.68C11.444 6.68 11.2106 6.58 11.0106 6.38C10.8106 6.18 10.7106 5.94667 10.7106 5.68C10.7106 5.4 10.8106 5.16667 11.0106 4.98C11.2106 4.78 11.444 4.68 11.7106 4.68C11.9906 4.68 12.224 4.78 12.4106 4.98C12.6106 5.16667 12.7106 5.4 12.7106 5.68C12.7106 5.94667 12.6106 6.18 12.4106 6.38C12.224 6.58 11.9906 6.68 11.7106 6.68ZM14.4391 19V9H15.9391L16.0391 10.84V19H14.4391ZM21.4591 19V13.88H23.0591V19H21.4591ZM21.4591 13.88C21.4591 12.8933 21.3457 12.14 21.1191 11.62C20.8924 11.1 20.5791 10.7467 20.1791 10.56C19.7791 10.36 19.3257 10.26 18.8191 10.26C17.9391 10.26 17.2524 10.5733 16.7591 11.2C16.2791 11.8133 16.0391 12.6867 16.0391 13.82H15.2591C15.2591 12.7667 15.4124 11.86 15.7191 11.1C16.0257 10.34 16.4724 9.76 17.0591 9.36C17.6457 8.96 18.3524 8.76 19.1791 8.76C19.9657 8.76 20.6457 8.92 21.2191 9.24C21.8057 9.54667 22.2591 10.04 22.5791 10.72C22.9124 11.4 23.0724 12.2933 23.0591 13.4V13.88H21.4591ZM26.1514 15.78L25.1314 14.68L30.4514 9H32.4714L26.1514 15.78ZM24.5914 19V5H26.1914V19H24.5914ZM30.8914 19L27.0914 13.26L28.1314 12.14L32.8714 19H30.8914Z" fill="#4DA7FF"/>
<path d="M0 21.5H32.8914V22.5H0V21.5Z" fill="#4DA7FF"/>
</svg>
