<svg width="202" height="106" viewBox="0 0 202 106" fill="none" xmlns="http://www.w3.org/2000/svg">
<rect x="0.5" y="0.5" width="201" height="105" rx="8.5" stroke="#1D2025" stroke-opacity="0.6"/>
<path d="M1 9C1 4.58172 4.58172 1 9 1H193C197.418 1 201 4.58172 201 9V21H1V9Z" fill="#111317"/>
<path d="M9 9.2C9 8.53726 9.53726 8 10.2 8H62.2492C62.912 8 63.4492 8.53726 63.4492 9.2V12.8C63.4492 13.4627 62.912 14 62.2492 14H10.2C9.53726 14 9 13.4627 9 12.8V9.2Z" fill="#505763"/>
<path d="M87.4492 9.2C87.4492 8.53726 87.9865 8 88.6492 8H110.766C111.429 8 111.966 8.53726 111.966 9.2V12.8C111.966 13.4627 111.429 14 110.766 14H88.6492C87.9865 14 87.4492 13.4627 87.4492 12.8V9.2Z" fill="#505763"/>
<path d="M127.965 9.2C127.965 8.53726 128.502 8 129.165 8H151.282C151.945 8 152.482 8.53726 152.482 9.2V12.8C152.482 13.4627 151.945 14 151.282 14H129.165C128.502 14 127.965 13.4627 127.965 12.8V9.2Z" fill="#505763"/>
<path d="M168.484 9.2C168.484 8.53726 169.022 8 169.684 8H191.801C192.464 8 193.001 8.53726 193.001 9.2V12.8C193.001 13.4627 192.464 14 191.801 14H169.684C169.022 14 168.484 13.4627 168.484 12.8V9.2Z" fill="#505763"/>
<rect x="1" y="21" width="200" height="1" fill="#1D2025" fill-opacity="0.6"/>
<rect width="200" height="20" transform="translate(1 22)" fill="#07080A"/>
<path d="M9 30.2C9 29.5373 9.53726 29 10.2 29H62.2492C62.912 29 63.4492 29.5373 63.4492 30.2V33.8C63.4492 34.4627 62.912 35 62.2492 35H10.2C9.53726 35 9 34.4627 9 33.8V30.2Z" fill="#282C32"/>
<path d="M87.4492 30.2C87.4492 29.5373 87.9865 29 88.6492 29H110.766C111.429 29 111.966 29.5373 111.966 30.2V33.8C111.966 34.4627 111.429 35 110.766 35H88.6492C87.9865 35 87.4492 34.4627 87.4492 33.8V30.2Z" fill="#282C32"/>
<path d="M127.965 30.2C127.965 29.5373 128.502 29 129.165 29H151.282C151.945 29 152.482 29.5373 152.482 30.2V33.8C152.482 34.4627 151.945 35 151.282 35H129.165C128.502 35 127.965 34.4627 127.965 33.8V30.2Z" fill="#282C32"/>
<path d="M168.484 31C168.484 29.8954 169.38 29 170.484 29H191.001C192.106 29 193.001 29.8954 193.001 31V33C193.001 34.1046 192.106 35 191.001 35H170.484C169.38 35 168.484 34.1046 168.484 33V31Z" fill="#1E90FF"/>
<rect x="1" y="42" width="200" height="1" fill="#1D2025" fill-opacity="0.6"/>
<rect width="200" height="20" transform="translate(1 43)" fill="#07080A"/>
<path d="M9 51.2C9 50.5373 9.53726 50 10.2 50H62.2492C62.912 50 63.4492 50.5373 63.4492 51.2V54.8C63.4492 55.4627 62.912 56 62.2492 56H10.2C9.53726 56 9 55.4627 9 54.8V51.2Z" fill="#282C32"/>
<path d="M87.4492 51.2C87.4492 50.5373 87.9865 50 88.6492 50H110.766C111.429 50 111.966 50.5373 111.966 51.2V54.8C111.966 55.4627 111.429 56 110.766 56H88.6492C87.9865 56 87.4492 55.4627 87.4492 54.8V51.2Z" fill="#282C32"/>
<path d="M127.965 51.2C127.965 50.5373 128.502 50 129.165 50H151.282C151.945 50 152.482 50.5373 152.482 51.2V54.8C152.482 55.4627 151.945 56 151.282 56H129.165C128.502 56 127.965 55.4627 127.965 54.8V51.2Z" fill="#282C32"/>
<path d="M168.484 52C168.484 50.8954 169.38 50 170.484 50H191.001C192.106 50 193.001 50.8954 193.001 52V54C193.001 55.1046 192.106 56 191.001 56H170.484C169.38 56 168.484 55.1046 168.484 54V52Z" fill="#1E90FF"/>
<rect x="1" y="63" width="200" height="1" fill="#1D2025" fill-opacity="0.6"/>
<rect width="200" height="20" transform="translate(1 64)" fill="#07080A"/>
<path d="M9 72.2C9 71.5373 9.53726 71 10.2 71H62.2492C62.912 71 63.4492 71.5373 63.4492 72.2V75.8C63.4492 76.4627 62.912 77 62.2492 77H10.2C9.53726 77 9 76.4627 9 75.8V72.2Z" fill="#282C32"/>
<path d="M87.4492 72.2C87.4492 71.5373 87.9865 71 88.6492 71H110.766C111.429 71 111.966 71.5373 111.966 72.2V75.8C111.966 76.4627 111.429 77 110.766 77H88.6492C87.9865 77 87.4492 76.4627 87.4492 75.8V72.2Z" fill="#282C32"/>
<path d="M127.965 72.2C127.965 71.5373 128.502 71 129.165 71H151.282C151.945 71 152.482 71.5373 152.482 72.2V75.8C152.482 76.4627 151.945 77 151.282 77H129.165C128.502 77 127.965 76.4627 127.965 75.8V72.2Z" fill="#282C32"/>
<path d="M168.484 73C168.484 71.8954 169.38 71 170.484 71H191.001C192.106 71 193.001 71.8954 193.001 73V75C193.001 76.1046 192.106 77 191.001 77H170.484C169.38 77 168.484 76.1046 168.484 75V73Z" fill="#1E90FF"/>
<rect x="1" y="84" width="200" height="1" fill="#1D2025" fill-opacity="0.6"/>
<path d="M1 85H201V97C201 101.418 197.418 105 193 105H9C4.58173 105 1 101.418 1 97V85Z" fill="#07080A"/>
<path d="M9 93.2C9 92.5373 9.53726 92 10.2 92H62.2492C62.912 92 63.4492 92.5373 63.4492 93.2V96.8C63.4492 97.4627 62.912 98 62.2492 98H10.2C9.53726 98 9 97.4627 9 96.8V93.2Z" fill="#282C32"/>
<path d="M87.4492 93.2C87.4492 92.5373 87.9865 92 88.6492 92H110.766C111.429 92 111.966 92.5373 111.966 93.2V96.8C111.966 97.4627 111.429 98 110.766 98H88.6492C87.9865 98 87.4492 97.4627 87.4492 96.8V93.2Z" fill="#282C32"/>
<path d="M127.965 93.2C127.965 92.5373 128.502 92 129.165 92H151.282C151.945 92 152.482 92.5373 152.482 93.2V96.8C152.482 97.4627 151.945 98 151.282 98H129.165C128.502 98 127.965 97.4627 127.965 96.8V93.2Z" fill="#282C32"/>
<path d="M168.484 94C168.484 92.8954 169.38 92 170.484 92H191.001C192.106 92 193.001 92.8954 193.001 94V96C193.001 97.1046 192.106 98 191.001 98H170.484C169.38 98 168.484 97.1046 168.484 96V94Z" fill="#1E90FF"/>
</svg>
