<svg width="200" height="36" viewBox="0 0 200 36" fill="none" xmlns="http://www.w3.org/2000/svg">
<rect x="0.5" y="0.5" width="199" height="35" rx="7.5" fill="#EFF2F8"/>
<rect x="0.5" y="0.5" width="199" height="35" rx="7.5" stroke="#C9D0DE"/>
<path d="M9.91667 25.4998C9.68056 25.4998 9.5 25.3957 9.375 25.1873C9.25 24.979 9.25 24.7707 9.375 24.5623L17.4583 10.604C17.5833 10.3957 17.7639 10.2915 18 10.2915C18.2361 10.2915 18.4167 10.3957 18.5417 10.604L26.625 24.5623C26.75 24.7707 26.75 24.979 26.625 25.1873C26.5 25.3957 26.3194 25.4998 26.0833 25.4998H9.91667ZM18.0833 16.0832C17.9028 16.0832 17.7535 16.1422 17.6354 16.2603C17.5174 16.3783 17.4583 16.5276 17.4583 16.7082V20.1248C17.4583 20.3054 17.5174 20.4547 17.6354 20.5728C17.7535 20.6908 17.9028 20.7498 18.0833 20.7498C18.2639 20.7498 18.4132 20.6908 18.5312 20.5728C18.6493 20.4547 18.7083 20.3054 18.7083 20.1248V16.7082C18.7083 16.5276 18.6493 16.3783 18.5312 16.2603C18.4132 16.1422 18.2639 16.0832 18.0833 16.0832ZM18.0833 23.0623C18.2639 23.0623 18.4132 23.0033 18.5312 22.8853C18.6493 22.7672 18.7083 22.6179 18.7083 22.4373C18.7083 22.2568 18.6493 22.1075 18.5312 21.9894C18.4132 21.8714 18.2639 21.8123 18.0833 21.8123C17.9028 21.8123 17.7535 21.8714 17.6354 21.9894C17.5174 22.1075 17.4583 22.2568 17.4583 22.4373C17.4583 22.6179 17.5174 22.7672 17.6354 22.8853C17.7535 23.0033 17.9028 23.0623 18.0833 23.0623ZM11 24.2498H25L18 12.1665L11 24.2498Z" fill="#505763"/>
<rect x="36" y="8.16504" width="97.2383" height="7.83496" rx="2" fill="#C9D0DE"/>
<rect x="36" y="20" width="64.7148" height="7.83496" rx="2" fill="#C9D0DE"/>
<path d="M182 18.704L178.48 22.2241C178.379 22.3247 178.262 22.375 178.128 22.375C177.994 22.375 177.876 22.3247 177.776 22.2241C177.675 22.1236 177.625 22.0062 177.625 21.8721C177.625 21.738 177.675 21.6207 177.776 21.5201L181.296 18L177.776 14.4799C177.675 14.3793 177.625 14.262 177.625 14.1279C177.625 13.9938 177.675 13.8764 177.776 13.7759C177.876 13.6753 177.994 13.625 178.128 13.625C178.262 13.625 178.379 13.6753 178.48 13.7759L182 17.296L185.52 13.7759C185.621 13.6753 185.738 13.625 185.872 13.625C186.006 13.625 186.124 13.6753 186.224 13.7759C186.325 13.8764 186.375 13.9938 186.375 14.1279C186.375 14.262 186.325 14.3793 186.224 14.4799L182.704 18L186.224 21.5201C186.325 21.6207 186.375 21.738 186.375 21.8721C186.375 22.0062 186.325 22.1236 186.224 22.2241C186.124 22.3247 186.006 22.375 185.872 22.375C185.738 22.375 185.621 22.3247 185.52 22.2241L182 18.704Z" fill="#505763"/>
</svg>
