<svg width="200" height="79" viewBox="0 0 200 79" fill="none" xmlns="http://www.w3.org/2000/svg">
<rect x="69" width="62" height="34" rx="5" fill="#DFE4ED"/>
<path d="M84.308 21V13.524H81.632V12.6H87.992V13.524H85.316V21H84.308ZM90.8748 21.144C90.2908 21.144 89.7708 21.012 89.3148 20.748C88.8668 20.476 88.5148 20.104 88.2588 19.632C88.0028 19.16 87.8748 18.616 87.8748 18C87.8748 17.384 87.9988 16.84 88.2468 16.368C88.5028 15.896 88.8548 15.528 89.3028 15.264C89.7588 14.992 90.2748 14.856 90.8508 14.856C91.4428 14.856 91.9628 14.992 92.4108 15.264C92.8668 15.528 93.2188 15.896 93.4668 16.368C93.7228 16.84 93.8508 17.384 93.8508 18C93.8508 18.616 93.7228 19.16 93.4668 19.632C93.2188 20.104 92.8708 20.476 92.4228 20.748C91.9748 21.012 91.4588 21.144 90.8748 21.144ZM90.8748 20.256C91.2748 20.256 91.6228 20.16 91.9188 19.968C92.2148 19.776 92.4468 19.512 92.6148 19.176C92.7908 18.84 92.8788 18.448 92.8788 18C92.8788 17.552 92.7908 17.16 92.6148 16.824C92.4468 16.488 92.2108 16.224 91.9068 16.032C91.6028 15.84 91.2508 15.744 90.8508 15.744C90.4588 15.744 90.1108 15.84 89.8068 16.032C89.5108 16.224 89.2748 16.488 89.0988 16.824C88.9308 17.16 88.8468 17.552 88.8468 18C88.8468 18.44 88.9308 18.832 89.0988 19.176C89.2748 19.512 89.5148 19.776 89.8188 19.968C90.1308 20.16 90.4828 20.256 90.8748 20.256ZM97.8358 21.144C97.2518 21.144 96.7318 21.012 96.2758 20.748C95.8278 20.476 95.4758 20.104 95.2198 19.632C94.9638 19.16 94.8358 18.616 94.8358 18C94.8358 17.384 94.9598 16.84 95.2078 16.368C95.4638 15.896 95.8158 15.528 96.2638 15.264C96.7198 14.992 97.2358 14.856 97.8118 14.856C98.4038 14.856 98.9238 14.992 99.3718 15.264C99.8278 15.528 100.18 15.896 100.428 16.368C100.684 16.84 100.812 17.384 100.812 18C100.812 18.616 100.684 19.16 100.428 19.632C100.18 20.104 99.8318 20.476 99.3838 20.748C98.9358 21.012 98.4198 21.144 97.8358 21.144ZM97.8358 20.256C98.2358 20.256 98.5838 20.16 98.8798 19.968C99.1758 19.776 99.4078 19.512 99.5758 19.176C99.7518 18.84 99.8398 18.448 99.8398 18C99.8398 17.552 99.7518 17.16 99.5758 16.824C99.4078 16.488 99.1718 16.224 98.8678 16.032C98.5638 15.84 98.2118 15.744 97.8118 15.744C97.4198 15.744 97.0718 15.84 96.7678 16.032C96.4718 16.224 96.2358 16.488 96.0598 16.824C95.8918 17.16 95.8078 17.552 95.8078 18C95.8078 18.44 95.8918 18.832 96.0598 19.176C96.2358 19.512 96.4758 19.776 96.7798 19.968C97.0918 20.16 97.4438 20.256 97.8358 20.256ZM102.145 21V12.6H103.105V21H102.145ZM107.037 21.144C106.453 21.144 106.001 20.992 105.681 20.688C105.361 20.384 105.201 19.956 105.201 19.404V13.128H106.161V19.308C106.161 19.612 106.241 19.848 106.401 20.016C106.569 20.176 106.801 20.256 107.097 20.256C107.193 20.256 107.285 20.244 107.373 20.22C107.469 20.188 107.593 20.116 107.745 20.004L108.117 20.784C107.909 20.92 107.721 21.012 107.553 21.06C107.385 21.116 107.213 21.144 107.037 21.144ZM104.157 15.852V15H107.961V15.852H104.157ZM109.377 21V15H110.337V21H109.377ZM109.869 13.608C109.709 13.608 109.569 13.548 109.449 13.428C109.329 13.308 109.269 13.168 109.269 13.008C109.269 12.84 109.329 12.7 109.449 12.588C109.569 12.468 109.709 12.408 109.869 12.408C110.037 12.408 110.177 12.468 110.289 12.588C110.409 12.7 110.469 12.84 110.469 13.008C110.469 13.168 110.409 13.308 110.289 13.428C110.177 13.548 110.037 13.608 109.869 13.608ZM112.166 23.4V15H113.066L113.126 16.104V23.4H112.166ZM115.154 21.144C114.65 21.144 114.206 21.012 113.822 20.748C113.446 20.484 113.154 20.116 112.946 19.644C112.738 19.164 112.634 18.616 112.634 18C112.634 17.376 112.738 16.828 112.946 16.356C113.154 15.884 113.446 15.516 113.822 15.252C114.206 14.988 114.65 14.856 115.154 14.856C115.69 14.856 116.162 14.988 116.57 15.252C116.978 15.516 117.294 15.884 117.518 16.356C117.75 16.828 117.866 17.376 117.866 18C117.866 18.616 117.75 19.164 117.518 19.644C117.294 20.116 116.978 20.484 116.57 20.748C116.162 21.012 115.69 21.144 115.154 21.144ZM114.938 20.268C115.314 20.268 115.646 20.172 115.934 19.98C116.23 19.788 116.462 19.52 116.63 19.176C116.806 18.832 116.894 18.44 116.894 18C116.894 17.56 116.81 17.168 116.642 16.824C116.482 16.48 116.254 16.212 115.958 16.02C115.662 15.828 115.326 15.732 114.95 15.732C114.598 15.732 114.282 15.828 114.002 16.02C113.73 16.212 113.514 16.48 113.354 16.824C113.202 17.168 113.126 17.56 113.126 18C113.126 18.44 113.202 18.832 113.354 19.176C113.514 19.52 113.73 19.788 114.002 19.98C114.274 20.172 114.586 20.268 114.938 20.268Z" fill="#1D2025"/>
<path d="M98.5344 39.4217C99.3257 40.2738 100.674 40.2738 101.466 39.4217L106.5 34L93.5 34L98.5344 39.4217Z" fill="#DFE4ED"/>
<rect x="14" y="47" width="172" height="32" rx="8" fill="#EFF2F8"/>
</svg>
