<svg width="200" height="112" viewBox="0 0 200 112" fill="none" xmlns="http://www.w3.org/2000/svg">
<rect width="200" height="112" rx="8" fill="#1D2025"/>
<rect x="0.5" y="0.5" width="199" height="111" rx="7.5" stroke="#1D2025" stroke-opacity="0.6"/>
<path d="M96.768 52.1667V59.8334C96.768 60.2334 96.9402 60.5334 97.2846 60.7334C97.6291 60.9334 97.968 60.9223 98.3013 60.7001L104.335 56.8334C104.646 56.6334 104.801 56.3556 104.801 56.0001C104.801 55.6445 104.646 55.3667 104.335 55.1667L98.3013 51.3001C97.968 51.0779 97.6291 51.0667 97.2846 51.2667C96.9402 51.4667 96.768 51.7667 96.768 52.1667ZM100.001 69.3334C98.1791 69.3334 96.4569 68.9834 94.8346 68.2834C93.2124 67.5834 91.7957 66.6279 90.5846 65.4167C89.3735 64.2056 88.418 62.789 87.718 61.1667C87.018 59.5445 86.668 57.8223 86.668 56.0001C86.668 54.1779 87.018 52.4556 87.718 50.8334C88.418 49.2112 89.3735 47.7945 90.5846 46.5834C91.7957 45.3723 93.2124 44.4167 94.8346 43.7167C96.4569 43.0167 98.1791 42.6667 100.001 42.6667C101.824 42.6667 103.546 43.0167 105.168 43.7167C106.79 44.4167 108.207 45.3723 109.418 46.5834C110.629 47.7945 111.585 49.2112 112.285 50.8334C112.985 52.4556 113.335 54.1779 113.335 56.0001C113.335 57.8223 112.985 59.5445 112.285 61.1667C111.585 62.789 110.629 64.2056 109.418 65.4167C108.207 66.6279 106.79 67.5834 105.168 68.2834C103.546 68.9834 101.824 69.3334 100.001 69.3334ZM100.001 67.3334C103.112 67.3334 105.779 66.2223 108.001 64.0001C110.224 61.7779 111.335 59.1112 111.335 56.0001C111.335 52.889 110.224 50.2223 108.001 48.0001C105.779 45.7779 103.112 44.6667 100.001 44.6667C96.8902 44.6667 94.2235 45.7779 92.0013 48.0001C89.7791 50.2223 88.668 52.889 88.668 56.0001C88.668 59.1112 89.7791 61.7779 92.0013 64.0001C94.2235 66.2223 96.8902 67.3334 100.001 67.3334Z" fill="#A4ABB9"/>
</svg>
